<svg xmlns="http://www.w3.org/2000/svg" xmlns:xlink="http://www.w3.org/1999/xlink" width="1200" zoomAndPan="magnify" viewBox="0 0 900 449.999984" height="600" preserveAspectRatio="xMidYMid meet" version="1.0"><defs><g/><clipPath id="8d35912839"><path d="M 104 156 L 144 156 L 144 176.027344 L 104 176.027344 Z M 104 156 " clip-rule="nonzero"/></clipPath><clipPath id="beebbdaa4b"><path d="M 102.964844 145.277344 L 144.964844 145.277344 L 144.964844 166 L 102.964844 166 Z M 102.964844 145.277344 " clip-rule="nonzero"/></clipPath><clipPath id="5d39936187"><path d="M 138 276 L 171.964844 276 L 171.964844 306.75 L 138 306.75 Z M 138 276 " clip-rule="nonzero"/></clipPath></defs><rect x="-90" width="1080" fill="#ffffff" y="-44.999998" height="539.99998" fill-opacity="1"/><rect x="-90" width="1080" fill="#ffffff" y="-44.999998" height="539.99998" fill-opacity="1"/><rect x="-90" width="1080" fill="#f1f1f1" y="-44.999998" height="539.99998" fill-opacity="1"/><path stroke-linecap="butt" transform="matrix(0.749615, -0.00294159, 0.00294307, 0.749994, 45.000013, 102.301038)" fill="none" stroke-linejoin="miter" d="M -0.00197876 0.499653 L 433.220165 0.500883 " stroke="#000000" stroke-width="1" stroke-opacity="1" stroke-miterlimit="4"/><g clip-path="url(#8d35912839)"><path fill="#000000" d="M 123.964844 176.011719 L 104.652344 176.011719 C 104.652344 172.3125 105.6875 168.851562 107.5 165.914062 C 108.277344 166.152344 109.101562 166.277344 109.964844 166.277344 C 114.6875 166.277344 118.527344 162.441406 118.527344 157.71875 L 118.527344 157.492188 C 120.25 156.992188 122.074219 156.71875 123.964844 156.71875 C 125.863281 156.71875 127.6875 156.992188 129.425781 157.503906 C 129.414062 157.707031 129.402344 157.894531 129.402344 158.09375 C 129.402344 162.816406 133.238281 166.652344 137.964844 166.652344 C 138.886719 166.652344 139.777344 166.5 140.613281 166.238281 C 142.300781 169.113281 143.277344 172.449219 143.277344 176.023438 L 123.964844 176.023438 Z M 123.964844 160.855469 C 127.164062 160.855469 129.75 163.441406 129.75 166.640625 C 129.75 169.839844 127.164062 172.425781 123.964844 172.425781 C 120.761719 172.425781 118.175781 169.839844 118.175781 166.640625 C 118.175781 163.441406 120.761719 160.855469 123.964844 160.855469 Z M 123.964844 160.855469 " fill-opacity="1" fill-rule="evenodd"/></g><g clip-path="url(#beebbdaa4b)"><path fill="#000000" d="M 116.1875 154.519531 C 116.6875 155.480469 116.964844 156.570312 116.964844 157.730469 C 116.964844 161.589844 113.824219 164.726562 109.964844 164.726562 C 106.101562 164.726562 102.964844 161.589844 102.964844 157.730469 C 102.964844 156.492188 103.289062 155.34375 103.839844 154.332031 C 106.324219 149.109375 114.386719 145.285156 123.964844 145.285156 C 134.726562 145.285156 143.589844 150.121094 144.738281 156.34375 C 144.886719 156.90625 144.964844 157.492188 144.964844 158.09375 C 144.964844 161.953125 141.824219 165.089844 137.964844 165.089844 C 134.101562 165.089844 130.964844 161.953125 130.964844 158.09375 C 130.964844 156.832031 131.300781 155.65625 131.875 154.644531 C 130.1875 153.105469 127.277344 152.09375 123.964844 152.09375 C 120.738281 152.09375 117.886719 153.058594 116.1875 154.519531 Z M 116.1875 154.519531 " fill-opacity="1" fill-rule="evenodd"/></g><g clip-path="url(#5d39936187)"><path fill="#000000" d="M 155.070312 276.03125 C 145.855469 276.03125 138.382812 281.898438 138.382812 289.140625 C 138.382812 293.824219 141.503906 297.929688 146.207031 300.25 L 144.507812 306.277344 C 144.507812 306.277344 144.472656 306.558594 144.65625 306.664062 C 144.839844 306.773438 145.054688 306.6875 145.054688 306.6875 C 145.578125 306.617188 151.144531 302.722656 152.109375 302.046875 C 153.070312 302.183594 154.0625 302.253906 155.074219 302.253906 C 164.289062 302.253906 171.761719 296.382812 171.761719 289.140625 C 171.761719 281.902344 164.289062 276.03125 155.074219 276.03125 Z M 155.070312 276.03125 " fill-opacity="1" fill-rule="nonzero"/></g><path fill="#ffe812" d="M 145.84375 293.71875 C 145.3125 293.71875 144.882812 293.304688 144.882812 292.800781 L 144.882812 287.097656 L 143.378906 287.097656 C 143.121094 287.09375 142.898438 287.003906 142.710938 286.820312 C 142.527344 286.636719 142.4375 286.414062 142.433594 286.15625 C 142.4375 285.898438 142.527344 285.675781 142.710938 285.492188 C 142.898438 285.308594 143.121094 285.21875 143.378906 285.21875 L 148.3125 285.21875 C 148.570312 285.21875 148.792969 285.308594 148.976562 285.492188 C 149.164062 285.675781 149.253906 285.898438 149.253906 286.15625 C 149.253906 286.414062 149.164062 286.636719 148.976562 286.820312 C 148.792969 287.003906 148.570312 287.09375 148.3125 287.097656 L 146.808594 287.097656 L 146.808594 292.800781 C 146.808594 293.304688 146.375 293.71875 145.84375 293.71875 Z M 154.289062 293.707031 C 153.886719 293.707031 153.578125 293.542969 153.484375 293.28125 L 153.011719 292.039062 L 150.074219 292.039062 L 149.597656 293.28125 C 149.507812 293.542969 149.199219 293.707031 148.796875 293.707031 C 148.585938 293.707031 148.378906 293.660156 148.1875 293.574219 C 147.921875 293.453125 147.664062 293.117188 147.957031 292.210938 L 150.257812 286.171875 C 150.421875 285.710938 150.914062 285.238281 151.542969 285.222656 C 152.171875 285.238281 152.664062 285.710938 152.824219 286.171875 L 155.128906 292.207031 C 155.421875 293.109375 155.167969 293.453125 154.898438 293.570312 C 154.707031 293.660156 154.5 293.703125 154.289062 293.703125 Z M 152.503906 290.339844 L 151.542969 287.617188 L 150.582031 290.339844 Z M 156.675781 293.578125 C 156.167969 293.578125 155.753906 293.183594 155.753906 292.699219 L 155.753906 286.183594 C 155.753906 285.652344 156.195312 285.222656 156.738281 285.222656 C 157.277344 285.222656 157.71875 285.652344 157.71875 286.183594 L 157.71875 291.816406 L 159.765625 291.816406 C 160.277344 291.816406 160.6875 292.210938 160.6875 292.695312 C 160.6875 293.179688 160.273438 293.574219 159.765625 293.574219 Z M 162.027344 293.703125 C 161.761719 293.703125 161.535156 293.609375 161.347656 293.421875 C 161.160156 293.234375 161.0625 293.011719 161.0625 292.746094 L 161.0625 286.183594 C 161.0625 285.917969 161.160156 285.691406 161.347656 285.503906 C 161.535156 285.316406 161.761719 285.222656 162.027344 285.222656 C 162.292969 285.222656 162.519531 285.316406 162.707031 285.503906 C 162.894531 285.691406 162.988281 285.917969 162.988281 286.183594 L 162.988281 288.246094 L 165.675781 285.566406 C 165.824219 285.421875 166.003906 285.351562 166.210938 285.355469 C 166.449219 285.355469 166.691406 285.457031 166.871094 285.636719 C 167.042969 285.804688 167.140625 286.023438 167.15625 286.246094 C 167.171875 286.46875 167.09375 286.679688 166.945312 286.832031 L 164.75 289.015625 L 167.121094 292.144531 C 167.273438 292.347656 167.339844 292.605469 167.304688 292.855469 C 167.269531 293.109375 167.136719 293.335938 166.929688 293.488281 C 166.761719 293.617188 166.566406 293.683594 166.351562 293.683594 C 166.050781 293.683594 165.765625 293.542969 165.582031 293.300781 L 163.324219 290.320312 L 162.992188 290.652344 L 162.992188 292.746094 C 162.992188 293.011719 162.898438 293.238281 162.707031 293.421875 C 162.519531 293.609375 162.292969 293.703125 162.027344 293.707031 Z M 162.027344 293.703125 " fill-opacity="1" fill-rule="nonzero"/><path fill="#c7bab3" d="M 103.164062 287.753906 L 104.792969 287.753906 L 104.792969 290.941406 L 105.28125 290.148438 L 106.925781 287.746094 L 108.925781 287.746094 L 106.53125 290.816406 L 109.054688 294.957031 L 107.179688 294.957031 L 105.40625 291.84375 L 104.785156 292.605469 L 104.785156 294.957031 L 103.164062 294.957031 Z M 116.917969 287.753906 L 118.542969 287.753906 L 118.542969 290.941406 L 119.035156 290.148438 L 120.675781 287.746094 L 122.675781 287.746094 L 120.316406 290.816406 L 122.839844 294.957031 L 120.933594 294.957031 L 119.164062 291.84375 L 118.542969 292.605469 L 118.542969 294.957031 L 116.914062 294.957031 Z M 125.328125 293.109375 L 124.816406 294.960938 L 123.117188 294.960938 L 125.011719 288.785156 C 125.105469 288.480469 125.28125 288.234375 125.539062 288.046875 C 125.796875 287.855469 126.085938 287.761719 126.402344 287.761719 C 126.722656 287.761719 127.011719 287.855469 127.269531 288.046875 C 127.527344 288.234375 127.703125 288.480469 127.796875 288.785156 L 129.722656 294.972656 L 127.925781 294.972656 L 127.371094 293.121094 Z M 127.164062 291.894531 L 126.707031 290.355469 L 126.339844 288.972656 L 126 290.355469 L 125.578125 291.882812 Z M 111.914062 293.109375 L 111.402344 294.960938 L 109.703125 294.960938 L 111.609375 288.785156 C 111.703125 288.480469 111.878906 288.234375 112.136719 288.046875 C 112.394531 287.855469 112.683594 287.761719 113 287.761719 C 113.320312 287.761719 113.609375 287.855469 113.867188 288.046875 C 114.121094 288.234375 114.300781 288.480469 114.394531 288.785156 L 116.320312 294.972656 L 114.546875 294.972656 L 113.992188 293.121094 Z M 113.785156 291.894531 L 113.292969 290.355469 L 112.925781 288.972656 L 112.585938 290.355469 L 112.160156 291.882812 Z M 135.695312 291.292969 C 135.695312 293.65625 134.410156 295.089844 132.527344 295.089844 C 130.648438 295.089844 129.503906 293.46875 129.503906 291.445312 C 129.503906 289.425781 130.734375 287.675781 132.636719 287.675781 C 134.542969 287.675781 135.695312 289.277344 135.695312 291.292969 Z M 131.039062 291.390625 C 131.039062 292.800781 131.625 293.796875 132.605469 293.796875 C 133.585938 293.796875 134.152344 292.714844 134.152344 291.347656 C 134.152344 289.980469 133.597656 288.941406 132.59375 288.941406 C 131.59375 288.941406 131.039062 289.992188 131.039062 291.390625 Z M 131.039062 291.390625 " fill-opacity="1" fill-rule="nonzero"/><g fill="#000000" fill-opacity="1"><g transform="translate(83.039703, 88.651039)"><g><path d="M 3.179688 -11.730469 L 3.179688 -22.53125 L 23.578125 -22.53125 L 23.578125 -11.730469 Z M 21.269531 -20.671875 L 5.488281 -20.671875 L 5.488281 -13.589844 L 21.269531 -13.589844 Z M 12.179688 -1.378906 L 12.179688 -6.71875 L 1.261719 -6.71875 L 1.261719 -8.578125 L 25.441406 -8.578125 L 25.441406 -6.71875 L 14.488281 -6.71875 L 14.488281 -1.378906 Z M 3.03125 4.5 L 3.03125 -3.570312 L 5.371094 -3.570312 L 5.371094 2.640625 L 23.96875 2.640625 L 23.96875 4.5 Z M 3.03125 4.5 "/></g></g></g><g fill="#000000" fill-opacity="1"><g transform="translate(109.739671, 88.651039)"><g><path d="M 7.078125 -4.589844 C 6.480469 -4.589844 5.910156 -4.679688 5.429688 -4.921875 C 4.890625 -5.101562 4.46875 -5.398438 4.109375 -5.789062 C 3.71875 -6.148438 3.421875 -6.570312 3.238281 -7.109375 C 3 -7.589844 2.910156 -8.160156 2.910156 -8.761719 L 2.910156 -18.328125 C 2.910156 -18.929688 3 -19.46875 3.238281 -20.011719 C 3.421875 -20.488281 3.71875 -20.941406 4.109375 -21.328125 C 4.46875 -21.691406 4.890625 -21.960938 5.429688 -22.199219 C 5.910156 -22.378906 6.480469 -22.5 7.078125 -22.5 L 13.019531 -22.5 C 13.621094 -22.5 14.160156 -22.378906 14.699219 -22.199219 C 15.179688 -21.960938 15.628906 -21.691406 16.019531 -21.328125 C 16.378906 -20.941406 16.648438 -20.488281 16.890625 -20.011719 C 17.070312 -19.46875 17.191406 -18.929688 17.191406 -18.328125 L 17.191406 -8.761719 C 17.191406 -8.160156 17.070312 -7.589844 16.890625 -7.109375 C 16.648438 -6.570312 16.378906 -6.148438 16.019531 -5.789062 C 15.628906 -5.398438 15.179688 -5.101562 14.699219 -4.921875 C 14.160156 -4.679688 13.621094 -4.589844 13.019531 -4.589844 Z M 14.878906 -18.089844 C 14.878906 -18.808594 14.640625 -19.441406 14.160156 -19.921875 C 13.679688 -20.398438 13.050781 -20.640625 12.328125 -20.640625 L 7.769531 -20.640625 C 7.019531 -20.640625 6.421875 -20.398438 5.941406 -19.921875 C 5.460938 -19.441406 5.21875 -18.808594 5.21875 -18.089844 L 5.21875 -9 C 5.21875 -8.25 5.460938 -7.648438 5.941406 -7.171875 C 6.421875 -6.691406 7.019531 -6.449219 7.769531 -6.449219 L 12.328125 -6.449219 C 13.050781 -6.449219 13.679688 -6.691406 14.160156 -7.171875 C 14.640625 -7.648438 14.878906 -8.25 14.878906 -9 Z M 21.539062 0.601562 L 21.539062 -22.890625 L 23.851562 -22.890625 L 23.851562 4.5 L 21.539062 4.5 L 21.539062 2.460938 L 1.378906 2.460938 L 1.378906 0.601562 Z M 21.539062 0.601562 "/></g></g></g><g fill="#000000" fill-opacity="1"><g transform="translate(154.660492, 167.324094)"><g><path d="M 2.121094 -7.816406 L 2.121094 -15.015625 L 15.714844 -15.015625 L 15.714844 -7.816406 Z M 14.175781 -13.777344 L 3.660156 -13.777344 L 3.660156 -9.058594 L 14.175781 -9.058594 Z M 8.117188 -0.917969 L 8.117188 -4.480469 L 0.839844 -4.480469 L 0.839844 -5.71875 L 16.957031 -5.71875 L 16.957031 -4.480469 L 9.65625 -4.480469 L 9.65625 -0.917969 Z M 2.019531 3 L 2.019531 -2.378906 L 3.578125 -2.378906 L 3.578125 1.757812 L 15.976562 1.757812 L 15.976562 3 Z M 2.019531 3 "/></g></g></g><g fill="#000000" fill-opacity="1"><g transform="translate(172.453467, 167.324094)"><g><path d="M 4.71875 -3.058594 C 4.320312 -3.058594 3.9375 -3.121094 3.617188 -3.277344 C 3.257812 -3.398438 2.980469 -3.597656 2.738281 -3.859375 C 2.480469 -4.097656 2.28125 -4.378906 2.160156 -4.738281 C 2 -5.058594 1.941406 -5.4375 1.941406 -5.839844 L 1.941406 -12.21875 C 1.941406 -12.617188 2 -12.976562 2.160156 -13.335938 C 2.28125 -13.65625 2.480469 -13.957031 2.738281 -14.214844 C 2.980469 -14.457031 3.257812 -14.636719 3.617188 -14.796875 C 3.9375 -14.917969 4.320312 -14.996094 4.71875 -14.996094 L 8.679688 -14.996094 C 9.078125 -14.996094 9.4375 -14.917969 9.796875 -14.796875 C 10.117188 -14.636719 10.417969 -14.457031 10.675781 -14.214844 C 10.917969 -13.957031 11.097656 -13.65625 11.257812 -13.335938 C 11.378906 -12.976562 11.457031 -12.617188 11.457031 -12.21875 L 11.457031 -5.839844 C 11.457031 -5.4375 11.378906 -5.058594 11.257812 -4.738281 C 11.097656 -4.378906 10.917969 -4.097656 10.675781 -3.859375 C 10.417969 -3.597656 10.117188 -3.398438 9.796875 -3.277344 C 9.4375 -3.121094 9.078125 -3.058594 8.679688 -3.058594 Z M 9.917969 -12.058594 C 9.917969 -12.535156 9.757812 -12.957031 9.4375 -13.277344 C 9.117188 -13.597656 8.699219 -13.757812 8.21875 -13.757812 L 5.179688 -13.757812 C 4.679688 -13.757812 4.277344 -13.597656 3.960938 -13.277344 C 3.640625 -12.957031 3.480469 -12.535156 3.480469 -12.058594 L 3.480469 -6 C 3.480469 -5.5 3.640625 -5.097656 3.960938 -4.777344 C 4.277344 -4.457031 4.679688 -4.300781 5.179688 -4.300781 L 8.21875 -4.300781 C 8.699219 -4.300781 9.117188 -4.457031 9.4375 -4.777344 C 9.757812 -5.097656 9.917969 -5.5 9.917969 -6 Z M 14.355469 0.398438 L 14.355469 -15.257812 L 15.894531 -15.257812 L 15.894531 3 L 14.355469 3 L 14.355469 1.640625 L 0.917969 1.640625 L 0.917969 0.398438 Z M 14.355469 0.398438 "/></g></g></g><g fill="#000000" fill-opacity="1"><g transform="translate(190.246443, 167.324094)"><g><path d="M 11.058594 -14.976562 L 11.058594 -13.738281 L 7.539062 -13.738281 L 11.476562 -5.859375 L 9.898438 -5.859375 L 6.078125 -13.695312 L 2.078125 -5.859375 L 0.5 -5.859375 L 4.539062 -13.738281 L 1.078125 -13.738281 L 1.078125 -14.976562 Z M 14.355469 -11.015625 L 14.355469 -15.257812 L 15.894531 -15.257812 L 15.894531 -1.738281 L 14.355469 -1.738281 L 14.355469 -9.777344 L 10.777344 -9.777344 L 10.777344 -11.015625 Z M 2.28125 2.800781 L 2.28125 -3.378906 L 3.820312 -3.378906 L 3.820312 1.558594 L 16.257812 1.558594 L 16.257812 2.800781 Z M 2.28125 2.800781 "/></g></g></g><g fill="#000000" fill-opacity="1"><g transform="translate(208.039418, 167.324094)"><g><path d="M 0.558594 0.398438 L 5.199219 0.398438 L 5.199219 -2.160156 L 4.457031 -2.160156 C 4.058594 -2.160156 3.679688 -2.21875 3.359375 -2.378906 C 3 -2.5 2.71875 -2.699219 2.480469 -2.960938 C 2.21875 -3.199219 2.019531 -3.480469 1.898438 -3.839844 C 1.738281 -4.160156 1.679688 -4.539062 1.679688 -4.9375 L 1.679688 -7.019531 C 1.679688 -7.417969 1.738281 -7.777344 1.898438 -8.136719 C 2.019531 -8.457031 2.21875 -8.757812 2.480469 -9.019531 C 2.71875 -9.257812 3 -9.4375 3.359375 -9.597656 C 3.679688 -9.71875 4.058594 -9.796875 4.457031 -9.796875 L 7.296875 -9.796875 C 7.699219 -9.796875 8.058594 -9.71875 8.417969 -9.597656 C 8.738281 -9.4375 9.039062 -9.257812 9.296875 -9.019531 C 9.539062 -8.757812 9.71875 -8.457031 9.878906 -8.136719 C 9.996094 -7.777344 10.078125 -7.417969 10.078125 -7.019531 L 10.078125 -4.9375 C 10.078125 -4.539062 9.996094 -4.160156 9.878906 -3.839844 C 9.71875 -3.480469 9.539062 -3.199219 9.296875 -2.960938 C 9.039062 -2.699219 8.738281 -2.5 8.417969 -2.378906 C 8.058594 -2.21875 7.699219 -2.160156 7.296875 -2.160156 L 6.738281 -2.160156 L 6.738281 0.398438 L 13.457031 0.398438 L 13.457031 -15.257812 L 14.996094 -15.257812 L 14.996094 -7.898438 L 17.375 -7.898438 L 17.375 -6.660156 L 14.996094 -6.660156 L 14.996094 3 L 13.457031 3 L 13.457031 1.640625 L 0.558594 1.640625 Z M 8.539062 -6.859375 C 8.539062 -7.339844 8.378906 -7.757812 8.058594 -8.078125 C 7.738281 -8.398438 7.316406 -8.558594 6.839844 -8.558594 L 4.917969 -8.558594 C 4.417969 -8.558594 4.019531 -8.398438 3.699219 -8.078125 C 3.378906 -7.757812 3.21875 -7.339844 3.21875 -6.859375 L 3.21875 -5.097656 C 3.21875 -4.597656 3.378906 -4.199219 3.699219 -3.878906 C 4.019531 -3.558594 4.417969 -3.398438 4.917969 -3.398438 L 6.839844 -3.398438 C 7.316406 -3.398438 7.738281 -3.558594 8.058594 -3.878906 C 8.378906 -4.199219 8.539062 -4.597656 8.539062 -5.097656 Z M 11.15625 -12.476562 L 11.15625 -11.238281 L 0.78125 -11.238281 L 0.78125 -12.476562 Z M 8.976562 -15.195312 L 8.976562 -13.957031 L 2.960938 -13.957031 L 2.960938 -15.195312 Z M 8.976562 -15.195312 "/></g></g></g><g fill="#000000" fill-opacity="1"><g transform="translate(113.875335, 212.249983)"><g><path d="M 6.058594 3.628906 C 5.460938 3.628906 4.890625 3.511719 4.410156 3.328125 C 3.898438 3.089844 3.480469 2.820312 3.121094 2.460938 C 2.761719 2.101562 2.460938 1.648438 2.28125 1.171875 C 2.039062 0.660156 1.949219 0.121094 1.949219 -0.480469 L 1.949219 -17.820312 C 1.949219 -18.421875 2.039062 -18.960938 2.28125 -19.46875 C 2.460938 -19.949219 2.761719 -20.398438 3.121094 -20.761719 C 3.480469 -21.121094 3.898438 -21.390625 4.410156 -21.628906 C 4.890625 -21.808594 5.460938 -21.929688 6.058594 -21.929688 L 14.011719 -21.929688 C 14.609375 -21.929688 15.148438 -21.808594 15.660156 -21.628906 C 16.140625 -21.390625 16.589844 -21.121094 16.949219 -20.761719 C 17.308594 -20.398438 17.578125 -19.949219 17.820312 -19.46875 C 18 -18.960938 18.121094 -18.421875 18.121094 -17.820312 L 18.121094 -0.480469 C 18.121094 0.121094 18 0.660156 17.820312 1.171875 C 17.578125 1.648438 17.308594 2.101562 16.949219 2.460938 C 16.589844 2.820312 16.140625 3.089844 15.660156 3.328125 C 15.148438 3.511719 14.609375 3.628906 14.011719 3.628906 Z M 15.808594 -17.160156 C 15.808594 -17.910156 15.570312 -18.539062 15.089844 -19.050781 C 14.578125 -19.53125 13.949219 -19.769531 13.199219 -19.769531 L 6.871094 -19.769531 C 6.089844 -19.769531 5.488281 -19.53125 5.011719 -19.050781 C 4.5 -18.539062 4.261719 -17.910156 4.261719 -17.160156 L 4.261719 -1.140625 C 4.261719 -0.359375 4.5 0.238281 5.011719 0.75 C 5.488281 1.230469 6.089844 1.46875 6.871094 1.46875 L 13.199219 1.46875 C 13.949219 1.46875 14.578125 1.230469 15.089844 0.75 C 15.570312 0.238281 15.808594 -0.359375 15.808594 -1.140625 Z M 15.808594 -17.160156 "/></g></g></g><g fill="#000000" fill-opacity="1"><g transform="translate(133.945317, 212.249983)"><g><path d="M 2.011719 1.46875 L 11.371094 1.46875 C 12.121094 1.46875 12.75 1.230469 13.261719 0.75 C 13.738281 0.238281 13.980469 -0.359375 13.980469 -1.140625 L 13.980469 -5.730469 C 13.980469 -6.480469 13.738281 -7.109375 13.261719 -7.621094 C 12.75 -8.101562 12.121094 -8.339844 11.371094 -8.339844 L 2.011719 -8.339844 L 2.011719 -10.558594 L 11.371094 -10.558594 C 12.121094 -10.558594 12.75 -10.800781 13.261719 -11.308594 C 13.738281 -11.789062 13.980469 -12.390625 13.980469 -13.171875 L 13.980469 -17.160156 C 13.980469 -17.910156 13.738281 -18.539062 13.261719 -19.050781 C 12.75 -19.53125 12.121094 -19.769531 11.371094 -19.769531 L 2.011719 -19.769531 L 2.011719 -21.929688 L 12.179688 -21.929688 C 12.78125 -21.929688 13.320312 -21.808594 13.828125 -21.628906 C 14.308594 -21.390625 14.761719 -21.121094 15.121094 -20.761719 C 15.480469 -20.398438 15.75 -19.949219 15.988281 -19.46875 C 16.171875 -18.960938 16.289062 -18.421875 16.289062 -17.820312 L 16.289062 -13.109375 C 16.289062 -12.089844 16.050781 -11.308594 15.601562 -10.738281 C 15.121094 -10.140625 14.519531 -9.71875 13.769531 -9.449219 C 14.519531 -9.148438 15.121094 -8.730469 15.601562 -8.160156 C 16.050781 -7.558594 16.289062 -6.75 16.289062 -5.789062 L 16.289062 -0.480469 C 16.289062 0.121094 16.171875 0.660156 15.988281 1.171875 C 15.75 1.648438 15.480469 2.101562 15.121094 2.460938 C 14.761719 2.820312 14.308594 3.089844 13.828125 3.328125 C 13.320312 3.511719 12.78125 3.628906 12.179688 3.628906 L 2.011719 3.628906 Z M 2.011719 1.46875 "/></g></g></g><g fill="#000000" fill-opacity="1"><g transform="translate(152.155304, 212.249983)"><g><path d="M 2.011719 1.46875 L 11.371094 1.46875 C 12.121094 1.46875 12.75 1.230469 13.261719 0.75 C 13.738281 0.238281 13.980469 -0.359375 13.980469 -1.140625 L 13.980469 -5.730469 C 13.980469 -6.480469 13.738281 -7.109375 13.261719 -7.621094 C 12.75 -8.101562 12.121094 -8.339844 11.371094 -8.339844 L 2.011719 -8.339844 L 2.011719 -10.558594 L 11.371094 -10.558594 C 12.121094 -10.558594 12.75 -10.800781 13.261719 -11.308594 C 13.738281 -11.789062 13.980469 -12.390625 13.980469 -13.171875 L 13.980469 -17.160156 C 13.980469 -17.910156 13.738281 -18.539062 13.261719 -19.050781 C 12.75 -19.53125 12.121094 -19.769531 11.371094 -19.769531 L 2.011719 -19.769531 L 2.011719 -21.929688 L 12.179688 -21.929688 C 12.78125 -21.929688 13.320312 -21.808594 13.828125 -21.628906 C 14.308594 -21.390625 14.761719 -21.121094 15.121094 -20.761719 C 15.480469 -20.398438 15.75 -19.949219 15.988281 -19.46875 C 16.171875 -18.960938 16.289062 -18.421875 16.289062 -17.820312 L 16.289062 -13.109375 C 16.289062 -12.089844 16.050781 -11.308594 15.601562 -10.738281 C 15.121094 -10.140625 14.519531 -9.71875 13.769531 -9.449219 C 14.519531 -9.148438 15.121094 -8.730469 15.601562 -8.160156 C 16.050781 -7.558594 16.289062 -6.75 16.289062 -5.789062 L 16.289062 -0.480469 C 16.289062 0.121094 16.171875 0.660156 15.988281 1.171875 C 15.75 1.648438 15.480469 2.101562 15.121094 2.460938 C 14.761719 2.820312 14.308594 3.089844 13.828125 3.328125 C 13.320312 3.511719 12.78125 3.628906 12.179688 3.628906 L 2.011719 3.628906 Z M 2.011719 1.46875 "/></g></g></g><g fill="#000000" fill-opacity="1"><g transform="translate(170.36529, 212.249983)"><g><path d="M 1.738281 -9.960938 L 14.941406 -9.960938 L 14.941406 -7.949219 L 1.738281 -7.949219 Z M 1.738281 -9.960938 "/></g></g></g><g fill="#000000" fill-opacity="1"><g transform="translate(187.075277, 212.249983)"><g><path d="M 4.230469 -10.949219 C 4.800781 -11.671875 5.730469 -12.058594 7.050781 -12.058594 L 13.828125 -12.058594 C 14.429688 -12.058594 14.96875 -11.941406 15.480469 -11.761719 C 15.960938 -11.519531 16.410156 -11.25 16.769531 -10.890625 C 17.128906 -10.53125 17.398438 -10.078125 17.640625 -9.601562 C 17.820312 -9.089844 17.941406 -8.550781 17.941406 -7.949219 L 17.941406 -0.480469 C 17.941406 0.121094 17.820312 0.660156 17.640625 1.171875 C 17.398438 1.648438 17.128906 2.101562 16.769531 2.460938 C 16.410156 2.820312 15.960938 3.089844 15.480469 3.328125 C 14.96875 3.511719 14.429688 3.628906 13.828125 3.628906 L 6.03125 3.628906 C 5.429688 3.628906 4.859375 3.511719 4.378906 3.328125 C 3.871094 3.089844 3.449219 2.820312 3.089844 2.460938 C 2.730469 2.101562 2.429688 1.648438 2.25 1.171875 C 2.011719 0.660156 1.921875 0.121094 1.921875 -0.480469 L 1.921875 -18.121094 C 1.921875 -19.289062 2.308594 -20.21875 3.089844 -20.910156 C 3.839844 -21.570312 4.828125 -21.929688 6.03125 -21.929688 L 16.679688 -21.929688 L 16.679688 -19.769531 L 6.839844 -19.769531 C 6.058594 -19.769531 5.460938 -19.558594 4.980469 -19.199219 C 4.46875 -18.808594 4.230469 -18.238281 4.230469 -17.460938 Z M 6.839844 -9.898438 C 6.089844 -9.898438 5.488281 -9.660156 5.011719 -9.179688 C 4.53125 -8.699219 4.261719 -8.101562 4.230469 -7.378906 L 4.230469 -1.140625 C 4.230469 -0.359375 4.46875 0.238281 4.980469 0.75 C 5.460938 1.230469 6.058594 1.46875 6.839844 1.46875 L 13.019531 1.46875 C 13.769531 1.46875 14.398438 1.230469 14.910156 0.75 C 15.390625 0.238281 15.628906 -0.359375 15.628906 -1.140625 L 15.628906 -7.289062 C 15.628906 -8.039062 15.390625 -8.671875 14.910156 -9.179688 C 14.398438 -9.660156 13.769531 -9.898438 13.019531 -9.898438 Z M 6.839844 -9.898438 "/></g></g></g><g fill="#000000" fill-opacity="1"><g transform="translate(206.725262, 212.249983)"><g><path d="M 17.28125 -21.929688 L 17.28125 -19.679688 L 8.070312 3.628906 L 5.609375 3.628906 L 14.910156 -19.769531 L 1.378906 -19.769531 L 1.378906 -21.929688 Z M 17.28125 -21.929688 "/></g></g></g><g fill="#000000" fill-opacity="1"><g transform="translate(225.355246, 212.249983)"><g><path d="M 2.011719 1.46875 L 11.371094 1.46875 C 12.121094 1.46875 12.75 1.230469 13.261719 0.75 C 13.738281 0.238281 13.980469 -0.359375 13.980469 -1.140625 L 13.980469 -5.730469 C 13.980469 -6.480469 13.738281 -7.109375 13.261719 -7.621094 C 12.75 -8.101562 12.121094 -8.339844 11.371094 -8.339844 L 2.011719 -8.339844 L 2.011719 -10.558594 L 11.371094 -10.558594 C 12.121094 -10.558594 12.75 -10.800781 13.261719 -11.308594 C 13.738281 -11.789062 13.980469 -12.390625 13.980469 -13.171875 L 13.980469 -17.160156 C 13.980469 -17.910156 13.738281 -18.539062 13.261719 -19.050781 C 12.75 -19.53125 12.121094 -19.769531 11.371094 -19.769531 L 2.011719 -19.769531 L 2.011719 -21.929688 L 12.179688 -21.929688 C 12.78125 -21.929688 13.320312 -21.808594 13.828125 -21.628906 C 14.308594 -21.390625 14.761719 -21.121094 15.121094 -20.761719 C 15.480469 -20.398438 15.75 -19.949219 15.988281 -19.46875 C 16.171875 -18.960938 16.289062 -18.421875 16.289062 -17.820312 L 16.289062 -13.109375 C 16.289062 -12.089844 16.050781 -11.308594 15.601562 -10.738281 C 15.121094 -10.140625 14.519531 -9.71875 13.769531 -9.449219 C 14.519531 -9.148438 15.121094 -8.730469 15.601562 -8.160156 C 16.050781 -7.558594 16.289062 -6.75 16.289062 -5.789062 L 16.289062 -0.480469 C 16.289062 0.121094 16.171875 0.660156 15.988281 1.171875 C 15.75 1.648438 15.480469 2.101562 15.121094 2.460938 C 14.761719 2.820312 14.308594 3.089844 13.828125 3.328125 C 13.320312 3.511719 12.78125 3.628906 12.179688 3.628906 L 2.011719 3.628906 Z M 2.011719 1.46875 "/></g></g></g><g fill="#000000" fill-opacity="1"><g transform="translate(243.565233, 212.249983)"><g><path d="M 1.738281 -9.960938 L 14.941406 -9.960938 L 14.941406 -7.949219 L 1.738281 -7.949219 Z M 1.738281 -9.960938 "/></g></g></g><g fill="#000000" fill-opacity="1"><g transform="translate(260.27522, 212.249983)"><g><path d="M 13.019531 3.628906 L 13.019531 -2.488281 L 1.109375 -2.488281 L 1.109375 -4.769531 L 12.78125 -21.929688 L 15.328125 -21.929688 L 15.328125 -4.648438 L 18.660156 -4.648438 L 18.660156 -2.488281 L 15.328125 -2.488281 L 15.328125 3.628906 Z M 3.511719 -4.648438 L 13.019531 -4.648438 L 13.019531 -18.71875 Z M 3.511719 -4.648438 "/></g></g></g><g fill="#000000" fill-opacity="1"><g transform="translate(279.865203, 212.249983)"><g><path d="M 5.820312 -8.96875 C 4.621094 -8.96875 3.628906 -9.300781 2.878906 -9.988281 C 2.101562 -10.648438 1.710938 -11.578125 1.710938 -12.78125 L 1.710938 -21.929688 L 16.621094 -21.929688 L 16.621094 -19.769531 L 4.019531 -19.769531 L 4.019531 -13.441406 C 4.019531 -12.660156 4.261719 -12.058594 4.769531 -11.699219 C 5.25 -11.308594 5.851562 -11.128906 6.628906 -11.128906 L 13.410156 -11.128906 C 14.609375 -11.128906 15.601562 -10.769531 16.378906 -10.109375 C 17.128906 -9.421875 17.519531 -8.488281 17.519531 -7.320312 L 17.519531 -0.179688 C 17.519531 0.988281 17.128906 1.921875 16.378906 2.609375 C 15.601562 3.269531 14.609375 3.628906 13.410156 3.628906 L 1.710938 3.628906 L 1.710938 1.46875 L 12.601562 1.46875 C 13.351562 1.46875 13.980469 1.261719 14.488281 0.898438 C 14.96875 0.511719 15.210938 -0.0585938 15.210938 -0.839844 L 15.210938 -6.660156 C 15.210938 -7.441406 14.96875 -8.011719 14.488281 -8.398438 C 13.980469 -8.761719 13.351562 -8.96875 12.601562 -8.96875 Z M 5.820312 -8.96875 "/></g></g></g><g fill="#000000" fill-opacity="1"><g transform="translate(299.185186, 212.249983)"><g><path d="M 5.820312 -8.96875 C 4.621094 -8.96875 3.628906 -9.300781 2.878906 -9.988281 C 2.101562 -10.648438 1.710938 -11.578125 1.710938 -12.78125 L 1.710938 -21.929688 L 16.621094 -21.929688 L 16.621094 -19.769531 L 4.019531 -19.769531 L 4.019531 -13.441406 C 4.019531 -12.660156 4.261719 -12.058594 4.769531 -11.699219 C 5.25 -11.308594 5.851562 -11.128906 6.628906 -11.128906 L 13.410156 -11.128906 C 14.609375 -11.128906 15.601562 -10.769531 16.378906 -10.109375 C 17.128906 -9.421875 17.519531 -8.488281 17.519531 -7.320312 L 17.519531 -0.179688 C 17.519531 0.988281 17.128906 1.921875 16.378906 2.609375 C 15.601562 3.269531 14.609375 3.628906 13.410156 3.628906 L 1.710938 3.628906 L 1.710938 1.46875 L 12.601562 1.46875 C 13.351562 1.46875 13.980469 1.261719 14.488281 0.898438 C 14.96875 0.511719 15.210938 -0.0585938 15.210938 -0.839844 L 15.210938 -6.660156 C 15.210938 -7.441406 14.96875 -8.011719 14.488281 -8.398438 C 13.980469 -8.761719 13.351562 -8.96875 12.601562 -8.96875 Z M 5.820312 -8.96875 "/></g></g></g><g fill="#000000" fill-opacity="1"><g transform="translate(318.505157, 212.249983)"><g><path d="M 5.820312 -8.96875 C 4.621094 -8.96875 3.628906 -9.300781 2.878906 -9.988281 C 2.101562 -10.648438 1.710938 -11.578125 1.710938 -12.78125 L 1.710938 -21.929688 L 16.621094 -21.929688 L 16.621094 -19.769531 L 4.019531 -19.769531 L 4.019531 -13.441406 C 4.019531 -12.660156 4.261719 -12.058594 4.769531 -11.699219 C 5.25 -11.308594 5.851562 -11.128906 6.628906 -11.128906 L 13.410156 -11.128906 C 14.609375 -11.128906 15.601562 -10.769531 16.378906 -10.109375 C 17.128906 -9.421875 17.519531 -8.488281 17.519531 -7.320312 L 17.519531 -0.179688 C 17.519531 0.988281 17.128906 1.921875 16.378906 2.609375 C 15.601562 3.269531 14.609375 3.628906 13.410156 3.628906 L 1.710938 3.628906 L 1.710938 1.46875 L 12.601562 1.46875 C 13.351562 1.46875 13.980469 1.261719 14.488281 0.898438 C 14.96875 0.511719 15.210938 -0.0585938 15.210938 -0.839844 L 15.210938 -6.660156 C 15.210938 -7.441406 14.96875 -8.011719 14.488281 -8.398438 C 13.980469 -8.761719 13.351562 -8.96875 12.601562 -8.96875 Z M 5.820312 -8.96875 "/></g></g></g><g fill="#000000" fill-opacity="1"><g transform="translate(181.934622, 298.429107)"><g><path d="M 1.378906 -14.996094 L 9.378906 -14.996094 L 8.4375 2.640625 L 6.839844 2.640625 L 7.359375 -6.597656 L 1.28125 -6.597656 L 1.28125 -7.839844 L 7.417969 -7.839844 L 7.757812 -13.757812 L 1.378906 -13.757812 Z M 14.996094 -7.699219 L 17.375 -7.699219 L 17.375 -6.457031 L 14.996094 -6.457031 L 14.996094 3 L 13.457031 3 L 13.457031 -15.257812 L 14.996094 -15.257812 Z M 14.996094 -7.699219 "/></g></g></g><g fill="#000000" fill-opacity="1"><g transform="translate(199.727597, 298.429107)"><g><path d="M 1.378906 -14.996094 L 9.378906 -14.996094 L 8.4375 2.640625 L 6.839844 2.640625 L 7.359375 -6.597656 L 1.28125 -6.597656 L 1.28125 -7.839844 L 7.417969 -7.839844 L 7.757812 -13.757812 L 1.378906 -13.757812 Z M 14.996094 -7.699219 L 17.375 -7.699219 L 17.375 -6.457031 L 14.996094 -6.457031 L 14.996094 3 L 13.457031 3 L 13.457031 -15.257812 L 14.996094 -15.257812 Z M 14.996094 -7.699219 "/></g></g></g><g fill="#000000" fill-opacity="1"><g transform="translate(217.520573, 298.429107)"><g><path d="M 9.65625 -3.859375 L 9.65625 1.359375 L 16.957031 1.359375 L 16.957031 2.597656 L 0.839844 2.597656 L 0.839844 1.359375 L 8.117188 1.359375 L 8.117188 -3.859375 L 4.699219 -3.859375 C 4.300781 -3.859375 3.917969 -3.917969 3.597656 -4.078125 C 3.238281 -4.199219 2.960938 -4.398438 2.71875 -4.660156 C 2.460938 -4.898438 2.257812 -5.179688 2.140625 -5.539062 C 1.980469 -5.859375 1.917969 -6.238281 1.917969 -6.636719 L 1.917969 -12.21875 C 1.917969 -12.617188 1.980469 -12.976562 2.140625 -13.335938 C 2.257812 -13.65625 2.460938 -13.957031 2.71875 -14.214844 C 2.960938 -14.457031 3.238281 -14.636719 3.597656 -14.796875 C 3.917969 -14.917969 4.300781 -14.996094 4.699219 -14.996094 L 13.136719 -14.996094 C 13.535156 -14.996094 13.898438 -14.917969 14.257812 -14.796875 C 14.578125 -14.636719 14.875 -14.457031 15.136719 -14.214844 C 15.375 -13.957031 15.554688 -13.65625 15.714844 -13.335938 C 15.835938 -12.976562 15.917969 -12.617188 15.917969 -12.21875 L 15.917969 -6.636719 C 15.917969 -6.238281 15.835938 -5.859375 15.714844 -5.539062 C 15.554688 -5.179688 15.375 -4.898438 15.136719 -4.660156 C 14.875 -4.398438 14.578125 -4.199219 14.257812 -4.078125 C 13.898438 -3.917969 13.535156 -3.859375 13.136719 -3.859375 Z M 14.375 -12.058594 C 14.375 -12.535156 14.214844 -12.957031 13.898438 -13.277344 C 13.578125 -13.597656 13.15625 -13.757812 12.675781 -13.757812 L 5.160156 -13.757812 C 4.660156 -13.757812 4.257812 -13.597656 3.9375 -13.277344 C 3.617188 -12.957031 3.460938 -12.535156 3.460938 -12.058594 L 3.460938 -6.796875 C 3.460938 -6.296875 3.617188 -5.898438 3.9375 -5.578125 C 4.257812 -5.257812 4.660156 -5.097656 5.160156 -5.097656 L 12.675781 -5.097656 C 13.15625 -5.097656 13.578125 -5.257812 13.898438 -5.578125 C 14.214844 -5.898438 14.375 -6.296875 14.375 -6.796875 Z M 14.375 -12.058594 "/></g></g></g><g fill="#000000" fill-opacity="1"><g transform="translate(235.313548, 298.429107)"><g><path d="M 15.957031 -7.617188 L 9.65625 -7.617188 L 9.65625 -5.597656 L 16.957031 -5.597656 L 16.957031 -4.359375 L 0.839844 -4.359375 L 0.839844 -5.597656 L 8.117188 -5.597656 L 8.117188 -7.617188 L 2.121094 -7.617188 L 2.121094 -14.996094 L 15.597656 -14.996094 L 15.597656 -13.757812 L 3.660156 -13.757812 L 3.660156 -11.917969 L 15.457031 -11.917969 L 15.457031 -10.675781 L 3.660156 -10.675781 L 3.660156 -8.859375 L 15.957031 -8.859375 Z M 14.277344 3.078125 L 14.277344 -1.519531 L 1.839844 -1.519531 L 1.839844 -2.757812 L 15.816406 -2.757812 L 15.816406 3.078125 Z M 14.277344 3.078125 "/></g></g></g><g fill="#000000" fill-opacity="1"><g transform="translate(253.106523, 298.429107)"><g/></g></g><g fill="#000000" fill-opacity="1"><g transform="translate(259.104154, 298.429107)"><g><path d="M 2.121094 -7.816406 L 2.121094 -15.015625 L 15.714844 -15.015625 L 15.714844 -7.816406 Z M 14.175781 -13.777344 L 3.660156 -13.777344 L 3.660156 -9.058594 L 14.175781 -9.058594 Z M 8.117188 -0.917969 L 8.117188 -4.480469 L 0.839844 -4.480469 L 0.839844 -5.71875 L 16.957031 -5.71875 L 16.957031 -4.480469 L 9.65625 -4.480469 L 9.65625 -0.917969 Z M 2.019531 3 L 2.019531 -2.378906 L 3.578125 -2.378906 L 3.578125 1.757812 L 15.976562 1.757812 L 15.976562 3 Z M 2.019531 3 "/></g></g></g><g fill="#000000" fill-opacity="1"><g transform="translate(276.897129, 298.429107)"><g><path d="M 4.71875 -3.058594 C 4.320312 -3.058594 3.9375 -3.121094 3.617188 -3.277344 C 3.257812 -3.398438 2.980469 -3.597656 2.738281 -3.859375 C 2.480469 -4.097656 2.28125 -4.378906 2.160156 -4.738281 C 2 -5.058594 1.941406 -5.4375 1.941406 -5.839844 L 1.941406 -12.21875 C 1.941406 -12.617188 2 -12.976562 2.160156 -13.335938 C 2.28125 -13.65625 2.480469 -13.957031 2.738281 -14.214844 C 2.980469 -14.457031 3.257812 -14.636719 3.617188 -14.796875 C 3.9375 -14.917969 4.320312 -14.996094 4.71875 -14.996094 L 8.679688 -14.996094 C 9.078125 -14.996094 9.4375 -14.917969 9.796875 -14.796875 C 10.117188 -14.636719 10.417969 -14.457031 10.675781 -14.214844 C 10.917969 -13.957031 11.097656 -13.65625 11.257812 -13.335938 C 11.378906 -12.976562 11.457031 -12.617188 11.457031 -12.21875 L 11.457031 -5.839844 C 11.457031 -5.4375 11.378906 -5.058594 11.257812 -4.738281 C 11.097656 -4.378906 10.917969 -4.097656 10.675781 -3.859375 C 10.417969 -3.597656 10.117188 -3.398438 9.796875 -3.277344 C 9.4375 -3.121094 9.078125 -3.058594 8.679688 -3.058594 Z M 9.917969 -12.058594 C 9.917969 -12.535156 9.757812 -12.957031 9.4375 -13.277344 C 9.117188 -13.597656 8.699219 -13.757812 8.21875 -13.757812 L 5.179688 -13.757812 C 4.679688 -13.757812 4.277344 -13.597656 3.960938 -13.277344 C 3.640625 -12.957031 3.480469 -12.535156 3.480469 -12.058594 L 3.480469 -6 C 3.480469 -5.5 3.640625 -5.097656 3.960938 -4.777344 C 4.277344 -4.457031 4.679688 -4.300781 5.179688 -4.300781 L 8.21875 -4.300781 C 8.699219 -4.300781 9.117188 -4.457031 9.4375 -4.777344 C 9.757812 -5.097656 9.917969 -5.5 9.917969 -6 Z M 14.355469 0.398438 L 14.355469 -15.257812 L 15.894531 -15.257812 L 15.894531 3 L 14.355469 3 L 14.355469 1.640625 L 0.917969 1.640625 L 0.917969 0.398438 Z M 14.355469 0.398438 "/></g></g></g></svg>