<svg xmlns="http://www.w3.org/2000/svg" xmlns:xlink="http://www.w3.org/1999/xlink" width="1200" zoomAndPan="magnify" viewBox="0 0 900 449.999984" height="600" preserveAspectRatio="xMidYMid meet" version="1.0"><defs><g/><clipPath id="461a3118ae"><path d="M 134 144.894531 L 168.5625 144.894531 L 168.5625 175.644531 L 134 175.644531 Z M 134 144.894531 " clip-rule="nonzero"/></clipPath><clipPath id="dcbb01cfcd"><path d="M 99.5625 156 L 133 156 L 133 164 L 99.5625 164 Z M 99.5625 156 " clip-rule="nonzero"/></clipPath><clipPath id="2817828def"><path d="M 121.066406 279.316406 L 169.066406 279.316406 L 169.066406 325.066406 L 121.066406 325.066406 Z M 121.066406 279.316406 " clip-rule="nonzero"/></clipPath></defs><rect x="-90" width="1080" fill="#ffffff" y="-44.999998" height="539.99998" fill-opacity="1"/><rect x="-90" width="1080" fill="#ffffff" y="-44.999998" height="539.99998" fill-opacity="1"/><rect x="-90" width="1080" fill="#f1f1f1" y="-44.999998" height="539.99998" fill-opacity="1"/><path stroke-linecap="butt" transform="matrix(0.749615, -0.00294159, 0.00294307, 0.749994, 45.000013, 102.301038)" fill="none" stroke-linejoin="miter" d="M -0.00197876 0.499653 L 433.220165 0.500883 " stroke="#000000" stroke-width="1" stroke-opacity="1" stroke-miterlimit="4"/><g clip-path="url(#461a3118ae)"><path fill="#000000" d="M 151.671875 144.925781 C 142.453125 144.925781 134.980469 150.796875 134.980469 158.035156 C 134.980469 162.71875 138.105469 166.824219 142.804688 169.144531 L 141.105469 175.171875 C 141.105469 175.171875 141.074219 175.453125 141.257812 175.558594 C 141.441406 175.667969 141.65625 175.582031 141.65625 175.582031 C 142.179688 175.511719 147.742188 171.617188 148.707031 170.941406 C 149.667969 171.078125 150.660156 171.148438 151.671875 171.148438 C 160.890625 171.148438 168.363281 165.277344 168.363281 158.035156 C 168.363281 150.796875 160.886719 144.925781 151.671875 144.925781 Z M 151.671875 144.925781 " fill-opacity="1" fill-rule="nonzero"/></g><path fill="#ffe812" d="M 142.445312 162.613281 C 141.914062 162.613281 141.480469 162.203125 141.480469 161.695312 L 141.480469 155.992188 L 139.980469 155.992188 C 139.71875 155.992188 139.496094 155.898438 139.3125 155.714844 C 139.128906 155.53125 139.035156 155.3125 139.035156 155.050781 C 139.035156 154.792969 139.128906 154.570312 139.3125 154.386719 C 139.496094 154.203125 139.71875 154.113281 139.980469 154.113281 L 144.910156 154.113281 C 145.171875 154.113281 145.394531 154.203125 145.578125 154.386719 C 145.761719 154.570312 145.855469 154.792969 145.855469 155.050781 C 145.855469 155.3125 145.761719 155.53125 145.578125 155.714844 C 145.394531 155.898438 145.171875 155.992188 144.910156 155.992188 L 143.40625 155.992188 L 143.40625 161.695312 C 143.40625 162.199219 142.976562 162.613281 142.445312 162.613281 Z M 150.886719 162.601562 C 150.484375 162.601562 150.179688 162.4375 150.085938 162.175781 L 149.609375 160.933594 L 146.675781 160.933594 L 146.199219 162.175781 C 146.105469 162.4375 145.796875 162.601562 145.398438 162.601562 C 145.1875 162.601562 144.976562 162.554688 144.785156 162.46875 C 144.519531 162.347656 144.265625 162.011719 144.554688 161.105469 L 146.859375 155.066406 C 147.023438 154.605469 147.515625 154.132812 148.140625 154.117188 C 148.769531 154.132812 149.261719 154.605469 149.425781 155.066406 L 151.726562 161.105469 C 152.019531 162.003906 151.765625 162.347656 151.5 162.46875 C 151.308594 162.554688 151.097656 162.597656 150.886719 162.597656 Z M 149.101562 159.234375 L 148.140625 156.511719 L 147.179688 159.234375 Z M 153.277344 162.472656 C 152.769531 162.472656 152.355469 162.078125 152.355469 161.59375 L 152.355469 155.078125 C 152.355469 154.546875 152.796875 154.117188 153.335938 154.117188 C 153.878906 154.117188 154.320312 154.546875 154.320312 155.078125 L 154.320312 160.710938 L 156.367188 160.710938 C 156.875 160.710938 157.289062 161.105469 157.289062 161.59375 C 157.289062 162.078125 156.875 162.472656 156.367188 162.472656 Z M 158.625 162.601562 C 158.359375 162.597656 158.132812 162.503906 157.945312 162.316406 C 157.757812 162.132812 157.664062 161.90625 157.664062 161.640625 L 157.664062 155.078125 C 157.664062 154.8125 157.757812 154.585938 157.945312 154.398438 C 158.132812 154.214844 158.359375 154.121094 158.625 154.117188 C 158.890625 154.121094 159.117188 154.214844 159.304688 154.398438 C 159.496094 154.585938 159.589844 154.8125 159.589844 155.078125 L 159.589844 157.140625 L 162.277344 154.464844 C 162.421875 154.316406 162.601562 154.246094 162.808594 154.25 C 163.050781 154.25 163.292969 154.351562 163.472656 154.53125 C 163.640625 154.703125 163.742188 154.917969 163.757812 155.140625 C 163.769531 155.367188 163.695312 155.574219 163.542969 155.726562 L 161.347656 157.910156 L 163.71875 161.042969 C 163.875 161.242188 163.941406 161.5 163.90625 161.75 C 163.867188 162.003906 163.734375 162.230469 163.53125 162.382812 C 163.359375 162.511719 163.167969 162.578125 162.953125 162.578125 C 162.648438 162.578125 162.363281 162.4375 162.183594 162.195312 L 159.925781 159.214844 L 159.589844 159.546875 L 159.589844 161.640625 C 159.589844 161.90625 159.496094 162.132812 159.308594 162.320312 C 159.121094 162.507812 158.894531 162.601562 158.628906 162.601562 Z M 158.625 162.601562 " fill-opacity="1" fill-rule="nonzero"/><g clip-path="url(#dcbb01cfcd)"><path fill="#c7bab3" d="M 99.765625 156.648438 L 101.390625 156.648438 L 101.390625 159.835938 L 101.882812 159.042969 L 103.523438 156.640625 L 105.523438 156.640625 L 103.132812 159.710938 L 105.65625 163.851562 L 103.777344 163.851562 L 102.003906 160.738281 L 101.382812 161.5 L 101.382812 163.851562 L 99.765625 163.851562 Z M 113.515625 156.648438 L 115.144531 156.648438 L 115.144531 159.835938 L 115.632812 159.042969 L 117.277344 156.640625 L 119.277344 156.640625 L 116.917969 159.710938 L 119.441406 163.851562 L 117.535156 163.851562 L 115.761719 160.738281 L 115.140625 161.5 L 115.140625 163.851562 L 113.511719 163.851562 Z M 121.925781 162.003906 L 121.414062 163.859375 L 119.71875 163.859375 L 121.609375 157.679688 C 121.707031 157.375 121.882812 157.128906 122.140625 156.941406 C 122.394531 156.753906 122.683594 156.65625 123.003906 156.65625 C 123.324219 156.65625 123.609375 156.753906 123.867188 156.941406 C 124.125 157.128906 124.300781 157.375 124.394531 157.679688 L 126.320312 163.867188 L 124.527344 163.867188 L 123.972656 162.015625 Z M 123.765625 160.789062 L 123.308594 159.25 L 122.9375 157.871094 L 122.601562 159.25 L 122.175781 160.777344 Z M 108.511719 162.003906 L 108 163.859375 L 106.304688 163.859375 L 108.207031 157.679688 C 108.304688 157.375 108.480469 157.128906 108.734375 156.941406 C 108.992188 156.753906 109.28125 156.65625 109.601562 156.65625 C 109.921875 156.65625 110.207031 156.753906 110.464844 156.941406 C 110.722656 157.128906 110.898438 157.375 110.992188 157.679688 L 112.917969 163.867188 L 111.144531 163.867188 L 110.589844 162.015625 Z M 110.382812 160.789062 L 109.894531 159.25 L 109.523438 157.871094 L 109.1875 159.25 L 108.761719 160.777344 Z M 132.292969 160.191406 C 132.292969 162.554688 131.011719 163.984375 129.128906 163.984375 C 127.246094 163.984375 126.105469 162.363281 126.105469 160.339844 C 126.105469 158.320312 127.332031 156.570312 129.238281 156.570312 C 131.140625 156.570312 132.292969 158.171875 132.292969 160.191406 Z M 127.636719 160.285156 C 127.636719 161.695312 128.226562 162.691406 129.207031 162.691406 C 130.183594 162.691406 130.75 161.609375 130.75 160.242188 C 130.75 158.875 130.195312 157.835938 129.195312 157.835938 C 128.195312 157.835938 127.640625 158.886719 127.640625 160.285156 Z M 127.636719 160.285156 " fill-opacity="1" fill-rule="nonzero"/></g><g clip-path="url(#2817828def)"><path fill="#000000" d="M 163.308594 311.398438 C 163.609375 311.695312 163.613281 312.179688 163.3125 312.476562 L 157.277344 318.460938 C 156.980469 318.761719 156.492188 318.761719 156.191406 318.464844 C 156.160156 318.433594 156.132812 318.402344 156.109375 318.367188 L 154.390625 315.988281 C 154.148438 315.644531 154.226562 315.167969 154.570312 314.925781 C 154.917969 314.683594 155.398438 314.761719 155.644531 315.105469 L 156.832031 316.75 L 162.222656 311.402344 C 162.523438 311.105469 163.007812 311.101562 163.308594 311.398438 Z M 169.046875 314.933594 C 169.046875 317.726562 167.910156 320.257812 166.074219 322.09375 C 164.234375 323.929688 161.695312 325.066406 158.890625 325.066406 C 156.089844 325.066406 153.550781 323.929688 151.710938 322.09375 C 151.429688 321.816406 151.167969 321.515625 150.921875 321.207031 L 121.851562 321.207031 C 121.425781 321.207031 121.082031 320.867188 121.082031 320.445312 L 121.082031 284.308594 C 121.082031 283.886719 121.425781 283.542969 121.851562 283.542969 L 126.019531 283.542969 L 126.019531 280.082031 C 126.019531 279.660156 126.363281 279.316406 126.789062 279.316406 L 130.632812 279.316406 C 131.058594 279.316406 131.402344 279.660156 131.402344 280.082031 L 131.402344 283.542969 L 154.523438 283.542969 L 154.523438 280.082031 C 154.523438 279.660156 154.871094 279.316406 155.296875 279.316406 L 159.136719 279.316406 C 159.5625 279.316406 159.910156 279.660156 159.910156 280.082031 L 159.910156 283.542969 L 164.078125 283.542969 C 164.503906 283.542969 164.847656 283.886719 164.847656 284.308594 L 164.847656 290.824219 C 164.847656 290.84375 164.851562 290.863281 164.851562 290.878906 C 164.851562 290.898438 164.847656 290.917969 164.847656 290.9375 L 164.847656 306.730469 C 165.28125 307.046875 165.695312 307.394531 166.074219 307.773438 C 167.910156 309.605469 169.046875 312.140625 169.046875 314.933594 Z M 156.066406 280.847656 L 156.066406 286.511719 L 158.367188 286.511719 L 158.367188 280.847656 Z M 127.5625 286.511719 L 129.863281 286.511719 L 129.863281 280.847656 L 127.5625 280.847656 Z M 122.625 285.070312 L 122.625 290.117188 L 163.304688 290.117188 L 163.304688 285.070312 L 159.910156 285.070312 L 159.910156 287.273438 C 159.910156 287.695312 159.566406 288.039062 159.140625 288.039062 L 155.296875 288.039062 C 154.871094 288.039062 154.527344 287.695312 154.527344 287.273438 L 154.527344 285.070312 L 131.40625 285.070312 L 131.40625 287.273438 C 131.40625 287.695312 131.058594 288.039062 130.632812 288.039062 L 126.789062 288.039062 C 126.363281 288.039062 126.019531 287.695312 126.019531 287.273438 L 126.019531 285.070312 Z M 149.921875 319.679688 C 149.167969 318.265625 148.734375 316.648438 148.734375 314.933594 C 148.734375 313.898438 148.894531 312.898438 149.183594 311.957031 C 149.15625 311.960938 149.128906 311.960938 149.097656 311.960938 L 144.800781 311.960938 C 144.375 311.960938 144.03125 311.617188 144.03125 311.195312 C 144.03125 310.773438 144.375 310.433594 144.800781 310.433594 L 149.097656 310.433594 C 149.328125 310.433594 149.53125 310.53125 149.671875 310.6875 C 150.179688 309.597656 150.871094 308.609375 151.710938 307.769531 C 153.550781 305.9375 156.089844 304.800781 158.894531 304.800781 C 160.472656 304.800781 161.972656 305.160156 163.308594 305.808594 L 163.308594 291.644531 L 122.625 291.644531 L 122.625 319.679688 Z M 167.507812 314.933594 C 167.507812 312.554688 166.542969 310.402344 164.984375 308.847656 C 164.585938 308.449219 164.144531 308.089844 163.675781 307.777344 C 163.660156 307.765625 163.648438 307.757812 163.632812 307.75 C 162.273438 306.855469 160.644531 306.332031 158.890625 306.332031 C 156.511719 306.332031 154.359375 307.292969 152.800781 308.847656 C 151.242188 310.402344 150.277344 312.554688 150.277344 314.933594 C 150.277344 316.824219 150.886719 318.570312 151.921875 319.992188 C 151.929688 320.003906 151.941406 320.015625 151.949219 320.03125 C 152.207031 320.382812 152.492188 320.714844 152.800781 321.019531 C 154.359375 322.574219 156.511719 323.539062 158.890625 323.539062 C 161.269531 323.539062 163.425781 322.578125 164.984375 321.019531 C 166.542969 319.464844 167.507812 317.3125 167.507812 314.933594 Z M 133.15625 295.863281 L 128.859375 295.863281 C 128.433594 295.863281 128.089844 296.207031 128.089844 296.628906 C 128.089844 297.050781 128.433594 297.390625 128.859375 297.390625 L 133.15625 297.390625 C 133.582031 297.390625 133.929688 297.050781 133.929688 296.628906 C 133.929688 296.207031 133.582031 295.863281 133.15625 295.863281 Z M 152.773438 304.675781 L 157.070312 304.675781 C 157.496094 304.675781 157.839844 304.335938 157.839844 303.914062 C 157.839844 303.492188 157.496094 303.148438 157.070312 303.148438 L 152.773438 303.148438 C 152.347656 303.148438 152 303.492188 152 303.914062 C 152 304.335938 152.347656 304.675781 152.773438 304.675781 Z M 137.894531 296.628906 L 136.667969 297.839844 C 136.371094 298.136719 136.371094 298.621094 136.671875 298.917969 C 136.972656 299.214844 137.460938 299.210938 137.761719 298.914062 L 138.976562 297.703125 L 140.195312 298.914062 C 140.496094 299.210938 140.984375 299.210938 141.28125 298.917969 C 141.585938 298.621094 141.585938 298.136719 141.285156 297.839844 L 140.0625 296.628906 L 141.285156 295.414062 C 141.585938 295.117188 141.585938 294.632812 141.28125 294.335938 C 140.980469 294.039062 140.496094 294.042969 140.195312 294.339844 L 138.976562 295.550781 L 137.761719 294.339844 C 137.460938 294.042969 136.972656 294.042969 136.671875 294.335938 C 136.371094 294.632812 136.371094 295.117188 136.667969 295.414062 Z M 144.644531 298.917969 C 144.945312 299.214844 145.433594 299.210938 145.730469 298.914062 L 146.949219 297.703125 L 148.167969 298.914062 C 148.46875 299.210938 148.953125 299.214844 149.253906 298.917969 C 149.554688 298.621094 149.554688 298.136719 149.257812 297.839844 L 148.035156 296.628906 L 149.257812 295.414062 C 149.558594 295.117188 149.554688 294.632812 149.253906 294.339844 C 148.953125 294.042969 148.464844 294.042969 148.167969 294.34375 L 146.949219 295.550781 L 145.730469 294.34375 C 145.429688 294.042969 144.945312 294.042969 144.644531 294.339844 C 144.34375 294.636719 144.34375 295.117188 144.640625 295.414062 L 145.863281 296.628906 L 144.640625 297.839844 C 144.34375 298.136719 144.34375 298.621094 144.644531 298.917969 Z M 152.613281 298.917969 C 152.917969 299.214844 153.402344 299.210938 153.703125 298.914062 L 154.921875 297.703125 L 156.136719 298.914062 C 156.4375 299.210938 156.925781 299.214844 157.226562 298.917969 C 157.527344 298.621094 157.527344 298.136719 157.226562 297.839844 L 156.003906 296.628906 L 157.226562 295.414062 C 157.527344 295.117188 157.527344 294.632812 157.226562 294.339844 C 156.921875 294.042969 156.4375 294.042969 156.136719 294.34375 L 154.921875 295.550781 L 153.703125 294.34375 C 153.402344 294.042969 152.914062 294.042969 152.613281 294.339844 C 152.3125 294.636719 152.3125 295.117188 152.613281 295.414062 L 153.835938 296.628906 L 152.613281 297.839844 C 152.3125 298.136719 152.316406 298.621094 152.613281 298.917969 Z M 133.3125 301.621094 C 133.011719 301.324219 132.527344 301.328125 132.226562 301.625 L 131.007812 302.835938 L 129.789062 301.625 C 129.488281 301.328125 129.003906 301.324219 128.703125 301.621094 C 128.402344 301.917969 128.402344 302.402344 128.699219 302.699219 L 129.921875 303.910156 L 128.699219 305.125 C 128.398438 305.421875 128.402344 305.90625 128.703125 306.203125 C 129.003906 306.5 129.492188 306.496094 129.789062 306.199219 L 131.007812 304.988281 L 132.226562 306.199219 C 132.527344 306.496094 133.011719 306.496094 133.3125 306.203125 C 133.613281 305.902344 133.613281 305.421875 133.316406 305.125 L 132.09375 303.910156 L 133.316406 302.699219 C 133.617188 302.402344 133.613281 301.917969 133.3125 301.621094 Z M 137.890625 303.914062 L 136.667969 305.125 C 136.367188 305.425781 136.371094 305.90625 136.671875 306.203125 C 136.972656 306.5 137.460938 306.496094 137.757812 306.199219 L 138.976562 304.988281 L 140.195312 306.199219 C 140.496094 306.496094 140.980469 306.5 141.28125 306.203125 C 141.582031 305.90625 141.585938 305.421875 141.285156 305.125 L 140.0625 303.914062 L 141.285156 302.699219 C 141.585938 302.402344 141.582031 301.917969 141.28125 301.621094 C 140.980469 301.324219 140.492188 301.328125 140.195312 301.625 L 138.976562 302.835938 L 137.757812 301.625 C 137.457031 301.328125 136.972656 301.328125 136.671875 301.621094 C 136.371094 301.917969 136.371094 302.402344 136.667969 302.699219 Z M 149.257812 301.621094 C 148.957031 301.324219 148.46875 301.328125 148.167969 301.625 L 146.953125 302.835938 L 145.734375 301.625 C 145.433594 301.328125 144.945312 301.324219 144.648438 301.621094 C 144.347656 301.917969 144.34375 302.402344 144.644531 302.699219 L 145.867188 303.910156 L 144.644531 305.125 C 144.34375 305.421875 144.347656 305.90625 144.648438 306.203125 C 144.949219 306.5 145.433594 306.496094 145.734375 306.199219 L 146.953125 304.988281 L 148.167969 306.199219 C 148.46875 306.496094 148.957031 306.496094 149.257812 306.203125 C 149.558594 305.902344 149.558594 305.421875 149.261719 305.125 L 148.035156 303.910156 L 149.261719 302.699219 C 149.558594 302.402344 149.558594 301.917969 149.257812 301.621094 Z M 141.128906 310.433594 L 136.828125 310.433594 C 136.402344 310.433594 136.058594 310.777344 136.058594 311.199219 C 136.058594 311.621094 136.402344 311.960938 136.828125 311.960938 L 141.128906 311.960938 C 141.554688 311.960938 141.898438 311.621094 141.898438 311.199219 C 141.898438 310.773438 141.554688 310.433594 141.128906 310.433594 Z M 133.15625 310.433594 L 128.859375 310.433594 C 128.433594 310.433594 128.085938 310.777344 128.085938 311.199219 C 128.085938 311.621094 128.433594 311.960938 128.859375 311.960938 L 133.15625 311.960938 C 133.582031 311.960938 133.925781 311.621094 133.925781 311.199219 C 133.925781 310.773438 133.582031 310.433594 133.15625 310.433594 Z M 133.15625 310.433594 " fill-opacity="1" fill-rule="nonzero"/></g><g fill="#000000" fill-opacity="1"><g transform="translate(83.039703, 88.651039)"><g><path d="M 6.601562 3.960938 C 6 3.960938 5.429688 3.839844 4.949219 3.660156 C 4.410156 3.421875 3.988281 3.148438 3.628906 2.789062 C 3.238281 2.398438 2.941406 1.949219 2.761719 1.46875 C 2.519531 0.929688 2.429688 0.390625 2.429688 -0.210938 L 2.429688 -18.328125 C 2.429688 -18.929688 2.519531 -19.46875 2.761719 -20.011719 C 2.941406 -20.488281 3.238281 -20.941406 3.628906 -21.328125 C 3.988281 -21.691406 4.410156 -21.960938 4.949219 -22.199219 C 5.429688 -22.378906 6 -22.5 6.601562 -22.5 L 9.300781 -22.5 C 9.898438 -22.5 10.441406 -22.378906 10.980469 -22.199219 C 11.460938 -21.960938 11.910156 -21.691406 12.300781 -21.328125 C 12.660156 -20.941406 12.929688 -20.488281 13.171875 -20.011719 C 13.351562 -19.46875 13.46875 -18.929688 13.46875 -18.328125 L 13.46875 -15.839844 L 17.101562 -15.839844 L 17.101562 -22.648438 L 19.230469 -22.648438 L 19.230469 4.109375 L 17.101562 4.109375 L 17.101562 -4.109375 L 13.46875 -4.109375 L 13.46875 -0.210938 C 13.46875 0.390625 13.351562 0.929688 13.171875 1.46875 C 12.929688 1.949219 12.660156 2.398438 12.300781 2.789062 C 11.910156 3.148438 11.460938 3.421875 10.980469 3.660156 C 10.441406 3.839844 9.898438 3.960938 9.300781 3.960938 Z M 11.25 -18.089844 C 11.25 -18.808594 11.011719 -19.441406 10.53125 -19.921875 C 10.050781 -20.398438 9.421875 -20.640625 8.699219 -20.640625 L 7.199219 -20.640625 C 6.449219 -20.640625 5.851562 -20.398438 5.371094 -19.921875 C 4.890625 -19.441406 4.648438 -18.808594 4.648438 -18.089844 L 4.648438 -0.449219 C 4.648438 0.269531 4.890625 0.898438 5.371094 1.378906 C 5.851562 1.859375 6.449219 2.101562 7.199219 2.101562 L 8.699219 2.101562 C 9.421875 2.101562 10.050781 1.859375 10.53125 1.378906 C 11.011719 0.898438 11.25 0.269531 11.25 -0.449219 Z M 22.261719 4.5 L 22.261719 -22.890625 L 24.390625 -22.890625 L 24.390625 4.5 Z M 13.46875 -5.96875 L 17.101562 -5.96875 L 17.101562 -13.980469 L 13.46875 -13.980469 Z M 13.46875 -5.96875 "/></g></g></g><g fill="#000000" fill-opacity="1"><g transform="translate(109.739671, 88.651039)"><g><path d="M 6.238281 -9.058594 C 5.640625 -9.058594 5.070312 -9.148438 4.589844 -9.390625 C 4.050781 -9.570312 3.628906 -9.871094 3.269531 -10.261719 C 2.878906 -10.621094 2.578125 -11.039062 2.398438 -11.578125 C 2.160156 -12.058594 2.070312 -12.628906 2.070312 -13.230469 L 2.070312 -18.328125 C 2.070312 -18.929688 2.160156 -19.46875 2.398438 -20.011719 C 2.578125 -20.488281 2.878906 -20.941406 3.269531 -21.328125 C 3.628906 -21.691406 4.050781 -21.960938 4.589844 -22.199219 C 5.070312 -22.378906 5.640625 -22.5 6.238281 -22.5 L 11.101562 -22.5 C 11.699219 -22.5 12.238281 -22.378906 12.78125 -22.199219 C 13.261719 -21.960938 13.710938 -21.691406 14.101562 -21.328125 C 14.460938 -20.941406 14.730469 -20.488281 14.96875 -20.011719 C 15.148438 -19.46875 15.269531 -18.929688 15.269531 -18.328125 L 15.269531 -13.230469 C 15.269531 -12.628906 15.148438 -12.058594 14.96875 -11.578125 C 14.730469 -11.039062 14.460938 -10.621094 14.101562 -10.261719 C 13.710938 -9.871094 13.261719 -9.570312 12.78125 -9.390625 C 12.238281 -9.148438 11.699219 -9.058594 11.101562 -9.058594 Z M 12.960938 -18.089844 C 12.960938 -18.808594 12.71875 -19.441406 12.238281 -19.921875 C 11.761719 -20.398438 11.128906 -20.640625 10.410156 -20.640625 L 6.929688 -20.640625 C 6.179688 -20.640625 5.578125 -20.398438 5.101562 -19.921875 C 4.621094 -19.441406 4.378906 -18.808594 4.378906 -18.089844 L 4.378906 -13.46875 C 4.378906 -12.71875 4.621094 -12.121094 5.101562 -11.640625 C 5.578125 -11.160156 6.179688 -10.921875 6.929688 -10.921875 L 10.410156 -10.921875 C 11.128906 -10.921875 11.761719 -11.160156 12.238281 -11.640625 C 12.71875 -12.121094 12.960938 -12.71875 12.960938 -13.46875 Z M 20.191406 4.621094 L 20.191406 -3.839844 L 2.851562 -3.839844 L 2.851562 -5.699219 L 22.5 -5.699219 L 22.5 4.621094 Z M 22.5 -19.441406 L 26.070312 -19.441406 L 26.070312 -17.578125 L 22.5 -17.578125 L 22.5 -13.140625 L 26.070312 -13.140625 L 26.070312 -11.28125 L 22.5 -11.28125 L 22.5 -7.558594 L 20.191406 -7.558594 L 20.191406 -22.890625 L 22.5 -22.890625 Z M 22.5 -19.441406 "/></g></g></g><g fill="#000000" fill-opacity="1"><g transform="translate(174.470262, 167.324094)"><g><path d="M 3.738281 -4.257812 C 3.160156 -4.257812 2.699219 -4.4375 2.339844 -4.820312 C 1.960938 -5.179688 1.78125 -5.636719 1.78125 -6.21875 L 1.78125 -7.996094 C 1.78125 -8.558594 1.960938 -9.039062 2.339844 -9.417969 C 2.699219 -9.777344 3.160156 -9.957031 3.738281 -9.957031 L 8.21875 -9.957031 C 8.777344 -9.957031 9.257812 -9.777344 9.636719 -9.417969 C 9.996094 -9.039062 10.175781 -8.558594 10.175781 -7.996094 L 10.175781 -6.21875 C 10.175781 -5.636719 9.996094 -5.179688 9.636719 -4.820312 C 9.257812 -4.4375 8.777344 -4.257812 8.21875 -4.257812 Z M 14.355469 -6.238281 L 14.355469 -8.777344 L 11.476562 -8.777344 L 11.476562 -10.039062 L 14.355469 -10.039062 L 14.355469 -15.257812 L 15.894531 -15.257812 L 15.894531 -1.738281 L 14.355469 -1.738281 L 14.355469 -5 L 11.476562 -5 L 11.476562 -6.238281 Z M 2.28125 2.800781 L 2.28125 -2.578125 L 3.820312 -2.578125 L 3.820312 1.558594 L 16.257812 1.558594 L 16.257812 2.800781 Z M 8.636719 -7.71875 C 8.636719 -8.4375 8.257812 -8.816406 7.539062 -8.816406 L 4.417969 -8.816406 C 3.679688 -8.816406 3.320312 -8.4375 3.320312 -7.71875 L 3.320312 -6.5 C 3.320312 -5.757812 3.679688 -5.398438 4.417969 -5.398438 L 7.539062 -5.398438 C 8.257812 -5.398438 8.636719 -5.757812 8.636719 -6.5 Z M 11.457031 -12.558594 L 11.457031 -11.316406 L 0.679688 -11.316406 L 0.679688 -12.558594 Z M 9.277344 -15.195312 L 9.277344 -13.957031 L 2.859375 -13.957031 L 2.859375 -15.195312 Z M 9.277344 -15.195312 "/></g></g></g><g fill="#000000" fill-opacity="1"><g transform="translate(192.263237, 167.324094)"><g><path d="M 4.277344 3 C 3.578125 3 3.019531 2.78125 2.578125 2.339844 C 2.121094 1.878906 1.898438 1.300781 1.898438 0.621094 L 1.898438 -1.398438 C 1.898438 -2.078125 2.121094 -2.660156 2.578125 -3.121094 C 3.019531 -3.558594 3.578125 -3.777344 4.277344 -3.777344 L 12.816406 -3.777344 C 13.496094 -3.777344 14.078125 -3.558594 14.535156 -3.121094 C 14.976562 -2.660156 15.195312 -2.078125 15.195312 -1.398438 L 15.195312 0.621094 C 15.195312 1.300781 14.976562 1.878906 14.535156 2.339844 C 14.078125 2.78125 13.496094 3 12.816406 3 Z M 13.65625 -1.28125 C 13.65625 -1.640625 13.535156 -1.960938 13.296875 -2.21875 C 13.035156 -2.460938 12.71875 -2.578125 12.355469 -2.578125 L 4.738281 -2.578125 C 4.359375 -2.578125 4.058594 -2.460938 3.820312 -2.21875 C 3.558594 -1.960938 3.4375 -1.640625 3.4375 -1.28125 L 3.4375 0.5 C 3.4375 0.859375 3.558594 1.179688 3.820312 1.441406 C 4.058594 1.679688 4.359375 1.800781 4.738281 1.800781 L 12.355469 1.800781 C 12.71875 1.800781 13.035156 1.679688 13.296875 1.441406 C 13.535156 1.179688 13.65625 0.859375 13.65625 0.5 Z M 10.855469 -14.976562 L 10.855469 -13.738281 L 7.359375 -13.738281 L 11.277344 -6.039062 L 9.699219 -6.039062 L 5.878906 -13.695312 L 1.878906 -6.039062 L 0.300781 -6.039062 L 4.339844 -13.738281 L 0.878906 -13.738281 L 0.878906 -14.976562 Z M 14.996094 -11.097656 L 17.375 -11.097656 L 17.375 -9.859375 L 14.996094 -9.859375 L 14.996094 -5.039062 L 13.457031 -5.039062 L 13.457031 -15.257812 L 14.996094 -15.257812 Z M 14.996094 -11.097656 "/></g></g></g><g fill="#000000" fill-opacity="1"><g transform="translate(210.056212, 167.324094)"><g><path d="M 2.28125 3 L 2.28125 -1.460938 L 14.355469 -1.460938 L 14.355469 -3.539062 L 2.28125 -3.539062 L 2.28125 -4.738281 L 15.894531 -4.738281 L 15.894531 -0.28125 L 3.820312 -0.28125 L 3.820312 1.800781 L 16.257812 1.800781 L 16.257812 3 Z M 14.355469 -9.316406 L 14.355469 -12.078125 L 10.558594 -12.078125 L 10.558594 -13.316406 L 14.355469 -13.316406 L 14.355469 -15.257812 L 15.894531 -15.257812 L 15.894531 -5.9375 L 14.355469 -5.9375 L 14.355469 -8.078125 L 10.558594 -8.078125 L 10.558594 -9.316406 Z M 1.558594 -14.996094 L 9.558594 -14.996094 L 8.617188 -6.757812 L 7.019531 -6.757812 L 7.9375 -13.757812 L 1.558594 -13.757812 Z M 1.558594 -14.996094 "/></g></g></g><g fill="#000000" fill-opacity="1"><g transform="translate(227.849188, 167.324094)"><g><path d="M 9.277344 -14.976562 L 9.277344 -13.738281 L 6.179688 -13.738281 L 9.457031 2.640625 L 7.976562 2.640625 L 5.078125 -13.117188 L 1.960938 2.640625 L 0.480469 2.640625 L 3.9375 -13.738281 L 0.878906 -13.738281 L 0.878906 -14.976562 Z M 8.835938 -7.699219 L 11.398438 -7.699219 L 11.398438 -15.078125 L 12.816406 -15.078125 L 12.816406 2.738281 L 11.398438 2.738281 L 11.398438 -6.457031 L 8.835938 -6.457031 Z M 14.835938 3 L 14.835938 -15.257812 L 16.257812 -15.257812 L 16.257812 3 Z M 14.835938 3 "/></g></g></g><g fill="#000000" fill-opacity="1"><g transform="translate(245.642163, 167.324094)"><g/></g></g><g fill="#000000" fill-opacity="1"><g transform="translate(251.639794, 167.324094)"><g><path d="M 1.160156 -6.636719 L 9.957031 -6.636719 L 9.957031 -5.296875 L 1.160156 -5.296875 Z M 1.160156 -6.636719 "/></g></g></g><g fill="#000000" fill-opacity="1"><g transform="translate(262.775398, 167.324094)"><g/></g></g><g fill="#000000" fill-opacity="1"><g transform="translate(268.773028, 167.324094)"><g><path d="M 9.65625 -3.859375 L 9.65625 1.359375 L 16.957031 1.359375 L 16.957031 2.597656 L 0.839844 2.597656 L 0.839844 1.359375 L 8.117188 1.359375 L 8.117188 -3.859375 L 4.699219 -3.859375 C 4.300781 -3.859375 3.917969 -3.917969 3.597656 -4.078125 C 3.238281 -4.199219 2.960938 -4.398438 2.71875 -4.660156 C 2.460938 -4.898438 2.257812 -5.179688 2.140625 -5.539062 C 1.980469 -5.859375 1.917969 -6.238281 1.917969 -6.636719 L 1.917969 -12.21875 C 1.917969 -12.617188 1.980469 -12.976562 2.140625 -13.335938 C 2.257812 -13.65625 2.460938 -13.957031 2.71875 -14.214844 C 2.960938 -14.457031 3.238281 -14.636719 3.597656 -14.796875 C 3.917969 -14.917969 4.300781 -14.996094 4.699219 -14.996094 L 13.136719 -14.996094 C 13.535156 -14.996094 13.898438 -14.917969 14.257812 -14.796875 C 14.578125 -14.636719 14.875 -14.457031 15.136719 -14.214844 C 15.375 -13.957031 15.554688 -13.65625 15.714844 -13.335938 C 15.835938 -12.976562 15.917969 -12.617188 15.917969 -12.21875 L 15.917969 -6.636719 C 15.917969 -6.238281 15.835938 -5.859375 15.714844 -5.539062 C 15.554688 -5.179688 15.375 -4.898438 15.136719 -4.660156 C 14.875 -4.398438 14.578125 -4.199219 14.257812 -4.078125 C 13.898438 -3.917969 13.535156 -3.859375 13.136719 -3.859375 Z M 14.375 -12.058594 C 14.375 -12.535156 14.214844 -12.957031 13.898438 -13.277344 C 13.578125 -13.597656 13.15625 -13.757812 12.675781 -13.757812 L 5.160156 -13.757812 C 4.660156 -13.757812 4.257812 -13.597656 3.9375 -13.277344 C 3.617188 -12.957031 3.460938 -12.535156 3.460938 -12.058594 L 3.460938 -6.796875 C 3.460938 -6.296875 3.617188 -5.898438 3.9375 -5.578125 C 4.257812 -5.257812 4.660156 -5.097656 5.160156 -5.097656 L 12.675781 -5.097656 C 13.15625 -5.097656 13.578125 -5.257812 13.898438 -5.578125 C 14.214844 -5.898438 14.375 -6.296875 14.375 -6.796875 Z M 14.375 -12.058594 "/></g></g></g><g fill="#000000" fill-opacity="1"><g transform="translate(286.566004, 167.324094)"><g><path d="M 1.71875 -8.019531 L 1.71875 -9.257812 L 4.71875 -9.257812 L 4.71875 -13.738281 L 1.917969 -13.738281 L 1.917969 -14.976562 L 15.917969 -14.976562 L 15.917969 -13.738281 L 13.136719 -13.738281 L 13.136719 -9.257812 L 16.117188 -9.257812 L 16.117188 -8.019531 Z M 6.21875 -9.257812 L 11.636719 -9.257812 L 11.636719 -13.738281 L 6.21875 -13.738281 Z M 2.019531 3 L 2.019531 -2.378906 L 3.558594 -2.378906 L 3.558594 1.757812 L 15.957031 1.757812 L 15.957031 3 Z M 0.839844 -4.480469 L 0.839844 -5.71875 L 16.957031 -5.71875 L 16.957031 -4.480469 Z M 0.839844 -4.480469 "/></g></g></g><g fill="#000000" fill-opacity="1"><g transform="translate(304.358979, 167.324094)"><g><path d="M 12.636719 -7.699219 L 14.835938 -7.699219 L 14.835938 -15.257812 L 16.257812 -15.257812 L 16.257812 3 L 14.835938 3 L 14.835938 -6.457031 L 12.636719 -6.457031 L 12.636719 2.738281 L 11.21875 2.738281 L 11.21875 -15.097656 L 12.636719 -15.097656 Z M 9.476562 -11.636719 L 9.476562 -10.398438 L 6.238281 -10.398438 L 9.457031 2.640625 L 7.976562 2.640625 L 5.078125 -9.777344 L 1.960938 2.640625 L 0.480469 2.640625 L 3.878906 -10.398438 L 0.699219 -10.398438 L 0.699219 -11.636719 Z M 8.097656 -15.195312 L 8.097656 -13.957031 L 2.078125 -13.957031 L 2.078125 -15.195312 Z M 8.097656 -15.195312 "/></g></g></g><g fill="#000000" fill-opacity="1"><g transform="translate(322.151954, 167.324094)"><g><path d="M 4.457031 3 C 3.757812 3 3.199219 2.78125 2.757812 2.339844 C 2.300781 1.878906 2.078125 1.300781 2.078125 0.621094 L 2.078125 -1.398438 C 2.078125 -2.078125 2.300781 -2.660156 2.757812 -3.121094 C 3.199219 -3.558594 3.757812 -3.777344 4.457031 -3.777344 L 13.714844 -3.777344 C 14.394531 -3.777344 14.976562 -3.558594 15.4375 -3.121094 C 15.875 -2.660156 16.097656 -2.078125 16.097656 -1.398438 L 16.097656 0.621094 C 16.097656 1.300781 15.875 1.878906 15.4375 2.339844 C 14.976562 2.78125 14.394531 3 13.714844 3 Z M 14.554688 -1.28125 C 14.554688 -1.640625 14.4375 -1.960938 14.195312 -2.21875 C 13.9375 -2.460938 13.617188 -2.578125 13.257812 -2.578125 L 4.917969 -2.578125 C 4.539062 -2.578125 4.238281 -2.460938 4 -2.21875 C 3.738281 -1.960938 3.617188 -1.640625 3.617188 -1.28125 L 3.617188 0.5 C 3.617188 0.859375 3.738281 1.179688 4 1.441406 C 4.238281 1.679688 4.539062 1.800781 4.917969 1.800781 L 13.257812 1.800781 C 13.617188 1.800781 13.9375 1.679688 14.195312 1.441406 C 14.4375 1.179688 14.554688 0.859375 14.554688 0.5 Z M 11.257812 -6.039062 L 1.558594 -6.039062 L 1.558594 -14.996094 L 10.898438 -14.996094 L 10.898438 -13.757812 L 3.097656 -13.757812 L 3.097656 -11.136719 L 10.757812 -11.136719 L 10.757812 -9.898438 L 3.097656 -9.898438 L 3.097656 -7.277344 L 11.257812 -7.277344 Z M 15.894531 -5.039062 L 14.355469 -5.039062 L 14.355469 -15.257812 L 15.894531 -15.257812 Z M 15.894531 -5.039062 "/></g></g></g><g fill="#000000" fill-opacity="1"><g transform="translate(339.94493, 167.324094)"><g/></g></g><g fill="#000000" fill-opacity="1"><g transform="translate(345.94256, 167.324094)"><g><path d="M 4.398438 2.640625 C 4 2.640625 3.617188 2.558594 3.300781 2.4375 C 2.9375 2.28125 2.660156 2.097656 2.417969 1.859375 C 2.160156 1.597656 1.960938 1.300781 1.839844 0.980469 C 1.679688 0.621094 1.621094 0.261719 1.621094 -0.140625 L 1.621094 -12.21875 C 1.621094 -12.617188 1.679688 -12.976562 1.839844 -13.335938 C 1.960938 -13.65625 2.160156 -13.957031 2.417969 -14.214844 C 2.660156 -14.457031 2.9375 -14.636719 3.300781 -14.796875 C 3.617188 -14.917969 4 -14.996094 4.398438 -14.996094 L 6.199219 -14.996094 C 6.597656 -14.996094 6.957031 -14.917969 7.316406 -14.796875 C 7.636719 -14.636719 7.9375 -14.457031 8.199219 -14.214844 C 8.4375 -13.957031 8.617188 -13.65625 8.777344 -13.335938 C 8.898438 -12.976562 8.976562 -12.617188 8.976562 -12.21875 L 8.976562 -10.558594 L 11.398438 -10.558594 L 11.398438 -15.097656 L 12.816406 -15.097656 L 12.816406 2.738281 L 11.398438 2.738281 L 11.398438 -2.738281 L 8.976562 -2.738281 L 8.976562 -0.140625 C 8.976562 0.261719 8.898438 0.621094 8.777344 0.980469 C 8.617188 1.300781 8.4375 1.597656 8.199219 1.859375 C 7.9375 2.097656 7.636719 2.28125 7.316406 2.4375 C 6.957031 2.558594 6.597656 2.640625 6.199219 2.640625 Z M 7.5 -12.058594 C 7.5 -12.535156 7.339844 -12.957031 7.019531 -13.277344 C 6.699219 -13.597656 6.277344 -13.757812 5.796875 -13.757812 L 4.796875 -13.757812 C 4.300781 -13.757812 3.898438 -13.597656 3.578125 -13.277344 C 3.257812 -12.957031 3.097656 -12.535156 3.097656 -12.058594 L 3.097656 -0.300781 C 3.097656 0.179688 3.257812 0.601562 3.578125 0.917969 C 3.898438 1.238281 4.300781 1.398438 4.796875 1.398438 L 5.796875 1.398438 C 6.277344 1.398438 6.699219 1.238281 7.019531 0.917969 C 7.339844 0.601562 7.5 0.179688 7.5 -0.300781 Z M 14.835938 3 L 14.835938 -15.257812 L 16.257812 -15.257812 L 16.257812 3 Z M 8.976562 -3.980469 L 11.398438 -3.980469 L 11.398438 -9.316406 L 8.976562 -9.316406 Z M 8.976562 -3.980469 "/></g></g></g><g fill="#000000" fill-opacity="1"><g transform="translate(363.735536, 167.324094)"><g><path d="M 4.160156 -6.039062 C 3.757812 -6.039062 3.378906 -6.097656 3.058594 -6.257812 C 2.699219 -6.378906 2.417969 -6.578125 2.179688 -6.839844 C 1.917969 -7.078125 1.71875 -7.359375 1.597656 -7.71875 C 1.441406 -8.039062 1.378906 -8.417969 1.378906 -8.816406 L 1.378906 -12.21875 C 1.378906 -12.617188 1.441406 -12.976562 1.597656 -13.335938 C 1.71875 -13.65625 1.917969 -13.957031 2.179688 -14.214844 C 2.417969 -14.457031 2.699219 -14.636719 3.058594 -14.796875 C 3.378906 -14.917969 3.757812 -14.996094 4.160156 -14.996094 L 7.398438 -14.996094 C 7.796875 -14.996094 8.15625 -14.917969 8.519531 -14.796875 C 8.835938 -14.636719 9.136719 -14.457031 9.398438 -14.214844 C 9.636719 -13.957031 9.816406 -13.65625 9.976562 -13.335938 C 10.097656 -12.976562 10.175781 -12.617188 10.175781 -12.21875 L 10.175781 -8.816406 C 10.175781 -8.417969 10.097656 -8.039062 9.976562 -7.71875 C 9.816406 -7.359375 9.636719 -7.078125 9.398438 -6.839844 C 9.136719 -6.578125 8.835938 -6.378906 8.519531 -6.257812 C 8.15625 -6.097656 7.796875 -6.039062 7.398438 -6.039062 Z M 8.636719 -12.058594 C 8.636719 -12.535156 8.476562 -12.957031 8.15625 -13.277344 C 7.839844 -13.597656 7.417969 -13.757812 6.9375 -13.757812 L 4.617188 -13.757812 C 4.117188 -13.757812 3.71875 -13.597656 3.398438 -13.277344 C 3.078125 -12.957031 2.917969 -12.535156 2.917969 -12.058594 L 2.917969 -8.976562 C 2.917969 -8.476562 3.078125 -8.078125 3.398438 -7.757812 C 3.71875 -7.4375 4.117188 -7.277344 4.617188 -7.277344 L 6.9375 -7.277344 C 7.417969 -7.277344 7.839844 -7.4375 8.15625 -7.757812 C 8.476562 -8.078125 8.636719 -8.476562 8.636719 -8.976562 Z M 13.457031 3.078125 L 13.457031 -2.558594 L 1.898438 -2.558594 L 1.898438 -3.800781 L 14.996094 -3.800781 L 14.996094 3.078125 Z M 14.996094 -12.957031 L 17.375 -12.957031 L 17.375 -11.71875 L 14.996094 -11.71875 L 14.996094 -8.757812 L 17.375 -8.757812 L 17.375 -7.519531 L 14.996094 -7.519531 L 14.996094 -5.039062 L 13.457031 -5.039062 L 13.457031 -15.257812 L 14.996094 -15.257812 Z M 14.996094 -12.957031 "/></g></g></g><g fill="#000000" fill-opacity="1"><g transform="translate(183.005421, 316.891235)"><g><path d="M 6.078125 -13.898438 L 2.078125 -5.859375 L 0.5 -5.859375 L 5.097656 -14.996094 L 7.019531 -14.996094 L 11.476562 -5.859375 L 9.898438 -5.859375 Z M 14.355469 -11.015625 L 14.355469 -15.257812 L 15.894531 -15.257812 L 15.894531 -1.738281 L 14.355469 -1.738281 L 14.355469 -9.777344 L 10.777344 -9.777344 L 10.777344 -11.015625 Z M 2.28125 2.800781 L 2.28125 -3.378906 L 3.820312 -3.378906 L 3.820312 1.558594 L 16.257812 1.558594 L 16.257812 2.800781 Z M 2.28125 2.800781 "/></g></g></g><g fill="#000000" fill-opacity="1"><g transform="translate(200.798396, 316.891235)"><g><path d="M 2.28125 3 L 2.28125 -1.460938 L 14.355469 -1.460938 L 14.355469 -3.539062 L 2.28125 -3.539062 L 2.28125 -4.738281 L 15.894531 -4.738281 L 15.894531 -0.28125 L 3.820312 -0.28125 L 3.820312 1.800781 L 16.257812 1.800781 L 16.257812 3 Z M 14.355469 -9.316406 L 14.355469 -12.078125 L 10.558594 -12.078125 L 10.558594 -13.316406 L 14.355469 -13.316406 L 14.355469 -15.257812 L 15.894531 -15.257812 L 15.894531 -5.9375 L 14.355469 -5.9375 L 14.355469 -8.078125 L 10.558594 -8.078125 L 10.558594 -9.316406 Z M 1.558594 -14.996094 L 9.558594 -14.996094 L 8.617188 -6.757812 L 7.019531 -6.757812 L 7.9375 -13.757812 L 1.558594 -13.757812 Z M 1.558594 -14.996094 "/></g></g></g><g fill="#000000" fill-opacity="1"><g transform="translate(218.591372, 316.891235)"><g><path d="M 9.277344 -14.976562 L 9.277344 -13.738281 L 6.179688 -13.738281 L 9.457031 2.640625 L 7.976562 2.640625 L 5.078125 -13.117188 L 1.960938 2.640625 L 0.480469 2.640625 L 3.9375 -13.738281 L 0.878906 -13.738281 L 0.878906 -14.976562 Z M 8.835938 -7.699219 L 11.398438 -7.699219 L 11.398438 -15.078125 L 12.816406 -15.078125 L 12.816406 2.738281 L 11.398438 2.738281 L 11.398438 -6.457031 L 8.835938 -6.457031 Z M 14.835938 3 L 14.835938 -15.257812 L 16.257812 -15.257812 L 16.257812 3 Z M 14.835938 3 "/></g></g></g><g fill="#000000" fill-opacity="1"><g transform="translate(236.384347, 316.891235)"><g/></g></g><g fill="#000000" fill-opacity="1"><g transform="translate(242.381977, 316.891235)"><g><path d="M 4.398438 2.640625 C 4 2.640625 3.617188 2.558594 3.300781 2.4375 C 2.9375 2.28125 2.660156 2.097656 2.417969 1.859375 C 2.160156 1.597656 1.960938 1.300781 1.839844 0.980469 C 1.679688 0.621094 1.621094 0.261719 1.621094 -0.140625 L 1.621094 -12.21875 C 1.621094 -12.617188 1.679688 -12.976562 1.839844 -13.335938 C 1.960938 -13.65625 2.160156 -13.957031 2.417969 -14.214844 C 2.660156 -14.457031 2.9375 -14.636719 3.300781 -14.796875 C 3.617188 -14.917969 4 -14.996094 4.398438 -14.996094 L 6.199219 -14.996094 C 6.597656 -14.996094 6.957031 -14.917969 7.316406 -14.796875 C 7.636719 -14.636719 7.9375 -14.457031 8.199219 -14.214844 C 8.4375 -13.957031 8.617188 -13.65625 8.777344 -13.335938 C 8.898438 -12.976562 8.976562 -12.617188 8.976562 -12.21875 L 8.976562 -10.558594 L 11.398438 -10.558594 L 11.398438 -15.097656 L 12.816406 -15.097656 L 12.816406 2.738281 L 11.398438 2.738281 L 11.398438 -2.738281 L 8.976562 -2.738281 L 8.976562 -0.140625 C 8.976562 0.261719 8.898438 0.621094 8.777344 0.980469 C 8.617188 1.300781 8.4375 1.597656 8.199219 1.859375 C 7.9375 2.097656 7.636719 2.28125 7.316406 2.4375 C 6.957031 2.558594 6.597656 2.640625 6.199219 2.640625 Z M 7.5 -12.058594 C 7.5 -12.535156 7.339844 -12.957031 7.019531 -13.277344 C 6.699219 -13.597656 6.277344 -13.757812 5.796875 -13.757812 L 4.796875 -13.757812 C 4.300781 -13.757812 3.898438 -13.597656 3.578125 -13.277344 C 3.257812 -12.957031 3.097656 -12.535156 3.097656 -12.058594 L 3.097656 -0.300781 C 3.097656 0.179688 3.257812 0.601562 3.578125 0.917969 C 3.898438 1.238281 4.300781 1.398438 4.796875 1.398438 L 5.796875 1.398438 C 6.277344 1.398438 6.699219 1.238281 7.019531 0.917969 C 7.339844 0.601562 7.5 0.179688 7.5 -0.300781 Z M 14.835938 3 L 14.835938 -15.257812 L 16.257812 -15.257812 L 16.257812 3 Z M 8.976562 -3.980469 L 11.398438 -3.980469 L 11.398438 -9.316406 L 8.976562 -9.316406 Z M 8.976562 -3.980469 "/></g></g></g><g fill="#000000" fill-opacity="1"><g transform="translate(260.174953, 316.891235)"><g><path d="M 4.160156 -6.039062 C 3.757812 -6.039062 3.378906 -6.097656 3.058594 -6.257812 C 2.699219 -6.378906 2.417969 -6.578125 2.179688 -6.839844 C 1.917969 -7.078125 1.71875 -7.359375 1.597656 -7.71875 C 1.441406 -8.039062 1.378906 -8.417969 1.378906 -8.816406 L 1.378906 -12.21875 C 1.378906 -12.617188 1.441406 -12.976562 1.597656 -13.335938 C 1.71875 -13.65625 1.917969 -13.957031 2.179688 -14.214844 C 2.417969 -14.457031 2.699219 -14.636719 3.058594 -14.796875 C 3.378906 -14.917969 3.757812 -14.996094 4.160156 -14.996094 L 7.398438 -14.996094 C 7.796875 -14.996094 8.15625 -14.917969 8.519531 -14.796875 C 8.835938 -14.636719 9.136719 -14.457031 9.398438 -14.214844 C 9.636719 -13.957031 9.816406 -13.65625 9.976562 -13.335938 C 10.097656 -12.976562 10.175781 -12.617188 10.175781 -12.21875 L 10.175781 -8.816406 C 10.175781 -8.417969 10.097656 -8.039062 9.976562 -7.71875 C 9.816406 -7.359375 9.636719 -7.078125 9.398438 -6.839844 C 9.136719 -6.578125 8.835938 -6.378906 8.519531 -6.257812 C 8.15625 -6.097656 7.796875 -6.039062 7.398438 -6.039062 Z M 8.636719 -12.058594 C 8.636719 -12.535156 8.476562 -12.957031 8.15625 -13.277344 C 7.839844 -13.597656 7.417969 -13.757812 6.9375 -13.757812 L 4.617188 -13.757812 C 4.117188 -13.757812 3.71875 -13.597656 3.398438 -13.277344 C 3.078125 -12.957031 2.917969 -12.535156 2.917969 -12.058594 L 2.917969 -8.976562 C 2.917969 -8.476562 3.078125 -8.078125 3.398438 -7.757812 C 3.71875 -7.4375 4.117188 -7.277344 4.617188 -7.277344 L 6.9375 -7.277344 C 7.417969 -7.277344 7.839844 -7.4375 8.15625 -7.757812 C 8.476562 -8.078125 8.636719 -8.476562 8.636719 -8.976562 Z M 13.457031 3.078125 L 13.457031 -2.558594 L 1.898438 -2.558594 L 1.898438 -3.800781 L 14.996094 -3.800781 L 14.996094 3.078125 Z M 14.996094 -12.957031 L 17.375 -12.957031 L 17.375 -11.71875 L 14.996094 -11.71875 L 14.996094 -8.757812 L 17.375 -8.757812 L 17.375 -7.519531 L 14.996094 -7.519531 L 14.996094 -5.039062 L 13.457031 -5.039062 L 13.457031 -15.257812 L 14.996094 -15.257812 Z M 14.996094 -12.957031 "/></g></g></g><g fill="#a6a6a6" fill-opacity="1"><g transform="translate(389.146157, 223.249991)"><g><path d="M 4.398438 2.640625 C 4 2.640625 3.617188 2.558594 3.300781 2.4375 C 2.9375 2.28125 2.660156 2.097656 2.417969 1.859375 C 2.160156 1.597656 1.960938 1.300781 1.839844 0.980469 C 1.679688 0.621094 1.621094 0.261719 1.621094 -0.140625 L 1.621094 -12.21875 C 1.621094 -12.617188 1.679688 -12.976562 1.839844 -13.335938 C 1.960938 -13.65625 2.160156 -13.957031 2.417969 -14.214844 C 2.660156 -14.457031 2.9375 -14.636719 3.300781 -14.796875 C 3.617188 -14.917969 4 -14.996094 4.398438 -14.996094 L 6.199219 -14.996094 C 6.597656 -14.996094 6.957031 -14.917969 7.316406 -14.796875 C 7.636719 -14.636719 7.9375 -14.457031 8.199219 -14.214844 C 8.4375 -13.957031 8.617188 -13.65625 8.777344 -13.335938 C 8.898438 -12.976562 8.976562 -12.617188 8.976562 -12.21875 L 8.976562 -10.558594 L 11.398438 -10.558594 L 11.398438 -15.097656 L 12.816406 -15.097656 L 12.816406 2.738281 L 11.398438 2.738281 L 11.398438 -2.738281 L 8.976562 -2.738281 L 8.976562 -0.140625 C 8.976562 0.261719 8.898438 0.621094 8.777344 0.980469 C 8.617188 1.300781 8.4375 1.597656 8.199219 1.859375 C 7.9375 2.097656 7.636719 2.28125 7.316406 2.4375 C 6.957031 2.558594 6.597656 2.640625 6.199219 2.640625 Z M 7.5 -12.058594 C 7.5 -12.535156 7.339844 -12.957031 7.019531 -13.277344 C 6.699219 -13.597656 6.277344 -13.757812 5.796875 -13.757812 L 4.796875 -13.757812 C 4.300781 -13.757812 3.898438 -13.597656 3.578125 -13.277344 C 3.257812 -12.957031 3.097656 -12.535156 3.097656 -12.058594 L 3.097656 -0.300781 C 3.097656 0.179688 3.257812 0.601562 3.578125 0.917969 C 3.898438 1.238281 4.300781 1.398438 4.796875 1.398438 L 5.796875 1.398438 C 6.277344 1.398438 6.699219 1.238281 7.019531 0.917969 C 7.339844 0.601562 7.5 0.179688 7.5 -0.300781 Z M 14.835938 3 L 14.835938 -15.257812 L 16.257812 -15.257812 L 16.257812 3 Z M 8.976562 -3.980469 L 11.398438 -3.980469 L 11.398438 -9.316406 L 8.976562 -9.316406 Z M 8.976562 -3.980469 "/></g></g></g><g fill="#a6a6a6" fill-opacity="1"><g transform="translate(406.939132, 223.249991)"><g><path d="M 4.160156 -6.039062 C 3.757812 -6.039062 3.378906 -6.097656 3.058594 -6.257812 C 2.699219 -6.378906 2.417969 -6.578125 2.179688 -6.839844 C 1.917969 -7.078125 1.71875 -7.359375 1.597656 -7.71875 C 1.441406 -8.039062 1.378906 -8.417969 1.378906 -8.816406 L 1.378906 -12.21875 C 1.378906 -12.617188 1.441406 -12.976562 1.597656 -13.335938 C 1.71875 -13.65625 1.917969 -13.957031 2.179688 -14.214844 C 2.417969 -14.457031 2.699219 -14.636719 3.058594 -14.796875 C 3.378906 -14.917969 3.757812 -14.996094 4.160156 -14.996094 L 7.398438 -14.996094 C 7.796875 -14.996094 8.15625 -14.917969 8.519531 -14.796875 C 8.835938 -14.636719 9.136719 -14.457031 9.398438 -14.214844 C 9.636719 -13.957031 9.816406 -13.65625 9.976562 -13.335938 C 10.097656 -12.976562 10.175781 -12.617188 10.175781 -12.21875 L 10.175781 -8.816406 C 10.175781 -8.417969 10.097656 -8.039062 9.976562 -7.71875 C 9.816406 -7.359375 9.636719 -7.078125 9.398438 -6.839844 C 9.136719 -6.578125 8.835938 -6.378906 8.519531 -6.257812 C 8.15625 -6.097656 7.796875 -6.039062 7.398438 -6.039062 Z M 8.636719 -12.058594 C 8.636719 -12.535156 8.476562 -12.957031 8.15625 -13.277344 C 7.839844 -13.597656 7.417969 -13.757812 6.9375 -13.757812 L 4.617188 -13.757812 C 4.117188 -13.757812 3.71875 -13.597656 3.398438 -13.277344 C 3.078125 -12.957031 2.917969 -12.535156 2.917969 -12.058594 L 2.917969 -8.976562 C 2.917969 -8.476562 3.078125 -8.078125 3.398438 -7.757812 C 3.71875 -7.4375 4.117188 -7.277344 4.617188 -7.277344 L 6.9375 -7.277344 C 7.417969 -7.277344 7.839844 -7.4375 8.15625 -7.757812 C 8.476562 -8.078125 8.636719 -8.476562 8.636719 -8.976562 Z M 13.457031 3.078125 L 13.457031 -2.558594 L 1.898438 -2.558594 L 1.898438 -3.800781 L 14.996094 -3.800781 L 14.996094 3.078125 Z M 14.996094 -12.957031 L 17.375 -12.957031 L 17.375 -11.71875 L 14.996094 -11.71875 L 14.996094 -8.757812 L 17.375 -8.757812 L 17.375 -7.519531 L 14.996094 -7.519531 L 14.996094 -5.039062 L 13.457031 -5.039062 L 13.457031 -15.257812 L 14.996094 -15.257812 Z M 14.996094 -12.957031 "/></g></g></g><g fill="#a6a6a6" fill-opacity="1"><g transform="translate(424.732108, 223.249991)"><g/></g></g><g fill="#a6a6a6" fill-opacity="1"><g transform="translate(430.729738, 223.249991)"><g><path d="M 2.097656 3 L 2.097656 -1.460938 L 13.457031 -1.460938 L 13.457031 -3.539062 L 2.097656 -3.539062 L 2.097656 -4.738281 L 14.996094 -4.738281 L 14.996094 -0.28125 L 3.640625 -0.28125 L 3.640625 1.800781 L 15.355469 1.800781 L 15.355469 3 Z M 1.378906 -7.136719 L 1.378906 -14.996094 L 2.917969 -14.996094 L 2.917969 -8.378906 L 11.078125 -8.378906 L 11.078125 -7.136719 Z M 14.996094 -11.496094 L 17.375 -11.496094 L 17.375 -10.257812 L 14.996094 -10.257812 L 14.996094 -5.9375 L 13.457031 -5.9375 L 13.457031 -15.257812 L 14.996094 -15.257812 Z M 14.996094 -11.496094 "/></g></g></g><g fill="#a6a6a6" fill-opacity="1"><g transform="translate(448.522714, 223.249991)"><g><path d="M 3.699219 -12.136719 L 2.140625 2.640625 L 0.699219 2.640625 L 2.660156 -13.796875 L 0.917969 -13.796875 L 0.917969 -14.996094 L 12.058594 -14.996094 L 12.058594 -13.796875 L 10.277344 -13.796875 L 12.078125 2.640625 L 10.675781 2.640625 L 9.238281 -12.136719 L 7.417969 2.640625 L 5.378906 2.640625 Z M 15.535156 -7.699219 L 17.375 -7.699219 L 17.375 -6.457031 L 15.535156 -6.457031 L 15.535156 3 L 13.996094 3 L 13.996094 -15.257812 L 15.535156 -15.257812 Z M 6.398438 0.460938 L 8.179688 -13.796875 L 4.757812 -13.796875 Z M 6.398438 0.460938 "/></g></g></g><g fill="#a6a6a6" fill-opacity="1"><g transform="translate(466.315689, 223.249991)"><g><path d="M 0.558594 0.398438 L 5.199219 0.398438 L 5.199219 -3.058594 L 3.980469 -3.058594 C 3.578125 -3.058594 3.199219 -3.121094 2.878906 -3.277344 C 2.519531 -3.398438 2.238281 -3.597656 2 -3.859375 C 1.738281 -4.097656 1.539062 -4.378906 1.417969 -4.738281 C 1.257812 -5.058594 1.199219 -5.4375 1.199219 -5.839844 L 1.199219 -12.21875 C 1.199219 -12.617188 1.257812 -12.976562 1.417969 -13.335938 C 1.539062 -13.65625 1.738281 -13.957031 2 -14.214844 C 2.238281 -14.457031 2.519531 -14.636719 2.878906 -14.796875 C 3.199219 -14.917969 3.578125 -14.996094 3.980469 -14.996094 L 7.9375 -14.996094 C 8.339844 -14.996094 8.699219 -14.917969 9.058594 -14.796875 C 9.378906 -14.636719 9.675781 -14.457031 9.9375 -14.214844 C 10.175781 -13.957031 10.355469 -13.65625 10.515625 -13.335938 C 10.636719 -12.976562 10.71875 -12.617188 10.71875 -12.21875 L 10.71875 -5.839844 C 10.71875 -5.4375 10.636719 -5.058594 10.515625 -4.738281 C 10.355469 -4.378906 10.175781 -4.097656 9.9375 -3.859375 C 9.675781 -3.597656 9.378906 -3.398438 9.058594 -3.277344 C 8.699219 -3.121094 8.339844 -3.058594 7.9375 -3.058594 L 6.738281 -3.058594 L 6.738281 0.398438 L 13.457031 0.398438 L 13.457031 -15.257812 L 14.996094 -15.257812 L 14.996094 -7.898438 L 17.375 -7.898438 L 17.375 -6.660156 L 14.996094 -6.660156 L 14.996094 3 L 13.457031 3 L 13.457031 1.640625 L 0.558594 1.640625 Z M 9.175781 -12.058594 C 9.175781 -12.535156 9.019531 -12.957031 8.699219 -13.277344 C 8.378906 -13.597656 7.957031 -13.757812 7.476562 -13.757812 L 4.4375 -13.757812 C 3.9375 -13.757812 3.539062 -13.597656 3.21875 -13.277344 C 2.898438 -12.957031 2.738281 -12.535156 2.738281 -12.058594 L 2.738281 -6 C 2.738281 -5.5 2.898438 -5.097656 3.21875 -4.777344 C 3.539062 -4.457031 3.9375 -4.300781 4.4375 -4.300781 L 7.476562 -4.300781 C 7.957031 -4.300781 8.378906 -4.457031 8.699219 -4.777344 C 9.019531 -5.097656 9.175781 -5.5 9.175781 -6 Z M 9.175781 -12.058594 "/></g></g></g><g fill="#a6a6a6" fill-opacity="1"><g transform="translate(484.108664, 223.249991)"><g/></g></g><g fill="#a6a6a6" fill-opacity="1"><g transform="translate(490.106295, 223.249991)"><g><path d="M 4.277344 3 C 3.578125 3 3.019531 2.78125 2.578125 2.339844 C 2.121094 1.878906 1.898438 1.300781 1.898438 0.621094 L 1.898438 -1.398438 C 1.898438 -2.078125 2.121094 -2.660156 2.578125 -3.121094 C 3.019531 -3.558594 3.578125 -3.777344 4.277344 -3.777344 L 12.816406 -3.777344 C 13.496094 -3.777344 14.078125 -3.558594 14.535156 -3.121094 C 14.976562 -2.660156 15.195312 -2.078125 15.195312 -1.398438 L 15.195312 0.621094 C 15.195312 1.300781 14.976562 1.878906 14.535156 2.339844 C 14.078125 2.78125 13.496094 3 12.816406 3 Z M 10.175781 -14.996094 L 10.175781 -6.039062 L 1.378906 -6.039062 L 1.378906 -14.996094 L 2.917969 -14.996094 L 2.917969 -12.035156 L 8.636719 -12.035156 L 8.636719 -14.996094 Z M 13.65625 -1.28125 C 13.65625 -1.640625 13.535156 -1.960938 13.296875 -2.21875 C 13.035156 -2.460938 12.71875 -2.578125 12.355469 -2.578125 L 4.738281 -2.578125 C 4.359375 -2.578125 4.058594 -2.460938 3.820312 -2.21875 C 3.558594 -1.960938 3.4375 -1.640625 3.4375 -1.28125 L 3.4375 0.5 C 3.4375 0.859375 3.558594 1.179688 3.820312 1.441406 C 4.058594 1.679688 4.359375 1.800781 4.738281 1.800781 L 12.355469 1.800781 C 12.71875 1.800781 13.035156 1.679688 13.296875 1.441406 C 13.535156 1.179688 13.65625 0.859375 13.65625 0.5 Z M 8.636719 -7.238281 L 8.636719 -10.835938 L 2.917969 -10.835938 L 2.917969 -7.238281 Z M 14.996094 -11.097656 L 17.375 -11.097656 L 17.375 -9.859375 L 14.996094 -9.859375 L 14.996094 -5.039062 L 13.457031 -5.039062 L 13.457031 -15.257812 L 14.996094 -15.257812 Z M 14.996094 -11.097656 "/></g></g></g><g fill="#a6a6a6" fill-opacity="1"><g transform="translate(507.89927, 223.249991)"><g><path d="M 15.894531 3 L 14.355469 3 L 14.355469 -15.257812 L 15.894531 -15.257812 Z M 4.339844 2.640625 C 3.9375 2.640625 3.558594 2.558594 3.238281 2.4375 C 2.878906 2.28125 2.597656 2.097656 2.359375 1.859375 C 2.097656 1.597656 1.898438 1.300781 1.78125 0.980469 C 1.621094 0.621094 1.558594 0.261719 1.558594 -0.140625 L 1.558594 -12.21875 C 1.558594 -12.617188 1.621094 -12.976562 1.78125 -13.335938 C 1.898438 -13.65625 2.097656 -13.957031 2.359375 -14.214844 C 2.597656 -14.457031 2.878906 -14.636719 3.238281 -14.796875 C 3.558594 -14.917969 3.9375 -14.996094 4.339844 -14.996094 L 7.578125 -14.996094 C 7.976562 -14.996094 8.339844 -14.917969 8.699219 -14.796875 C 9.019531 -14.636719 9.316406 -14.457031 9.578125 -14.214844 C 9.816406 -13.957031 9.996094 -13.65625 10.15625 -13.335938 C 10.277344 -12.976562 10.355469 -12.617188 10.355469 -12.21875 L 10.355469 -0.140625 C 10.355469 0.261719 10.277344 0.621094 10.15625 0.980469 C 9.996094 1.300781 9.816406 1.597656 9.578125 1.859375 C 9.316406 2.097656 9.019531 2.28125 8.699219 2.4375 C 8.339844 2.558594 7.976562 2.640625 7.578125 2.640625 Z M 8.816406 -12.058594 C 8.816406 -12.535156 8.65625 -12.957031 8.339844 -13.277344 C 8.019531 -13.597656 7.597656 -13.757812 7.117188 -13.757812 L 4.796875 -13.757812 C 4.300781 -13.757812 3.898438 -13.597656 3.578125 -13.277344 C 3.257812 -12.957031 3.097656 -12.535156 3.097656 -12.058594 L 3.097656 -0.300781 C 3.097656 0.179688 3.257812 0.601562 3.578125 0.917969 C 3.898438 1.238281 4.300781 1.398438 4.796875 1.398438 L 7.117188 1.398438 C 7.597656 1.398438 8.019531 1.238281 8.339844 0.917969 C 8.65625 0.601562 8.816406 0.179688 8.816406 -0.300781 Z M 8.816406 -12.058594 "/></g></g></g><g fill="#a6a6a6" fill-opacity="1"><g transform="translate(525.692246, 223.249991)"><g><path d="M 2.019531 3 L 2.019531 -2.738281 L 15.796875 -2.738281 L 15.796875 3 Z M 14.257812 -1.5 L 3.558594 -1.5 L 3.558594 1.757812 L 14.257812 1.757812 Z M 0.839844 -4.558594 L 0.839844 -5.796875 L 16.957031 -5.796875 L 16.957031 -4.558594 Z M 15.9375 -8.859375 L 15.9375 -7.617188 L 2.121094 -7.617188 L 2.121094 -11.917969 L 14.035156 -11.917969 L 14.035156 -13.757812 L 2.078125 -13.757812 L 2.078125 -14.996094 L 15.597656 -14.996094 L 15.597656 -10.675781 L 3.640625 -10.675781 L 3.640625 -8.859375 Z M 15.9375 -8.859375 "/></g></g></g><g fill="#a6a6a6" fill-opacity="1"><g transform="translate(543.485221, 223.249991)"><g/></g></g><g fill="#a6a6a6" fill-opacity="1"><g transform="translate(549.482852, 223.249991)"><g><path d="M 1.378906 -6.738281 L 1.378906 -14.996094 L 10.175781 -14.996094 L 10.175781 -6.738281 Z M 2.097656 3 L 2.097656 -1.460938 L 13.457031 -1.460938 L 13.457031 -3.539062 L 2.097656 -3.539062 L 2.097656 -4.738281 L 14.996094 -4.738281 L 14.996094 -0.28125 L 3.640625 -0.28125 L 3.640625 1.800781 L 15.355469 1.800781 L 15.355469 3 Z M 8.636719 -13.796875 L 2.917969 -13.796875 L 2.917969 -7.9375 L 8.636719 -7.9375 Z M 14.996094 -11.496094 L 17.375 -11.496094 L 17.375 -10.257812 L 14.996094 -10.257812 L 14.996094 -5.9375 L 13.457031 -5.9375 L 13.457031 -15.257812 L 14.996094 -15.257812 Z M 14.996094 -11.496094 "/></g></g></g><g fill="#a6a6a6" fill-opacity="1"><g transform="translate(567.275827, 223.249991)"><g><path d="M 2.019531 3 L 2.019531 -3.339844 L 15.796875 -3.339844 L 15.796875 3 Z M 14.257812 -2.097656 L 3.558594 -2.097656 L 3.558594 1.757812 L 14.257812 1.757812 Z M 5.480469 -13.917969 L 2.917969 -8.296875 L 1.378906 -8.296875 L 4.578125 -14.996094 L 6.417969 -14.996094 L 8.917969 -9.617188 L 11.558594 -14.996094 L 13.398438 -14.996094 L 16.414062 -8.296875 L 14.917969 -8.296875 L 12.476562 -13.917969 L 9.65625 -8.296875 L 8.15625 -8.296875 Z M 0.839844 -5.257812 L 0.839844 -6.5 L 16.957031 -6.5 L 16.957031 -5.257812 Z M 0.839844 -5.257812 "/></g></g></g><g fill="#a6a6a6" fill-opacity="1"><g transform="translate(585.068814, 223.249991)"><g><path d="M 3.980469 2.640625 C 3.578125 2.640625 3.199219 2.558594 2.878906 2.4375 C 2.519531 2.28125 2.238281 2.097656 2 1.859375 C 1.738281 1.597656 1.539062 1.300781 1.417969 0.980469 C 1.257812 0.621094 1.199219 0.261719 1.199219 -0.140625 L 1.199219 -5.9375 C 1.199219 -6.339844 1.257812 -6.699219 1.417969 -7.058594 C 1.539062 -7.378906 1.738281 -7.679688 2 -7.9375 C 2.238281 -8.179688 2.519531 -8.359375 2.878906 -8.519531 C 3.199219 -8.636719 3.578125 -8.71875 3.980469 -8.71875 L 6.019531 -8.71875 C 6.417969 -8.71875 6.777344 -8.636719 7.136719 -8.519531 C 7.457031 -8.359375 7.757812 -8.179688 8.019531 -7.9375 C 8.257812 -7.679688 8.4375 -7.378906 8.597656 -7.058594 C 8.71875 -6.699219 8.796875 -6.339844 8.796875 -5.9375 L 8.796875 -0.140625 C 8.796875 0.261719 8.71875 0.621094 8.597656 0.980469 C 8.4375 1.300781 8.257812 1.597656 8.019531 1.859375 C 7.757812 2.097656 7.457031 2.28125 7.136719 2.4375 C 6.777344 2.558594 6.417969 2.640625 6.019531 2.640625 Z M 12.636719 -7.699219 L 14.835938 -7.699219 L 14.835938 -15.257812 L 16.257812 -15.257812 L 16.257812 3 L 14.835938 3 L 14.835938 -6.457031 L 12.636719 -6.457031 L 12.636719 2.738281 L 11.21875 2.738281 L 11.21875 -15.097656 L 12.636719 -15.097656 Z M 7.257812 -5.777344 C 7.257812 -6.257812 7.097656 -6.679688 6.777344 -7 C 6.457031 -7.316406 6.039062 -7.476562 5.558594 -7.476562 L 4.4375 -7.476562 C 3.9375 -7.476562 3.539062 -7.316406 3.21875 -7 C 2.898438 -6.679688 2.738281 -6.257812 2.738281 -5.777344 L 2.738281 -0.300781 C 2.738281 0.179688 2.898438 0.601562 3.21875 0.917969 C 3.539062 1.238281 3.9375 1.398438 4.4375 1.398438 L 5.558594 1.398438 C 6.039062 1.398438 6.457031 1.238281 6.777344 0.917969 C 7.097656 0.601562 7.257812 0.179688 7.257812 -0.300781 Z M 9.476562 -11.9375 L 9.476562 -10.699219 L 0.699219 -10.699219 L 0.699219 -11.9375 Z M 8.097656 -15.195312 L 8.097656 -13.957031 L 2.078125 -13.957031 L 2.078125 -15.195312 Z M 8.097656 -15.195312 "/></g></g></g><g fill="#a6a6a6" fill-opacity="1"><g transform="translate(602.861789, 223.249991)"><g><path d="M 8.898438 -13.65625 L 3.199219 -5.457031 L 1.441406 -5.457031 L 7.316406 -13.816406 L 2.039062 -13.816406 L 2.039062 -14.996094 L 15.796875 -14.996094 L 15.796875 -13.816406 L 10.496094 -13.816406 L 16.375 -5.457031 L 14.617188 -5.457031 Z M 8.117188 3.097656 L 8.117188 -1.519531 L 0.839844 -1.519531 L 0.839844 -2.757812 L 16.957031 -2.757812 L 16.957031 -1.519531 L 9.65625 -1.519531 L 9.65625 3.097656 Z M 8.117188 3.097656 "/></g></g></g><g fill="#a6a6a6" fill-opacity="1"><g transform="translate(620.654764, 223.249991)"><g><path d="M 15.894531 3 L 14.355469 3 L 14.355469 -15.257812 L 15.894531 -15.257812 Z M 6.078125 -13.316406 L 1.960938 2.640625 L 0.480469 2.640625 L 5.160156 -14.996094 L 6.976562 -14.996094 L 11.457031 2.640625 L 9.976562 2.640625 Z M 6.078125 -13.316406 "/></g></g></g><g fill="#a6a6a6" fill-opacity="1"><g transform="translate(638.44774, 223.249991)"><g><path d="M 1.558594 -5.859375 L 1.558594 -14.996094 L 10.355469 -14.996094 L 10.355469 -5.859375 Z M 8.816406 -13.796875 L 3.097656 -13.796875 L 3.097656 -7.058594 L 8.816406 -7.058594 Z M 14.355469 -8.917969 L 14.355469 -11.675781 L 11.476562 -11.675781 L 11.476562 -12.917969 L 14.355469 -12.917969 L 14.355469 -15.257812 L 15.894531 -15.257812 L 15.894531 -1.738281 L 14.355469 -1.738281 L 14.355469 -7.679688 L 11.476562 -7.679688 L 11.476562 -8.917969 Z M 2.28125 2.800781 L 2.28125 -3.378906 L 3.820312 -3.378906 L 3.820312 1.558594 L 16.257812 1.558594 L 16.257812 2.800781 Z M 2.28125 2.800781 "/></g></g></g><g fill="#a6a6a6" fill-opacity="1"><g transform="translate(656.240715, 223.249991)"><g/></g></g><g fill="#a6a6a6" fill-opacity="1"><g transform="translate(662.238334, 223.249991)"><g><path d="M 2.480469 3 L 2.480469 -3.777344 L 4.019531 -3.777344 L 4.019531 -1.757812 L 14.355469 -1.757812 L 14.355469 -3.777344 L 15.894531 -3.777344 L 15.894531 3 Z M 11.636719 -8.65625 L 7.476562 -8.65625 L 7.476562 -6.679688 L 14.355469 -6.679688 L 14.355469 -15.257812 L 15.894531 -15.257812 L 15.894531 -5.4375 L 0.917969 -5.4375 L 0.917969 -6.679688 L 5.9375 -6.679688 L 5.9375 -8.65625 L 1.941406 -8.65625 L 1.941406 -14.996094 L 11.277344 -14.996094 L 11.277344 -13.757812 L 3.480469 -13.757812 L 3.480469 -9.898438 L 11.636719 -9.898438 Z M 14.355469 -0.558594 L 4.019531 -0.558594 L 4.019531 1.800781 L 14.355469 1.800781 Z M 14.355469 -0.558594 "/></g></g></g><g fill="#a6a6a6" fill-opacity="1"><g transform="translate(680.03131, 223.249991)"><g><path d="M 15.894531 3 L 14.355469 3 L 14.355469 -15.257812 L 15.894531 -15.257812 Z M 1.558594 2.640625 L 1.558594 -14.996094 L 3.097656 -14.996094 L 3.097656 1.398438 L 11.257812 1.398438 L 11.257812 2.640625 Z M 1.558594 2.640625 "/></g></g></g><g fill="#a6a6a6" fill-opacity="1"><g transform="translate(697.824285, 223.249991)"><g><path d="M 11.078125 2.640625 L 1.378906 2.640625 L 1.378906 -14.996094 L 10.71875 -14.996094 L 10.71875 -13.757812 L 2.917969 -13.757812 L 2.917969 1.398438 L 11.078125 1.398438 Z M 14.996094 -7.699219 L 17.375 -7.699219 L 17.375 -6.457031 L 14.996094 -6.457031 L 14.996094 3 L 13.457031 3 L 13.457031 -15.257812 L 14.996094 -15.257812 Z M 14.996094 -7.699219 "/></g></g></g></svg>