<svg xmlns="http://www.w3.org/2000/svg" xmlns:xlink="http://www.w3.org/1999/xlink" width="1500" zoomAndPan="magnify" viewBox="0 0 1125 374.999991" height="500" preserveAspectRatio="xMidYMid meet" version="1.0"><defs><g/><clipPath id="1977f27d3f"><path d="M 1030 270 L 1062 270 L 1062 301.90625 L 1030 301.90625 Z M 1030 270 " clip-rule="nonzero"/></clipPath><clipPath id="df64875225"><path d="M 1011.632812 251.035156 L 1054.617188 251.035156 L 1054.617188 278.332031 L 1011.632812 278.332031 Z M 1011.632812 251.035156 " clip-rule="nonzero"/></clipPath><clipPath id="4caa8faac3"><path d="M 1053.320312 258.027344 L 1076.433594 258.027344 L 1076.433594 271.417969 L 1053.320312 271.417969 Z M 1053.320312 258.027344 " clip-rule="nonzero"/></clipPath></defs><rect x="-112.5" width="1350" fill="#ffffff" y="-37.499999" height="449.999989" fill-opacity="1"/><rect x="-112.5" width="1350" fill="#ffffff" y="-37.499999" height="449.999989" fill-opacity="1"/><rect x="-112.5" width="1350" fill="#fff8dc" y="-37.499999" height="449.999989" fill-opacity="1"/><path stroke-linecap="butt" transform="matrix(0.75, 0, 0, 0.75, 131.42983, 74.249995)" fill="none" stroke-linejoin="miter" d="M -0.000189559 1.000007 L 559.999847 1.000007 " stroke="#000000" stroke-width="2" stroke-opacity="1" stroke-miterlimit="4"/><g clip-path="url(#1977f27d3f)"><path fill="#000000" d="M 1047.816406 301.902344 C 1047.71875 301.902344 1047.617188 301.859375 1047.546875 301.78125 C 1047.417969 301.636719 1047.429688 301.410156 1047.578125 301.277344 C 1048.089844 300.828125 1048.921875 300.28125 1049.886719 299.648438 C 1052.421875 297.988281 1055.898438 295.71875 1055.898438 293.53125 C 1055.898438 291.339844 1053.671875 290.78125 1051.3125 290.074219 C 1050.980469 289.972656 1050.648438 289.875 1050.324219 289.773438 C 1049.222656 289.421875 1048.359375 288.554688 1048.011719 287.453125 C 1047.671875 286.359375 1047.871094 285.222656 1048.5625 284.324219 C 1050.335938 282.015625 1053.191406 281 1055.710938 280.109375 C 1058.703125 279.046875 1061.289062 278.132812 1061.289062 275.402344 C 1061.289062 273.167969 1058.097656 271.601562 1055.542969 271.019531 C 1056.789062 272.019531 1057.988281 273.492188 1057.988281 275.058594 C 1057.988281 278.371094 1052.605469 279.59375 1046.910156 280.886719 C 1040.476562 282.347656 1033.183594 284.003906 1033.183594 288.804688 C 1033.183594 290.488281 1034.574219 291.117188 1036.042969 291.785156 C 1037.429688 292.410156 1038.859375 293.054688 1038.859375 294.664062 C 1038.859375 297.910156 1030.480469 299.128906 1030.398438 299.132812 C 1030.199219 299.140625 1030.035156 298.984375 1030.023438 298.789062 C 1030.019531 298.59375 1030.164062 298.433594 1030.355469 298.417969 C 1031.339844 298.3125 1038.144531 297.003906 1038.144531 294.664062 C 1038.144531 293.515625 1037.035156 293.015625 1035.75 292.433594 C 1034.210938 291.738281 1032.46875 290.953125 1032.46875 288.804688 C 1032.46875 283.433594 1040.054688 281.710938 1046.75 280.191406 C 1052.164062 278.960938 1057.273438 277.800781 1057.273438 275.058594 C 1057.273438 273.324219 1055.261719 271.488281 1053.835938 270.738281 C 1053.6875 270.660156 1053.613281 270.488281 1053.660156 270.328125 C 1053.703125 270.164062 1053.859375 270.058594 1054.023438 270.066406 C 1056.71875 270.238281 1062 272.03125 1062 275.398438 C 1062 278.765625 1059.0625 279.679688 1055.949219 280.78125 C 1053.40625 281.683594 1050.773438 282.617188 1049.125 284.761719 C 1048.578125 285.46875 1048.421875 286.375 1048.695312 287.238281 C 1048.972656 288.117188 1049.660156 288.8125 1050.539062 289.089844 C 1050.863281 289.195312 1051.191406 289.292969 1051.515625 289.390625 C 1054.023438 290.144531 1056.613281 290.921875 1056.613281 293.53125 C 1056.613281 296.136719 1052.953125 298.496094 1050.277344 300.246094 C 1049.335938 300.863281 1048.523438 301.394531 1048.050781 301.8125 C 1047.984375 301.871094 1047.898438 301.902344 1047.816406 301.902344 Z M 1047.816406 301.902344 " fill-opacity="1" fill-rule="nonzero"/></g><path fill="#000000" d="M 1039.277344 291.347656 C 1039.238281 291.347656 1039.195312 291.34375 1039.15625 291.328125 C 1036.636719 290.417969 1036.105469 289.253906 1036.105469 288.433594 C 1036.105469 286.632812 1038.546875 285.121094 1040.957031 284.558594 C 1041.152344 284.511719 1041.339844 284.632812 1041.386719 284.824219 C 1041.429688 285.019531 1041.3125 285.207031 1041.117188 285.253906 C 1038.710938 285.816406 1036.820312 287.214844 1036.820312 288.433594 C 1036.820312 289.277344 1037.710938 290.046875 1039.398438 290.65625 C 1039.585938 290.722656 1039.679688 290.925781 1039.613281 291.113281 C 1039.5625 291.257812 1039.421875 291.347656 1039.277344 291.347656 Z M 1039.277344 291.347656 " fill-opacity="1" fill-rule="nonzero"/><path fill="#000000" d="M 1045.949219 299.875 C 1045.804688 299.875 1045.667969 299.785156 1045.613281 299.640625 C 1045.546875 299.453125 1045.636719 299.25 1045.824219 299.179688 C 1048.359375 298.234375 1050.917969 296.59375 1050.917969 295.058594 C 1050.917969 293.929688 1049.488281 293.046875 1048.289062 292.507812 C 1048.109375 292.425781 1048.03125 292.214844 1048.113281 292.035156 C 1048.191406 291.855469 1048.402344 291.773438 1048.585938 291.855469 C 1050.605469 292.765625 1051.628906 293.84375 1051.628906 295.058594 C 1051.628906 297.0625 1048.757812 298.847656 1046.070312 299.847656 C 1046.03125 299.863281 1045.988281 299.875 1045.945312 299.875 Z M 1045.949219 299.875 " fill-opacity="1" fill-rule="nonzero"/><g clip-path="url(#df64875225)"><path fill="#000000" d="M 1012.039062 278.195312 C 1011.96875 278.195312 1011.898438 278.171875 1011.832031 278.128906 C 1011.671875 278.011719 1011.632812 277.789062 1011.746094 277.628906 C 1012.707031 276.277344 1013.746094 274.96875 1014.746094 273.703125 C 1016.339844 271.691406 1017.980469 269.613281 1019.324219 267.351562 C 1019.390625 267.242188 1019.503906 267.175781 1019.640625 267.179688 C 1020.800781 267.210938 1021.894531 267.890625 1022.855469 268.488281 C 1022.890625 268.507812 1022.917969 268.527344 1022.953125 268.542969 C 1024.136719 267.5625 1027.691406 262.773438 1030.574219 258.882812 C 1035.523438 252.210938 1036.484375 251.039062 1036.992188 251.039062 C 1038.953125 251.039062 1040.640625 254.5625 1042.132812 257.671875 C 1042.570312 258.585938 1042.988281 259.457031 1043.347656 260.078125 C 1043.710938 259.671875 1044.035156 259.222656 1044.375 258.753906 C 1044.839844 258.105469 1045.320312 257.4375 1045.933594 256.878906 C 1046.054688 256.769531 1046.238281 256.753906 1046.375 256.851562 C 1049.300781 258.875 1050.667969 262.171875 1051.988281 265.355469 C 1052.675781 267.015625 1053.386719 268.726562 1054.308594 270.238281 C 1054.410156 270.40625 1054.355469 270.625 1054.1875 270.726562 C 1054.019531 270.828125 1053.800781 270.777344 1053.699219 270.609375 C 1052.746094 269.050781 1052.027344 267.3125 1051.328125 265.628906 C 1050.027344 262.488281 1048.796875 259.519531 1046.203125 257.605469 C 1045.742188 258.070312 1045.355469 258.605469 1044.953125 259.167969 C 1044.523438 259.765625 1044.078125 260.382812 1043.53125 260.914062 C 1043.453125 260.988281 1043.347656 261.023438 1043.246094 261.011719 C 1043.140625 261 1043.042969 260.941406 1042.984375 260.851562 C 1042.554688 260.203125 1042.058594 259.171875 1041.488281 257.980469 C 1040.246094 255.386719 1038.550781 251.847656 1037.050781 251.753906 C 1036.449219 252.160156 1033.636719 255.953125 1031.148438 259.304688 C 1027.753906 263.882812 1024.242188 268.613281 1023.152344 269.277344 C 1023.039062 269.347656 1022.894531 269.347656 1022.777344 269.277344 C 1022.679688 269.214844 1022.582031 269.152344 1022.480469 269.09375 C 1021.65625 268.582031 1020.726562 268.007812 1019.824219 267.90625 C 1018.480469 270.132812 1016.867188 272.167969 1015.304688 274.140625 C 1014.308594 275.402344 1013.277344 276.707031 1012.332031 278.042969 C 1012.261719 278.140625 1012.148438 278.191406 1012.039062 278.191406 Z M 1012.039062 278.195312 " fill-opacity="1" fill-rule="nonzero"/></g><g clip-path="url(#4caa8faac3)"><path fill="#000000" d="M 1076.039062 271.335938 C 1075.945312 271.335938 1075.847656 271.296875 1075.777344 271.222656 C 1075.199219 270.601562 1074.769531 269.871094 1074.359375 269.171875 C 1073.722656 268.085938 1073.121094 267.054688 1072.007812 266.472656 C 1071.433594 266.964844 1070.625 267.582031 1069.753906 268.015625 C 1069.617188 268.085938 1069.445312 268.058594 1069.335938 267.941406 C 1069.210938 267.808594 1069.117188 267.585938 1068.953125 267.175781 C 1068.425781 265.878906 1067.203125 262.875 1063.148438 258.957031 C 1059.492188 262.5 1056.539062 266.210938 1054.125 270.292969 C 1054.023438 270.464844 1053.804688 270.519531 1053.636719 270.421875 C 1053.464844 270.320312 1053.410156 270.101562 1053.511719 269.933594 C 1056.011719 265.703125 1059.082031 261.867188 1062.902344 258.203125 C 1063.039062 258.070312 1063.253906 258.070312 1063.394531 258.203125 C 1067.757812 262.34375 1069.058594 265.542969 1069.613281 266.90625 C 1069.65625 267.015625 1069.703125 267.125 1069.742188 267.214844 C 1070.519531 266.78125 1071.230469 266.207031 1071.714844 265.78125 C 1071.820312 265.6875 1071.96875 265.667969 1072.097656 265.722656 C 1073.550781 266.375 1074.277344 267.613281 1074.976562 268.808594 C 1075.367188 269.476562 1075.773438 270.167969 1076.300781 270.734375 C 1076.4375 270.875 1076.429688 271.101562 1076.285156 271.238281 C 1076.214844 271.300781 1076.128906 271.335938 1076.042969 271.335938 Z M 1076.039062 271.335938 " fill-opacity="1" fill-rule="nonzero"/></g><path fill="#000000" d="M 1058.136719 267.230469 C 1058.0625 267.230469 1057.988281 267.207031 1057.925781 267.164062 C 1057.621094 266.941406 1057.324219 266.679688 1057.039062 266.421875 C 1056.867188 266.273438 1056.695312 266.117188 1056.515625 265.972656 C 1056.367188 265.847656 1056.34375 265.621094 1056.472656 265.46875 C 1056.597656 265.316406 1056.820312 265.296875 1056.976562 265.421875 C 1057.15625 265.574219 1057.335938 265.730469 1057.511719 265.890625 C 1057.730469 266.082031 1057.933594 266.265625 1058.140625 266.429688 C 1058.808594 265.917969 1059.34375 265.265625 1059.910156 264.582031 C 1060.058594 264.402344 1060.207031 264.222656 1060.359375 264.046875 C 1060.464844 263.921875 1060.640625 263.886719 1060.785156 263.957031 C 1061.554688 264.335938 1062.496094 265.085938 1063.097656 265.78125 C 1063.5 265.570312 1063.867188 265.304688 1064.222656 264.980469 C 1064.308594 264.898438 1064.4375 264.871094 1064.558594 264.902344 C 1065.167969 265.070312 1065.585938 265.355469 1066.027344 265.664062 C 1066.121094 265.726562 1066.214844 265.792969 1066.3125 265.855469 C 1066.886719 265.472656 1067.394531 264.925781 1067.863281 264.386719 C 1067.992188 264.238281 1068.21875 264.222656 1068.367188 264.351562 C 1068.515625 264.480469 1068.53125 264.707031 1068.402344 264.855469 C 1067.84375 265.496094 1067.226562 266.148438 1066.496094 266.585938 C 1066.382812 266.65625 1066.238281 266.65625 1066.125 266.582031 C 1065.945312 266.472656 1065.78125 266.359375 1065.625 266.25 C 1065.265625 266.003906 1064.953125 265.789062 1064.546875 265.644531 C 1064.113281 266.019531 1063.65625 266.316406 1063.152344 266.554688 C 1063 266.625 1062.820312 266.582031 1062.71875 266.445312 C 1062.261719 265.851562 1061.425781 265.136719 1060.714844 264.730469 C 1060.632812 264.832031 1060.546875 264.933594 1060.460938 265.035156 C 1059.832031 265.796875 1059.183594 266.582031 1058.339844 267.167969 C 1058.277344 267.210938 1058.207031 267.234375 1058.136719 267.234375 Z M 1058.136719 267.230469 " fill-opacity="1" fill-rule="nonzero"/><path fill="#000000" d="M 1032.160156 264.273438 C 1032.152344 264.273438 1032.144531 264.273438 1032.136719 264.273438 C 1032.027344 264.265625 1031.925781 264.207031 1031.863281 264.113281 C 1031.464844 263.519531 1030.90625 263.027344 1030.320312 262.503906 C 1029.910156 262.136719 1029.480469 261.757812 1029.109375 261.335938 C 1028.976562 261.1875 1028.992188 260.960938 1029.140625 260.832031 C 1029.285156 260.699219 1029.511719 260.714844 1029.640625 260.863281 C 1029.988281 261.25 1030.398438 261.617188 1030.792969 261.96875 C 1031.273438 262.394531 1031.765625 262.835938 1032.171875 263.335938 C 1033.203125 262.046875 1033.902344 260.671875 1034.640625 259.226562 C 1034.964844 258.601562 1035.292969 257.953125 1035.65625 257.308594 C 1035.71875 257.199219 1035.832031 257.128906 1035.957031 257.125 C 1036.085938 257.121094 1036.203125 257.183594 1036.265625 257.289062 C 1036.738281 258.019531 1037.09375 258.789062 1037.441406 259.53125 C 1037.582031 259.828125 1037.722656 260.132812 1037.871094 260.4375 C 1038.125 260.148438 1038.289062 259.78125 1038.417969 259.4375 C 1038.460938 259.324219 1038.5625 259.238281 1038.683594 259.214844 C 1038.804688 259.191406 1038.929688 259.234375 1039.011719 259.324219 C 1039.148438 259.46875 1039.289062 259.613281 1039.433594 259.761719 C 1039.75 260.082031 1040.070312 260.414062 1040.351562 260.769531 C 1040.769531 260.257812 1041.152344 259.707031 1041.523438 259.175781 C 1041.667969 258.964844 1041.816406 258.753906 1041.964844 258.542969 C 1042.078125 258.382812 1042.300781 258.34375 1042.460938 258.457031 C 1042.621094 258.574219 1042.660156 258.796875 1042.546875 258.957031 C 1042.398438 259.164062 1042.253906 259.375 1042.109375 259.582031 C 1041.640625 260.253906 1041.15625 260.949219 1040.597656 261.582031 C 1040.523438 261.667969 1040.414062 261.710938 1040.300781 261.703125 C 1040.191406 261.695312 1040.089844 261.632812 1040.03125 261.542969 C 1039.734375 261.089844 1039.320312 260.667969 1038.921875 260.261719 C 1038.902344 260.242188 1038.882812 260.21875 1038.867188 260.203125 C 1038.664062 260.609375 1038.386719 261.019531 1037.957031 261.300781 C 1037.875 261.359375 1037.769531 261.375 1037.671875 261.351562 C 1037.574219 261.324219 1037.492188 261.257812 1037.445312 261.171875 C 1037.210938 260.726562 1037 260.269531 1036.792969 259.832031 C 1036.53125 259.265625 1036.277344 258.722656 1035.980469 258.195312 C 1035.734375 258.652344 1035.503906 259.105469 1035.277344 259.550781 C 1034.449219 261.164062 1033.667969 262.6875 1032.429688 264.144531 C 1032.359375 264.222656 1032.261719 264.269531 1032.15625 264.269531 Z M 1032.160156 264.273438 " fill-opacity="1" fill-rule="nonzero"/><path fill="#000000" d="M 1021.898438 265.648438 C 1021.390625 264.9375 1020.695312 263.992188 1020.5 263.144531 C 1020.75 263.328125 1020.980469 263.386719 1021.21875 263.386719 C 1021.449219 263.386719 1021.683594 263.332031 1021.957031 263.273438 L 1022.101562 263.066406 C 1021.183594 262.277344 1020.222656 261.003906 1020.113281 259.777344 C 1020.484375 259.976562 1020.730469 260.003906 1021.175781 260.035156 L 1021.402344 259.847656 C 1020.78125 258.882812 1019.996094 257.773438 1019.996094 256.597656 C 1019.996094 256.570312 1019.996094 256.542969 1019.996094 256.519531 C 1020.28125 256.722656 1020.535156 256.789062 1020.835938 256.789062 C 1020.933594 256.789062 1021.035156 256.785156 1021.148438 256.773438 C 1020.089844 256.023438 1019.714844 254.214844 1018.988281 253.195312 C 1018.648438 254.722656 1018.457031 255.75 1017.644531 257.101562 L 1017.972656 257.230469 C 1018.421875 257.039062 1018.714844 256.949219 1019.054688 256.644531 C 1019.054688 258.089844 1018.46875 258.777344 1017.8125 259.980469 C 1018.015625 260.042969 1018.183594 260.082031 1018.34375 260.082031 C 1018.546875 260.082031 1018.734375 260.019531 1018.957031 259.859375 C 1018.796875 261.007812 1018.425781 262.089844 1017.878906 263.113281 C 1018.378906 262.984375 1018.738281 262.761719 1019.171875 262.484375 C 1019.222656 262.660156 1019.246094 262.84375 1019.246094 263.023438 C 1019.246094 264.085938 1018.421875 265.15625 1018.0625 266.085938 C 1019.347656 265.984375 1020.746094 266.222656 1021.898438 265.648438 " fill-opacity="1" fill-rule="nonzero"/><path fill="#000000" d="M 1018.0625 266.445312 C 1017.953125 266.445312 1017.84375 266.390625 1017.777344 266.300781 C 1017.703125 266.203125 1017.6875 266.074219 1017.730469 265.957031 C 1017.855469 265.636719 1018.023438 265.316406 1018.199219 264.976562 C 1018.53125 264.34375 1018.871094 263.691406 1018.890625 263.074219 C 1018.621094 263.230469 1018.324219 263.367188 1017.972656 263.457031 C 1017.832031 263.492188 1017.6875 263.445312 1017.601562 263.332031 C 1017.511719 263.21875 1017.5 263.070312 1017.566406 262.945312 C 1018 262.128906 1018.3125 261.289062 1018.496094 260.429688 C 1018.230469 260.464844 1017.957031 260.398438 1017.710938 260.324219 C 1017.605469 260.292969 1017.523438 260.21875 1017.484375 260.117188 C 1017.441406 260.019531 1017.449219 259.90625 1017.5 259.8125 C 1017.621094 259.589844 1017.742188 259.382812 1017.855469 259.1875 C 1018.230469 258.539062 1018.527344 258.027344 1018.644531 257.335938 C 1018.527344 257.386719 1018.410156 257.4375 1018.277344 257.488281 L 1018.113281 257.558594 C 1018.027344 257.59375 1017.929688 257.597656 1017.84375 257.5625 L 1017.515625 257.433594 C 1017.417969 257.398438 1017.34375 257.316406 1017.308594 257.21875 C 1017.273438 257.117188 1017.285156 257.007812 1017.339844 256.917969 C 1018.074219 255.699219 1018.273438 254.773438 1018.582031 253.378906 L 1018.640625 253.117188 C 1018.671875 252.980469 1018.78125 252.871094 1018.917969 252.84375 C 1019.054688 252.816406 1019.199219 252.871094 1019.28125 252.988281 C 1019.578125 253.402344 1019.804688 253.910156 1020.046875 254.449219 C 1020.402344 255.246094 1020.773438 256.074219 1021.351562 256.480469 C 1021.476562 256.566406 1021.53125 256.71875 1021.492188 256.863281 C 1021.453125 257.007812 1021.332031 257.113281 1021.183594 257.128906 C 1020.855469 257.164062 1020.628906 257.152344 1020.402344 257.101562 C 1020.570312 257.917969 1021.089844 258.71875 1021.5625 259.441406 L 1021.703125 259.65625 C 1021.800781 259.808594 1021.769531 260.007812 1021.628906 260.125 L 1021.398438 260.316406 C 1021.328125 260.371094 1021.238281 260.402344 1021.148438 260.394531 C 1020.9375 260.378906 1020.757812 260.367188 1020.585938 260.332031 C 1020.886719 261.296875 1021.667969 262.230469 1022.332031 262.796875 C 1022.472656 262.917969 1022.5 263.125 1022.390625 263.273438 L 1022.246094 263.480469 C 1022.195312 263.554688 1022.117188 263.605469 1022.03125 263.625 L 1021.992188 263.632812 C 1021.683594 263.703125 1021.382812 263.765625 1021.097656 263.742188 C 1021.367188 264.296875 1021.773438 264.863281 1022.121094 265.347656 L 1022.1875 265.441406 C 1022.25 265.527344 1022.269531 265.636719 1022.246094 265.738281 C 1022.21875 265.839844 1022.152344 265.925781 1022.058594 265.96875 C 1021.167969 266.410156 1020.179688 266.410156 1019.222656 266.414062 C 1018.828125 266.414062 1018.457031 266.414062 1018.089844 266.445312 C 1018.082031 266.445312 1018.070312 266.445312 1018.0625 266.445312 Z M 1019.171875 262.128906 C 1019.214844 262.128906 1019.253906 262.136719 1019.296875 262.152344 C 1019.402344 262.191406 1019.480469 262.277344 1019.515625 262.382812 C 1019.574219 262.585938 1019.605469 262.800781 1019.605469 263.023438 C 1019.605469 263.828125 1019.195312 264.613281 1018.832031 265.304688 C 1018.761719 265.441406 1018.695312 265.574219 1018.628906 265.703125 C 1018.828125 265.699219 1019.027344 265.699219 1019.222656 265.699219 C 1019.976562 265.695312 1020.703125 265.695312 1021.347656 265.488281 C 1020.859375 264.804688 1020.332031 264 1020.152344 263.222656 C 1020.121094 263.078125 1020.179688 262.929688 1020.304688 262.847656 C 1020.429688 262.761719 1020.59375 262.769531 1020.710938 262.855469 C 1020.957031 263.035156 1021.183594 263.058594 1021.503906 263.003906 C 1020.671875 262.183594 1019.863281 261.003906 1019.757812 259.808594 C 1019.746094 259.679688 1019.804688 259.550781 1019.917969 259.480469 C 1020.023438 259.40625 1020.167969 259.402344 1020.285156 259.464844 C 1020.488281 259.574219 1020.644531 259.621094 1020.847656 259.648438 C 1020.257812 258.742188 1019.640625 257.71875 1019.640625 256.597656 C 1019.640625 256.566406 1019.640625 256.535156 1019.640625 256.507812 C 1019.644531 256.375 1019.722656 256.257812 1019.839844 256.195312 C 1019.933594 256.152344 1020.039062 256.148438 1020.136719 256.1875 C 1019.847656 255.746094 1019.617188 255.238281 1019.394531 254.738281 C 1019.304688 254.546875 1019.222656 254.355469 1019.136719 254.175781 C 1018.925781 255.082031 1018.710938 255.855469 1018.265625 256.722656 C 1018.472656 256.632812 1018.632812 256.542969 1018.820312 256.375 C 1018.925781 256.285156 1019.074219 256.257812 1019.203125 256.316406 C 1019.332031 256.375 1019.414062 256.503906 1019.414062 256.644531 C 1019.410156 257.921875 1018.976562 258.671875 1018.472656 259.542969 C 1018.4375 259.605469 1018.402344 259.664062 1018.367188 259.726562 C 1018.460938 259.722656 1018.574219 259.695312 1018.75 259.570312 C 1018.867188 259.484375 1019.023438 259.480469 1019.144531 259.554688 C 1019.265625 259.628906 1019.332031 259.769531 1019.3125 259.910156 C 1019.195312 260.757812 1018.957031 261.597656 1018.613281 262.414062 C 1018.726562 262.34375 1018.847656 262.269531 1018.980469 262.183594 C 1019.039062 262.148438 1019.105469 262.128906 1019.171875 262.128906 Z M 1019.171875 262.128906 " fill-opacity="1" fill-rule="nonzero"/><path fill="#000000" d="M 1020.070312 267.9375 C 1019.882812 267.9375 1019.726562 267.796875 1019.714844 267.605469 L 1019.558594 265.445312 C 1019.546875 265.25 1019.691406 265.078125 1019.890625 265.066406 C 1020.085938 265.054688 1020.257812 265.199219 1020.273438 265.394531 L 1020.425781 267.554688 C 1020.4375 267.753906 1020.289062 267.921875 1020.09375 267.9375 C 1020.085938 267.9375 1020.078125 267.9375 1020.070312 267.9375 Z M 1020.070312 267.9375 " fill-opacity="1" fill-rule="nonzero"/><path fill="#000000" d="M 1022.730469 262.007812 C 1022.777344 262.007812 1022.828125 262.007812 1022.878906 262.007812 C 1023.292969 262.007812 1023.714844 262.027344 1024.132812 262.027344 C 1024.929688 262.027344 1025.707031 261.949219 1026.390625 261.480469 C 1025.617188 260.777344 1024.988281 260.117188 1024.796875 259.074219 L 1024.929688 258.953125 C 1025.023438 258.964844 1025.105469 258.96875 1025.1875 258.96875 C 1025.394531 258.96875 1025.566406 258.933594 1025.820312 258.863281 L 1025.890625 258.726562 C 1025.351562 258.15625 1024.929688 257.265625 1024.679688 256.53125 C 1024.710938 256.488281 1024.742188 256.449219 1024.777344 256.40625 C 1024.910156 256.46875 1025.035156 256.496094 1025.15625 256.496094 C 1025.363281 256.496094 1025.566406 256.421875 1025.78125 256.347656 C 1024.929688 255.644531 1023.972656 254.882812 1023.808594 253.75 C 1023.53125 254.859375 1023.449219 255.53125 1022.664062 256.378906 C 1022.753906 256.382812 1022.839844 256.390625 1022.925781 256.390625 C 1023.125 256.390625 1023.308594 256.367188 1023.519531 256.289062 C 1023.527344 256.40625 1023.53125 256.523438 1023.53125 256.632812 C 1023.53125 257.453125 1023.304688 258.050781 1022.828125 258.78125 C 1022.996094 258.824219 1023.144531 258.851562 1023.296875 258.851562 C 1023.417969 258.851562 1023.542969 258.832031 1023.679688 258.792969 C 1023.761719 259.039062 1023.796875 259.300781 1023.796875 259.570312 C 1023.796875 260.472656 1023.375 261.441406 1022.730469 262.007812 " fill-opacity="1" fill-rule="nonzero"/><path fill="#000000" d="M 1024.128906 262.386719 C 1023.917969 262.386719 1023.707031 262.378906 1023.496094 262.375 C 1023.289062 262.371094 1023.082031 262.363281 1022.878906 262.363281 L 1022.734375 262.363281 C 1022.582031 262.363281 1022.449219 262.277344 1022.394531 262.136719 C 1022.339844 261.996094 1022.378906 261.839844 1022.492188 261.742188 C 1023.058594 261.242188 1023.441406 260.371094 1023.441406 259.570312 C 1023.441406 259.441406 1023.433594 259.320312 1023.410156 259.203125 C 1023.207031 259.21875 1023.011719 259.195312 1022.742188 259.128906 C 1022.628906 259.101562 1022.535156 259.019531 1022.492188 258.914062 C 1022.453125 258.804688 1022.464844 258.683594 1022.527344 258.589844 C 1022.976562 257.898438 1023.15625 257.386719 1023.171875 256.734375 C 1023.011719 256.75 1022.835938 256.75 1022.636719 256.734375 C 1022.5 256.726562 1022.378906 256.640625 1022.328125 256.511719 C 1022.277344 256.382812 1022.304688 256.238281 1022.398438 256.136719 C 1023.027344 255.453125 1023.15625 254.917969 1023.367188 254.035156 C 1023.398438 253.914062 1023.425781 253.792969 1023.457031 253.664062 C 1023.5 253.5 1023.652344 253.386719 1023.820312 253.394531 C 1023.992188 253.402344 1024.132812 253.53125 1024.15625 253.699219 C 1024.300781 254.660156 1025.125 255.347656 1025.925781 256.007812 L 1026.007812 256.074219 C 1026.105469 256.15625 1026.152344 256.285156 1026.128906 256.414062 C 1026.109375 256.542969 1026.019531 256.644531 1025.894531 256.6875 C 1025.660156 256.769531 1025.433594 256.847656 1025.183594 256.851562 C 1025.378906 257.339844 1025.707031 258.011719 1026.152344 258.484375 C 1026.257812 258.59375 1026.277344 258.761719 1026.207031 258.898438 L 1026.132812 259.035156 C 1026.085938 259.117188 1026.007812 259.183594 1025.917969 259.207031 C 1025.65625 259.28125 1025.457031 259.324219 1025.226562 259.328125 C 1025.460938 260.101562 1026.003906 260.648438 1026.632812 261.21875 C 1026.710938 261.292969 1026.757812 261.398438 1026.75 261.507812 C 1026.742188 261.617188 1026.683594 261.714844 1026.59375 261.777344 C 1025.808594 262.3125 1024.945312 262.390625 1024.132812 262.390625 Z M 1023.5 261.660156 L 1023.511719 261.660156 C 1023.71875 261.667969 1023.925781 261.671875 1024.128906 261.671875 C 1024.6875 261.671875 1025.261719 261.632812 1025.789062 261.40625 C 1025.160156 260.792969 1024.625 260.117188 1024.445312 259.136719 C 1024.425781 259.019531 1024.464844 258.898438 1024.554688 258.816406 L 1024.683594 258.691406 C 1024.761719 258.621094 1024.863281 258.585938 1024.96875 258.597656 C 1025.109375 258.617188 1025.21875 258.617188 1025.328125 258.605469 C 1024.804688 257.898438 1024.472656 257.027344 1024.34375 256.644531 C 1024.304688 256.542969 1024.320312 256.429688 1024.378906 256.335938 C 1024.40625 256.296875 1024.433594 256.257812 1024.464844 256.222656 L 1024.488281 256.1875 C 1024.585938 256.0625 1024.75 256.011719 1024.898438 256.070312 C 1024.515625 255.726562 1024.148438 255.355469 1023.878906 254.925781 C 1023.773438 255.277344 1023.648438 255.605469 1023.445312 255.9375 C 1023.535156 255.917969 1023.632812 255.9375 1023.710938 255.988281 C 1023.808594 256.046875 1023.867188 256.148438 1023.871094 256.261719 C 1023.882812 256.390625 1023.886719 256.515625 1023.886719 256.632812 C 1023.886719 257.304688 1023.75 257.859375 1023.417969 258.484375 C 1023.46875 258.476562 1023.523438 258.464844 1023.574219 258.449219 C 1023.757812 258.394531 1023.957031 258.496094 1024.019531 258.679688 C 1024.105469 258.953125 1024.152344 259.25 1024.152344 259.566406 C 1024.152344 260.300781 1023.90625 261.058594 1023.5 261.660156 Z M 1023.5 261.660156 " fill-opacity="1" fill-rule="nonzero"/><path fill="#000000" d="M 1024.625 267.257812 L 1024.363281 262.179688 " fill-opacity="1" fill-rule="nonzero"/><path fill="#000000" d="M 1024.625 267.613281 C 1024.4375 267.613281 1024.28125 267.46875 1024.269531 267.277344 L 1024.003906 262.199219 C 1023.996094 262 1024.144531 261.832031 1024.34375 261.820312 C 1024.539062 261.8125 1024.707031 261.964844 1024.71875 262.160156 L 1024.984375 267.242188 C 1024.992188 267.4375 1024.839844 267.605469 1024.644531 267.613281 C 1024.640625 267.613281 1024.632812 267.613281 1024.625 267.613281 Z M 1024.625 267.613281 " fill-opacity="1" fill-rule="nonzero"/><path fill="#231f20" d="M 1003.605469 310.335938 L 1002.042969 310.335938 L 1002.042969 310.390625 C 1002.042969 310.664062 1001.992188 310.921875 1001.894531 311.160156 C 1001.800781 311.394531 1001.648438 311.597656 1001.4375 311.773438 C 1001.222656 311.945312 1000.949219 312.085938 1000.605469 312.191406 C 1000.265625 312.296875 999.84375 312.347656 999.351562 312.347656 C 998.859375 312.347656 998.441406 312.296875 998.101562 312.191406 C 997.757812 312.085938 997.480469 311.945312 997.265625 311.773438 C 997.050781 311.597656 996.898438 311.394531 996.800781 311.160156 C 996.703125 310.921875 996.65625 310.664062 996.65625 310.390625 L 996.65625 309.285156 C 996.65625 309.023438 996.703125 308.773438 996.800781 308.535156 C 996.898438 308.292969 997.050781 308.082031 997.265625 307.90625 C 997.480469 307.730469 997.757812 307.59375 998.101562 307.488281 C 998.441406 307.386719 998.859375 307.332031 999.351562 307.332031 C 999.804688 307.332031 1000.195312 307.378906 1000.519531 307.46875 C 1000.847656 307.554688 1001.121094 307.675781 1001.335938 307.832031 C 1001.554688 307.984375 1001.722656 308.167969 1001.835938 308.378906 C 1001.945312 308.585938 1002.015625 308.8125 1002.039062 309.054688 L 1003.605469 309.054688 L 1003.605469 307.449219 L 1005.238281 307.449219 L 1005.238281 312.347656 L 1003.605469 312.347656 Z M 997.007812 312.929688 L 1005.238281 312.929688 L 1005.238281 315.675781 L 998.554688 315.675781 L 998.554688 316.140625 L 1005.238281 316.140625 L 1005.238281 317.28125 L 997.007812 317.28125 L 997.007812 314.535156 L 1003.691406 314.535156 L 1003.691406 314.070312 L 997.007812 314.070312 Z M 1000.527344 309.554688 C 1000.527344 309.359375 1000.488281 309.199219 1000.417969 309.074219 C 1000.351562 308.945312 1000.257812 308.84375 1000.148438 308.777344 C 1000.039062 308.707031 999.914062 308.65625 999.777344 308.628906 C 999.636719 308.601562 999.496094 308.589844 999.351562 308.589844 C 999.207031 308.589844 999.0625 308.601562 998.925781 308.628906 C 998.785156 308.65625 998.660156 308.707031 998.546875 308.777344 C 998.433594 308.84375 998.34375 308.945312 998.277344 309.074219 C 998.214844 309.199219 998.183594 309.359375 998.183594 309.554688 L 998.183594 310.128906 C 998.183594 310.328125 998.214844 310.488281 998.277344 310.613281 C 998.34375 310.738281 998.433594 310.839844 998.546875 310.910156 C 998.660156 310.976562 998.785156 311.023438 998.925781 311.050781 C 999.0625 311.078125 999.207031 311.09375 999.351562 311.09375 C 999.496094 311.09375 999.636719 311.078125 999.777344 311.050781 C 999.914062 311.023438 1000.039062 310.976562 1000.148438 310.910156 C 1000.257812 310.839844 1000.351562 310.738281 1000.417969 310.613281 C 1000.488281 310.488281 1000.527344 310.328125 1000.527344 310.128906 Z M 1000.527344 309.554688 " fill-opacity="1" fill-rule="nonzero"/><path fill="#231f20" d="M 1013.359375 311.742188 L 1022.945312 311.742188 L 1022.945312 313.023438 L 1013.359375 313.023438 Z M 1013.960938 317.28125 L 1013.960938 313.625 L 1022.339844 313.625 L 1022.339844 317.28125 Z M 1015.59375 314.90625 L 1015.59375 316 L 1020.710938 316 L 1020.710938 314.90625 Z M 1015.472656 309.277344 C 1015.472656 309.476562 1015.523438 309.617188 1015.628906 309.703125 C 1015.738281 309.789062 1015.902344 309.832031 1016.128906 309.832031 L 1020.179688 309.832031 C 1020.402344 309.832031 1020.566406 309.789062 1020.671875 309.703125 C 1020.773438 309.617188 1020.824219 309.476562 1020.824219 309.277344 C 1020.824219 309.074219 1020.773438 308.933594 1020.671875 308.851562 C 1020.566406 308.769531 1020.402344 308.730469 1020.179688 308.730469 L 1016.128906 308.730469 C 1015.902344 308.730469 1015.738281 308.769531 1015.628906 308.851562 C 1015.523438 308.933594 1015.472656 309.074219 1015.472656 309.277344 Z M 1013.847656 309.277344 C 1013.847656 308.625 1014.015625 308.15625 1014.359375 307.871094 C 1014.699219 307.589844 1015.238281 307.449219 1015.972656 307.449219 L 1020.328125 307.449219 C 1021.0625 307.449219 1021.605469 307.589844 1021.945312 307.871094 C 1022.289062 308.15625 1022.460938 308.625 1022.460938 309.277344 C 1022.460938 309.925781 1022.289062 310.390625 1021.945312 310.675781 C 1021.605469 310.957031 1021.0625 311.097656 1020.328125 311.097656 L 1015.972656 311.097656 C 1015.238281 311.097656 1014.699219 310.957031 1014.359375 310.675781 C 1014.015625 310.390625 1013.847656 309.925781 1013.847656 309.277344 Z M 1013.847656 309.277344 " fill-opacity="1" fill-rule="nonzero"/><path fill="#231f20" d="M 1031.21875 312.929688 L 1039.585938 312.929688 L 1039.585938 315.675781 L 1032.761719 315.675781 L 1032.761719 316.140625 L 1039.585938 316.140625 L 1039.585938 317.28125 L 1031.21875 317.28125 L 1031.21875 314.535156 L 1038.035156 314.535156 L 1038.035156 314.070312 L 1031.21875 314.070312 Z M 1035.292969 309.667969 L 1035.292969 311.160156 L 1040.203125 311.160156 L 1040.203125 312.441406 L 1030.617188 312.441406 L 1030.617188 311.160156 L 1033.660156 311.160156 L 1033.660156 309.667969 Z M 1037.867188 308.730469 L 1031.21875 308.730469 L 1031.21875 307.449219 L 1039.6875 307.449219 L 1039.15625 310.761719 L 1037.527344 310.761719 Z M 1037.867188 308.730469 " fill-opacity="1" fill-rule="nonzero"/><path fill="#231f20" d="M 1057.003906 307.449219 L 1057.003906 317.046875 L 1055.371094 317.046875 L 1055.371094 307.449219 Z M 1048.425781 310.066406 C 1048.425781 309.648438 1048.46875 309.269531 1048.5625 308.933594 C 1048.652344 308.59375 1048.800781 308.308594 1049.007812 308.074219 C 1049.21875 307.835938 1049.496094 307.65625 1049.835938 307.527344 C 1050.179688 307.398438 1050.605469 307.332031 1051.121094 307.332031 C 1051.628906 307.332031 1052.054688 307.398438 1052.402344 307.527344 C 1052.75 307.65625 1053.023438 307.835938 1053.234375 308.074219 C 1053.445312 308.308594 1053.59375 308.59375 1053.679688 308.933594 C 1053.765625 309.269531 1053.8125 309.648438 1053.8125 310.066406 L 1053.8125 314.148438 C 1053.8125 314.585938 1053.765625 314.980469 1053.679688 315.324219 C 1053.59375 315.667969 1053.445312 315.953125 1053.234375 316.1875 C 1053.023438 316.425781 1052.75 316.609375 1052.402344 316.734375 C 1052.054688 316.867188 1051.628906 316.929688 1051.121094 316.929688 C 1050.605469 316.929688 1050.179688 316.867188 1049.835938 316.734375 C 1049.496094 316.609375 1049.21875 316.425781 1049.007812 316.1875 C 1048.800781 315.953125 1048.652344 315.667969 1048.5625 315.324219 C 1048.46875 314.980469 1048.425781 314.585938 1048.425781 314.148438 Z M 1049.984375 314.210938 C 1049.984375 314.511719 1050.007812 314.757812 1050.058594 314.945312 C 1050.113281 315.132812 1050.191406 315.277344 1050.289062 315.378906 C 1050.390625 315.484375 1050.511719 315.554688 1050.648438 315.59375 C 1050.78125 315.632812 1050.9375 315.648438 1051.121094 315.648438 C 1051.296875 315.648438 1051.453125 315.632812 1051.59375 315.59375 C 1051.730469 315.554688 1051.851562 315.484375 1051.949219 315.378906 C 1052.054688 315.277344 1052.128906 315.132812 1052.179688 314.945312 C 1052.226562 314.757812 1052.253906 314.511719 1052.253906 314.210938 L 1052.253906 310.03125 C 1052.253906 309.746094 1052.226562 309.507812 1052.179688 309.324219 C 1052.128906 309.136719 1052.054688 308.988281 1051.949219 308.886719 C 1051.851562 308.78125 1051.730469 308.710938 1051.59375 308.667969 C 1051.453125 308.628906 1051.296875 308.609375 1051.121094 308.609375 C 1050.9375 308.609375 1050.78125 308.628906 1050.648438 308.667969 C 1050.511719 308.710938 1050.390625 308.78125 1050.289062 308.886719 C 1050.191406 308.988281 1050.113281 309.136719 1050.058594 309.324219 C 1050.007812 309.507812 1049.984375 309.746094 1049.984375 310.03125 Z M 1049.984375 314.210938 " fill-opacity="1" fill-rule="nonzero"/><path fill="#231f20" d="M 1065.683594 310.066406 C 1065.683594 309.648438 1065.726562 309.269531 1065.816406 308.933594 C 1065.90625 308.59375 1066.054688 308.308594 1066.261719 308.074219 C 1066.472656 307.835938 1066.75 307.65625 1067.09375 307.527344 C 1067.433594 307.398438 1067.863281 307.332031 1068.375 307.332031 C 1068.882812 307.332031 1069.3125 307.398438 1069.660156 307.527344 C 1070.003906 307.65625 1070.28125 307.835938 1070.488281 308.074219 C 1070.699219 308.308594 1070.847656 308.59375 1070.933594 308.933594 C 1071.023438 309.269531 1071.070312 309.648438 1071.070312 310.066406 L 1071.070312 314.148438 C 1071.070312 314.585938 1071.023438 314.980469 1070.933594 315.324219 C 1070.847656 315.667969 1070.699219 315.953125 1070.488281 316.1875 C 1070.28125 316.425781 1070.003906 316.609375 1069.660156 316.734375 C 1069.3125 316.867188 1068.882812 316.929688 1068.375 316.929688 C 1067.863281 316.929688 1067.433594 316.867188 1067.09375 316.734375 C 1066.75 316.609375 1066.472656 316.425781 1066.261719 316.1875 C 1066.054688 315.953125 1065.90625 315.667969 1065.816406 315.324219 C 1065.726562 314.980469 1065.683594 314.585938 1065.683594 314.148438 Z M 1073.679688 307.449219 L 1073.679688 309.75 L 1075.003906 309.75 L 1075.003906 311.03125 L 1073.679688 311.03125 L 1073.679688 312.894531 L 1075.003906 312.894531 L 1075.003906 314.171875 L 1073.679688 314.171875 L 1073.679688 317.046875 L 1072.046875 317.046875 L 1072.046875 307.449219 Z M 1067.242188 314.210938 C 1067.242188 314.511719 1067.265625 314.757812 1067.316406 314.945312 C 1067.371094 315.132812 1067.445312 315.277344 1067.546875 315.378906 C 1067.648438 315.484375 1067.769531 315.554688 1067.902344 315.59375 C 1068.039062 315.632812 1068.195312 315.648438 1068.375 315.648438 C 1068.550781 315.648438 1068.707031 315.632812 1068.847656 315.59375 C 1068.988281 315.554688 1069.105469 315.484375 1069.207031 315.378906 C 1069.308594 315.277344 1069.386719 315.132812 1069.4375 314.945312 C 1069.484375 314.757812 1069.511719 314.511719 1069.511719 314.210938 L 1069.511719 310.03125 C 1069.511719 309.746094 1069.484375 309.507812 1069.4375 309.324219 C 1069.386719 309.136719 1069.308594 308.988281 1069.207031 308.886719 C 1069.105469 308.78125 1068.988281 308.710938 1068.847656 308.667969 C 1068.707031 308.628906 1068.550781 308.609375 1068.375 308.609375 C 1068.195312 308.609375 1068.039062 308.628906 1067.902344 308.667969 C 1067.769531 308.710938 1067.648438 308.78125 1067.546875 308.886719 C 1067.445312 308.988281 1067.371094 309.136719 1067.316406 309.324219 C 1067.265625 309.507812 1067.242188 309.746094 1067.242188 310.03125 Z M 1067.242188 314.210938 " fill-opacity="1" fill-rule="nonzero"/><path fill="#231f20" d="M 1091.519531 307.449219 L 1091.519531 317.046875 L 1089.882812 317.046875 L 1089.882812 307.449219 Z M 1086.515625 308.730469 L 1082.9375 308.730469 L 1082.9375 307.449219 L 1088.320312 307.449219 L 1087.179688 316.816406 L 1085.542969 316.816406 Z M 1086.515625 308.730469 " fill-opacity="1" fill-rule="nonzero"/><path fill="#231f20" d="M 988.933594 324.621094 L 989.371094 324.621094 L 989.371094 328.398438 L 988.933594 328.398438 Z M 988.933594 324.621094 " fill-opacity="1" fill-rule="nonzero"/><path fill="#231f20" d="M 996.269531 328.453125 C 995.941406 328.453125 995.644531 328.378906 995.386719 328.230469 C 995.128906 328.078125 994.925781 327.855469 994.777344 327.5625 C 994.632812 327.269531 994.5625 326.921875 994.5625 326.511719 C 994.5625 326.101562 994.632812 325.753906 994.777344 325.464844 C 994.925781 325.171875 995.128906 324.949219 995.386719 324.796875 C 995.644531 324.644531 995.941406 324.566406 996.269531 324.566406 C 996.625 324.566406 996.921875 324.632812 997.15625 324.769531 C 997.386719 324.902344 997.554688 325.105469 997.660156 325.371094 L 997.378906 325.558594 L 997.308594 325.558594 C 997.207031 325.34375 997.070312 325.191406 996.90625 325.097656 C 996.742188 325.011719 996.53125 324.964844 996.269531 324.964844 C 996.03125 324.964844 995.820312 325.019531 995.636719 325.125 C 995.457031 325.230469 995.308594 325.398438 995.199219 325.632812 C 995.089844 325.863281 995.035156 326.15625 995.035156 326.511719 C 995.035156 326.871094 995.089844 327.164062 995.199219 327.394531 C 995.308594 327.625 995.457031 327.792969 995.636719 327.902344 C 995.820312 328.003906 996.03125 328.054688 996.269531 328.054688 C 996.542969 328.054688 996.769531 327.996094 996.945312 327.875 C 997.121094 327.75 997.25 327.546875 997.332031 327.273438 L 997.398438 327.273438 L 997.695312 327.421875 C 997.605469 327.753906 997.4375 328.011719 997.195312 328.191406 C 996.953125 328.367188 996.644531 328.453125 996.269531 328.453125 Z M 996.269531 328.453125 " fill-opacity="1" fill-rule="nonzero"/><path fill="#231f20" d="M 1003.136719 326.617188 L 1003.136719 328.035156 L 1005.066406 328.035156 L 1005.066406 328.398438 L 1002.699219 328.398438 L 1002.699219 324.621094 L 1005.027344 324.621094 L 1005.027344 324.992188 L 1003.136719 324.992188 L 1003.136719 326.253906 L 1004.804688 326.253906 L 1004.804688 326.617188 Z M 1003.136719 326.617188 " fill-opacity="1" fill-rule="nonzero"/><path fill="#231f20" d="M 1017.144531 328.398438 L 1016.558594 328.398438 L 1015.25 324.621094 L 1015.722656 324.621094 L 1016.828125 327.847656 L 1016.894531 327.847656 L 1017.988281 324.621094 L 1018.453125 324.621094 Z M 1017.144531 328.398438 " fill-opacity="1" fill-rule="nonzero"/><path fill="#231f20" d="M 1026.253906 328.398438 L 1025.773438 328.398438 L 1025.429688 327.359375 L 1023.816406 327.359375 L 1023.464844 328.398438 L 1023 328.398438 L 1024.316406 324.621094 L 1024.9375 324.621094 Z M 1024.59375 325.078125 L 1023.945312 326.988281 L 1025.300781 326.988281 L 1024.652344 325.078125 Z M 1024.59375 325.078125 " fill-opacity="1" fill-rule="nonzero"/><path fill="#231f20" d="M 1031.648438 324.621094 L 1031.648438 328.035156 L 1033.472656 328.035156 L 1033.472656 328.398438 L 1031.210938 328.398438 L 1031.210938 324.621094 Z M 1031.648438 324.621094 " fill-opacity="1" fill-rule="nonzero"/><path fill="#231f20" d="M 1038.882812 324.621094 L 1038.882812 328.035156 L 1040.703125 328.035156 L 1040.703125 328.398438 L 1038.441406 328.398438 L 1038.441406 324.621094 Z M 1038.882812 324.621094 " fill-opacity="1" fill-rule="nonzero"/><path fill="#231f20" d="M 1046.113281 326.617188 L 1046.113281 328.035156 L 1048.042969 328.035156 L 1048.042969 328.398438 L 1045.671875 328.398438 L 1045.671875 324.621094 L 1048 324.621094 L 1048 324.992188 L 1046.113281 324.992188 L 1046.113281 326.253906 L 1047.777344 326.253906 L 1047.777344 326.617188 Z M 1046.113281 326.617188 " fill-opacity="1" fill-rule="nonzero"/><path fill="#231f20" d="M 1054.371094 328.398438 L 1053.929688 328.398438 L 1053.929688 326.914062 L 1052.628906 324.621094 L 1053.113281 324.621094 L 1054.125 326.394531 L 1054.195312 326.394531 L 1055.207031 324.621094 L 1055.679688 324.621094 L 1054.371094 326.914062 Z M 1054.371094 328.398438 " fill-opacity="1" fill-rule="nonzero"/><path fill="#231f20" d="M 1067.195312 328.453125 C 1066.957031 328.453125 1066.746094 328.421875 1066.554688 328.359375 C 1066.367188 328.292969 1066.207031 328.207031 1066.082031 328.101562 C 1065.957031 328 1065.863281 327.886719 1065.800781 327.757812 L 1066.042969 327.460938 L 1066.109375 327.460938 C 1066.34375 327.859375 1066.707031 328.054688 1067.195312 328.054688 C 1067.480469 328.054688 1067.691406 328 1067.824219 327.878906 C 1067.964844 327.757812 1068.035156 327.59375 1068.035156 327.382812 C 1068.035156 327.257812 1068.011719 327.148438 1067.964844 327.0625 C 1067.921875 326.980469 1067.84375 326.90625 1067.738281 326.847656 C 1067.632812 326.785156 1067.492188 326.730469 1067.3125 326.6875 L 1066.875 326.578125 C 1066.542969 326.496094 1066.300781 326.371094 1066.144531 326.199219 C 1065.984375 326.023438 1065.90625 325.804688 1065.90625 325.539062 C 1065.90625 325.347656 1065.957031 325.183594 1066.050781 325.039062 C 1066.148438 324.890625 1066.289062 324.777344 1066.476562 324.695312 C 1066.664062 324.609375 1066.886719 324.566406 1067.144531 324.566406 C 1067.429688 324.566406 1067.671875 324.605469 1067.867188 324.6875 C 1068.058594 324.769531 1068.214844 324.886719 1068.332031 325.046875 L 1068.113281 325.34375 L 1068.054688 325.34375 C 1067.945312 325.207031 1067.816406 325.109375 1067.667969 325.050781 C 1067.519531 324.988281 1067.34375 324.957031 1067.144531 324.957031 C 1066.882812 324.957031 1066.683594 325.011719 1066.550781 325.113281 C 1066.417969 325.210938 1066.351562 325.351562 1066.351562 325.53125 C 1066.351562 325.703125 1066.402344 325.839844 1066.496094 325.9375 C 1066.59375 326.035156 1066.761719 326.117188 1066.996094 326.171875 L 1067.445312 326.28125 C 1067.816406 326.367188 1068.082031 326.5 1068.242188 326.679688 C 1068.410156 326.855469 1068.492188 327.082031 1068.492188 327.359375 C 1068.492188 327.574219 1068.441406 327.761719 1068.34375 327.925781 C 1068.25 328.089844 1068.105469 328.21875 1067.914062 328.3125 C 1067.71875 328.40625 1067.480469 328.453125 1067.195312 328.453125 Z M 1067.195312 328.453125 " fill-opacity="1" fill-rule="nonzero"/><path fill="#231f20" d="M 1075.964844 324.621094 L 1075.964844 325 L 1074.777344 325 L 1074.777344 328.398438 L 1074.339844 328.398438 L 1074.339844 325 L 1073.160156 325 L 1073.160156 324.621094 Z M 1075.964844 324.621094 " fill-opacity="1" fill-rule="nonzero"/><path fill="#231f20" d="M 1080.914062 328.398438 L 1080.914062 324.621094 L 1082.28125 324.621094 C 1082.535156 324.621094 1082.746094 324.664062 1082.917969 324.75 C 1083.09375 324.828125 1083.222656 324.949219 1083.308594 325.097656 C 1083.394531 325.253906 1083.4375 325.433594 1083.4375 325.644531 C 1083.4375 325.878906 1083.378906 326.074219 1083.261719 326.226562 C 1083.144531 326.375 1082.960938 326.488281 1082.714844 326.5625 L 1082.714844 326.617188 C 1082.835938 326.667969 1082.933594 326.746094 1083.011719 326.847656 C 1083.085938 326.953125 1083.160156 327.105469 1083.226562 327.308594 L 1083.578125 328.398438 L 1083.121094 328.398438 L 1082.742188 327.246094 C 1082.695312 327.109375 1082.644531 327.007812 1082.585938 326.929688 C 1082.527344 326.847656 1082.453125 326.792969 1082.363281 326.761719 C 1082.273438 326.722656 1082.160156 326.707031 1082.027344 326.707031 L 1081.351562 326.707031 L 1081.351562 328.398438 Z M 1082.269531 326.328125 C 1082.507812 326.328125 1082.683594 326.273438 1082.796875 326.164062 C 1082.910156 326.054688 1082.972656 325.886719 1082.972656 325.667969 C 1082.972656 325.441406 1082.910156 325.273438 1082.796875 325.167969 C 1082.683594 325.054688 1082.507812 325 1082.269531 325 L 1081.351562 325 L 1081.351562 326.328125 Z M 1082.269531 326.328125 " fill-opacity="1" fill-rule="nonzero"/><path fill="#231f20" d="M 1090.144531 328.453125 C 1089.816406 328.453125 1089.523438 328.386719 1089.265625 328.246094 C 1089.015625 328.101562 1088.816406 327.886719 1088.667969 327.597656 C 1088.523438 327.304688 1088.449219 326.941406 1088.449219 326.511719 C 1088.449219 326.078125 1088.523438 325.71875 1088.667969 325.429688 C 1088.816406 325.136719 1089.015625 324.921875 1089.265625 324.78125 C 1089.523438 324.640625 1089.816406 324.566406 1090.144531 324.566406 C 1090.472656 324.566406 1090.761719 324.640625 1091.015625 324.78125 C 1091.273438 324.921875 1091.472656 325.136719 1091.617188 325.429688 C 1091.765625 325.71875 1091.839844 326.078125 1091.839844 326.511719 C 1091.839844 326.941406 1091.765625 327.304688 1091.617188 327.597656 C 1091.472656 327.886719 1091.273438 328.101562 1091.015625 328.246094 C 1090.761719 328.386719 1090.472656 328.453125 1090.144531 328.453125 Z M 1090.144531 328.042969 C 1090.535156 328.042969 1090.835938 327.921875 1091.050781 327.679688 C 1091.261719 327.429688 1091.367188 327.042969 1091.367188 326.511719 C 1091.367188 325.980469 1091.261719 325.59375 1091.050781 325.347656 C 1090.835938 325.101562 1090.535156 324.976562 1090.144531 324.976562 C 1089.328125 324.976562 1088.921875 325.488281 1088.921875 326.511719 C 1088.921875 327.53125 1089.328125 328.042969 1090.144531 328.042969 Z M 1090.144531 328.042969 " fill-opacity="1" fill-rule="nonzero"/><path fill="#231f20" d="M 1098.296875 328.398438 L 1097.855469 328.398438 L 1097.855469 326.914062 L 1096.554688 324.621094 L 1097.039062 324.621094 L 1098.054688 326.394531 L 1098.121094 326.394531 L 1099.132812 324.621094 L 1099.605469 324.621094 L 1098.296875 326.914062 Z M 1098.296875 328.398438 " fill-opacity="1" fill-rule="nonzero"/><g fill="#000000" fill-opacity="1"><g transform="translate(189.754585, 60.749996)"><g><path d="M 14.488281 -5.789062 L 14.488281 2.039062 L 25.441406 2.039062 L 25.441406 3.898438 L 1.261719 3.898438 L 1.261719 2.039062 L 12.179688 2.039062 L 12.179688 -5.789062 L 7.050781 -5.789062 C 6.449219 -5.789062 5.878906 -5.878906 5.398438 -6.121094 C 4.859375 -6.300781 4.441406 -6.601562 4.078125 -6.988281 C 3.691406 -7.351562 3.390625 -7.769531 3.210938 -8.308594 C 2.96875 -8.789062 2.878906 -9.359375 2.878906 -9.960938 L 2.878906 -18.328125 C 2.878906 -18.929688 2.96875 -19.46875 3.210938 -20.011719 C 3.390625 -20.488281 3.691406 -20.941406 4.078125 -21.328125 C 4.441406 -21.691406 4.859375 -21.960938 5.398438 -22.199219 C 5.878906 -22.378906 6.449219 -22.5 7.050781 -22.5 L 19.710938 -22.5 C 20.308594 -22.5 20.851562 -22.378906 21.390625 -22.199219 C 21.871094 -21.960938 22.320312 -21.691406 22.710938 -21.328125 C 23.070312 -20.941406 23.339844 -20.488281 23.578125 -20.011719 C 23.761719 -19.46875 23.878906 -18.929688 23.878906 -18.328125 L 23.878906 -9.960938 C 23.878906 -9.359375 23.761719 -8.789062 23.578125 -8.308594 C 23.339844 -7.769531 23.070312 -7.351562 22.710938 -6.988281 C 22.320312 -6.601562 21.871094 -6.300781 21.390625 -6.121094 C 20.851562 -5.878906 20.308594 -5.789062 19.710938 -5.789062 Z M 21.570312 -18.089844 C 21.570312 -18.808594 21.328125 -19.441406 20.851562 -19.921875 C 20.371094 -20.398438 19.738281 -20.640625 19.019531 -20.640625 L 7.738281 -20.640625 C 6.988281 -20.640625 6.390625 -20.398438 5.910156 -19.921875 C 5.429688 -19.441406 5.191406 -18.808594 5.191406 -18.089844 L 5.191406 -10.199219 C 5.191406 -9.449219 5.429688 -8.851562 5.910156 -8.371094 C 6.390625 -7.890625 6.988281 -7.648438 7.738281 -7.648438 L 19.019531 -7.648438 C 19.738281 -7.648438 20.371094 -7.890625 20.851562 -8.371094 C 21.328125 -8.851562 21.570312 -9.449219 21.570312 -10.199219 Z M 21.570312 -18.089844 "/></g></g></g><g fill="#000000" fill-opacity="1"><g transform="translate(216.454553, 60.749996)"><g><path d="M 23.851562 4.5 L 21.539062 4.5 L 21.539062 -22.890625 L 23.851562 -22.890625 Z M 9.121094 -19.980469 L 2.941406 3.960938 L 0.71875 3.960938 L 7.738281 -22.5 L 10.46875 -22.5 L 17.191406 3.960938 L 14.96875 3.960938 Z M 9.121094 -19.980469 "/></g></g></g><g fill="#000000" fill-opacity="1"><g transform="translate(243.154522, 60.749996)"><g><path d="M 3.03125 4.5 L 3.03125 -3.570312 L 5.371094 -3.570312 L 5.371094 2.640625 L 23.96875 2.640625 L 23.96875 4.5 Z M 1.261719 -6.71875 L 1.261719 -8.578125 L 25.441406 -8.578125 L 25.441406 -6.71875 Z M 3.179688 -11.730469 L 3.179688 -22.5 L 5.488281 -22.5 L 5.488281 -13.589844 L 23.878906 -13.589844 L 23.878906 -11.730469 Z M 3.179688 -11.730469 "/></g></g></g><g fill="#000000" fill-opacity="1"><g transform="translate(269.85449, 60.749996)"><g/></g></g><g fill="#000000" fill-opacity="1"><g transform="translate(278.854478, 60.749996)"><g><path d="M 23.851562 -8.910156 L 21.539062 -8.910156 L 21.539062 -22.890625 L 23.851562 -22.890625 Z M 3.421875 4.5 L 3.421875 -2.191406 L 21.539062 -2.191406 L 21.539062 -5.308594 L 3.421875 -5.308594 L 3.421875 -7.109375 L 23.851562 -7.109375 L 23.851562 -0.421875 L 5.730469 -0.421875 L 5.730469 2.699219 L 24.390625 2.699219 L 24.390625 4.5 Z M 2.339844 -22.5 L 14.339844 -22.5 L 12.929688 -10.140625 L 10.53125 -10.140625 L 11.910156 -20.640625 L 2.339844 -20.640625 Z M 2.339844 -22.5 "/></g></g></g><g fill="#000000" fill-opacity="1"><g transform="translate(603.093478, 178.788343)"><g><path d="M 6.675781 -10.246094 L 2.398438 -4.09375 L 1.078125 -4.09375 L 5.488281 -10.363281 L 1.53125 -10.363281 L 1.53125 -11.25 L 11.851562 -11.25 L 11.851562 -10.363281 L 7.875 -10.363281 L 12.285156 -4.09375 L 10.964844 -4.09375 Z M 6.089844 2.324219 L 6.089844 -1.140625 L 0.628906 -1.140625 L 0.628906 -2.070312 L 12.71875 -2.070312 L 12.71875 -1.140625 L 7.246094 -1.140625 L 7.246094 2.324219 Z M 6.089844 2.324219 "/></g></g></g><g fill="#000000" fill-opacity="1"><g transform="translate(616.443468, 178.788343)"><g><path d="M 6.675781 -10.394531 L 2.398438 -2.894531 L 1.078125 -2.894531 L 6.015625 -11.25 L 7.363281 -11.25 L 12.285156 -2.894531 L 10.964844 -2.894531 Z M 0.628906 1.949219 L 0.628906 1.019531 L 6.089844 1.019531 L 6.089844 -4.109375 L 7.246094 -4.109375 L 7.246094 1.019531 L 12.71875 1.019531 L 12.71875 1.949219 Z M 0.628906 1.949219 "/></g></g></g><g fill="#000000" fill-opacity="1"><g transform="translate(603.093478, 263.1388)"><g><path d="M 1.589844 -5.863281 L 1.589844 -11.265625 L 11.789062 -11.265625 L 11.789062 -5.863281 Z M 10.636719 -10.335938 L 2.746094 -10.335938 L 2.746094 -6.796875 L 10.636719 -6.796875 Z M 6.089844 -0.691406 L 6.089844 -3.359375 L 0.628906 -3.359375 L 0.628906 -4.289062 L 12.71875 -4.289062 L 12.71875 -3.359375 L 7.246094 -3.359375 L 7.246094 -0.691406 Z M 1.515625 2.25 L 1.515625 -1.785156 L 2.683594 -1.785156 L 2.683594 1.320312 L 11.984375 1.320312 L 11.984375 2.25 Z M 1.515625 2.25 "/></g></g></g><g fill="#000000" fill-opacity="1"><g transform="translate(616.443468, 263.1388)"><g><path d="M 3.539062 -2.296875 C 3.238281 -2.296875 2.953125 -2.339844 2.714844 -2.460938 C 2.445312 -2.550781 2.234375 -2.699219 2.054688 -2.894531 C 1.859375 -3.074219 1.710938 -3.285156 1.621094 -3.554688 C 1.5 -3.796875 1.453125 -4.078125 1.453125 -4.378906 L 1.453125 -9.164062 C 1.453125 -9.464844 1.5 -9.734375 1.621094 -10.003906 C 1.710938 -10.246094 1.859375 -10.46875 2.054688 -10.664062 C 2.234375 -10.84375 2.445312 -10.980469 2.714844 -11.101562 C 2.953125 -11.191406 3.238281 -11.25 3.539062 -11.25 L 6.511719 -11.25 C 6.808594 -11.25 7.078125 -11.191406 7.351562 -11.101562 C 7.589844 -10.980469 7.816406 -10.84375 8.011719 -10.664062 C 8.191406 -10.46875 8.324219 -10.246094 8.445312 -10.003906 C 8.535156 -9.734375 8.59375 -9.464844 8.59375 -9.164062 L 8.59375 -4.378906 C 8.59375 -4.078125 8.535156 -3.796875 8.445312 -3.554688 C 8.324219 -3.285156 8.191406 -3.074219 8.011719 -2.894531 C 7.816406 -2.699219 7.589844 -2.550781 7.351562 -2.460938 C 7.078125 -2.339844 6.808594 -2.296875 6.511719 -2.296875 Z M 7.441406 -9.046875 C 7.441406 -9.40625 7.320312 -9.71875 7.078125 -9.960938 C 6.839844 -10.199219 6.523438 -10.320312 6.164062 -10.320312 L 3.886719 -10.320312 C 3.511719 -10.320312 3.210938 -10.199219 2.96875 -9.960938 C 2.730469 -9.71875 2.609375 -9.40625 2.609375 -9.046875 L 2.609375 -4.5 C 2.609375 -4.125 2.730469 -3.824219 2.96875 -3.585938 C 3.210938 -3.34375 3.511719 -3.226562 3.886719 -3.226562 L 6.164062 -3.226562 C 6.523438 -3.226562 6.839844 -3.34375 7.078125 -3.585938 C 7.320312 -3.824219 7.441406 -4.125 7.441406 -4.5 Z M 10.769531 0.300781 L 10.769531 -11.445312 L 11.925781 -11.445312 L 11.925781 2.25 L 10.769531 2.25 L 10.769531 1.230469 L 0.691406 1.230469 L 0.691406 0.300781 Z M 10.769531 0.300781 "/></g></g></g><g fill="#000000" fill-opacity="1"><g transform="translate(603.152072, 213.783341)"><g><path d="M 4.277344 3 C 3.578125 3 3.019531 2.78125 2.578125 2.339844 C 2.121094 1.878906 1.898438 1.300781 1.898438 0.621094 L 1.898438 -1.398438 C 1.898438 -2.078125 2.121094 -2.660156 2.578125 -3.121094 C 3.019531 -3.558594 3.578125 -3.777344 4.277344 -3.777344 L 12.816406 -3.777344 C 13.496094 -3.777344 14.078125 -3.558594 14.535156 -3.121094 C 14.976562 -2.660156 15.195312 -2.078125 15.195312 -1.398438 L 15.195312 0.621094 C 15.195312 1.300781 14.976562 1.878906 14.535156 2.339844 C 14.078125 2.78125 13.496094 3 12.816406 3 Z M 13.65625 -1.28125 C 13.65625 -1.640625 13.535156 -1.960938 13.296875 -2.21875 C 13.035156 -2.460938 12.71875 -2.578125 12.355469 -2.578125 L 4.738281 -2.578125 C 4.359375 -2.578125 4.058594 -2.460938 3.820312 -2.21875 C 3.558594 -1.960938 3.4375 -1.640625 3.4375 -1.28125 L 3.4375 0.5 C 3.4375 0.859375 3.558594 1.179688 3.820312 1.441406 C 4.058594 1.679688 4.359375 1.800781 4.738281 1.800781 L 12.355469 1.800781 C 12.71875 1.800781 13.035156 1.679688 13.296875 1.441406 C 13.535156 1.179688 13.65625 0.859375 13.65625 0.5 Z M 1.378906 -14.996094 L 9.378906 -14.996094 L 8.4375 -6.039062 L 6.839844 -6.039062 L 7.757812 -13.757812 L 1.378906 -13.757812 Z M 14.996094 -11.097656 L 17.375 -11.097656 L 17.375 -9.859375 L 14.996094 -9.859375 L 14.996094 -5.039062 L 13.457031 -5.039062 L 13.457031 -15.257812 L 14.996094 -15.257812 Z M 14.996094 -11.097656 "/></g></g></g><g fill="#000000" fill-opacity="1"><g transform="translate(620.945047, 213.783341)"><g><path d="M 4.320312 -8.359375 C 3.617188 -8.359375 3.058594 -8.578125 2.621094 -9.039062 C 2.160156 -9.476562 1.941406 -10.039062 1.941406 -10.738281 L 1.941406 -12.617188 C 1.941406 -13.296875 2.160156 -13.875 2.621094 -14.335938 C 3.058594 -14.777344 3.617188 -14.996094 4.320312 -14.996094 L 9.078125 -14.996094 C 9.757812 -14.996094 10.335938 -14.777344 10.796875 -14.335938 C 11.238281 -13.875 11.457031 -13.296875 11.457031 -12.617188 L 11.457031 -10.738281 C 11.457031 -10.039062 11.238281 -9.476562 10.796875 -9.039062 C 10.335938 -8.578125 9.757812 -8.359375 9.078125 -8.359375 Z M 14.355469 -6.597656 L 14.355469 -15.257812 L 15.894531 -15.257812 L 15.894531 -0.578125 L 14.355469 -0.578125 L 14.355469 -2.160156 L 10.457031 -2.160156 L 10.457031 -3.398438 L 14.355469 -3.398438 L 14.355469 -5.359375 L 7.917969 -5.359375 L 7.457031 -1.5 L 5.917969 -1.5 L 6.378906 -5.359375 L 0.917969 -5.359375 L 0.917969 -6.597656 Z M 9.917969 -12.496094 C 9.917969 -12.855469 9.796875 -13.175781 9.558594 -13.4375 C 9.296875 -13.675781 8.976562 -13.796875 8.617188 -13.796875 L 4.777344 -13.796875 C 4.398438 -13.796875 4.097656 -13.675781 3.859375 -13.4375 C 3.597656 -13.175781 3.480469 -12.855469 3.480469 -12.496094 L 3.480469 -10.855469 C 3.480469 -10.476562 3.597656 -10.175781 3.859375 -9.9375 C 4.097656 -9.675781 4.398438 -9.558594 4.777344 -9.558594 L 8.617188 -9.558594 C 8.976562 -9.558594 9.296875 -9.675781 9.558594 -9.9375 C 9.796875 -10.175781 9.917969 -10.476562 9.917969 -10.855469 Z M 2.460938 2.800781 L 2.460938 -2.300781 L 4 -2.300781 L 4 1.558594 L 16.257812 1.558594 L 16.257812 2.800781 Z M 2.460938 2.800781 "/></g></g></g><g fill="#000000" fill-opacity="1"><g transform="translate(638.738023, 213.783341)"><g/></g></g><g fill="#000000" fill-opacity="1"><g transform="translate(644.735653, 213.783341)"><g><path d="M 4.277344 3 C 3.578125 3 3.019531 2.78125 2.578125 2.339844 C 2.121094 1.878906 1.898438 1.300781 1.898438 0.621094 L 1.898438 -1.398438 C 1.898438 -2.078125 2.121094 -2.660156 2.578125 -3.121094 C 3.019531 -3.558594 3.578125 -3.777344 4.277344 -3.777344 L 12.816406 -3.777344 C 13.496094 -3.777344 14.078125 -3.558594 14.535156 -3.121094 C 14.976562 -2.660156 15.195312 -2.078125 15.195312 -1.398438 L 15.195312 0.621094 C 15.195312 1.300781 14.976562 1.878906 14.535156 2.339844 C 14.078125 2.78125 13.496094 3 12.816406 3 Z M 4.160156 -6.039062 C 3.757812 -6.039062 3.378906 -6.097656 3.058594 -6.257812 C 2.699219 -6.378906 2.417969 -6.578125 2.179688 -6.839844 C 1.917969 -7.078125 1.71875 -7.359375 1.597656 -7.71875 C 1.441406 -8.039062 1.378906 -8.417969 1.378906 -8.816406 L 1.378906 -12.21875 C 1.378906 -12.617188 1.441406 -12.976562 1.597656 -13.335938 C 1.71875 -13.65625 1.917969 -13.957031 2.179688 -14.214844 C 2.417969 -14.457031 2.699219 -14.636719 3.058594 -14.796875 C 3.378906 -14.917969 3.757812 -14.996094 4.160156 -14.996094 L 7.398438 -14.996094 C 7.796875 -14.996094 8.15625 -14.917969 8.519531 -14.796875 C 8.835938 -14.636719 9.136719 -14.457031 9.398438 -14.214844 C 9.636719 -13.957031 9.816406 -13.65625 9.976562 -13.335938 C 10.097656 -12.976562 10.175781 -12.617188 10.175781 -12.21875 L 10.175781 -8.816406 C 10.175781 -8.417969 10.097656 -8.039062 9.976562 -7.71875 C 9.816406 -7.359375 9.636719 -7.078125 9.398438 -6.839844 C 9.136719 -6.578125 8.835938 -6.378906 8.519531 -6.257812 C 8.15625 -6.097656 7.796875 -6.039062 7.398438 -6.039062 Z M 13.65625 -1.28125 C 13.65625 -1.640625 13.535156 -1.960938 13.296875 -2.21875 C 13.035156 -2.460938 12.71875 -2.578125 12.355469 -2.578125 L 4.738281 -2.578125 C 4.359375 -2.578125 4.058594 -2.460938 3.820312 -2.21875 C 3.558594 -1.960938 3.4375 -1.640625 3.4375 -1.28125 L 3.4375 0.5 C 3.4375 0.859375 3.558594 1.179688 3.820312 1.441406 C 4.058594 1.679688 4.359375 1.800781 4.738281 1.800781 L 12.355469 1.800781 C 12.71875 1.800781 13.035156 1.679688 13.296875 1.441406 C 13.535156 1.179688 13.65625 0.859375 13.65625 0.5 Z M 8.636719 -12.058594 C 8.636719 -12.535156 8.476562 -12.957031 8.15625 -13.277344 C 7.839844 -13.597656 7.417969 -13.757812 6.9375 -13.757812 L 4.617188 -13.757812 C 4.117188 -13.757812 3.71875 -13.597656 3.398438 -13.277344 C 3.078125 -12.957031 2.917969 -12.535156 2.917969 -12.058594 L 2.917969 -8.976562 C 2.917969 -8.476562 3.078125 -8.078125 3.398438 -7.757812 C 3.71875 -7.4375 4.117188 -7.277344 4.617188 -7.277344 L 6.9375 -7.277344 C 7.417969 -7.277344 7.839844 -7.4375 8.15625 -7.757812 C 8.476562 -8.078125 8.636719 -8.476562 8.636719 -8.976562 Z M 14.996094 -12.957031 L 17.375 -12.957031 L 17.375 -11.71875 L 14.996094 -11.71875 L 14.996094 -8.757812 L 17.375 -8.757812 L 17.375 -7.519531 L 14.996094 -7.519531 L 14.996094 -5.039062 L 13.457031 -5.039062 L 13.457031 -15.257812 L 14.996094 -15.257812 Z M 14.996094 -12.957031 "/></g></g></g><g fill="#000000" fill-opacity="1"><g transform="translate(662.528629, 213.783341)"><g><path d="M 4.277344 3 C 3.578125 3 3.019531 2.78125 2.578125 2.339844 C 2.121094 1.878906 1.898438 1.300781 1.898438 0.621094 L 1.898438 -1.398438 C 1.898438 -2.078125 2.121094 -2.660156 2.578125 -3.121094 C 3.019531 -3.558594 3.578125 -3.777344 4.277344 -3.777344 L 12.816406 -3.777344 C 13.496094 -3.777344 14.078125 -3.558594 14.535156 -3.121094 C 14.976562 -2.660156 15.195312 -2.078125 15.195312 -1.398438 L 15.195312 0.621094 C 15.195312 1.300781 14.976562 1.878906 14.535156 2.339844 C 14.078125 2.78125 13.496094 3 12.816406 3 Z M 4.160156 -6.039062 C 3.757812 -6.039062 3.378906 -6.097656 3.058594 -6.257812 C 2.699219 -6.378906 2.417969 -6.578125 2.179688 -6.839844 C 1.917969 -7.078125 1.71875 -7.359375 1.597656 -7.71875 C 1.441406 -8.039062 1.378906 -8.417969 1.378906 -8.816406 L 1.378906 -12.21875 C 1.378906 -12.617188 1.441406 -12.976562 1.597656 -13.335938 C 1.71875 -13.65625 1.917969 -13.957031 2.179688 -14.214844 C 2.417969 -14.457031 2.699219 -14.636719 3.058594 -14.796875 C 3.378906 -14.917969 3.757812 -14.996094 4.160156 -14.996094 L 7.398438 -14.996094 C 7.796875 -14.996094 8.15625 -14.917969 8.519531 -14.796875 C 8.835938 -14.636719 9.136719 -14.457031 9.398438 -14.214844 C 9.636719 -13.957031 9.816406 -13.65625 9.976562 -13.335938 C 10.097656 -12.976562 10.175781 -12.617188 10.175781 -12.21875 L 10.175781 -8.816406 C 10.175781 -8.417969 10.097656 -8.039062 9.976562 -7.71875 C 9.816406 -7.359375 9.636719 -7.078125 9.398438 -6.839844 C 9.136719 -6.578125 8.835938 -6.378906 8.519531 -6.257812 C 8.15625 -6.097656 7.796875 -6.039062 7.398438 -6.039062 Z M 13.65625 -1.28125 C 13.65625 -1.640625 13.535156 -1.960938 13.296875 -2.21875 C 13.035156 -2.460938 12.71875 -2.578125 12.355469 -2.578125 L 4.738281 -2.578125 C 4.359375 -2.578125 4.058594 -2.460938 3.820312 -2.21875 C 3.558594 -1.960938 3.4375 -1.640625 3.4375 -1.28125 L 3.4375 0.5 C 3.4375 0.859375 3.558594 1.179688 3.820312 1.441406 C 4.058594 1.679688 4.359375 1.800781 4.738281 1.800781 L 12.355469 1.800781 C 12.71875 1.800781 13.035156 1.679688 13.296875 1.441406 C 13.535156 1.179688 13.65625 0.859375 13.65625 0.5 Z M 8.636719 -12.058594 C 8.636719 -12.535156 8.476562 -12.957031 8.15625 -13.277344 C 7.839844 -13.597656 7.417969 -13.757812 6.9375 -13.757812 L 4.617188 -13.757812 C 4.117188 -13.757812 3.71875 -13.597656 3.398438 -13.277344 C 3.078125 -12.957031 2.917969 -12.535156 2.917969 -12.058594 L 2.917969 -8.976562 C 2.917969 -8.476562 3.078125 -8.078125 3.398438 -7.757812 C 3.71875 -7.4375 4.117188 -7.277344 4.617188 -7.277344 L 6.9375 -7.277344 C 7.417969 -7.277344 7.839844 -7.4375 8.15625 -7.757812 C 8.476562 -8.078125 8.636719 -8.476562 8.636719 -8.976562 Z M 14.996094 -12.957031 L 17.375 -12.957031 L 17.375 -11.71875 L 14.996094 -11.71875 L 14.996094 -8.757812 L 17.375 -8.757812 L 17.375 -7.519531 L 14.996094 -7.519531 L 14.996094 -5.039062 L 13.457031 -5.039062 L 13.457031 -15.257812 L 14.996094 -15.257812 Z M 14.996094 -12.957031 "/></g></g></g><g fill="#000000" fill-opacity="1"><g transform="translate(680.321605, 213.783341)"><g><path d="M 8.117188 -0.917969 L 8.117188 -5.179688 L 0.839844 -5.179688 L 0.839844 -6.417969 L 16.957031 -6.417969 L 16.957031 -5.179688 L 9.65625 -5.179688 L 9.65625 -0.917969 Z M 13.695312 -8.019531 L 14.175781 -13.777344 L 2.121094 -13.777344 L 2.121094 -15.015625 L 15.714844 -15.015625 L 15.15625 -8.019531 Z M 2.019531 3 L 2.019531 -2.78125 L 3.558594 -2.78125 L 3.558594 1.757812 L 15.957031 1.757812 L 15.957031 3 Z M 2.019531 3 "/></g></g></g><g fill="#000000" fill-opacity="1"><g transform="translate(698.11458, 213.783341)"><g/></g></g><g fill="#000000" fill-opacity="1"><g transform="translate(704.112211, 213.783341)"><g><path d="M 6.078125 -13.316406 L 1.960938 2.640625 L 0.480469 2.640625 L 5.160156 -14.996094 L 6.976562 -14.996094 L 11.457031 2.640625 L 9.976562 2.640625 Z M 14.355469 -7.699219 L 14.355469 -15.257812 L 15.894531 -15.257812 L 15.894531 3 L 14.355469 3 L 14.355469 -6.457031 L 10.777344 -6.457031 L 10.777344 -7.699219 Z M 14.355469 -7.699219 "/></g></g></g><g fill="#000000" fill-opacity="1"><g transform="translate(721.905186, 213.783341)"><g><path d="M 1.558594 -5.859375 L 1.558594 -14.996094 L 10.355469 -14.996094 L 10.355469 -5.859375 Z M 8.816406 -13.796875 L 3.097656 -13.796875 L 3.097656 -7.058594 L 8.816406 -7.058594 Z M 14.355469 -8.917969 L 14.355469 -11.675781 L 11.476562 -11.675781 L 11.476562 -12.917969 L 14.355469 -12.917969 L 14.355469 -15.257812 L 15.894531 -15.257812 L 15.894531 -1.738281 L 14.355469 -1.738281 L 14.355469 -7.679688 L 11.476562 -7.679688 L 11.476562 -8.917969 Z M 2.28125 2.800781 L 2.28125 -3.378906 L 3.820312 -3.378906 L 3.820312 1.558594 L 16.257812 1.558594 L 16.257812 2.800781 Z M 2.28125 2.800781 "/></g></g></g><g fill="#000000" fill-opacity="1"><g transform="translate(739.698162, 213.783341)"><g/></g></g><g fill="#000000" fill-opacity="1"><g transform="translate(745.695793, 213.783341)"><g><path d="M 4.339844 -6.738281 C 3.9375 -6.738281 3.558594 -6.796875 3.238281 -6.957031 C 2.878906 -7.078125 2.597656 -7.277344 2.359375 -7.539062 C 2.097656 -7.777344 1.898438 -8.058594 1.78125 -8.417969 C 1.621094 -8.738281 1.558594 -9.117188 1.558594 -9.519531 L 1.558594 -12.21875 C 1.558594 -12.617188 1.621094 -12.976562 1.78125 -13.335938 C 1.898438 -13.65625 2.097656 -13.957031 2.359375 -14.214844 C 2.597656 -14.457031 2.878906 -14.636719 3.238281 -14.796875 C 3.558594 -14.917969 3.9375 -14.996094 4.339844 -14.996094 L 7.578125 -14.996094 C 7.976562 -14.996094 8.339844 -14.917969 8.699219 -14.796875 C 9.019531 -14.636719 9.316406 -14.457031 9.578125 -14.214844 C 9.816406 -13.957031 9.996094 -13.65625 10.15625 -13.335938 C 10.277344 -12.976562 10.355469 -12.617188 10.355469 -12.21875 L 10.355469 -9.519531 C 10.355469 -9.117188 10.277344 -8.738281 10.15625 -8.417969 C 9.996094 -8.058594 9.816406 -7.777344 9.578125 -7.539062 C 9.316406 -7.277344 9.019531 -7.078125 8.699219 -6.957031 C 8.339844 -6.796875 7.976562 -6.738281 7.578125 -6.738281 Z M 2.28125 3 L 2.28125 -1.460938 L 14.355469 -1.460938 L 14.355469 -3.539062 L 2.28125 -3.539062 L 2.28125 -4.738281 L 15.894531 -4.738281 L 15.894531 -0.28125 L 3.820312 -0.28125 L 3.820312 1.800781 L 16.257812 1.800781 L 16.257812 3 Z M 8.816406 -12.058594 C 8.816406 -12.535156 8.65625 -12.957031 8.339844 -13.277344 C 8.019531 -13.597656 7.597656 -13.757812 7.117188 -13.757812 L 4.796875 -13.757812 C 4.300781 -13.757812 3.898438 -13.597656 3.578125 -13.277344 C 3.257812 -12.957031 3.097656 -12.535156 3.097656 -12.058594 L 3.097656 -9.675781 C 3.097656 -9.175781 3.257812 -8.777344 3.578125 -8.457031 C 3.898438 -8.136719 4.300781 -7.976562 4.796875 -7.976562 L 7.117188 -7.976562 C 7.597656 -7.976562 8.019531 -8.136719 8.339844 -8.457031 C 8.65625 -8.777344 8.816406 -9.175781 8.816406 -9.675781 Z M 14.355469 -11.417969 L 14.355469 -15.257812 L 15.894531 -15.257812 L 15.894531 -5.9375 L 14.355469 -5.9375 L 14.355469 -10.175781 L 11.476562 -10.175781 L 11.476562 -11.417969 Z M 14.355469 -11.417969 "/></g></g></g><g fill="#000000" fill-opacity="1"><g transform="translate(763.488768, 213.783341)"><g><path d="M 2.019531 3 L 2.019531 -3.339844 L 15.796875 -3.339844 L 15.796875 3 Z M 14.257812 -2.097656 L 3.558594 -2.097656 L 3.558594 1.757812 L 14.257812 1.757812 Z M 0.839844 -5.257812 L 0.839844 -6.5 L 16.957031 -6.5 L 16.957031 -5.257812 Z M 4.300781 -8.398438 C 3.597656 -8.398438 3.039062 -8.617188 2.597656 -9.078125 C 2.140625 -9.519531 1.917969 -10.078125 1.917969 -10.777344 L 1.917969 -12.617188 C 1.917969 -13.296875 2.140625 -13.875 2.597656 -14.335938 C 3.039062 -14.777344 3.597656 -15.015625 4.300781 -15.015625 L 13.535156 -15.015625 C 14.214844 -15.015625 14.796875 -14.777344 15.257812 -14.335938 C 15.695312 -13.875 15.917969 -13.296875 15.917969 -12.617188 L 15.917969 -10.777344 C 15.917969 -10.078125 15.695312 -9.519531 15.257812 -9.078125 C 14.796875 -8.617188 14.214844 -8.398438 13.535156 -8.398438 Z M 14.375 -12.476562 C 14.375 -12.835938 14.238281 -13.15625 13.996094 -13.417969 C 13.738281 -13.65625 13.417969 -13.777344 13.058594 -13.777344 L 4.738281 -13.777344 C 4.359375 -13.777344 4.058594 -13.65625 3.820312 -13.417969 C 3.558594 -13.15625 3.4375 -12.835938 3.4375 -12.476562 L 3.4375 -10.917969 C 3.4375 -10.539062 3.558594 -10.238281 3.820312 -9.996094 C 4.058594 -9.757812 4.359375 -9.636719 4.738281 -9.636719 L 13.058594 -9.636719 C 13.417969 -9.636719 13.738281 -9.757812 13.996094 -9.996094 C 14.238281 -10.238281 14.375 -10.539062 14.375 -10.917969 Z M 14.375 -12.476562 "/></g></g></g><g fill="#000000" fill-opacity="1"><g transform="translate(781.281744, 213.783341)"><g><path d="M 2.019531 3 L 2.019531 -1.28125 L 14.277344 -1.28125 L 14.277344 -3.277344 L 2.019531 -3.277344 L 2.019531 -4.4375 L 15.816406 -4.4375 L 15.816406 -0.121094 L 3.558594 -0.121094 L 3.558594 1.839844 L 16.136719 1.839844 L 16.136719 3 Z M 0.839844 -6.160156 L 0.839844 -7.398438 L 7 -7.398438 L 7 -11.15625 L 8.539062 -11.15625 L 8.539062 -7.398438 L 16.957031 -7.398438 L 16.957031 -6.160156 Z M 13.695312 -8.796875 L 14.175781 -13.777344 L 2.121094 -13.777344 L 2.121094 -15.015625 L 15.734375 -15.015625 L 15.15625 -8.796875 Z M 13.695312 -8.796875 "/></g></g></g><g fill="#000000" fill-opacity="1"><g transform="translate(799.074731, 213.783341)"><g><path d="M 15.894531 -5.9375 L 14.355469 -5.9375 L 14.355469 -15.257812 L 15.894531 -15.257812 Z M 2.28125 3 L 2.28125 -1.460938 L 14.355469 -1.460938 L 14.355469 -3.539062 L 2.28125 -3.539062 L 2.28125 -4.738281 L 15.894531 -4.738281 L 15.894531 -0.28125 L 3.820312 -0.28125 L 3.820312 1.800781 L 16.257812 1.800781 L 16.257812 3 Z M 1.558594 -14.996094 L 9.558594 -14.996094 L 8.617188 -6.757812 L 7.019531 -6.757812 L 7.9375 -13.757812 L 1.558594 -13.757812 Z M 1.558594 -14.996094 "/></g></g></g><g fill="#000000" fill-opacity="1"><g transform="translate(816.867706, 213.783341)"><g/></g></g><g fill="#000000" fill-opacity="1"><g transform="translate(822.865348, 213.783341)"><g><path d="M 8.679688 2.417969 L 8.679688 -1.660156 L 0.738281 -1.660156 L 0.738281 -3.179688 L 8.519531 -14.617188 L 10.21875 -14.617188 L 10.21875 -3.097656 L 12.4375 -3.097656 L 12.4375 -1.660156 L 10.21875 -1.660156 L 10.21875 2.417969 Z M 2.339844 -3.097656 L 8.679688 -3.097656 L 8.679688 -12.476562 Z M 2.339844 -3.097656 "/></g></g></g><g fill="#000000" fill-opacity="1"><g transform="translate(835.920196, 213.783341)"><g><path d="M 1.339844 0.980469 L 7.578125 0.980469 C 8.078125 0.980469 8.496094 0.820312 8.835938 0.5 C 9.15625 0.160156 9.316406 -0.238281 9.316406 -0.761719 L 9.316406 -3.820312 C 9.316406 -4.320312 9.15625 -4.738281 8.835938 -5.078125 C 8.496094 -5.398438 8.078125 -5.558594 7.578125 -5.558594 L 1.339844 -5.558594 L 1.339844 -7.039062 L 7.578125 -7.039062 C 8.078125 -7.039062 8.496094 -7.199219 8.835938 -7.539062 C 9.15625 -7.859375 9.316406 -8.257812 9.316406 -8.777344 L 9.316406 -11.4375 C 9.316406 -11.9375 9.15625 -12.355469 8.835938 -12.695312 C 8.496094 -13.015625 8.078125 -13.175781 7.578125 -13.175781 L 1.339844 -13.175781 L 1.339844 -14.617188 L 8.117188 -14.617188 C 8.519531 -14.617188 8.878906 -14.535156 9.21875 -14.417969 C 9.539062 -14.257812 9.835938 -14.078125 10.078125 -13.835938 C 10.316406 -13.597656 10.496094 -13.296875 10.65625 -12.976562 C 10.777344 -12.636719 10.855469 -12.277344 10.855469 -11.878906 L 10.855469 -8.738281 C 10.855469 -8.058594 10.699219 -7.539062 10.398438 -7.160156 C 10.078125 -6.757812 9.675781 -6.476562 9.175781 -6.296875 C 9.675781 -6.097656 10.078125 -5.820312 10.398438 -5.4375 C 10.699219 -5.039062 10.855469 -4.5 10.855469 -3.859375 L 10.855469 -0.320312 C 10.855469 0.078125 10.777344 0.441406 10.65625 0.78125 C 10.496094 1.101562 10.316406 1.398438 10.078125 1.640625 C 9.835938 1.878906 9.539062 2.058594 9.21875 2.21875 C 8.878906 2.339844 8.519531 2.417969 8.117188 2.417969 L 1.339844 2.417969 Z M 1.339844 0.980469 "/></g></g></g><g fill="#000000" fill-opacity="1"><g transform="translate(848.055395, 213.783341)"><g><path d="M 1.160156 -6.636719 L 9.957031 -6.636719 L 9.957031 -5.296875 L 1.160156 -5.296875 Z M 1.160156 -6.636719 "/></g></g></g><g fill="#000000" fill-opacity="1"><g transform="translate(859.190999, 213.783341)"><g><path d="M 5.597656 -14.617188 L 7.359375 -14.617188 L 7.359375 2.417969 L 5.820312 2.417969 L 5.820312 -13.097656 L 1.160156 -10.597656 L 1.160156 -12.195312 Z M 5.597656 -14.617188 "/></g></g></g><g fill="#000000" fill-opacity="1"><g transform="translate(603.116915, 297.888818)"><g><path d="M 4.039062 2.417969 C 3.640625 2.417969 3.257812 2.339844 2.9375 2.21875 C 2.597656 2.058594 2.320312 1.878906 2.078125 1.640625 C 1.839844 1.398438 1.640625 1.101562 1.519531 0.78125 C 1.359375 0.441406 1.300781 0.078125 1.300781 -0.320312 L 1.300781 -11.878906 C 1.300781 -12.277344 1.359375 -12.636719 1.519531 -12.976562 C 1.640625 -13.296875 1.839844 -13.597656 2.078125 -13.835938 C 2.320312 -14.078125 2.597656 -14.257812 2.9375 -14.417969 C 3.257812 -14.535156 3.640625 -14.617188 4.039062 -14.617188 L 9.335938 -14.617188 C 9.738281 -14.617188 10.097656 -14.535156 10.4375 -14.417969 C 10.757812 -14.257812 11.058594 -14.078125 11.296875 -13.835938 C 11.539062 -13.597656 11.71875 -13.296875 11.878906 -12.976562 C 11.996094 -12.636719 12.078125 -12.277344 12.078125 -11.878906 L 12.078125 -0.320312 C 12.078125 0.078125 11.996094 0.441406 11.878906 0.78125 C 11.71875 1.101562 11.539062 1.398438 11.296875 1.640625 C 11.058594 1.878906 10.757812 2.058594 10.4375 2.21875 C 10.097656 2.339844 9.738281 2.417969 9.335938 2.417969 Z M 10.539062 -11.4375 C 10.539062 -11.9375 10.378906 -12.355469 10.058594 -12.695312 C 9.71875 -13.015625 9.296875 -13.175781 8.796875 -13.175781 L 4.578125 -13.175781 C 4.058594 -13.175781 3.660156 -13.015625 3.339844 -12.695312 C 3 -12.355469 2.839844 -11.9375 2.839844 -11.4375 L 2.839844 -0.761719 C 2.839844 -0.238281 3 0.160156 3.339844 0.5 C 3.660156 0.820312 4.058594 0.980469 4.578125 0.980469 L 8.796875 0.980469 C 9.296875 0.980469 9.71875 0.820312 10.058594 0.5 C 10.378906 0.160156 10.539062 -0.238281 10.539062 -0.761719 Z M 10.539062 -11.4375 "/></g></g></g><g fill="#000000" fill-opacity="1"><g transform="translate(616.491636, 297.888818)"><g><path d="M 1.339844 0.980469 L 7.578125 0.980469 C 8.078125 0.980469 8.496094 0.820312 8.835938 0.5 C 9.15625 0.160156 9.316406 -0.238281 9.316406 -0.761719 L 9.316406 -3.820312 C 9.316406 -4.320312 9.15625 -4.738281 8.835938 -5.078125 C 8.496094 -5.398438 8.078125 -5.558594 7.578125 -5.558594 L 1.339844 -5.558594 L 1.339844 -7.039062 L 7.578125 -7.039062 C 8.078125 -7.039062 8.496094 -7.199219 8.835938 -7.539062 C 9.15625 -7.859375 9.316406 -8.257812 9.316406 -8.777344 L 9.316406 -11.4375 C 9.316406 -11.9375 9.15625 -12.355469 8.835938 -12.695312 C 8.496094 -13.015625 8.078125 -13.175781 7.578125 -13.175781 L 1.339844 -13.175781 L 1.339844 -14.617188 L 8.117188 -14.617188 C 8.519531 -14.617188 8.878906 -14.535156 9.21875 -14.417969 C 9.539062 -14.257812 9.835938 -14.078125 10.078125 -13.835938 C 10.316406 -13.597656 10.496094 -13.296875 10.65625 -12.976562 C 10.777344 -12.636719 10.855469 -12.277344 10.855469 -11.878906 L 10.855469 -8.738281 C 10.855469 -8.058594 10.699219 -7.539062 10.398438 -7.160156 C 10.078125 -6.757812 9.675781 -6.476562 9.175781 -6.296875 C 9.675781 -6.097656 10.078125 -5.820312 10.398438 -5.4375 C 10.699219 -5.039062 10.855469 -4.5 10.855469 -3.859375 L 10.855469 -0.320312 C 10.855469 0.078125 10.777344 0.441406 10.65625 0.78125 C 10.496094 1.101562 10.316406 1.398438 10.078125 1.640625 C 9.835938 1.878906 9.539062 2.058594 9.21875 2.21875 C 8.878906 2.339844 8.519531 2.417969 8.117188 2.417969 L 1.339844 2.417969 Z M 1.339844 0.980469 "/></g></g></g><g fill="#000000" fill-opacity="1"><g transform="translate(628.626847, 297.888818)"><g><path d="M 1.339844 0.980469 L 7.578125 0.980469 C 8.078125 0.980469 8.496094 0.820312 8.835938 0.5 C 9.15625 0.160156 9.316406 -0.238281 9.316406 -0.761719 L 9.316406 -3.820312 C 9.316406 -4.320312 9.15625 -4.738281 8.835938 -5.078125 C 8.496094 -5.398438 8.078125 -5.558594 7.578125 -5.558594 L 1.339844 -5.558594 L 1.339844 -7.039062 L 7.578125 -7.039062 C 8.078125 -7.039062 8.496094 -7.199219 8.835938 -7.539062 C 9.15625 -7.859375 9.316406 -8.257812 9.316406 -8.777344 L 9.316406 -11.4375 C 9.316406 -11.9375 9.15625 -12.355469 8.835938 -12.695312 C 8.496094 -13.015625 8.078125 -13.175781 7.578125 -13.175781 L 1.339844 -13.175781 L 1.339844 -14.617188 L 8.117188 -14.617188 C 8.519531 -14.617188 8.878906 -14.535156 9.21875 -14.417969 C 9.539062 -14.257812 9.835938 -14.078125 10.078125 -13.835938 C 10.316406 -13.597656 10.496094 -13.296875 10.65625 -12.976562 C 10.777344 -12.636719 10.855469 -12.277344 10.855469 -11.878906 L 10.855469 -8.738281 C 10.855469 -8.058594 10.699219 -7.539062 10.398438 -7.160156 C 10.078125 -6.757812 9.675781 -6.476562 9.175781 -6.296875 C 9.675781 -6.097656 10.078125 -5.820312 10.398438 -5.4375 C 10.699219 -5.039062 10.855469 -4.5 10.855469 -3.859375 L 10.855469 -0.320312 C 10.855469 0.078125 10.777344 0.441406 10.65625 0.78125 C 10.496094 1.101562 10.316406 1.398438 10.078125 1.640625 C 9.835938 1.878906 9.539062 2.058594 9.21875 2.21875 C 8.878906 2.339844 8.519531 2.417969 8.117188 2.417969 L 1.339844 2.417969 Z M 1.339844 0.980469 "/></g></g></g><g fill="#000000" fill-opacity="1"><g transform="translate(640.762058, 297.888818)"><g><path d="M 1.160156 -6.636719 L 9.957031 -6.636719 L 9.957031 -5.296875 L 1.160156 -5.296875 Z M 1.160156 -6.636719 "/></g></g></g><g fill="#000000" fill-opacity="1"><g transform="translate(651.897662, 297.888818)"><g><path d="M 2.820312 -7.296875 C 3.199219 -7.777344 3.820312 -8.039062 4.699219 -8.039062 L 9.21875 -8.039062 C 9.617188 -8.039062 9.976562 -7.957031 10.316406 -7.839844 C 10.636719 -7.679688 10.9375 -7.5 11.175781 -7.257812 C 11.417969 -7.019531 11.597656 -6.71875 11.757812 -6.398438 C 11.878906 -6.058594 11.957031 -5.699219 11.957031 -5.296875 L 11.957031 -0.320312 C 11.957031 0.078125 11.878906 0.441406 11.757812 0.78125 C 11.597656 1.101562 11.417969 1.398438 11.175781 1.640625 C 10.9375 1.878906 10.636719 2.058594 10.316406 2.21875 C 9.976562 2.339844 9.617188 2.417969 9.21875 2.417969 L 4.019531 2.417969 C 3.617188 2.417969 3.238281 2.339844 2.917969 2.21875 C 2.578125 2.058594 2.300781 1.878906 2.058594 1.640625 C 1.820312 1.398438 1.621094 1.101562 1.5 0.78125 C 1.339844 0.441406 1.28125 0.078125 1.28125 -0.320312 L 1.28125 -12.078125 C 1.28125 -12.855469 1.539062 -13.476562 2.058594 -13.9375 C 2.558594 -14.375 3.21875 -14.617188 4.019531 -14.617188 L 11.117188 -14.617188 L 11.117188 -13.175781 L 4.558594 -13.175781 C 4.039062 -13.175781 3.640625 -13.035156 3.320312 -12.796875 C 2.980469 -12.535156 2.820312 -12.15625 2.820312 -11.636719 Z M 4.558594 -6.597656 C 4.058594 -6.597656 3.660156 -6.4375 3.339844 -6.117188 C 3.019531 -5.796875 2.839844 -5.398438 2.820312 -4.917969 L 2.820312 -0.761719 C 2.820312 -0.238281 2.980469 0.160156 3.320312 0.5 C 3.640625 0.820312 4.039062 0.980469 4.558594 0.980469 L 8.679688 0.980469 C 9.175781 0.980469 9.597656 0.820312 9.9375 0.5 C 10.257812 0.160156 10.417969 -0.238281 10.417969 -0.761719 L 10.417969 -4.859375 C 10.417969 -5.359375 10.257812 -5.777344 9.9375 -6.117188 C 9.597656 -6.4375 9.175781 -6.597656 8.679688 -6.597656 Z M 4.558594 -6.597656 "/></g></g></g><g fill="#000000" fill-opacity="1"><g transform="translate(664.992495, 297.888818)"><g><path d="M 11.515625 -14.617188 L 11.515625 -13.117188 L 5.378906 2.417969 L 3.738281 2.417969 L 9.9375 -13.175781 L 0.917969 -13.175781 L 0.917969 -14.617188 Z M 11.515625 -14.617188 "/></g></g></g><g fill="#000000" fill-opacity="1"><g transform="translate(677.407594, 297.888818)"><g><path d="M 1.339844 0.980469 L 7.578125 0.980469 C 8.078125 0.980469 8.496094 0.820312 8.835938 0.5 C 9.15625 0.160156 9.316406 -0.238281 9.316406 -0.761719 L 9.316406 -3.820312 C 9.316406 -4.320312 9.15625 -4.738281 8.835938 -5.078125 C 8.496094 -5.398438 8.078125 -5.558594 7.578125 -5.558594 L 1.339844 -5.558594 L 1.339844 -7.039062 L 7.578125 -7.039062 C 8.078125 -7.039062 8.496094 -7.199219 8.835938 -7.539062 C 9.15625 -7.859375 9.316406 -8.257812 9.316406 -8.777344 L 9.316406 -11.4375 C 9.316406 -11.9375 9.15625 -12.355469 8.835938 -12.695312 C 8.496094 -13.015625 8.078125 -13.175781 7.578125 -13.175781 L 1.339844 -13.175781 L 1.339844 -14.617188 L 8.117188 -14.617188 C 8.519531 -14.617188 8.878906 -14.535156 9.21875 -14.417969 C 9.539062 -14.257812 9.835938 -14.078125 10.078125 -13.835938 C 10.316406 -13.597656 10.496094 -13.296875 10.65625 -12.976562 C 10.777344 -12.636719 10.855469 -12.277344 10.855469 -11.878906 L 10.855469 -8.738281 C 10.855469 -8.058594 10.699219 -7.539062 10.398438 -7.160156 C 10.078125 -6.757812 9.675781 -6.476562 9.175781 -6.296875 C 9.675781 -6.097656 10.078125 -5.820312 10.398438 -5.4375 C 10.699219 -5.039062 10.855469 -4.5 10.855469 -3.859375 L 10.855469 -0.320312 C 10.855469 0.078125 10.777344 0.441406 10.65625 0.78125 C 10.496094 1.101562 10.316406 1.398438 10.078125 1.640625 C 9.835938 1.878906 9.539062 2.058594 9.21875 2.21875 C 8.878906 2.339844 8.519531 2.417969 8.117188 2.417969 L 1.339844 2.417969 Z M 1.339844 0.980469 "/></g></g></g><g fill="#000000" fill-opacity="1"><g transform="translate(689.542805, 297.888818)"><g><path d="M 1.160156 -6.636719 L 9.957031 -6.636719 L 9.957031 -5.296875 L 1.160156 -5.296875 Z M 1.160156 -6.636719 "/></g></g></g><g fill="#000000" fill-opacity="1"><g transform="translate(700.67841, 297.888818)"><g><path d="M 8.679688 2.417969 L 8.679688 -1.660156 L 0.738281 -1.660156 L 0.738281 -3.179688 L 8.519531 -14.617188 L 10.21875 -14.617188 L 10.21875 -3.097656 L 12.4375 -3.097656 L 12.4375 -1.660156 L 10.21875 -1.660156 L 10.21875 2.417969 Z M 2.339844 -3.097656 L 8.679688 -3.097656 L 8.679688 -12.476562 Z M 2.339844 -3.097656 "/></g></g></g><g fill="#000000" fill-opacity="1"><g transform="translate(713.733257, 297.888818)"><g><path d="M 3.878906 -5.976562 C 3.078125 -5.976562 2.417969 -6.199219 1.917969 -6.660156 C 1.398438 -7.097656 1.140625 -7.71875 1.140625 -8.519531 L 1.140625 -14.617188 L 11.078125 -14.617188 L 11.078125 -13.175781 L 2.679688 -13.175781 L 2.679688 -8.957031 C 2.679688 -8.4375 2.839844 -8.039062 3.179688 -7.796875 C 3.5 -7.539062 3.898438 -7.417969 4.417969 -7.417969 L 8.9375 -7.417969 C 9.738281 -7.417969 10.398438 -7.179688 10.917969 -6.738281 C 11.417969 -6.277344 11.675781 -5.660156 11.675781 -4.878906 L 11.675781 -0.121094 C 11.675781 0.660156 11.417969 1.28125 10.917969 1.738281 C 10.398438 2.179688 9.738281 2.417969 8.9375 2.417969 L 1.140625 2.417969 L 1.140625 0.980469 L 8.398438 0.980469 C 8.898438 0.980469 9.316406 0.839844 9.65625 0.601562 C 9.976562 0.339844 10.136719 -0.0390625 10.136719 -0.558594 L 10.136719 -4.4375 C 10.136719 -4.957031 9.976562 -5.339844 9.65625 -5.597656 C 9.316406 -5.839844 8.898438 -5.976562 8.398438 -5.976562 Z M 3.878906 -5.976562 "/></g></g></g><g fill="#000000" fill-opacity="1"><g transform="translate(726.60818, 297.888818)"><g><path d="M 3.878906 -5.976562 C 3.078125 -5.976562 2.417969 -6.199219 1.917969 -6.660156 C 1.398438 -7.097656 1.140625 -7.71875 1.140625 -8.519531 L 1.140625 -14.617188 L 11.078125 -14.617188 L 11.078125 -13.175781 L 2.679688 -13.175781 L 2.679688 -8.957031 C 2.679688 -8.4375 2.839844 -8.039062 3.179688 -7.796875 C 3.5 -7.539062 3.898438 -7.417969 4.417969 -7.417969 L 8.9375 -7.417969 C 9.738281 -7.417969 10.398438 -7.179688 10.917969 -6.738281 C 11.417969 -6.277344 11.675781 -5.660156 11.675781 -4.878906 L 11.675781 -0.121094 C 11.675781 0.660156 11.417969 1.28125 10.917969 1.738281 C 10.398438 2.179688 9.738281 2.417969 8.9375 2.417969 L 1.140625 2.417969 L 1.140625 0.980469 L 8.398438 0.980469 C 8.898438 0.980469 9.316406 0.839844 9.65625 0.601562 C 9.976562 0.339844 10.136719 -0.0390625 10.136719 -0.558594 L 10.136719 -4.4375 C 10.136719 -4.957031 9.976562 -5.339844 9.65625 -5.597656 C 9.316406 -5.839844 8.898438 -5.976562 8.398438 -5.976562 Z M 3.878906 -5.976562 "/></g></g></g><g fill="#000000" fill-opacity="1"><g transform="translate(739.483103, 297.888818)"><g><path d="M 3.878906 -5.976562 C 3.078125 -5.976562 2.417969 -6.199219 1.917969 -6.660156 C 1.398438 -7.097656 1.140625 -7.71875 1.140625 -8.519531 L 1.140625 -14.617188 L 11.078125 -14.617188 L 11.078125 -13.175781 L 2.679688 -13.175781 L 2.679688 -8.957031 C 2.679688 -8.4375 2.839844 -8.039062 3.179688 -7.796875 C 3.5 -7.539062 3.898438 -7.417969 4.417969 -7.417969 L 8.9375 -7.417969 C 9.738281 -7.417969 10.398438 -7.179688 10.917969 -6.738281 C 11.417969 -6.277344 11.675781 -5.660156 11.675781 -4.878906 L 11.675781 -0.121094 C 11.675781 0.660156 11.417969 1.28125 10.917969 1.738281 C 10.398438 2.179688 9.738281 2.417969 8.9375 2.417969 L 1.140625 2.417969 L 1.140625 0.980469 L 8.398438 0.980469 C 8.898438 0.980469 9.316406 0.839844 9.65625 0.601562 C 9.976562 0.339844 10.136719 -0.0390625 10.136719 -0.558594 L 10.136719 -4.4375 C 10.136719 -4.957031 9.976562 -5.339844 9.65625 -5.597656 C 9.316406 -5.839844 8.898438 -5.976562 8.398438 -5.976562 Z M 3.878906 -5.976562 "/></g></g></g></svg>