<svg xmlns="http://www.w3.org/2000/svg" xmlns:xlink="http://www.w3.org/1999/xlink" width="500" zoomAndPan="magnify" viewBox="0 0 375 225" height="300" preserveAspectRatio="xMidYMid meet" version="1.0"><defs><g/><clipPath id="9db9553a06"><path d="M 160 67 L 223 67 L 223 129.375 L 160 129.375 Z M 160 67 " clip-rule="nonzero"/></clipPath><clipPath id="922c34a9bb"><path d="M 125.023438 31.125 L 208 31.125 L 208 84 L 125.023438 84 Z M 125.023438 31.125 " clip-rule="nonzero"/></clipPath><clipPath id="1b9e1f6b44"><path d="M 205 44 L 250.273438 44 L 250.273438 71 L 205 71 Z M 205 44 " clip-rule="nonzero"/></clipPath></defs><g clip-path="url(#9db9553a06)"><path fill="#ffffff" d="M 194.957031 129.371094 C 194.765625 129.371094 194.578125 129.289062 194.441406 129.136719 C 194.1875 128.851562 194.214844 128.417969 194.5 128.164062 C 195.488281 127.292969 197.097656 126.242188 198.960938 125.019531 C 203.863281 121.816406 210.582031 117.421875 210.582031 113.199219 C 210.582031 108.972656 206.273438 107.894531 201.714844 106.527344 C 201.078125 106.335938 200.4375 106.140625 199.804688 105.941406 C 197.675781 105.265625 196.007812 103.589844 195.339844 101.460938 C 194.679688 99.355469 195.066406 97.15625 196.398438 95.421875 C 199.832031 90.957031 205.347656 89.003906 210.21875 87.277344 C 216.003906 85.230469 221 83.460938 221 78.1875 C 221 73.871094 214.832031 70.851562 209.890625 69.722656 C 212.300781 71.652344 214.621094 74.5 214.621094 77.527344 C 214.621094 83.921875 204.21875 86.28125 193.210938 88.78125 C 180.773438 91.605469 166.675781 94.804688 166.675781 104.074219 C 166.675781 107.328125 169.363281 108.542969 172.207031 109.828125 C 174.882812 111.035156 177.648438 112.28125 177.648438 115.386719 C 177.648438 121.660156 161.453125 124.011719 161.289062 124.019531 C 160.90625 124.039062 160.589844 123.738281 160.574219 123.355469 C 160.558594 122.984375 160.84375 122.667969 161.210938 122.640625 C 163.109375 122.4375 176.269531 119.90625 176.269531 115.386719 C 176.269531 113.171875 174.125 112.203125 171.640625 111.082031 C 168.664062 109.738281 165.296875 108.21875 165.296875 104.074219 C 165.296875 93.703125 179.960938 90.371094 192.902344 87.4375 C 203.363281 85.0625 213.242188 82.820312 213.242188 77.527344 C 213.242188 74.179688 209.355469 70.632812 206.59375 69.183594 C 206.308594 69.03125 206.164062 68.699219 206.253906 68.386719 C 206.339844 68.074219 206.640625 67.863281 206.960938 67.882812 C 212.167969 68.214844 222.378906 71.679688 222.378906 78.183594 C 222.378906 84.6875 216.699219 86.449219 210.679688 88.578125 C 205.761719 90.320312 200.675781 92.121094 197.492188 96.261719 C 196.4375 97.632812 196.132812 99.378906 196.65625 101.046875 C 197.191406 102.75 198.523438 104.085938 200.222656 104.628906 C 200.847656 104.828125 201.480469 105.015625 202.113281 105.207031 C 206.953125 106.65625 211.960938 108.160156 211.960938 113.199219 C 211.960938 118.238281 204.886719 122.796875 199.714844 126.175781 C 197.898438 127.363281 196.324219 128.390625 195.414062 129.195312 C 195.28125 129.3125 195.121094 129.371094 194.957031 129.371094 Z M 194.957031 129.371094 " fill-opacity="1" fill-rule="nonzero"/></g><path fill="#ffffff" d="M 178.457031 108.988281 C 178.378906 108.988281 178.300781 108.976562 178.222656 108.945312 C 173.347656 107.1875 172.324219 104.9375 172.324219 103.359375 C 172.324219 99.878906 177.042969 96.957031 181.703125 95.871094 C 182.074219 95.785156 182.445312 96.015625 182.53125 96.386719 C 182.617188 96.757812 182.386719 97.128906 182.015625 97.214844 C 177.355469 98.300781 173.703125 101 173.703125 103.359375 C 173.703125 104.988281 175.425781 106.472656 178.691406 107.648438 C 179.046875 107.78125 179.234375 108.175781 179.105469 108.53125 C 179.003906 108.8125 178.738281 108.988281 178.457031 108.988281 Z M 178.457031 108.988281 " fill-opacity="1" fill-rule="nonzero"/><path fill="#ffffff" d="M 191.347656 125.449219 C 191.070312 125.449219 190.804688 125.277344 190.703125 125 C 190.570312 124.644531 190.75 124.246094 191.109375 124.113281 C 196.007812 122.289062 200.953125 119.121094 200.953125 116.152344 C 200.953125 113.96875 198.191406 112.265625 195.878906 111.226562 C 195.53125 111.066406 195.375 110.660156 195.53125 110.3125 C 195.6875 109.964844 196.097656 109.808594 196.445312 109.96875 C 200.351562 111.726562 202.332031 113.808594 202.332031 116.152344 C 202.332031 120.027344 196.78125 123.472656 191.589844 125.40625 C 191.507812 125.433594 191.425781 125.449219 191.347656 125.449219 Z M 191.347656 125.449219 " fill-opacity="1" fill-rule="nonzero"/><g clip-path="url(#922c34a9bb)"><path fill="#ffffff" d="M 125.808594 83.578125 C 125.671875 83.578125 125.53125 83.539062 125.410156 83.453125 C 125.097656 83.230469 125.023438 82.800781 125.246094 82.492188 C 127.097656 79.882812 129.101562 77.351562 131.039062 74.902344 C 134.117188 71.019531 137.296875 67.007812 139.890625 62.640625 C 140.019531 62.425781 140.234375 62.296875 140.503906 62.304688 C 142.742188 62.367188 144.855469 63.675781 146.71875 64.832031 C 146.777344 64.867188 146.835938 64.90625 146.898438 64.945312 C 149.1875 63.046875 156.058594 53.792969 161.636719 46.28125 C 171.203125 33.398438 173.058594 31.132812 174.039062 31.132812 C 177.828125 31.132812 181.09375 37.9375 183.972656 43.945312 C 184.820312 45.707031 185.625 47.390625 186.320312 48.589844 C 187.03125 47.804688 187.65625 46.9375 188.304688 46.03125 C 189.203125 44.78125 190.132812 43.492188 191.316406 42.414062 C 191.554688 42.199219 191.910156 42.175781 192.171875 42.355469 C 197.832031 46.265625 200.472656 52.632812 203.027344 58.789062 C 204.355469 61.988281 205.726562 65.296875 207.503906 68.210938 C 207.703125 68.535156 207.601562 68.960938 207.273438 69.160156 C 206.949219 69.359375 206.523438 69.253906 206.328125 68.929688 C 204.492188 65.921875 203.097656 62.5625 201.75 59.316406 C 199.234375 53.25 196.851562 47.511719 191.84375 43.816406 C 190.949219 44.710938 190.207031 45.746094 189.425781 46.832031 C 188.59375 47.988281 187.734375 49.179688 186.675781 50.203125 C 186.53125 50.34375 186.324219 50.414062 186.125 50.390625 C 185.917969 50.367188 185.738281 50.257812 185.625 50.085938 C 184.789062 48.832031 183.832031 46.839844 182.726562 44.535156 C 180.324219 39.527344 177.046875 32.695312 174.15625 32.511719 C 172.988281 33.300781 167.550781 40.625 162.742188 47.101562 C 156.179688 55.9375 149.394531 65.078125 147.285156 66.359375 C 147.066406 66.492188 146.789062 66.492188 146.566406 66.359375 C 146.375 66.242188 146.183594 66.121094 145.988281 66 C 144.394531 65.015625 142.601562 63.902344 140.855469 63.707031 C 138.257812 68.007812 135.140625 71.945312 132.121094 75.757812 C 130.195312 78.191406 128.199219 80.707031 126.371094 83.285156 C 126.234375 83.476562 126.023438 83.578125 125.804688 83.578125 Z M 125.808594 83.578125 " fill-opacity="1" fill-rule="nonzero"/></g><g clip-path="url(#1b9e1f6b44)"><path fill="#ffffff" d="M 249.511719 70.332031 C 249.328125 70.332031 249.144531 70.257812 249.007812 70.113281 C 247.886719 68.914062 247.0625 67.507812 246.265625 66.152344 C 245.035156 64.054688 243.871094 62.066406 241.71875 60.941406 C 240.605469 61.890625 239.042969 63.082031 237.367188 63.925781 C 237.09375 64.0625 236.765625 64.003906 236.554688 63.78125 C 236.308594 63.523438 236.132812 63.089844 235.8125 62.300781 C 234.792969 59.796875 232.433594 53.996094 224.59375 46.425781 C 217.527344 53.269531 211.820312 60.4375 207.15625 68.324219 C 206.960938 68.652344 206.535156 68.761719 206.210938 68.566406 C 205.882812 68.375 205.773438 67.949219 205.964844 67.621094 C 210.800781 59.453125 216.738281 52.042969 224.117188 44.972656 C 224.382812 44.71875 224.800781 44.714844 225.070312 44.96875 C 233.507812 52.96875 236.019531 59.144531 237.09375 61.78125 C 237.179688 61.988281 237.261719 62.199219 237.339844 62.378906 C 238.84375 61.535156 240.21875 60.429688 241.15625 59.609375 C 241.359375 59.429688 241.644531 59.386719 241.894531 59.496094 C 244.703125 60.753906 246.105469 63.144531 247.457031 65.457031 C 248.214844 66.746094 249 68.082031 250.019531 69.171875 C 250.28125 69.449219 250.261719 69.882812 249.984375 70.144531 C 249.851562 70.269531 249.683594 70.332031 249.515625 70.332031 Z M 249.511719 70.332031 " fill-opacity="1" fill-rule="nonzero"/></g><path fill="#ffffff" d="M 214.90625 62.410156 C 214.765625 62.410156 214.621094 62.363281 214.5 62.277344 C 213.910156 61.84375 213.335938 61.335938 212.785156 60.847656 C 212.453125 60.550781 212.121094 60.257812 211.777344 59.972656 C 211.484375 59.730469 211.445312 59.296875 211.6875 59.003906 C 211.933594 58.710938 212.367188 58.667969 212.660156 58.914062 C 213.011719 59.207031 213.359375 59.511719 213.703125 59.816406 C 214.117188 60.183594 214.519531 60.539062 214.917969 60.859375 C 216.207031 59.871094 217.246094 58.613281 218.339844 57.289062 C 218.625 56.941406 218.910156 56.597656 219.199219 56.257812 C 219.40625 56.015625 219.746094 55.945312 220.03125 56.085938 C 221.511719 56.8125 223.335938 58.265625 224.496094 59.609375 C 225.269531 59.195312 225.984375 58.6875 226.667969 58.0625 C 226.84375 57.902344 227.089844 57.84375 227.316406 57.90625 C 228.496094 58.230469 229.304688 58.789062 230.160156 59.378906 C 230.339844 59.5 230.523438 59.625 230.714844 59.753906 C 231.816406 59.007812 232.800781 57.953125 233.707031 56.914062 C 233.957031 56.628906 234.390625 56.597656 234.679688 56.847656 C 234.96875 57.097656 234.996094 57.53125 234.746094 57.820312 C 233.671875 59.054688 232.480469 60.316406 231.066406 61.164062 C 230.84375 61.296875 230.566406 61.292969 230.347656 61.15625 C 229.996094 60.9375 229.683594 60.722656 229.378906 60.511719 C 228.6875 60.035156 228.082031 59.617188 227.300781 59.34375 C 226.460938 60.066406 225.578125 60.640625 224.601562 61.097656 C 224.308594 61.234375 223.957031 61.148438 223.761719 60.890625 C 222.882812 59.742188 221.265625 58.363281 219.894531 57.574219 C 219.730469 57.773438 219.566406 57.96875 219.402344 58.167969 C 218.1875 59.636719 216.933594 61.152344 215.300781 62.285156 C 215.183594 62.367188 215.046875 62.410156 214.910156 62.410156 Z M 214.90625 62.410156 " fill-opacity="1" fill-rule="nonzero"/><path fill="#ffffff" d="M 164.695312 56.691406 C 164.683594 56.691406 164.671875 56.691406 164.65625 56.691406 C 164.441406 56.675781 164.246094 56.566406 164.125 56.386719 C 163.351562 55.242188 162.277344 54.289062 161.144531 53.273438 C 160.347656 52.5625 159.519531 51.832031 158.800781 51.019531 C 158.546875 50.734375 158.574219 50.296875 158.859375 50.046875 C 159.144531 49.792969 159.582031 49.820312 159.832031 50.105469 C 160.5 50.855469 161.292969 51.5625 162.0625 52.246094 C 162.984375 53.066406 163.9375 53.914062 164.726562 54.886719 C 166.710938 52.390625 168.066406 49.742188 169.496094 46.949219 C 170.117188 45.738281 170.757812 44.488281 171.457031 43.238281 C 171.574219 43.027344 171.796875 42.894531 172.039062 42.886719 C 172.285156 42.878906 172.507812 43 172.640625 43.203125 C 173.546875 44.617188 174.238281 46.101562 174.90625 47.535156 C 175.175781 48.109375 175.453125 48.699219 175.738281 49.285156 C 176.226562 48.730469 176.542969 48.019531 176.792969 47.359375 C 176.878906 47.136719 177.070312 46.972656 177.304688 46.925781 C 177.539062 46.882812 177.78125 46.960938 177.945312 47.132812 C 178.203125 47.414062 178.480469 47.695312 178.761719 47.980469 C 179.367188 48.601562 179.988281 49.238281 180.53125 49.925781 C 181.339844 48.9375 182.074219 47.878906 182.796875 46.847656 C 183.078125 46.4375 183.363281 46.03125 183.648438 45.625 C 183.871094 45.316406 184.300781 45.242188 184.609375 45.464844 C 184.921875 45.683594 184.992188 46.117188 184.773438 46.425781 C 184.488281 46.828125 184.207031 47.230469 183.925781 47.632812 C 183.023438 48.929688 182.089844 50.273438 181.003906 51.5 C 180.863281 51.660156 180.648438 51.746094 180.4375 51.730469 C 180.222656 51.710938 180.027344 51.597656 179.910156 51.417969 C 179.339844 50.546875 178.542969 49.730469 177.773438 48.945312 C 177.734375 48.90625 177.695312 48.867188 177.660156 48.828125 C 177.273438 49.613281 176.730469 50.410156 175.90625 50.957031 C 175.742188 51.0625 175.542969 51.097656 175.355469 51.046875 C 175.164062 51 175.003906 50.875 174.914062 50.703125 C 174.460938 49.839844 174.050781 48.964844 173.652344 48.113281 C 173.144531 47.023438 172.65625 45.976562 172.082031 44.957031 C 171.609375 45.835938 171.160156 46.714844 170.722656 47.570312 C 169.125 50.6875 167.617188 53.632812 165.21875 56.445312 C 165.085938 56.597656 164.894531 56.683594 164.691406 56.683594 Z M 164.695312 56.691406 " fill-opacity="1" fill-rule="nonzero"/><path fill="#ffffff" d="M 144.867188 59.351562 C 143.882812 57.976562 142.535156 56.152344 142.164062 54.511719 C 142.644531 54.867188 143.089844 54.984375 143.554688 54.984375 C 143.992188 54.984375 144.449219 54.878906 144.976562 54.761719 L 145.257812 54.363281 C 143.480469 52.84375 141.621094 50.382812 141.414062 48.007812 C 142.132812 48.398438 142.609375 48.449219 143.464844 48.511719 L 143.910156 48.144531 C 142.703125 46.285156 141.183594 44.144531 141.183594 41.867188 C 141.183594 41.816406 141.183594 41.765625 141.1875 41.714844 C 141.738281 42.113281 142.230469 42.242188 142.8125 42.242188 C 143 42.242188 143.199219 42.230469 143.410156 42.207031 C 141.367188 40.761719 140.648438 37.265625 139.242188 35.292969 C 138.585938 38.25 138.210938 40.234375 136.640625 42.84375 L 137.277344 43.089844 C 138.148438 42.726562 138.707031 42.546875 139.371094 41.957031 C 139.363281 44.75 138.230469 46.082031 136.964844 48.40625 C 137.359375 48.523438 137.683594 48.601562 137.992188 48.601562 C 138.386719 48.601562 138.75 48.480469 139.183594 48.167969 C 138.871094 50.386719 138.15625 52.476562 137.097656 54.453125 C 138.0625 54.203125 138.757812 53.769531 139.59375 53.238281 C 139.695312 53.582031 139.742188 53.929688 139.742188 54.277344 C 139.742188 56.328125 138.148438 58.394531 137.453125 60.199219 C 139.929688 60 142.636719 60.457031 144.867188 59.351562 " fill-opacity="1" fill-rule="nonzero"/><path fill="#ffffff" d="M 137.453125 60.886719 C 137.234375 60.886719 137.027344 60.785156 136.898438 60.609375 C 136.757812 60.417969 136.722656 60.167969 136.808594 59.949219 C 137.046875 59.328125 137.371094 58.707031 137.714844 58.050781 C 138.355469 56.832031 139.011719 55.566406 139.050781 54.378906 C 138.527344 54.675781 137.957031 54.941406 137.273438 55.121094 C 137.007812 55.1875 136.726562 55.09375 136.554688 54.878906 C 136.386719 54.664062 136.359375 54.367188 136.492188 54.125 C 137.332031 52.554688 137.9375 50.929688 138.289062 49.273438 C 137.777344 49.335938 137.246094 49.210938 136.769531 49.070312 C 136.570312 49.007812 136.410156 48.863281 136.332031 48.671875 C 136.253906 48.476562 136.261719 48.261719 136.363281 48.078125 C 136.597656 47.644531 136.828125 47.246094 137.046875 46.867188 C 137.773438 45.613281 138.34375 44.628906 138.574219 43.292969 C 138.351562 43.398438 138.117188 43.492188 137.867188 43.59375 L 137.542969 43.726562 C 137.378906 43.796875 137.195312 43.796875 137.027344 43.734375 L 136.394531 43.488281 C 136.203125 43.414062 136.058594 43.257812 135.988281 43.066406 C 135.921875 42.875 135.945312 42.664062 136.050781 42.488281 C 137.46875 40.128906 137.863281 38.347656 138.453125 35.65625 L 138.566406 35.148438 C 138.625 34.882812 138.835938 34.675781 139.101562 34.621094 C 139.371094 34.5625 139.644531 34.675781 139.804688 34.894531 C 140.375 35.699219 140.816406 36.679688 141.28125 37.714844 C 141.976562 39.257812 142.691406 40.855469 143.808594 41.644531 C 144.042969 41.8125 144.152344 42.105469 144.078125 42.382812 C 144.003906 42.660156 143.769531 42.863281 143.480469 42.894531 C 142.847656 42.960938 142.414062 42.945312 141.976562 42.839844 C 142.292969 44.417969 143.304688 45.96875 144.21875 47.363281 L 144.488281 47.773438 C 144.675781 48.070312 144.617188 48.460938 144.34375 48.679688 L 143.898438 49.046875 C 143.765625 49.160156 143.589844 49.214844 143.414062 49.203125 C 143.007812 49.175781 142.664062 49.144531 142.328125 49.078125 C 142.910156 50.941406 144.421875 52.746094 145.703125 53.847656 C 145.972656 54.078125 146.023438 54.476562 145.816406 54.765625 L 145.535156 55.167969 C 145.4375 55.308594 145.289062 55.40625 145.117188 55.441406 L 145.042969 55.457031 C 144.445312 55.589844 143.867188 55.710938 143.316406 55.667969 C 143.835938 56.738281 144.625 57.835938 145.296875 58.773438 L 145.425781 58.953125 C 145.546875 59.117188 145.582031 59.324219 145.535156 59.519531 C 145.488281 59.714844 145.355469 59.882812 145.171875 59.972656 C 143.457031 60.820312 141.542969 60.824219 139.6875 60.828125 C 138.929688 60.828125 138.210938 60.832031 137.503906 60.886719 C 137.484375 60.886719 137.46875 60.886719 137.449219 60.886719 Z M 139.59375 52.550781 C 139.675781 52.550781 139.757812 52.5625 139.835938 52.59375 C 140.039062 52.667969 140.195312 52.835938 140.253906 53.042969 C 140.371094 53.433594 140.429688 53.847656 140.429688 54.273438 C 140.429688 55.832031 139.636719 57.351562 138.9375 58.691406 C 138.800781 58.953125 138.667969 59.207031 138.542969 59.457031 C 138.929688 59.449219 139.3125 59.445312 139.6875 59.445312 C 141.152344 59.441406 142.550781 59.441406 143.796875 59.042969 C 142.859375 57.71875 141.832031 56.164062 141.488281 54.667969 C 141.425781 54.386719 141.542969 54.097656 141.785156 53.9375 C 142.023438 53.777344 142.339844 53.785156 142.570312 53.957031 C 143.046875 54.304688 143.480469 54.347656 144.101562 54.242188 C 142.496094 52.660156 140.925781 50.378906 140.722656 48.070312 C 140.703125 47.820312 140.820312 47.574219 141.035156 47.433594 C 141.246094 47.296875 141.515625 47.285156 141.742188 47.40625 C 142.140625 47.621094 142.441406 47.710938 142.835938 47.761719 C 141.695312 46.007812 140.496094 44.035156 140.496094 41.867188 C 140.496094 41.8125 140.496094 41.75 140.5 41.695312 C 140.507812 41.441406 140.65625 41.210938 140.882812 41.09375 C 141.066406 41.007812 141.273438 41.003906 141.453125 41.078125 C 140.898438 40.226562 140.457031 39.242188 140.023438 38.277344 C 139.855469 37.90625 139.691406 37.539062 139.523438 37.195312 C 139.121094 38.945312 138.703125 40.433594 137.839844 42.109375 C 138.246094 41.933594 138.558594 41.757812 138.914062 41.441406 C 139.117188 41.261719 139.40625 41.21875 139.652344 41.328125 C 139.902344 41.441406 140.0625 41.6875 140.0625 41.957031 C 140.054688 44.425781 139.214844 45.878906 138.242188 47.558594 C 138.175781 47.675781 138.105469 47.792969 138.039062 47.910156 C 138.21875 47.90625 138.4375 47.855469 138.78125 47.609375 C 139.003906 47.449219 139.304688 47.4375 139.539062 47.578125 C 139.777344 47.722656 139.90625 47.992188 139.867188 48.265625 C 139.636719 49.902344 139.183594 51.523438 138.515625 53.097656 C 138.734375 52.96875 138.96875 52.824219 139.222656 52.660156 C 139.335938 52.589844 139.464844 52.554688 139.59375 52.554688 Z M 139.59375 52.550781 " fill-opacity="1" fill-rule="nonzero"/><path fill="#ffffff" d="M 141.328125 63.773438 C 140.96875 63.773438 140.667969 63.496094 140.640625 63.132812 L 140.34375 58.960938 C 140.316406 58.582031 140.601562 58.25 140.980469 58.226562 C 141.363281 58.199219 141.691406 58.484375 141.71875 58.863281 L 142.015625 63.035156 C 142.042969 63.414062 141.757812 63.746094 141.378906 63.769531 C 141.359375 63.769531 141.34375 63.773438 141.328125 63.773438 Z M 141.328125 63.773438 " fill-opacity="1" fill-rule="nonzero"/><path fill="#ffffff" d="M 146.46875 52.320312 C 146.5625 52.320312 146.660156 52.316406 146.757812 52.316406 C 147.5625 52.316406 148.375 52.359375 149.175781 52.359375 C 150.722656 52.359375 152.226562 52.203125 153.546875 51.300781 C 152.054688 49.941406 150.832031 48.671875 150.46875 46.65625 L 150.722656 46.421875 C 150.902344 46.441406 151.066406 46.453125 151.21875 46.453125 C 151.621094 46.453125 151.957031 46.382812 152.441406 46.246094 L 152.582031 45.984375 C 151.539062 44.878906 150.726562 43.160156 150.242188 41.746094 C 150.300781 41.660156 150.363281 41.582031 150.425781 41.5 C 150.683594 41.621094 150.921875 41.671875 151.160156 41.671875 C 151.5625 41.671875 151.949219 41.535156 152.367188 41.390625 C 150.726562 40.027344 148.875 38.558594 148.554688 36.371094 C 148.019531 38.515625 147.859375 39.808594 146.339844 41.449219 C 146.519531 41.457031 146.6875 41.464844 146.847656 41.464844 C 147.238281 41.464844 147.589844 41.421875 147.996094 41.269531 C 148.011719 41.503906 148.019531 41.726562 148.019531 41.941406 C 148.019531 43.519531 147.585938 44.675781 146.660156 46.089844 C 146.984375 46.171875 147.273438 46.222656 147.566406 46.222656 C 147.804688 46.222656 148.046875 46.1875 148.308594 46.109375 C 148.464844 46.582031 148.535156 47.089844 148.535156 47.609375 C 148.535156 49.351562 147.71875 51.222656 146.472656 52.320312 " fill-opacity="1" fill-rule="nonzero"/><path fill="#ffffff" d="M 149.175781 53.050781 C 148.769531 53.050781 148.359375 53.039062 147.949219 53.027344 C 147.550781 53.019531 147.152344 53.007812 146.757812 53.007812 L 146.476562 53.007812 C 146.183594 53.007812 145.929688 52.835938 145.824219 52.566406 C 145.71875 52.296875 145.796875 51.992188 146.011719 51.800781 C 147.109375 50.839844 147.84375 49.15625 147.84375 47.609375 C 147.84375 47.363281 147.828125 47.128906 147.789062 46.902344 C 147.398438 46.929688 147.015625 46.890625 146.492188 46.757812 C 146.277344 46.703125 146.097656 46.550781 146.015625 46.34375 C 145.933594 46.136719 145.957031 45.902344 146.078125 45.714844 C 146.945312 44.382812 147.292969 43.390625 147.324219 42.132812 C 147.011719 42.167969 146.675781 42.160156 146.292969 42.136719 C 146.027344 42.117188 145.796875 41.949219 145.695312 41.703125 C 145.597656 41.457031 145.648438 41.175781 145.832031 40.980469 C 147.050781 39.660156 147.296875 38.628906 147.707031 36.917969 C 147.761719 36.691406 147.816406 36.453125 147.878906 36.203125 C 147.957031 35.882812 148.25 35.664062 148.582031 35.679688 C 148.910156 35.695312 149.183594 35.945312 149.230469 36.269531 C 149.507812 38.128906 151.105469 39.453125 152.648438 40.730469 L 152.808594 40.859375 C 153 41.019531 153.089844 41.269531 153.046875 41.515625 C 153.003906 41.757812 152.828125 41.960938 152.59375 42.042969 C 152.140625 42.199219 151.699219 42.351562 151.210938 42.359375 C 151.59375 43.300781 152.230469 44.605469 153.085938 45.511719 C 153.289062 45.730469 153.332031 46.050781 153.191406 46.3125 L 153.050781 46.574219 C 152.960938 46.738281 152.808594 46.859375 152.628906 46.910156 C 152.132812 47.050781 151.746094 47.136719 151.296875 47.144531 C 151.75 48.636719 152.800781 49.691406 154.015625 50.796875 C 154.171875 50.9375 154.253906 51.144531 154.238281 51.351562 C 154.222656 51.5625 154.113281 51.753906 153.9375 51.875 C 152.421875 52.910156 150.753906 53.054688 149.175781 53.054688 Z M 147.960938 51.648438 L 147.984375 51.648438 C 148.382812 51.660156 148.78125 51.667969 149.175781 51.667969 C 150.25 51.667969 151.367188 51.597656 152.382812 51.15625 C 151.167969 49.976562 150.128906 48.671875 149.789062 46.777344 C 149.746094 46.546875 149.824219 46.3125 149.996094 46.152344 L 150.25 45.914062 C 150.398438 45.777344 150.597656 45.710938 150.796875 45.734375 C 151.074219 45.765625 151.28125 45.769531 151.492188 45.746094 C 150.484375 44.378906 149.839844 42.703125 149.585938 41.964844 C 149.519531 41.765625 149.546875 41.542969 149.660156 41.367188 C 149.710938 41.289062 149.765625 41.21875 149.820312 41.144531 L 149.871094 41.082031 C 150.054688 40.835938 150.378906 40.742188 150.660156 40.847656 C 149.921875 40.191406 149.214844 39.472656 148.6875 38.636719 C 148.488281 39.320312 148.246094 39.949219 147.851562 40.59375 C 148.03125 40.554688 148.214844 40.589844 148.367188 40.691406 C 148.550781 40.808594 148.667969 41.003906 148.679688 41.222656 C 148.699219 41.46875 148.707031 41.707031 148.707031 41.9375 C 148.707031 43.238281 148.445312 44.308594 147.800781 45.511719 C 147.902344 45.5 148 45.476562 148.105469 45.445312 C 148.460938 45.335938 148.84375 45.535156 148.960938 45.890625 C 149.132812 46.421875 149.222656 46.996094 149.222656 47.605469 C 149.222656 49.019531 148.75 50.480469 147.960938 51.648438 Z M 147.960938 51.648438 " fill-opacity="1" fill-rule="nonzero"/><path fill="#ffffff" d="M 150.136719 62.460938 L 149.625 52.648438 " fill-opacity="1" fill-rule="nonzero"/><path fill="#ffffff" d="M 150.136719 63.148438 C 149.769531 63.148438 149.464844 62.863281 149.445312 62.496094 L 148.9375 52.683594 C 148.917969 52.304688 149.207031 51.980469 149.589844 51.960938 C 149.96875 51.941406 150.292969 52.230469 150.316406 52.613281 L 150.824219 62.421875 C 150.84375 62.804688 150.554688 63.128906 150.171875 63.148438 C 150.160156 63.148438 150.148438 63.148438 150.136719 63.148438 Z M 150.136719 63.148438 " fill-opacity="1" fill-rule="nonzero"/><g fill="#ffffff" fill-opacity="1"><g transform="translate(94.219071, 156.082705)"><g><path d="M 15.328125 -10.609375 L 12.3125 -10.609375 L 12.3125 -10.5 C 12.3125 -9.976562 12.21875 -9.488281 12.03125 -9.03125 C 11.84375 -8.570312 11.539062 -8.175781 11.125 -7.84375 C 10.71875 -7.507812 10.1875 -7.238281 9.53125 -7.03125 C 8.875 -6.832031 8.066406 -6.734375 7.109375 -6.734375 C 6.171875 -6.734375 5.367188 -6.832031 4.703125 -7.03125 C 4.046875 -7.238281 3.507812 -7.507812 3.09375 -7.84375 C 2.6875 -8.175781 2.390625 -8.570312 2.203125 -9.03125 C 2.015625 -9.488281 1.921875 -9.976562 1.921875 -10.5 L 1.921875 -12.625 C 1.921875 -13.132812 2.015625 -13.617188 2.203125 -14.078125 C 2.390625 -14.546875 2.6875 -14.945312 3.09375 -15.28125 C 3.507812 -15.625 4.046875 -15.894531 4.703125 -16.09375 C 5.367188 -16.300781 6.171875 -16.40625 7.109375 -16.40625 C 7.992188 -16.40625 8.75 -16.316406 9.375 -16.140625 C 10.007812 -15.972656 10.535156 -15.738281 10.953125 -15.4375 C 11.367188 -15.132812 11.6875 -14.78125 11.90625 -14.375 C 12.125 -13.976562 12.253906 -13.546875 12.296875 -13.078125 L 15.328125 -13.078125 L 15.328125 -16.171875 L 18.46875 -16.171875 L 18.46875 -6.734375 L 15.328125 -6.734375 Z M 2.609375 -5.609375 L 18.46875 -5.609375 L 18.46875 -0.3125 L 5.59375 -0.3125 L 5.59375 0.578125 L 18.46875 0.578125 L 18.46875 2.78125 L 2.609375 2.78125 L 2.609375 -2.515625 L 15.484375 -2.515625 L 15.484375 -3.40625 L 2.609375 -3.40625 Z M 9.375 -12.109375 C 9.375 -12.484375 9.304688 -12.796875 9.171875 -13.046875 C 9.035156 -13.296875 8.863281 -13.488281 8.65625 -13.625 C 8.445312 -13.757812 8.207031 -13.851562 7.9375 -13.90625 C 7.664062 -13.957031 7.390625 -13.984375 7.109375 -13.984375 C 6.835938 -13.984375 6.566406 -13.957031 6.296875 -13.90625 C 6.035156 -13.851562 5.796875 -13.757812 5.578125 -13.625 C 5.359375 -13.488281 5.1875 -13.296875 5.0625 -13.046875 C 4.9375 -12.796875 4.875 -12.484375 4.875 -12.109375 L 4.875 -11.015625 C 4.875 -10.628906 4.9375 -10.316406 5.0625 -10.078125 C 5.1875 -9.835938 5.359375 -9.648438 5.578125 -9.515625 C 5.796875 -9.378906 6.035156 -9.285156 6.296875 -9.234375 C 6.566406 -9.179688 6.835938 -9.15625 7.109375 -9.15625 C 7.390625 -9.15625 7.664062 -9.179688 7.9375 -9.234375 C 8.207031 -9.285156 8.445312 -9.378906 8.65625 -9.515625 C 8.863281 -9.648438 9.035156 -9.835938 9.171875 -10.078125 C 9.304688 -10.316406 9.375 -10.628906 9.375 -11.015625 Z M 9.375 -12.109375 "/></g></g></g><g fill="#ffffff" fill-opacity="1"><g transform="translate(127.494349, 156.082705)"><g><path d="M 0.859375 -7.890625 L 19.34375 -7.890625 L 19.34375 -5.4375 L 0.859375 -5.4375 Z M 2.015625 2.78125 L 2.015625 -4.265625 L 18.171875 -4.265625 L 18.171875 2.78125 Z M 5.15625 -1.796875 L 5.15625 0.3125 L 15.03125 0.3125 L 15.03125 -1.796875 Z M 4.9375 -12.65625 C 4.9375 -12.269531 5.035156 -11.992188 5.234375 -11.828125 C 5.441406 -11.660156 5.757812 -11.578125 6.1875 -11.578125 L 14 -11.578125 C 14.4375 -11.578125 14.753906 -11.660156 14.953125 -11.828125 C 15.148438 -11.992188 15.25 -12.269531 15.25 -12.65625 C 15.25 -13.039062 15.148438 -13.3125 14.953125 -13.46875 C 14.753906 -13.625 14.4375 -13.703125 14 -13.703125 L 6.1875 -13.703125 C 5.757812 -13.703125 5.441406 -13.625 5.234375 -13.46875 C 5.035156 -13.3125 4.9375 -13.039062 4.9375 -12.65625 Z M 1.796875 -12.65625 C 1.796875 -13.914062 2.125 -14.816406 2.78125 -15.359375 C 3.4375 -15.898438 4.476562 -16.171875 5.90625 -16.171875 L 14.296875 -16.171875 C 15.710938 -16.171875 16.75 -15.898438 17.40625 -15.359375 C 18.070312 -14.816406 18.40625 -13.914062 18.40625 -12.65625 C 18.40625 -11.394531 18.070312 -10.488281 17.40625 -9.9375 C 16.75 -9.394531 15.710938 -9.125 14.296875 -9.125 L 5.90625 -9.125 C 4.476562 -9.125 3.4375 -9.394531 2.78125 -9.9375 C 2.125 -10.488281 1.796875 -11.394531 1.796875 -12.65625 Z M 1.796875 -12.65625 "/></g></g></g><g fill="#ffffff" fill-opacity="1"><g transform="translate(160.769627, 156.082705)"><g><path d="M 2.015625 -5.609375 L 18.15625 -5.609375 L 18.15625 -0.3125 L 5 -0.3125 L 5 0.578125 L 18.15625 0.578125 L 18.15625 2.78125 L 2.015625 2.78125 L 2.015625 -2.515625 L 15.171875 -2.515625 L 15.171875 -3.40625 L 2.015625 -3.40625 Z M 9.875 -11.890625 L 9.875 -9.015625 L 19.34375 -9.015625 L 19.34375 -6.546875 L 0.859375 -6.546875 L 0.859375 -9.015625 L 6.734375 -9.015625 L 6.734375 -11.890625 Z M 14.828125 -13.703125 L 2.015625 -13.703125 L 2.015625 -16.171875 L 18.359375 -16.171875 L 17.328125 -9.78125 L 14.1875 -9.78125 Z M 14.828125 -13.703125 "/></g></g></g><g fill="#ffffff" fill-opacity="1"><g transform="translate(194.044902, 156.082705)"><g><path d="M 18.46875 -16.171875 L 18.46875 2.328125 L 15.328125 2.328125 L 15.328125 -16.171875 Z M 1.921875 -11.125 C 1.921875 -11.9375 2.007812 -12.664062 2.1875 -13.3125 C 2.363281 -13.96875 2.648438 -14.519531 3.046875 -14.96875 C 3.453125 -15.425781 3.984375 -15.78125 4.640625 -16.03125 C 5.296875 -16.28125 6.117188 -16.40625 7.109375 -16.40625 C 8.097656 -16.40625 8.925781 -16.28125 9.59375 -16.03125 C 10.257812 -15.78125 10.789062 -15.425781 11.1875 -14.96875 C 11.59375 -14.519531 11.878906 -13.96875 12.046875 -13.3125 C 12.222656 -12.664062 12.3125 -11.9375 12.3125 -11.125 L 12.3125 -3.25 C 12.3125 -2.414062 12.222656 -1.664062 12.046875 -1 C 11.878906 -0.332031 11.59375 0.226562 11.1875 0.6875 C 10.789062 1.144531 10.257812 1.492188 9.59375 1.734375 C 8.925781 1.984375 8.097656 2.109375 7.109375 2.109375 C 6.117188 2.109375 5.296875 1.984375 4.640625 1.734375 C 3.984375 1.492188 3.453125 1.144531 3.046875 0.6875 C 2.648438 0.226562 2.363281 -0.332031 2.1875 -1 C 2.007812 -1.664062 1.921875 -2.414062 1.921875 -3.25 Z M 4.9375 -3.140625 C 4.9375 -2.554688 4.984375 -2.082031 5.078125 -1.71875 C 5.179688 -1.363281 5.328125 -1.082031 5.515625 -0.875 C 5.710938 -0.675781 5.941406 -0.539062 6.203125 -0.46875 C 6.460938 -0.394531 6.765625 -0.359375 7.109375 -0.359375 C 7.453125 -0.359375 7.757812 -0.394531 8.03125 -0.46875 C 8.300781 -0.539062 8.53125 -0.675781 8.71875 -0.875 C 8.914062 -1.082031 9.0625 -1.363281 9.15625 -1.71875 C 9.257812 -2.082031 9.3125 -2.554688 9.3125 -3.140625 L 9.3125 -11.203125 C 9.3125 -11.753906 9.257812 -12.207031 9.15625 -12.5625 C 9.0625 -12.925781 8.914062 -13.207031 8.71875 -13.40625 C 8.53125 -13.601562 8.300781 -13.738281 8.03125 -13.8125 C 7.757812 -13.894531 7.453125 -13.9375 7.109375 -13.9375 C 6.765625 -13.9375 6.460938 -13.894531 6.203125 -13.8125 C 5.941406 -13.738281 5.710938 -13.601562 5.515625 -13.40625 C 5.328125 -13.207031 5.179688 -12.925781 5.078125 -12.5625 C 4.984375 -12.207031 4.9375 -11.753906 4.9375 -11.203125 Z M 4.9375 -3.140625 "/></g></g></g><g fill="#ffffff" fill-opacity="1"><g transform="translate(227.320183, 156.082705)"><g><path d="M 1.921875 -11.125 C 1.921875 -11.9375 2.007812 -12.664062 2.1875 -13.3125 C 2.363281 -13.96875 2.648438 -14.519531 3.046875 -14.96875 C 3.453125 -15.425781 3.984375 -15.78125 4.640625 -16.03125 C 5.296875 -16.28125 6.117188 -16.40625 7.109375 -16.40625 C 8.097656 -16.40625 8.925781 -16.28125 9.59375 -16.03125 C 10.257812 -15.78125 10.789062 -15.425781 11.1875 -14.96875 C 11.59375 -14.519531 11.878906 -13.96875 12.046875 -13.3125 C 12.222656 -12.664062 12.3125 -11.9375 12.3125 -11.125 L 12.3125 -3.25 C 12.3125 -2.414062 12.222656 -1.664062 12.046875 -1 C 11.878906 -0.332031 11.59375 0.226562 11.1875 0.6875 C 10.789062 1.144531 10.257812 1.492188 9.59375 1.734375 C 8.925781 1.984375 8.097656 2.109375 7.109375 2.109375 C 6.117188 2.109375 5.296875 1.984375 4.640625 1.734375 C 3.984375 1.492188 3.453125 1.144531 3.046875 0.6875 C 2.648438 0.226562 2.363281 -0.332031 2.1875 -1 C 2.007812 -1.664062 1.921875 -2.414062 1.921875 -3.25 Z M 17.34375 -16.171875 L 17.34375 -11.734375 L 19.90625 -11.734375 L 19.90625 -9.265625 L 17.34375 -9.265625 L 17.34375 -5.671875 L 19.90625 -5.671875 L 19.90625 -3.203125 L 17.34375 -3.203125 L 17.34375 2.328125 L 14.203125 2.328125 L 14.203125 -16.171875 Z M 4.9375 -3.140625 C 4.9375 -2.554688 4.984375 -2.082031 5.078125 -1.71875 C 5.179688 -1.363281 5.328125 -1.082031 5.515625 -0.875 C 5.710938 -0.675781 5.941406 -0.539062 6.203125 -0.46875 C 6.460938 -0.394531 6.765625 -0.359375 7.109375 -0.359375 C 7.453125 -0.359375 7.757812 -0.394531 8.03125 -0.46875 C 8.300781 -0.539062 8.53125 -0.675781 8.71875 -0.875 C 8.914062 -1.082031 9.0625 -1.363281 9.15625 -1.71875 C 9.257812 -2.082031 9.3125 -2.554688 9.3125 -3.140625 L 9.3125 -11.203125 C 9.3125 -11.753906 9.257812 -12.207031 9.15625 -12.5625 C 9.0625 -12.925781 8.914062 -13.207031 8.71875 -13.40625 C 8.53125 -13.601562 8.300781 -13.738281 8.03125 -13.8125 C 7.757812 -13.894531 7.453125 -13.9375 7.109375 -13.9375 C 6.765625 -13.9375 6.460938 -13.894531 6.203125 -13.8125 C 5.941406 -13.738281 5.710938 -13.601562 5.515625 -13.40625 C 5.328125 -13.207031 5.179688 -12.925781 5.078125 -12.5625 C 4.984375 -12.207031 4.9375 -11.753906 4.9375 -11.203125 Z M 4.9375 -3.140625 "/></g></g></g><g fill="#ffffff" fill-opacity="1"><g transform="translate(260.595463, 156.082705)"><g><path d="M 18.46875 -16.171875 L 18.46875 2.328125 L 15.328125 2.328125 L 15.328125 -16.171875 Z M 8.8125 -13.703125 L 1.921875 -13.703125 L 1.921875 -16.171875 L 12.296875 -16.171875 L 10.09375 1.890625 L 6.953125 1.890625 Z M 8.8125 -13.703125 "/></g></g></g><g fill="#ffffff" fill-opacity="1"><g transform="translate(80.143079, 180.306829)"><g><path d="M 1.953125 0 L 1.09375 0 L 1.09375 -7.28125 L 1.953125 -7.28125 Z M 1.953125 0 "/></g></g></g><g fill="#ffffff" fill-opacity="1"><g transform="translate(91.376354, 180.306829)"><g><path d="M 4.03125 0.109375 C 3.382812 0.109375 2.8125 -0.0351562 2.3125 -0.328125 C 1.820312 -0.617188 1.4375 -1.046875 1.15625 -1.609375 C 0.875 -2.179688 0.734375 -2.859375 0.734375 -3.640625 C 0.734375 -4.429688 0.875 -5.109375 1.15625 -5.671875 C 1.4375 -6.234375 1.820312 -6.660156 2.3125 -6.953125 C 2.8125 -7.242188 3.382812 -7.390625 4.03125 -7.390625 C 4.707031 -7.390625 5.269531 -7.257812 5.71875 -7 C 6.175781 -6.738281 6.503906 -6.351562 6.703125 -5.84375 L 6.15625 -5.46875 L 6.03125 -5.46875 C 5.832031 -5.882812 5.570312 -6.179688 5.25 -6.359375 C 4.925781 -6.535156 4.519531 -6.625 4.03125 -6.625 C 3.570312 -6.625 3.160156 -6.519531 2.796875 -6.3125 C 2.441406 -6.113281 2.160156 -5.789062 1.953125 -5.34375 C 1.742188 -4.894531 1.640625 -4.328125 1.640625 -3.640625 C 1.640625 -2.953125 1.742188 -2.382812 1.953125 -1.9375 C 2.160156 -1.5 2.441406 -1.175781 2.796875 -0.96875 C 3.160156 -0.769531 3.570312 -0.671875 4.03125 -0.671875 C 4.550781 -0.671875 4.976562 -0.785156 5.3125 -1.015625 C 5.65625 -1.253906 5.90625 -1.640625 6.0625 -2.171875 L 6.1875 -2.171875 L 6.765625 -1.890625 C 6.585938 -1.242188 6.265625 -0.75 5.796875 -0.40625 C 5.335938 -0.0625 4.75 0.109375 4.03125 0.109375 Z M 4.03125 0.109375 "/></g></g></g><g fill="#ffffff" fill-opacity="1"><g transform="translate(106.689155, 180.306829)"><g><path d="M 1.953125 -3.4375 L 1.953125 -0.703125 L 5.671875 -0.703125 L 5.671875 0 L 1.09375 0 L 1.09375 -7.28125 L 5.59375 -7.28125 L 5.59375 -6.578125 L 1.953125 -6.578125 L 1.953125 -4.140625 L 5.15625 -4.140625 L 5.15625 -3.4375 Z M 1.953125 -3.4375 "/></g></g></g><g fill="#ffffff" fill-opacity="1"><g transform="translate(121.010717, 180.306829)"><g/></g></g><g fill="#ffffff" fill-opacity="1"><g transform="translate(131.681125, 180.306829)"><g><path d="M 3.96875 0 L 2.84375 0 L 0.3125 -7.28125 L 1.21875 -7.28125 L 3.359375 -1.078125 L 3.484375 -1.078125 L 5.59375 -7.28125 L 6.5 -7.28125 Z M 3.96875 0 "/></g></g></g><g fill="#ffffff" fill-opacity="1"><g transform="translate(146.655212, 180.306829)"><g><path d="M 6.5625 0 L 5.640625 0 L 4.96875 -2 L 1.859375 -2 L 1.1875 0 L 0.28125 0 L 2.828125 -7.28125 L 4.015625 -7.28125 Z M 3.359375 -6.40625 L 2.109375 -2.71875 L 4.71875 -2.71875 L 3.484375 -6.40625 Z M 3.359375 -6.40625 "/></g></g></g><g fill="#ffffff" fill-opacity="1"><g transform="translate(161.669148, 180.306829)"><g><path d="M 1.953125 -7.28125 L 1.953125 -0.703125 L 5.46875 -0.703125 L 5.46875 0 L 1.09375 0 L 1.09375 -7.28125 Z M 1.953125 -7.28125 "/></g></g></g><g fill="#ffffff" fill-opacity="1"><g transform="translate(175.61215, 180.306829)"><g><path d="M 1.953125 -7.28125 L 1.953125 -0.703125 L 5.46875 -0.703125 L 5.46875 0 L 1.09375 0 L 1.09375 -7.28125 Z M 1.953125 -7.28125 "/></g></g></g><g fill="#ffffff" fill-opacity="1"><g transform="translate(189.555152, 180.306829)"><g><path d="M 1.953125 -3.4375 L 1.953125 -0.703125 L 5.671875 -0.703125 L 5.671875 0 L 1.09375 0 L 1.09375 -7.28125 L 5.59375 -7.28125 L 5.59375 -6.578125 L 1.953125 -6.578125 L 1.953125 -4.140625 L 5.15625 -4.140625 L 5.15625 -3.4375 Z M 1.953125 -3.4375 "/></g></g></g><g fill="#ffffff" fill-opacity="1"><g transform="translate(203.876719, 180.306829)"><g><path d="M 3.5625 0 L 2.703125 0 L 2.703125 -2.859375 L 0.1875 -7.28125 L 1.125 -7.28125 L 3.09375 -3.875 L 3.21875 -3.875 L 5.15625 -7.28125 L 6.078125 -7.28125 L 3.5625 -2.859375 Z M 3.5625 0 "/></g></g></g><g fill="#ffffff" fill-opacity="1"><g transform="translate(218.30787, 180.306829)"><g/></g></g><g fill="#ffffff" fill-opacity="1"><g transform="translate(228.978277, 180.306829)"><g><path d="M 3.1875 0.109375 C 2.726562 0.109375 2.316406 0.046875 1.953125 -0.078125 C 1.585938 -0.203125 1.28125 -0.363281 1.03125 -0.5625 C 0.789062 -0.769531 0.613281 -0.992188 0.5 -1.234375 L 0.96875 -1.8125 L 1.09375 -1.8125 C 1.539062 -1.050781 2.238281 -0.671875 3.1875 -0.671875 C 3.726562 -0.671875 4.132812 -0.785156 4.40625 -1.015625 C 4.675781 -1.242188 4.8125 -1.5625 4.8125 -1.96875 C 4.8125 -2.207031 4.765625 -2.410156 4.671875 -2.578125 C 4.585938 -2.742188 4.441406 -2.882812 4.234375 -3 C 4.035156 -3.113281 3.757812 -3.21875 3.40625 -3.3125 L 2.5625 -3.515625 C 1.925781 -3.671875 1.457031 -3.914062 1.15625 -4.25 C 0.851562 -4.582031 0.703125 -5.003906 0.703125 -5.515625 C 0.703125 -5.878906 0.796875 -6.203125 0.984375 -6.484375 C 1.171875 -6.765625 1.441406 -6.984375 1.796875 -7.140625 C 2.160156 -7.304688 2.59375 -7.390625 3.09375 -7.390625 C 3.632812 -7.390625 4.09375 -7.3125 4.46875 -7.15625 C 4.851562 -7 5.15625 -6.769531 5.375 -6.46875 L 4.96875 -5.90625 L 4.84375 -5.90625 C 4.632812 -6.15625 4.382812 -6.335938 4.09375 -6.453125 C 3.8125 -6.578125 3.476562 -6.640625 3.09375 -6.640625 C 2.582031 -6.640625 2.195312 -6.539062 1.9375 -6.34375 C 1.6875 -6.144531 1.5625 -5.875 1.5625 -5.53125 C 1.5625 -5.207031 1.65625 -4.945312 1.84375 -4.75 C 2.03125 -4.550781 2.347656 -4.398438 2.796875 -4.296875 L 3.671875 -4.09375 C 4.378906 -3.925781 4.890625 -3.671875 5.203125 -3.328125 C 5.523438 -2.984375 5.6875 -2.539062 5.6875 -2 C 5.6875 -1.59375 5.59375 -1.226562 5.40625 -0.90625 C 5.21875 -0.59375 4.9375 -0.34375 4.5625 -0.15625 C 4.1875 0.0195312 3.726562 0.109375 3.1875 0.109375 Z M 3.1875 0.109375 "/></g></g></g><g fill="#ffffff" fill-opacity="1"><g transform="translate(243.389504, 180.306829)"><g><path d="M 5.6875 -7.28125 L 5.6875 -6.5625 L 3.40625 -6.5625 L 3.40625 0 L 2.546875 0 L 2.546875 -6.5625 L 0.265625 -6.5625 L 0.265625 -7.28125 Z M 5.6875 -7.28125 "/></g></g></g><g fill="#ffffff" fill-opacity="1"><g transform="translate(257.50684, 180.306829)"><g><path d="M 1.09375 0 L 1.09375 -7.28125 L 3.75 -7.28125 C 4.238281 -7.28125 4.644531 -7.195312 4.96875 -7.03125 C 5.300781 -6.875 5.550781 -6.648438 5.71875 -6.359375 C 5.882812 -6.066406 5.96875 -5.71875 5.96875 -5.3125 C 5.96875 -4.863281 5.851562 -4.488281 5.625 -4.1875 C 5.40625 -3.894531 5.054688 -3.675781 4.578125 -3.53125 L 4.578125 -3.4375 C 4.816406 -3.34375 5.007812 -3.191406 5.15625 -2.984375 C 5.300781 -2.785156 5.4375 -2.492188 5.5625 -2.109375 L 6.25 0 L 5.359375 0 L 4.640625 -2.234375 C 4.546875 -2.492188 4.441406 -2.695312 4.328125 -2.84375 C 4.222656 -2.988281 4.082031 -3.09375 3.90625 -3.15625 C 3.726562 -3.226562 3.507812 -3.265625 3.25 -3.265625 L 1.953125 -3.265625 L 1.953125 0 Z M 3.71875 -4 C 4.175781 -4 4.515625 -4.101562 4.734375 -4.3125 C 4.960938 -4.519531 5.078125 -4.84375 5.078125 -5.28125 C 5.078125 -5.707031 4.960938 -6.023438 4.734375 -6.234375 C 4.515625 -6.453125 4.175781 -6.5625 3.71875 -6.5625 L 1.953125 -6.5625 L 1.953125 -4 Z M 3.71875 -4 "/></g></g></g><g fill="#ffffff" fill-opacity="1"><g transform="translate(272.421154, 180.306829)"><g><path d="M 4 0.109375 C 3.363281 0.109375 2.800781 -0.0234375 2.3125 -0.296875 C 1.820312 -0.578125 1.4375 -0.992188 1.15625 -1.546875 C 0.875 -2.109375 0.734375 -2.804688 0.734375 -3.640625 C 0.734375 -4.472656 0.875 -5.171875 1.15625 -5.734375 C 1.4375 -6.296875 1.820312 -6.710938 2.3125 -6.984375 C 2.800781 -7.253906 3.363281 -7.390625 4 -7.390625 C 4.625 -7.390625 5.179688 -7.253906 5.671875 -6.984375 C 6.171875 -6.710938 6.5625 -6.296875 6.84375 -5.734375 C 7.125 -5.171875 7.265625 -4.472656 7.265625 -3.640625 C 7.265625 -2.804688 7.125 -2.109375 6.84375 -1.546875 C 6.5625 -0.992188 6.171875 -0.578125 5.671875 -0.296875 C 5.179688 -0.0234375 4.625 0.109375 4 0.109375 Z M 4 -0.6875 C 4.75 -0.6875 5.328125 -0.921875 5.734375 -1.390625 C 6.140625 -1.867188 6.34375 -2.617188 6.34375 -3.640625 C 6.34375 -4.660156 6.140625 -5.40625 5.734375 -5.875 C 5.328125 -6.351562 4.75 -6.59375 4 -6.59375 C 2.425781 -6.59375 1.640625 -5.609375 1.640625 -3.640625 C 1.640625 -1.671875 2.425781 -0.6875 4 -0.6875 Z M 4 -0.6875 "/></g></g></g><g fill="#ffffff" fill-opacity="1"><g transform="translate(288.580736, 180.306829)"><g><path d="M 3.5625 0 L 2.703125 0 L 2.703125 -2.859375 L 0.1875 -7.28125 L 1.125 -7.28125 L 3.09375 -3.875 L 3.21875 -3.875 L 5.15625 -7.28125 L 6.078125 -7.28125 L 3.5625 -2.859375 Z M 3.5625 0 "/></g></g></g></svg>