<svg xmlns="http://www.w3.org/2000/svg" xmlns:xlink="http://www.w3.org/1999/xlink" width="500" zoomAndPan="magnify" viewBox="0 0 375 225" height="300" preserveAspectRatio="xMidYMid meet" version="1.0"><defs><g/><clipPath id="7f0c5e49bb"><path d="M 163 77 L 219 77 L 219 132.347656 L 163 132.347656 Z M 163 77 " clip-rule="nonzero"/></clipPath><clipPath id="f1fccddbd3"><path d="M 131.414062 44.597656 L 206 44.597656 L 206 92 L 131.414062 92 Z M 131.414062 44.597656 " clip-rule="nonzero"/></clipPath><clipPath id="36517828a5"><path d="M 204 56 L 243.914062 56 L 243.914062 80 L 204 80 Z M 204 56 " clip-rule="nonzero"/></clipPath></defs><g clip-path="url(#7f0c5e49bb)"><path fill="#000000" d="M 194.230469 132.34375 C 194.058594 132.34375 193.886719 132.273438 193.765625 132.136719 C 193.539062 131.882812 193.5625 131.492188 193.820312 131.265625 C 194.703125 130.488281 196.152344 129.546875 197.824219 128.460938 C 202.230469 125.597656 208.265625 121.671875 208.265625 117.898438 C 208.265625 114.125 204.394531 113.160156 200.300781 111.941406 C 199.726562 111.769531 199.148438 111.597656 198.582031 111.417969 C 196.671875 110.816406 195.175781 109.316406 194.574219 107.414062 C 193.980469 105.535156 194.328125 103.570312 195.523438 102.023438 C 198.605469 98.035156 203.5625 96.289062 207.9375 94.75 C 213.132812 92.917969 217.621094 91.339844 217.621094 86.625 C 217.621094 82.773438 212.082031 80.074219 207.644531 79.070312 C 209.804688 80.792969 211.890625 83.335938 211.890625 86.039062 C 211.890625 91.75 202.546875 93.859375 192.660156 96.089844 C 181.488281 98.609375 168.828125 101.46875 168.828125 109.75 C 168.828125 112.65625 171.242188 113.738281 173.796875 114.886719 C 176.199219 115.964844 178.683594 117.082031 178.683594 119.855469 C 178.683594 125.457031 164.136719 127.558594 163.988281 127.5625 C 163.644531 127.582031 163.359375 127.3125 163.347656 126.972656 C 163.332031 126.640625 163.585938 126.359375 163.917969 126.335938 C 165.625 126.152344 177.441406 123.890625 177.441406 119.855469 C 177.441406 117.875 175.515625 117.011719 173.285156 116.007812 C 170.613281 114.808594 167.585938 113.453125 167.585938 109.75 C 167.585938 100.484375 180.761719 97.511719 192.382812 94.890625 C 201.777344 92.769531 210.652344 90.765625 210.652344 86.039062 C 210.652344 83.046875 207.160156 79.878906 204.683594 78.585938 C 204.425781 78.449219 204.292969 78.152344 204.375 77.875 C 204.453125 77.59375 204.722656 77.40625 205.011719 77.425781 C 209.691406 77.722656 218.859375 80.816406 218.859375 86.625 C 218.859375 92.433594 213.757812 94.007812 208.351562 95.910156 C 203.933594 97.464844 199.367188 99.074219 196.507812 102.773438 C 195.558594 103.996094 195.285156 105.554688 195.753906 107.046875 C 196.234375 108.566406 197.433594 109.761719 198.957031 110.246094 C 199.519531 110.421875 200.089844 110.589844 200.65625 110.761719 C 205.003906 112.058594 209.503906 113.398438 209.503906 117.898438 C 209.503906 122.398438 203.148438 126.472656 198.503906 129.488281 C 196.871094 130.550781 195.457031 131.46875 194.640625 132.1875 C 194.523438 132.292969 194.375 132.34375 194.230469 132.34375 Z M 194.230469 132.34375 " fill-opacity="1" fill-rule="nonzero"/></g><path fill="#000000" d="M 179.40625 114.136719 C 179.335938 114.136719 179.265625 114.125 179.199219 114.101562 C 174.820312 112.53125 173.902344 110.519531 173.902344 109.109375 C 173.902344 106 178.140625 103.394531 182.324219 102.421875 C 182.660156 102.347656 182.992188 102.550781 183.070312 102.882812 C 183.148438 103.214844 182.941406 103.546875 182.605469 103.621094 C 178.417969 104.59375 175.140625 107.003906 175.140625 109.109375 C 175.140625 110.566406 176.6875 111.894531 179.617188 112.941406 C 179.941406 113.058594 180.105469 113.414062 179.992188 113.730469 C 179.898438 113.984375 179.660156 114.136719 179.40625 114.136719 Z M 179.40625 114.136719 " fill-opacity="1" fill-rule="nonzero"/><path fill="#000000" d="M 190.988281 128.84375 C 190.738281 128.84375 190.5 128.6875 190.40625 128.441406 C 190.289062 128.121094 190.449219 127.765625 190.773438 127.648438 C 195.171875 126.019531 199.613281 123.1875 199.613281 120.535156 C 199.613281 118.589844 197.136719 117.066406 195.054688 116.136719 C 194.742188 115.996094 194.605469 115.632812 194.746094 115.320312 C 194.886719 115.011719 195.253906 114.875 195.566406 115.011719 C 199.074219 116.585938 200.851562 118.445312 200.851562 120.535156 C 200.851562 123.996094 195.867188 127.078125 191.203125 128.804688 C 191.132812 128.828125 191.058594 128.84375 190.984375 128.84375 Z M 190.988281 128.84375 " fill-opacity="1" fill-rule="nonzero"/><g clip-path="url(#f1fccddbd3)"><path fill="#000000" d="M 132.121094 91.445312 C 131.996094 91.445312 131.871094 91.40625 131.761719 91.332031 C 131.480469 91.132812 131.414062 90.75 131.613281 90.472656 C 133.277344 88.140625 135.078125 85.882812 136.820312 83.695312 C 139.582031 80.226562 142.4375 76.640625 144.769531 72.742188 C 144.882812 72.550781 145.078125 72.4375 145.320312 72.441406 C 147.332031 72.5 149.226562 73.667969 150.902344 74.699219 C 150.957031 74.730469 151.007812 74.765625 151.0625 74.796875 C 153.121094 73.101562 159.292969 64.839844 164.300781 58.128906 C 172.894531 46.625 174.558594 44.601562 175.441406 44.601562 C 178.84375 44.601562 181.777344 50.679688 184.363281 56.042969 C 185.125 57.617188 185.847656 59.121094 186.472656 60.191406 C 187.109375 59.492188 187.671875 58.714844 188.253906 57.90625 C 189.0625 56.792969 189.894531 55.640625 190.957031 54.675781 C 191.171875 54.484375 191.492188 54.460938 191.726562 54.625 C 196.8125 58.117188 199.183594 63.804688 201.476562 69.300781 C 202.671875 72.160156 203.902344 75.113281 205.5 77.71875 C 205.679688 78.007812 205.585938 78.386719 205.292969 78.5625 C 205 78.742188 204.621094 78.648438 204.441406 78.359375 C 202.792969 75.671875 201.542969 72.671875 200.332031 69.769531 C 198.070312 64.355469 195.933594 59.226562 191.433594 55.925781 C 190.628906 56.726562 189.960938 57.652344 189.261719 58.621094 C 188.515625 59.652344 187.742188 60.71875 186.792969 61.632812 C 186.660156 61.757812 186.476562 61.820312 186.292969 61.800781 C 186.113281 61.78125 185.949219 61.679688 185.847656 61.527344 C 185.09375 60.40625 184.238281 58.628906 183.246094 56.570312 C 181.085938 52.097656 178.144531 45.996094 175.546875 45.832031 C 174.496094 46.535156 169.613281 53.078125 165.292969 58.859375 C 159.398438 66.753906 153.304688 74.917969 151.410156 76.0625 C 151.210938 76.183594 150.964844 76.183594 150.765625 76.0625 C 150.59375 75.957031 150.421875 75.851562 150.246094 75.742188 C 148.8125 74.863281 147.203125 73.871094 145.636719 73.695312 C 143.300781 77.535156 140.5 81.050781 137.789062 84.457031 C 136.058594 86.628906 134.269531 88.878906 132.625 91.183594 C 132.503906 91.351562 132.3125 91.441406 132.117188 91.441406 Z M 132.121094 91.445312 " fill-opacity="1" fill-rule="nonzero"/></g><g clip-path="url(#36517828a5)"><path fill="#000000" d="M 243.230469 79.609375 C 243.066406 79.609375 242.898438 79.542969 242.777344 79.414062 C 241.769531 78.34375 241.03125 77.089844 240.316406 75.878906 C 239.210938 74.003906 238.164062 72.226562 236.230469 71.226562 C 235.230469 72.070312 233.828125 73.136719 232.320312 73.886719 C 232.078125 74.011719 231.78125 73.957031 231.59375 73.761719 C 231.371094 73.527344 231.210938 73.140625 230.925781 72.4375 C 230.011719 70.203125 227.890625 65.019531 220.851562 58.257812 C 214.503906 64.371094 209.375 70.773438 205.183594 77.816406 C 205.011719 78.109375 204.628906 78.207031 204.335938 78.035156 C 204.042969 77.863281 203.945312 77.484375 204.117188 77.191406 C 208.460938 69.894531 213.792969 63.277344 220.421875 56.960938 C 220.660156 56.734375 221.035156 56.730469 221.277344 56.957031 C 228.855469 64.101562 231.113281 69.621094 232.074219 71.976562 C 232.152344 72.160156 232.226562 72.347656 232.296875 72.507812 C 233.648438 71.753906 234.882812 70.765625 235.722656 70.03125 C 235.90625 69.871094 236.164062 69.832031 236.386719 69.933594 C 238.910156 71.058594 240.167969 73.191406 241.386719 75.257812 C 242.066406 76.410156 242.773438 77.601562 243.6875 78.574219 C 243.921875 78.824219 243.90625 79.210938 243.65625 79.445312 C 243.539062 79.554688 243.386719 79.609375 243.234375 79.609375 Z M 243.230469 79.609375 " fill-opacity="1" fill-rule="nonzero"/></g><path fill="#000000" d="M 212.148438 72.535156 C 212.019531 72.535156 211.890625 72.496094 211.78125 72.414062 C 211.253906 72.03125 210.738281 71.578125 210.242188 71.140625 C 209.945312 70.875 209.644531 70.613281 209.339844 70.359375 C 209.074219 70.144531 209.039062 69.753906 209.257812 69.492188 C 209.476562 69.230469 209.867188 69.195312 210.132812 69.414062 C 210.449219 69.671875 210.757812 69.945312 211.066406 70.21875 C 211.441406 70.546875 211.800781 70.863281 212.160156 71.152344 C 213.316406 70.269531 214.25 69.144531 215.230469 67.960938 C 215.488281 67.652344 215.746094 67.34375 216.003906 67.039062 C 216.1875 66.824219 216.496094 66.761719 216.75 66.886719 C 218.078125 67.535156 219.722656 68.835938 220.761719 70.035156 C 221.457031 69.664062 222.097656 69.210938 222.710938 68.652344 C 222.867188 68.511719 223.089844 68.457031 223.292969 68.511719 C 224.355469 68.800781 225.082031 69.300781 225.851562 69.828125 C 226.011719 69.9375 226.175781 70.050781 226.347656 70.164062 C 227.335938 69.496094 228.21875 68.554688 229.035156 67.628906 C 229.257812 67.371094 229.648438 67.34375 229.90625 67.566406 C 230.167969 67.789062 230.195312 68.179688 229.96875 68.4375 C 229.003906 69.539062 227.933594 70.664062 226.664062 71.421875 C 226.464844 71.539062 226.214844 71.539062 226.015625 71.417969 C 225.703125 71.222656 225.417969 71.027344 225.144531 70.839844 C 224.527344 70.414062 223.980469 70.042969 223.28125 69.796875 C 222.527344 70.441406 221.730469 70.957031 220.859375 71.363281 C 220.59375 71.488281 220.277344 71.410156 220.101562 71.179688 C 219.3125 70.152344 217.859375 68.921875 216.625 68.21875 C 216.480469 68.394531 216.332031 68.570312 216.1875 68.746094 C 215.097656 70.058594 213.96875 71.414062 212.503906 72.425781 C 212.398438 72.5 212.273438 72.535156 212.148438 72.535156 Z M 212.148438 72.535156 " fill-opacity="1" fill-rule="nonzero"/><path fill="#000000" d="M 167.050781 67.425781 C 167.039062 67.425781 167.027344 67.425781 167.015625 67.425781 C 166.820312 67.414062 166.644531 67.316406 166.535156 67.15625 C 165.84375 66.132812 164.878906 65.28125 163.859375 64.375 C 163.140625 63.742188 162.402344 63.085938 161.753906 62.359375 C 161.527344 62.105469 161.550781 61.71875 161.804688 61.492188 C 162.0625 61.265625 162.457031 61.289062 162.679688 61.542969 C 163.277344 62.214844 163.992188 62.847656 164.683594 63.457031 C 165.511719 64.191406 166.367188 64.949219 167.074219 65.8125 C 168.855469 63.585938 170.074219 61.21875 171.359375 58.726562 C 171.917969 57.644531 172.492188 56.527344 173.121094 55.414062 C 173.226562 55.222656 173.425781 55.105469 173.644531 55.097656 C 173.863281 55.089844 174.066406 55.199219 174.183594 55.382812 C 174.996094 56.640625 175.617188 57.96875 176.21875 59.25 C 176.460938 59.761719 176.710938 60.289062 176.96875 60.8125 C 177.402344 60.316406 177.6875 59.679688 177.914062 59.089844 C 177.992188 58.890625 178.164062 58.746094 178.375 58.707031 C 178.582031 58.664062 178.800781 58.734375 178.949219 58.890625 C 179.183594 59.140625 179.429688 59.394531 179.679688 59.648438 C 180.226562 60.203125 180.785156 60.769531 181.273438 61.386719 C 181.996094 60.503906 182.660156 59.558594 183.304688 58.632812 C 183.558594 58.269531 183.816406 57.90625 184.070312 57.542969 C 184.269531 57.265625 184.65625 57.203125 184.9375 57.398438 C 185.214844 57.597656 185.28125 57.980469 185.082031 58.257812 C 184.824219 58.617188 184.574219 58.976562 184.324219 59.335938 C 183.511719 60.496094 182.671875 61.695312 181.695312 62.789062 C 181.570312 62.933594 181.378906 63.007812 181.1875 62.996094 C 180.996094 62.980469 180.820312 62.878906 180.714844 62.71875 C 180.203125 61.941406 179.484375 61.210938 178.792969 60.507812 C 178.757812 60.472656 178.726562 60.4375 178.691406 60.40625 C 178.34375 61.105469 177.855469 61.816406 177.117188 62.304688 C 176.972656 62.402344 176.789062 62.429688 176.621094 62.386719 C 176.453125 62.34375 176.308594 62.230469 176.226562 62.078125 C 175.820312 61.308594 175.449219 60.523438 175.09375 59.765625 C 174.636719 58.789062 174.199219 57.855469 173.683594 56.945312 C 173.257812 57.730469 172.855469 58.515625 172.460938 59.28125 C 171.027344 62.066406 169.671875 64.695312 167.519531 67.207031 C 167.398438 67.34375 167.226562 67.421875 167.046875 67.421875 Z M 167.050781 67.425781 " fill-opacity="1" fill-rule="nonzero"/><path fill="#000000" d="M 149.238281 69.800781 C 148.351562 68.574219 147.144531 66.945312 146.808594 65.480469 C 147.242188 65.796875 147.640625 65.902344 148.058594 65.902344 C 148.453125 65.902344 148.863281 65.808594 149.335938 65.707031 L 149.589844 65.347656 C 147.996094 63.988281 146.324219 61.792969 146.136719 59.671875 C 146.78125 60.019531 147.210938 60.066406 147.980469 60.121094 L 148.378906 59.792969 C 147.292969 58.132812 145.929688 56.21875 145.929688 54.1875 C 145.929688 54.140625 145.929688 54.097656 145.933594 54.050781 C 146.429688 54.40625 146.871094 54.519531 147.394531 54.519531 C 147.5625 54.519531 147.738281 54.507812 147.929688 54.488281 C 146.09375 53.199219 145.449219 50.078125 144.183594 48.316406 C 143.597656 50.957031 143.261719 52.730469 141.851562 55.058594 L 142.417969 55.277344 C 143.203125 54.953125 143.707031 54.796875 144.300781 54.265625 C 144.296875 56.761719 143.277344 57.953125 142.140625 60.027344 C 142.492188 60.132812 142.785156 60.203125 143.0625 60.203125 C 143.417969 60.203125 143.746094 60.09375 144.132812 59.816406 C 143.855469 61.796875 143.210938 63.664062 142.261719 65.429688 C 143.128906 65.203125 143.753906 64.820312 144.5 64.34375 C 144.59375 64.652344 144.632812 64.960938 144.632812 65.269531 C 144.632812 67.105469 143.203125 68.949219 142.578125 70.558594 C 144.804688 70.382812 147.234375 70.789062 149.238281 69.804688 " fill-opacity="1" fill-rule="nonzero"/><path fill="#000000" d="M 142.578125 71.175781 C 142.382812 71.175781 142.199219 71.082031 142.082031 70.925781 C 141.953125 70.757812 141.921875 70.535156 142 70.335938 C 142.214844 69.78125 142.507812 69.230469 142.8125 68.644531 C 143.386719 67.550781 143.980469 66.425781 144.015625 65.363281 C 143.542969 65.628906 143.03125 65.867188 142.417969 66.023438 C 142.179688 66.085938 141.925781 66 141.773438 65.808594 C 141.621094 65.617188 141.597656 65.351562 141.714844 65.136719 C 142.472656 63.734375 143.011719 62.28125 143.332031 60.800781 C 142.871094 60.859375 142.390625 60.746094 141.964844 60.621094 C 141.785156 60.566406 141.640625 60.433594 141.570312 60.261719 C 141.5 60.09375 141.511719 59.898438 141.601562 59.734375 C 141.8125 59.347656 142.019531 58.992188 142.214844 58.652344 C 142.867188 57.535156 143.378906 56.652344 143.585938 55.460938 C 143.386719 55.554688 143.175781 55.636719 142.949219 55.730469 L 142.660156 55.847656 C 142.511719 55.910156 142.347656 55.910156 142.195312 55.851562 L 141.628906 55.632812 C 141.457031 55.566406 141.324219 55.429688 141.265625 55.257812 C 141.203125 55.085938 141.226562 54.898438 141.320312 54.742188 C 142.59375 52.636719 142.945312 51.042969 143.480469 48.636719 L 143.578125 48.183594 C 143.632812 47.945312 143.820312 47.761719 144.0625 47.714844 C 144.300781 47.664062 144.546875 47.761719 144.691406 47.960938 C 145.203125 48.675781 145.597656 49.550781 146.019531 50.476562 C 146.640625 51.859375 147.285156 53.28125 148.289062 53.988281 C 148.5 54.136719 148.597656 54.398438 148.53125 54.648438 C 148.464844 54.894531 148.253906 55.078125 147.996094 55.105469 C 147.425781 55.164062 147.035156 55.148438 146.640625 55.058594 C 146.925781 56.464844 147.835938 57.851562 148.65625 59.097656 L 148.894531 59.460938 C 149.066406 59.726562 149.011719 60.074219 148.769531 60.273438 L 148.371094 60.601562 C 148.246094 60.699219 148.089844 60.75 147.933594 60.738281 C 147.566406 60.714844 147.257812 60.6875 146.957031 60.628906 C 147.480469 62.292969 148.835938 63.90625 149.988281 64.886719 C 150.234375 65.09375 150.277344 65.449219 150.09375 65.707031 L 149.839844 66.066406 C 149.75 66.191406 149.617188 66.277344 149.464844 66.3125 L 149.398438 66.324219 C 148.859375 66.441406 148.339844 66.550781 147.84375 66.515625 C 148.3125 67.46875 149.023438 68.449219 149.625 69.285156 L 149.742188 69.445312 C 149.847656 69.59375 149.882812 69.78125 149.839844 69.953125 C 149.796875 70.128906 149.675781 70.277344 149.511719 70.355469 C 147.972656 71.117188 146.253906 71.117188 144.585938 71.121094 C 143.90625 71.121094 143.257812 71.125 142.625 71.175781 C 142.609375 71.175781 142.59375 71.175781 142.578125 71.175781 Z M 144.5 63.726562 C 144.574219 63.726562 144.648438 63.742188 144.71875 63.765625 C 144.902344 63.835938 145.039062 63.984375 145.09375 64.167969 C 145.199219 64.515625 145.253906 64.890625 145.253906 65.269531 C 145.253906 66.660156 144.542969 68.015625 143.914062 69.214844 C 143.789062 69.445312 143.671875 69.675781 143.558594 69.898438 C 143.90625 69.890625 144.25 69.886719 144.585938 69.886719 C 145.902344 69.886719 147.160156 69.882812 148.277344 69.527344 C 147.433594 68.347656 146.511719 66.957031 146.203125 65.621094 C 146.148438 65.371094 146.253906 65.109375 146.46875 64.96875 C 146.683594 64.828125 146.96875 64.832031 147.175781 64.988281 C 147.601562 65.296875 147.992188 65.335938 148.550781 65.238281 C 147.109375 63.828125 145.699219 61.789062 145.515625 59.730469 C 145.496094 59.503906 145.601562 59.285156 145.792969 59.160156 C 145.984375 59.035156 146.230469 59.027344 146.429688 59.132812 C 146.789062 59.324219 147.0625 59.40625 147.414062 59.453125 C 146.390625 57.882812 145.3125 56.125 145.3125 54.1875 C 145.3125 54.136719 145.3125 54.082031 145.316406 54.03125 C 145.324219 53.804688 145.457031 53.597656 145.660156 53.496094 C 145.824219 53.417969 146.011719 53.414062 146.171875 53.480469 C 145.675781 52.71875 145.277344 51.84375 144.886719 50.980469 C 144.734375 50.648438 144.589844 50.324219 144.441406 50.011719 C 144.078125 51.578125 143.703125 52.90625 142.925781 54.402344 C 143.289062 54.246094 143.570312 54.089844 143.890625 53.808594 C 144.074219 53.644531 144.335938 53.605469 144.554688 53.703125 C 144.777344 53.804688 144.921875 54.023438 144.921875 54.269531 C 144.917969 56.472656 144.160156 57.769531 143.289062 59.269531 C 143.226562 59.375 143.167969 59.480469 143.105469 59.585938 C 143.265625 59.578125 143.464844 59.535156 143.773438 59.316406 C 143.972656 59.171875 144.242188 59.160156 144.453125 59.289062 C 144.667969 59.414062 144.78125 59.65625 144.746094 59.902344 C 144.542969 61.367188 144.132812 62.8125 143.53125 64.21875 C 143.730469 64.101562 143.9375 63.972656 144.167969 63.828125 C 144.269531 63.761719 144.386719 63.730469 144.5 63.730469 Z M 144.5 63.726562 " fill-opacity="1" fill-rule="nonzero"/><path fill="#000000" d="M 146.058594 73.753906 C 145.738281 73.753906 145.464844 73.503906 145.441406 73.179688 L 145.175781 69.453125 C 145.148438 69.117188 145.40625 68.820312 145.75 68.796875 C 146.089844 68.773438 146.386719 69.027344 146.410156 69.367188 L 146.679688 73.09375 C 146.703125 73.433594 146.445312 73.726562 146.105469 73.75 C 146.089844 73.75 146.074219 73.753906 146.058594 73.753906 Z M 146.058594 73.753906 " fill-opacity="1" fill-rule="nonzero"/><path fill="#000000" d="M 150.675781 63.523438 C 150.761719 63.523438 150.851562 63.519531 150.9375 63.519531 C 151.660156 63.519531 152.390625 63.558594 153.109375 63.558594 C 154.496094 63.558594 155.847656 63.417969 157.035156 62.613281 C 155.695312 61.398438 154.597656 60.265625 154.269531 58.464844 L 154.496094 58.253906 C 154.660156 58.273438 154.804688 58.28125 154.941406 58.28125 C 155.304688 58.28125 155.605469 58.21875 156.042969 58.097656 L 156.167969 57.863281 C 155.230469 56.875 154.5 55.339844 154.066406 54.078125 C 154.117188 54 154.175781 53.929688 154.230469 53.859375 C 154.460938 53.96875 154.679688 54.011719 154.890625 54.011719 C 155.253906 54.011719 155.601562 53.890625 155.976562 53.761719 C 154.5 52.542969 152.839844 51.230469 152.550781 49.277344 C 152.070312 51.191406 151.925781 52.347656 150.5625 53.8125 C 150.722656 53.820312 150.875 53.828125 151.015625 53.828125 C 151.367188 53.828125 151.683594 53.789062 152.050781 53.65625 C 152.0625 53.863281 152.070312 54.0625 152.070312 54.253906 C 152.070312 55.664062 151.679688 56.695312 150.851562 57.960938 C 151.140625 58.03125 151.398438 58.078125 151.660156 58.078125 C 151.875 58.078125 152.09375 58.046875 152.332031 57.976562 C 152.46875 58.394531 152.535156 58.851562 152.535156 59.3125 C 152.535156 60.871094 151.800781 62.542969 150.679688 63.523438 " fill-opacity="1" fill-rule="nonzero"/><path fill="#000000" d="M 153.109375 64.175781 C 152.742188 64.175781 152.375 64.164062 152.007812 64.15625 C 151.648438 64.148438 151.292969 64.136719 150.9375 64.136719 L 150.683594 64.136719 C 150.421875 64.140625 150.191406 63.984375 150.097656 63.746094 C 150.003906 63.503906 150.070312 63.230469 150.265625 63.0625 C 151.25 62.203125 151.914062 60.695312 151.914062 59.3125 C 151.914062 59.097656 151.898438 58.886719 151.863281 58.683594 C 151.511719 58.710938 151.167969 58.671875 150.699219 58.554688 C 150.503906 58.507812 150.34375 58.371094 150.269531 58.183594 C 150.195312 58 150.21875 57.789062 150.328125 57.625 C 151.105469 56.433594 151.417969 55.550781 151.445312 54.425781 C 151.164062 54.453125 150.863281 54.449219 150.519531 54.425781 C 150.277344 54.410156 150.070312 54.261719 149.984375 54.039062 C 149.894531 53.820312 149.941406 53.570312 150.101562 53.394531 C 151.199219 52.214844 151.421875 51.292969 151.789062 49.765625 C 151.835938 49.5625 151.886719 49.351562 151.945312 49.128906 C 152.015625 48.84375 152.277344 48.648438 152.574219 48.660156 C 152.871094 48.675781 153.117188 48.894531 153.160156 49.1875 C 153.40625 50.847656 154.839844 52.03125 156.230469 53.171875 L 156.371094 53.289062 C 156.542969 53.429688 156.625 53.652344 156.585938 53.871094 C 156.546875 54.089844 156.390625 54.269531 156.175781 54.34375 C 155.769531 54.484375 155.375 54.617188 154.9375 54.625 C 155.28125 55.464844 155.851562 56.632812 156.621094 57.441406 C 156.804688 57.636719 156.84375 57.921875 156.714844 58.15625 L 156.589844 58.390625 C 156.507812 58.539062 156.371094 58.648438 156.210938 58.691406 C 155.761719 58.816406 155.417969 58.890625 155.011719 58.898438 C 155.417969 60.234375 156.363281 61.175781 157.453125 62.160156 C 157.59375 62.289062 157.667969 62.472656 157.65625 62.660156 C 157.644531 62.847656 157.542969 63.019531 157.386719 63.125 C 156.023438 64.050781 154.527344 64.179688 153.109375 64.179688 Z M 152.019531 62.921875 L 152.039062 62.921875 C 152.398438 62.933594 152.753906 62.941406 153.109375 62.941406 C 154.074219 62.941406 155.078125 62.878906 155.992188 62.484375 C 154.898438 61.429688 153.964844 60.265625 153.660156 58.574219 C 153.621094 58.367188 153.691406 58.15625 153.84375 58.011719 L 154.074219 57.800781 C 154.203125 57.679688 154.386719 57.621094 154.566406 57.640625 C 154.8125 57.667969 155 57.671875 155.1875 57.648438 C 154.28125 56.429688 153.707031 54.933594 153.476562 54.273438 C 153.417969 54.09375 153.441406 53.898438 153.542969 53.738281 C 153.589844 53.671875 153.636719 53.605469 153.6875 53.542969 L 153.734375 53.484375 C 153.898438 53.265625 154.1875 53.179688 154.441406 53.277344 C 153.777344 52.691406 153.144531 52.046875 152.671875 51.300781 C 152.492188 51.914062 152.273438 52.476562 151.921875 53.046875 C 152.078125 53.015625 152.246094 53.046875 152.382812 53.136719 C 152.546875 53.242188 152.652344 53.417969 152.664062 53.609375 C 152.679688 53.832031 152.6875 54.046875 152.6875 54.25 C 152.6875 55.410156 152.453125 56.367188 151.875 57.441406 C 151.964844 57.429688 152.054688 57.410156 152.144531 57.382812 C 152.46875 57.285156 152.808594 57.464844 152.914062 57.78125 C 153.070312 58.253906 153.152344 58.769531 153.152344 59.3125 C 153.152344 60.574219 152.726562 61.882812 152.015625 62.921875 Z M 152.019531 62.921875 " fill-opacity="1" fill-rule="nonzero"/><path fill="#000000" d="M 153.96875 72.578125 L 153.511719 63.816406 " fill-opacity="1" fill-rule="nonzero"/><path fill="#000000" d="M 153.96875 73.195312 C 153.640625 73.195312 153.367188 72.941406 153.351562 72.613281 L 152.894531 63.847656 C 152.875 63.507812 153.136719 63.21875 153.480469 63.199219 C 153.824219 63.183594 154.113281 63.445312 154.132812 63.785156 L 154.589844 72.546875 C 154.609375 72.886719 154.347656 73.175781 154.003906 73.195312 C 153.992188 73.195312 153.980469 73.195312 153.96875 73.195312 Z M 153.96875 73.195312 " fill-opacity="1" fill-rule="nonzero"/><g fill="#231f20" fill-opacity="1"><g transform="translate(103.761612, 156.769773)"><g><path d="M 13.75 -9.53125 L 11.0625 -9.53125 L 11.0625 -9.421875 C 11.0625 -8.953125 10.972656 -8.515625 10.796875 -8.109375 C 10.628906 -7.703125 10.363281 -7.347656 10 -7.046875 C 9.632812 -6.742188 9.15625 -6.5 8.5625 -6.3125 C 7.96875 -6.132812 7.242188 -6.046875 6.390625 -6.046875 C 5.535156 -6.046875 4.8125 -6.132812 4.21875 -6.3125 C 3.632812 -6.5 3.15625 -6.742188 2.78125 -7.046875 C 2.414062 -7.347656 2.148438 -7.703125 1.984375 -8.109375 C 1.816406 -8.515625 1.734375 -8.953125 1.734375 -9.421875 L 1.734375 -11.34375 C 1.734375 -11.800781 1.816406 -12.234375 1.984375 -12.640625 C 2.148438 -13.054688 2.414062 -13.414062 2.78125 -13.71875 C 3.15625 -14.019531 3.632812 -14.257812 4.21875 -14.4375 C 4.8125 -14.625 5.535156 -14.71875 6.390625 -14.71875 C 7.179688 -14.71875 7.859375 -14.640625 8.421875 -14.484375 C 8.984375 -14.335938 9.453125 -14.128906 9.828125 -13.859375 C 10.203125 -13.585938 10.488281 -13.269531 10.6875 -12.90625 C 10.882812 -12.539062 11 -12.148438 11.03125 -11.734375 L 13.75 -11.734375 L 13.75 -14.515625 L 16.578125 -14.515625 L 16.578125 -6.046875 L 13.75 -6.046875 Z M 2.34375 -5.03125 L 16.578125 -5.03125 L 16.578125 -0.28125 L 5.015625 -0.28125 L 5.015625 0.53125 L 16.578125 0.53125 L 16.578125 2.5 L 2.34375 2.5 L 2.34375 -2.25 L 13.890625 -2.25 L 13.890625 -3.0625 L 2.34375 -3.0625 Z M 8.421875 -10.875 C 8.421875 -11.207031 8.359375 -11.484375 8.234375 -11.703125 C 8.117188 -11.929688 7.96875 -12.101562 7.78125 -12.21875 C 7.59375 -12.34375 7.375 -12.425781 7.125 -12.46875 C 6.882812 -12.519531 6.640625 -12.546875 6.390625 -12.546875 C 6.140625 -12.546875 5.894531 -12.519531 5.65625 -12.46875 C 5.414062 -12.425781 5.195312 -12.34375 5 -12.21875 C 4.8125 -12.101562 4.660156 -11.929688 4.546875 -11.703125 C 4.429688 -11.484375 4.375 -11.207031 4.375 -10.875 L 4.375 -9.890625 C 4.375 -9.535156 4.429688 -9.25 4.546875 -9.03125 C 4.660156 -8.820312 4.8125 -8.65625 5 -8.53125 C 5.195312 -8.414062 5.414062 -8.332031 5.65625 -8.28125 C 5.894531 -8.238281 6.140625 -8.21875 6.390625 -8.21875 C 6.640625 -8.21875 6.882812 -8.238281 7.125 -8.28125 C 7.375 -8.332031 7.59375 -8.414062 7.78125 -8.53125 C 7.96875 -8.65625 8.117188 -8.820312 8.234375 -9.03125 C 8.359375 -9.25 8.421875 -9.535156 8.421875 -9.890625 Z M 8.421875 -10.875 "/></g></g></g><g fill="#231f20" fill-opacity="1"><g transform="translate(133.632862, 156.769773)"><g><path d="M 0.765625 -7.09375 L 17.359375 -7.09375 L 17.359375 -4.875 L 0.765625 -4.875 Z M 1.8125 2.5 L 1.8125 -3.828125 L 16.3125 -3.828125 L 16.3125 2.5 Z M 4.625 -1.609375 L 4.625 0.28125 L 13.5 0.28125 L 13.5 -1.609375 Z M 4.4375 -11.359375 C 4.4375 -11.003906 4.523438 -10.753906 4.703125 -10.609375 C 4.878906 -10.460938 5.164062 -10.390625 5.5625 -10.390625 L 12.5625 -10.390625 C 12.957031 -10.390625 13.242188 -10.460938 13.421875 -10.609375 C 13.609375 -10.753906 13.703125 -11.003906 13.703125 -11.359375 C 13.703125 -11.710938 13.609375 -11.957031 13.421875 -12.09375 C 13.242188 -12.238281 12.957031 -12.3125 12.5625 -12.3125 L 5.5625 -12.3125 C 5.164062 -12.3125 4.878906 -12.238281 4.703125 -12.09375 C 4.523438 -11.957031 4.4375 -11.710938 4.4375 -11.359375 Z M 1.609375 -11.359375 C 1.609375 -12.484375 1.90625 -13.289062 2.5 -13.78125 C 3.09375 -14.269531 4.023438 -14.515625 5.296875 -14.515625 L 12.828125 -14.515625 C 14.109375 -14.515625 15.039062 -14.269531 15.625 -13.78125 C 16.21875 -13.289062 16.515625 -12.484375 16.515625 -11.359375 C 16.515625 -10.234375 16.21875 -9.425781 15.625 -8.9375 C 15.039062 -8.445312 14.109375 -8.203125 12.828125 -8.203125 L 5.296875 -8.203125 C 4.023438 -8.203125 3.09375 -8.445312 2.5 -8.9375 C 1.90625 -9.425781 1.609375 -10.234375 1.609375 -11.359375 Z M 1.609375 -11.359375 "/></g></g></g><g fill="#231f20" fill-opacity="1"><g transform="translate(163.504113, 156.769773)"><g><path d="M 1.8125 -5.03125 L 16.296875 -5.03125 L 16.296875 -0.28125 L 4.484375 -0.28125 L 4.484375 0.53125 L 16.296875 0.53125 L 16.296875 2.5 L 1.8125 2.5 L 1.8125 -2.25 L 13.609375 -2.25 L 13.609375 -3.0625 L 1.8125 -3.0625 Z M 8.859375 -10.671875 L 8.859375 -8.09375 L 17.359375 -8.09375 L 17.359375 -5.875 L 0.765625 -5.875 L 0.765625 -8.09375 L 6.046875 -8.09375 L 6.046875 -10.671875 Z M 13.3125 -12.3125 L 1.8125 -12.3125 L 1.8125 -14.515625 L 16.46875 -14.515625 L 15.546875 -8.78125 L 12.734375 -8.78125 Z M 13.3125 -12.3125 "/></g></g></g><g fill="#231f20" fill-opacity="1"><g transform="translate(193.375361, 156.769773)"><g><path d="M 16.578125 -14.515625 L 16.578125 2.09375 L 13.75 2.09375 L 13.75 -14.515625 Z M 1.734375 -9.984375 C 1.734375 -10.710938 1.8125 -11.367188 1.96875 -11.953125 C 2.125 -12.535156 2.378906 -13.03125 2.734375 -13.4375 C 3.097656 -13.851562 3.578125 -14.171875 4.171875 -14.390625 C 4.765625 -14.609375 5.503906 -14.71875 6.390625 -14.71875 C 7.273438 -14.71875 8.015625 -14.609375 8.609375 -14.390625 C 9.203125 -14.171875 9.679688 -13.851562 10.046875 -13.4375 C 10.410156 -13.03125 10.671875 -12.535156 10.828125 -11.953125 C 10.984375 -11.367188 11.0625 -10.710938 11.0625 -9.984375 L 11.0625 -2.921875 C 11.0625 -2.171875 10.984375 -1.492188 10.828125 -0.890625 C 10.671875 -0.296875 10.410156 0.203125 10.046875 0.609375 C 9.679688 1.023438 9.203125 1.34375 8.609375 1.5625 C 8.015625 1.78125 7.273438 1.890625 6.390625 1.890625 C 5.503906 1.890625 4.765625 1.78125 4.171875 1.5625 C 3.578125 1.34375 3.097656 1.023438 2.734375 0.609375 C 2.378906 0.203125 2.125 -0.296875 1.96875 -0.890625 C 1.8125 -1.492188 1.734375 -2.171875 1.734375 -2.921875 Z M 4.4375 -2.8125 C 4.4375 -2.289062 4.476562 -1.867188 4.5625 -1.546875 C 4.644531 -1.222656 4.773438 -0.972656 4.953125 -0.796875 C 5.128906 -0.617188 5.332031 -0.492188 5.5625 -0.421875 C 5.800781 -0.359375 6.078125 -0.328125 6.390625 -0.328125 C 6.691406 -0.328125 6.960938 -0.359375 7.203125 -0.421875 C 7.453125 -0.492188 7.660156 -0.617188 7.828125 -0.796875 C 8.003906 -0.972656 8.132812 -1.222656 8.21875 -1.546875 C 8.3125 -1.867188 8.359375 -2.289062 8.359375 -2.8125 L 8.359375 -10.046875 C 8.359375 -10.546875 8.3125 -10.957031 8.21875 -11.28125 C 8.132812 -11.601562 8.003906 -11.851562 7.828125 -12.03125 C 7.660156 -12.21875 7.453125 -12.34375 7.203125 -12.40625 C 6.960938 -12.46875 6.691406 -12.5 6.390625 -12.5 C 6.078125 -12.5 5.800781 -12.46875 5.5625 -12.40625 C 5.332031 -12.34375 5.128906 -12.21875 4.953125 -12.03125 C 4.773438 -11.851562 4.644531 -11.601562 4.5625 -11.28125 C 4.476562 -10.957031 4.4375 -10.546875 4.4375 -10.046875 Z M 4.4375 -2.8125 "/></g></g></g><g fill="#231f20" fill-opacity="1"><g transform="translate(223.246614, 156.769773)"><g><path d="M 1.734375 -9.984375 C 1.734375 -10.710938 1.8125 -11.367188 1.96875 -11.953125 C 2.125 -12.535156 2.378906 -13.03125 2.734375 -13.4375 C 3.097656 -13.851562 3.578125 -14.171875 4.171875 -14.390625 C 4.765625 -14.609375 5.503906 -14.71875 6.390625 -14.71875 C 7.273438 -14.71875 8.015625 -14.609375 8.609375 -14.390625 C 9.203125 -14.171875 9.679688 -13.851562 10.046875 -13.4375 C 10.410156 -13.03125 10.671875 -12.535156 10.828125 -11.953125 C 10.984375 -11.367188 11.0625 -10.710938 11.0625 -9.984375 L 11.0625 -2.921875 C 11.0625 -2.171875 10.984375 -1.492188 10.828125 -0.890625 C 10.671875 -0.296875 10.410156 0.203125 10.046875 0.609375 C 9.679688 1.023438 9.203125 1.34375 8.609375 1.5625 C 8.015625 1.78125 7.273438 1.890625 6.390625 1.890625 C 5.503906 1.890625 4.765625 1.78125 4.171875 1.5625 C 3.578125 1.34375 3.097656 1.023438 2.734375 0.609375 C 2.378906 0.203125 2.125 -0.296875 1.96875 -0.890625 C 1.8125 -1.492188 1.734375 -2.171875 1.734375 -2.921875 Z M 15.5625 -14.515625 L 15.5625 -10.53125 L 17.859375 -10.53125 L 17.859375 -8.3125 L 15.5625 -8.3125 L 15.5625 -5.09375 L 17.859375 -5.09375 L 17.859375 -2.875 L 15.5625 -2.875 L 15.5625 2.09375 L 12.75 2.09375 L 12.75 -14.515625 Z M 4.4375 -2.8125 C 4.4375 -2.289062 4.476562 -1.867188 4.5625 -1.546875 C 4.644531 -1.222656 4.773438 -0.972656 4.953125 -0.796875 C 5.128906 -0.617188 5.332031 -0.492188 5.5625 -0.421875 C 5.800781 -0.359375 6.078125 -0.328125 6.390625 -0.328125 C 6.691406 -0.328125 6.960938 -0.359375 7.203125 -0.421875 C 7.453125 -0.492188 7.660156 -0.617188 7.828125 -0.796875 C 8.003906 -0.972656 8.132812 -1.222656 8.21875 -1.546875 C 8.3125 -1.867188 8.359375 -2.289062 8.359375 -2.8125 L 8.359375 -10.046875 C 8.359375 -10.546875 8.3125 -10.957031 8.21875 -11.28125 C 8.132812 -11.601562 8.003906 -11.851562 7.828125 -12.03125 C 7.660156 -12.21875 7.453125 -12.34375 7.203125 -12.40625 C 6.960938 -12.46875 6.691406 -12.5 6.390625 -12.5 C 6.078125 -12.5 5.800781 -12.46875 5.5625 -12.40625 C 5.332031 -12.34375 5.128906 -12.21875 4.953125 -12.03125 C 4.773438 -11.851562 4.644531 -11.601562 4.5625 -11.28125 C 4.476562 -10.957031 4.4375 -10.546875 4.4375 -10.046875 Z M 4.4375 -2.8125 "/></g></g></g><g fill="#231f20" fill-opacity="1"><g transform="translate(253.117867, 156.769773)"><g><path d="M 16.578125 -14.515625 L 16.578125 2.09375 L 13.75 2.09375 L 13.75 -14.515625 Z M 7.921875 -12.3125 L 1.734375 -12.3125 L 1.734375 -14.515625 L 11.03125 -14.515625 L 9.0625 1.6875 L 6.25 1.6875 Z M 7.921875 -12.3125 "/></g></g></g><g fill="#231f20" fill-opacity="1"><g transform="translate(91.125582, 178.515799)"><g><path d="M 1.765625 0 L 0.984375 0 L 0.984375 -6.546875 L 1.765625 -6.546875 Z M 1.765625 0 "/></g></g></g><g fill="#231f20" fill-opacity="1"><g transform="translate(101.209704, 178.515799)"><g><path d="M 3.625 0.09375 C 3.050781 0.09375 2.539062 -0.0351562 2.09375 -0.296875 C 1.644531 -0.554688 1.289062 -0.941406 1.03125 -1.453125 C 0.78125 -1.960938 0.65625 -2.570312 0.65625 -3.28125 C 0.65625 -3.976562 0.78125 -4.582031 1.03125 -5.09375 C 1.289062 -5.601562 1.644531 -5.988281 2.09375 -6.25 C 2.539062 -6.507812 3.050781 -6.640625 3.625 -6.640625 C 4.226562 -6.640625 4.734375 -6.523438 5.140625 -6.296875 C 5.546875 -6.066406 5.84375 -5.71875 6.03125 -5.25 L 5.53125 -4.921875 L 5.421875 -4.921875 C 5.242188 -5.296875 5.007812 -5.5625 4.71875 -5.71875 C 4.4375 -5.875 4.070312 -5.953125 3.625 -5.953125 C 3.207031 -5.953125 2.835938 -5.859375 2.515625 -5.671875 C 2.203125 -5.492188 1.953125 -5.203125 1.765625 -4.796875 C 1.578125 -4.398438 1.484375 -3.894531 1.484375 -3.28125 C 1.484375 -2.65625 1.578125 -2.144531 1.765625 -1.75 C 1.953125 -1.351562 2.203125 -1.0625 2.515625 -0.875 C 2.835938 -0.6875 3.207031 -0.59375 3.625 -0.59375 C 4.09375 -0.59375 4.476562 -0.695312 4.78125 -0.90625 C 5.082031 -1.125 5.304688 -1.472656 5.453125 -1.953125 L 5.5625 -1.953125 L 6.078125 -1.703125 C 5.921875 -1.117188 5.632812 -0.671875 5.21875 -0.359375 C 4.800781 -0.0546875 4.269531 0.09375 3.625 0.09375 Z M 3.625 0.09375 "/></g></g></g><g fill="#231f20" fill-opacity="1"><g transform="translate(114.956021, 178.515799)"><g><path d="M 1.765625 -3.078125 L 1.765625 -0.640625 L 5.09375 -0.640625 L 5.09375 0 L 0.984375 0 L 0.984375 -6.546875 L 5.03125 -6.546875 L 5.03125 -5.90625 L 1.765625 -5.90625 L 1.765625 -3.71875 L 4.640625 -3.71875 L 4.640625 -3.078125 Z M 1.765625 -3.078125 "/></g></g></g><g fill="#231f20" fill-opacity="1"><g transform="translate(127.812502, 178.515799)"><g/></g></g><g fill="#231f20" fill-opacity="1"><g transform="translate(137.391337, 178.515799)"><g><path d="M 3.5625 0 L 2.546875 0 L 0.28125 -6.546875 L 1.109375 -6.546875 L 3.015625 -0.96875 L 3.140625 -0.96875 L 5.03125 -6.546875 L 5.84375 -6.546875 Z M 3.5625 0 "/></g></g></g><g fill="#231f20" fill-opacity="1"><g transform="translate(150.833591, 178.515799)"><g><path d="M 5.890625 0 L 5.0625 0 L 4.46875 -1.796875 L 1.671875 -1.796875 L 1.0625 0 L 0.265625 0 L 2.546875 -6.546875 L 3.609375 -6.546875 Z M 3.015625 -5.75 L 1.890625 -2.4375 L 4.25 -2.4375 L 3.125 -5.75 Z M 3.015625 -5.75 "/></g></g></g><g fill="#231f20" fill-opacity="1"><g transform="translate(164.311616, 178.515799)"><g><path d="M 1.765625 -6.546875 L 1.765625 -0.640625 L 4.90625 -0.640625 L 4.90625 0 L 0.984375 0 L 0.984375 -6.546875 Z M 1.765625 -6.546875 "/></g></g></g><g fill="#231f20" fill-opacity="1"><g transform="translate(176.828264, 178.515799)"><g><path d="M 1.765625 -6.546875 L 1.765625 -0.640625 L 4.90625 -0.640625 L 4.90625 0 L 0.984375 0 L 0.984375 -6.546875 Z M 1.765625 -6.546875 "/></g></g></g><g fill="#231f20" fill-opacity="1"><g transform="translate(189.344911, 178.515799)"><g><path d="M 1.765625 -3.078125 L 1.765625 -0.640625 L 5.09375 -0.640625 L 5.09375 0 L 0.984375 0 L 0.984375 -6.546875 L 5.03125 -6.546875 L 5.03125 -5.90625 L 1.765625 -5.90625 L 1.765625 -3.71875 L 4.640625 -3.71875 L 4.640625 -3.078125 Z M 1.765625 -3.078125 "/></g></g></g><g fill="#231f20" fill-opacity="1"><g transform="translate(202.201395, 178.515799)"><g><path d="M 3.203125 0 L 2.4375 0 L 2.4375 -2.578125 L 0.171875 -6.546875 L 1.015625 -6.546875 L 2.78125 -3.484375 L 2.890625 -3.484375 L 4.640625 -6.546875 L 5.46875 -6.546875 L 3.203125 -2.578125 Z M 3.203125 0 "/></g></g></g><g fill="#231f20" fill-opacity="1"><g transform="translate(215.156254, 178.515799)"><g/></g></g><g fill="#231f20" fill-opacity="1"><g transform="translate(224.73509, 178.515799)"><g><path d="M 2.859375 0.09375 C 2.453125 0.09375 2.082031 0.0390625 1.75 -0.0625 C 1.425781 -0.175781 1.15625 -0.320312 0.9375 -0.5 C 0.71875 -0.6875 0.554688 -0.890625 0.453125 -1.109375 L 0.875 -1.625 L 0.984375 -1.625 C 1.390625 -0.9375 2.015625 -0.59375 2.859375 -0.59375 C 3.347656 -0.59375 3.710938 -0.695312 3.953125 -0.90625 C 4.203125 -1.113281 4.328125 -1.398438 4.328125 -1.765625 C 4.328125 -1.984375 4.285156 -2.164062 4.203125 -2.3125 C 4.117188 -2.46875 3.984375 -2.597656 3.796875 -2.703125 C 3.617188 -2.804688 3.375 -2.894531 3.0625 -2.96875 L 2.296875 -3.15625 C 1.734375 -3.300781 1.316406 -3.519531 1.046875 -3.8125 C 0.773438 -4.113281 0.640625 -4.492188 0.640625 -4.953125 C 0.640625 -5.285156 0.722656 -5.578125 0.890625 -5.828125 C 1.054688 -6.085938 1.300781 -6.285156 1.625 -6.421875 C 1.945312 -6.566406 2.332031 -6.640625 2.78125 -6.640625 C 3.269531 -6.640625 3.679688 -6.566406 4.015625 -6.421875 C 4.359375 -6.285156 4.632812 -6.082031 4.84375 -5.8125 L 4.453125 -5.296875 L 4.34375 -5.296875 C 4.15625 -5.523438 3.929688 -5.691406 3.671875 -5.796875 C 3.421875 -5.910156 3.125 -5.96875 2.78125 -5.96875 C 2.320312 -5.96875 1.976562 -5.878906 1.75 -5.703125 C 1.519531 -5.523438 1.40625 -5.28125 1.40625 -4.96875 C 1.40625 -4.675781 1.488281 -4.441406 1.65625 -4.265625 C 1.820312 -4.097656 2.109375 -3.960938 2.515625 -3.859375 L 3.296875 -3.671875 C 3.929688 -3.523438 4.390625 -3.296875 4.671875 -2.984375 C 4.960938 -2.679688 5.109375 -2.289062 5.109375 -1.8125 C 5.109375 -1.4375 5.023438 -1.101562 4.859375 -0.8125 C 4.691406 -0.53125 4.4375 -0.304688 4.09375 -0.140625 C 3.757812 0.015625 3.347656 0.09375 2.859375 0.09375 Z M 2.859375 0.09375 "/></g></g></g><g fill="#231f20" fill-opacity="1"><g transform="translate(237.672062, 178.515799)"><g><path d="M 5.109375 -6.546875 L 5.109375 -5.890625 L 3.0625 -5.890625 L 3.0625 0 L 2.296875 0 L 2.296875 -5.890625 L 0.234375 -5.890625 L 0.234375 -6.546875 Z M 5.109375 -6.546875 "/></g></g></g><g fill="#231f20" fill-opacity="1"><g transform="translate(250.345209, 178.515799)"><g><path d="M 0.984375 0 L 0.984375 -6.546875 L 3.375 -6.546875 C 3.8125 -6.546875 4.175781 -6.472656 4.46875 -6.328125 C 4.769531 -6.179688 4.992188 -5.976562 5.140625 -5.71875 C 5.296875 -5.457031 5.375 -5.144531 5.375 -4.78125 C 5.375 -4.375 5.269531 -4.035156 5.0625 -3.765625 C 4.863281 -3.503906 4.546875 -3.3125 4.109375 -3.1875 L 4.109375 -3.078125 C 4.328125 -2.992188 4.503906 -2.863281 4.640625 -2.6875 C 4.773438 -2.507812 4.894531 -2.242188 5 -1.890625 L 5.609375 0 L 4.8125 0 L 4.171875 -2 C 4.085938 -2.238281 3.992188 -2.425781 3.890625 -2.5625 C 3.796875 -2.695312 3.671875 -2.789062 3.515625 -2.84375 C 3.359375 -2.90625 3.160156 -2.9375 2.921875 -2.9375 L 1.765625 -2.9375 L 1.765625 0 Z M 3.34375 -3.59375 C 3.757812 -3.59375 4.066406 -3.6875 4.265625 -3.875 C 4.460938 -4.0625 4.5625 -4.351562 4.5625 -4.75 C 4.5625 -5.132812 4.460938 -5.421875 4.265625 -5.609375 C 4.066406 -5.796875 3.757812 -5.890625 3.34375 -5.890625 L 1.765625 -5.890625 L 1.765625 -3.59375 Z M 3.34375 -3.59375 "/></g></g></g><g fill="#231f20" fill-opacity="1"><g transform="translate(263.733804, 178.515799)"><g><path d="M 3.59375 0.09375 C 3.019531 0.09375 2.515625 -0.0234375 2.078125 -0.265625 C 1.640625 -0.515625 1.289062 -0.890625 1.03125 -1.390625 C 0.78125 -1.898438 0.65625 -2.53125 0.65625 -3.28125 C 0.65625 -4.019531 0.78125 -4.640625 1.03125 -5.140625 C 1.289062 -5.648438 1.640625 -6.023438 2.078125 -6.265625 C 2.515625 -6.515625 3.019531 -6.640625 3.59375 -6.640625 C 4.15625 -6.640625 4.65625 -6.515625 5.09375 -6.265625 C 5.539062 -6.023438 5.890625 -5.648438 6.140625 -5.140625 C 6.398438 -4.640625 6.53125 -4.019531 6.53125 -3.28125 C 6.53125 -2.53125 6.398438 -1.898438 6.140625 -1.390625 C 5.890625 -0.890625 5.539062 -0.515625 5.09375 -0.265625 C 4.65625 -0.0234375 4.15625 0.09375 3.59375 0.09375 Z M 3.59375 -0.625 C 4.269531 -0.625 4.789062 -0.832031 5.15625 -1.25 C 5.519531 -1.675781 5.703125 -2.351562 5.703125 -3.28125 C 5.703125 -4.195312 5.519531 -4.863281 5.15625 -5.28125 C 4.789062 -5.707031 4.269531 -5.921875 3.59375 -5.921875 C 2.1875 -5.921875 1.484375 -5.039062 1.484375 -3.28125 C 1.484375 -1.507812 2.1875 -0.625 3.59375 -0.625 Z M 3.59375 -0.625 "/></g></g></g><g fill="#231f20" fill-opacity="1"><g transform="translate(278.240277, 178.515799)"><g><path d="M 3.203125 0 L 2.4375 0 L 2.4375 -2.578125 L 0.171875 -6.546875 L 1.015625 -6.546875 L 2.78125 -3.484375 L 2.890625 -3.484375 L 4.640625 -6.546875 L 5.46875 -6.546875 L 3.203125 -2.578125 Z M 3.203125 0 "/></g></g></g></svg>