<svg xmlns="http://www.w3.org/2000/svg" xmlns:xlink="http://www.w3.org/1999/xlink" width="380" zoomAndPan="magnify" viewBox="0 0 285 74.999997" height="100" preserveAspectRatio="xMidYMid meet" version="1.0"><defs><g/></defs><rect x="-28.5" width="342" fill="#ffffff" y="-7.5" height="89.999996" fill-opacity="1"/><rect x="-28.5" width="342" fill="#ffffff" y="-7.5" height="89.999996" fill-opacity="1"/><rect x="-28.5" width="342" fill="#94a8b8" y="-7.5" height="89.999996" fill-opacity="1"/><g fill="#ffffff" fill-opacity="1"><g transform="translate(130.919527, 38.549996)"><g><path d="M 2.671875 -4.097656 L 0.960938 -1.636719 L 0.433594 -1.636719 L 2.195312 -4.144531 L 0.613281 -4.144531 L 0.613281 -4.5 L 4.738281 -4.5 L 4.738281 -4.144531 L 3.148438 -4.144531 L 4.914062 -1.636719 L 4.386719 -1.636719 Z M 2.4375 0.929688 L 2.4375 -0.457031 L 0.253906 -0.457031 L 0.253906 -0.828125 L 5.089844 -0.828125 L 5.089844 -0.457031 L 2.898438 -0.457031 L 2.898438 0.929688 Z M 2.4375 0.929688 "/></g></g></g><g fill="#ffffff" fill-opacity="1"><g transform="translate(136.259521, 38.549996)"><g><path d="M 3.109375 -4.5 L 3.109375 -1.757812 L 0.46875 -1.757812 L 0.46875 -4.5 L 0.929688 -4.5 L 0.929688 -3.582031 L 2.644531 -3.582031 L 2.644531 -4.5 Z M 4.308594 -2.675781 L 4.308594 -3.503906 L 3.445312 -3.503906 L 3.445312 -3.875 L 4.308594 -3.875 L 4.308594 -4.578125 L 4.769531 -4.578125 L 4.769531 -0.523438 L 4.308594 -0.523438 L 4.308594 -2.304688 L 3.445312 -2.304688 L 3.445312 -2.675781 Z M 0.683594 0.839844 L 0.683594 -1.015625 L 1.144531 -1.015625 L 1.144531 0.46875 L 4.878906 0.46875 L 4.878906 0.839844 Z M 2.644531 -2.117188 L 2.644531 -3.222656 L 0.929688 -3.222656 L 0.929688 -2.117188 Z M 2.644531 -2.117188 "/></g></g></g><g fill="#ffffff" fill-opacity="1"><g transform="translate(141.599514, 38.549996)"><g/></g></g><g fill="#ffffff" fill-opacity="1"><g transform="translate(143.399512, 38.549996)"><g><path d="M 2.671875 -4.15625 L 0.960938 -1.15625 L 0.433594 -1.15625 L 2.40625 -4.5 L 2.945312 -4.5 L 4.914062 -1.15625 L 4.386719 -1.15625 Z M 0.253906 0.78125 L 0.253906 0.40625 L 2.4375 0.40625 L 2.4375 -1.644531 L 2.898438 -1.644531 L 2.898438 0.40625 L 5.089844 0.40625 L 5.089844 0.78125 Z M 0.253906 0.78125 "/></g></g></g><g fill="#ffffff" fill-opacity="1"><g transform="translate(148.739505, 38.549996)"><g><path d="M 3.792969 -2.308594 L 4.453125 -2.308594 L 4.453125 -4.578125 L 4.878906 -4.578125 L 4.878906 0.898438 L 4.453125 0.898438 L 4.453125 -1.9375 L 3.792969 -1.9375 L 3.792969 0.820312 L 3.367188 0.820312 L 3.367188 -4.53125 L 3.792969 -4.53125 Z M 0.484375 -4.5 L 2.574219 -4.5 L 2.292969 0.792969 L 1.8125 0.792969 L 2.089844 -4.128906 L 0.484375 -4.128906 Z M 0.484375 -4.5 "/></g></g></g></svg>