<svg xmlns="http://www.w3.org/2000/svg" xmlns:xlink="http://www.w3.org/1999/xlink" width="380" zoomAndPan="magnify" viewBox="0 0 285 74.999997" height="100" preserveAspectRatio="xMidYMid meet" version="1.0"><defs><g/></defs><rect x="-28.5" width="342" fill="#ffffff" y="-7.5" height="89.999996" fill-opacity="1"/><rect x="-28.5" width="342" fill="#ffffff" y="-7.5" height="89.999996" fill-opacity="1"/><rect x="-28.5" width="342" fill="#94a8b8" y="-7.5" height="89.999996" fill-opacity="1"/><g fill="#ffffff" fill-opacity="1"><g transform="translate(120.239842, 38.549996)"><g><path d="M 1.300781 -2.023438 C 1.183594 -2.023438 1.066406 -2.039062 0.972656 -2.089844 C 0.863281 -2.125 0.78125 -2.183594 0.707031 -2.261719 C 0.628906 -2.335938 0.570312 -2.417969 0.535156 -2.527344 C 0.484375 -2.621094 0.46875 -2.734375 0.46875 -2.855469 L 0.46875 -3.664062 C 0.46875 -3.785156 0.484375 -3.894531 0.535156 -4.003906 C 0.570312 -4.097656 0.628906 -4.1875 0.707031 -4.265625 C 0.78125 -4.339844 0.863281 -4.390625 0.972656 -4.441406 C 1.066406 -4.476562 1.183594 -4.5 1.300781 -4.5 L 2.273438 -4.5 C 2.394531 -4.5 2.503906 -4.476562 2.609375 -4.441406 C 2.707031 -4.390625 2.796875 -4.339844 2.875 -4.265625 C 2.945312 -4.1875 3 -4.097656 3.046875 -4.003906 C 3.085938 -3.894531 3.109375 -3.785156 3.109375 -3.664062 L 3.109375 -2.855469 C 3.109375 -2.734375 3.085938 -2.621094 3.046875 -2.527344 C 3 -2.417969 2.945312 -2.335938 2.875 -2.261719 C 2.796875 -2.183594 2.707031 -2.125 2.609375 -2.089844 C 2.503906 -2.039062 2.394531 -2.023438 2.273438 -2.023438 Z M 0.683594 0.898438 L 0.683594 -0.4375 L 4.308594 -0.4375 L 4.308594 -1.0625 L 0.683594 -1.0625 L 0.683594 -1.421875 L 4.769531 -1.421875 L 4.769531 -0.0859375 L 1.144531 -0.0859375 L 1.144531 0.539062 L 4.878906 0.539062 L 4.878906 0.898438 Z M 2.644531 -3.617188 C 2.644531 -3.761719 2.597656 -3.886719 2.503906 -3.984375 C 2.40625 -4.078125 2.28125 -4.128906 2.136719 -4.128906 L 1.441406 -4.128906 C 1.289062 -4.128906 1.171875 -4.078125 1.074219 -3.984375 C 0.976562 -3.886719 0.929688 -3.761719 0.929688 -3.617188 L 0.929688 -2.902344 C 0.929688 -2.753906 0.976562 -2.632812 1.074219 -2.539062 C 1.171875 -2.441406 1.289062 -2.394531 1.441406 -2.394531 L 2.136719 -2.394531 C 2.28125 -2.394531 2.40625 -2.441406 2.503906 -2.539062 C 2.597656 -2.632812 2.644531 -2.753906 2.644531 -2.902344 Z M 4.308594 -3.425781 L 4.308594 -4.578125 L 4.769531 -4.578125 L 4.769531 -1.78125 L 4.308594 -1.78125 L 4.308594 -3.054688 L 3.445312 -3.054688 L 3.445312 -3.425781 Z M 4.308594 -3.425781 "/></g></g></g><g fill="#ffffff" fill-opacity="1"><g transform="translate(125.579836, 38.549996)"><g><path d="M 0.605469 0.898438 L 0.605469 -1.003906 L 4.738281 -1.003906 L 4.738281 0.898438 Z M 4.277344 -0.628906 L 1.066406 -0.628906 L 1.066406 0.527344 L 4.277344 0.527344 Z M 0.253906 -1.578125 L 0.253906 -1.949219 L 5.089844 -1.949219 L 5.089844 -1.578125 Z M 1.289062 -2.519531 C 1.078125 -2.519531 0.910156 -2.585938 0.78125 -2.722656 C 0.640625 -2.855469 0.574219 -3.023438 0.574219 -3.234375 L 0.574219 -3.785156 C 0.574219 -3.988281 0.640625 -4.164062 0.78125 -4.300781 C 0.910156 -4.433594 1.078125 -4.507812 1.289062 -4.507812 L 4.0625 -4.507812 C 4.265625 -4.507812 4.441406 -4.433594 4.578125 -4.300781 C 4.710938 -4.164062 4.777344 -3.988281 4.777344 -3.785156 L 4.777344 -3.234375 C 4.777344 -3.023438 4.710938 -2.855469 4.578125 -2.722656 C 4.441406 -2.585938 4.265625 -2.519531 4.0625 -2.519531 Z M 4.3125 -3.742188 C 4.3125 -3.851562 4.273438 -3.949219 4.199219 -4.027344 C 4.121094 -4.097656 4.027344 -4.132812 3.917969 -4.132812 L 1.421875 -4.132812 C 1.308594 -4.132812 1.21875 -4.097656 1.144531 -4.027344 C 1.066406 -3.949219 1.03125 -3.851562 1.03125 -3.742188 L 1.03125 -3.277344 C 1.03125 -3.160156 1.066406 -3.070312 1.144531 -3 C 1.21875 -2.929688 1.308594 -2.890625 1.421875 -2.890625 L 3.917969 -2.890625 C 4.027344 -2.890625 4.121094 -2.929688 4.199219 -3 C 4.273438 -3.070312 4.3125 -3.160156 4.3125 -3.277344 Z M 4.3125 -3.742188 "/></g></g></g><g fill="#ffffff" fill-opacity="1"><g transform="translate(130.919829, 38.549996)"><g><path d="M 0.605469 0.898438 L 0.605469 -0.382812 L 4.285156 -0.382812 L 4.285156 -0.984375 L 0.605469 -0.984375 L 0.605469 -1.332031 L 4.746094 -1.332031 L 4.746094 -0.0351562 L 1.066406 -0.0351562 L 1.066406 0.550781 L 4.84375 0.550781 L 4.84375 0.898438 Z M 0.253906 -1.847656 L 0.253906 -2.21875 L 2.101562 -2.21875 L 2.101562 -3.347656 L 2.5625 -3.347656 L 2.5625 -2.21875 L 5.089844 -2.21875 L 5.089844 -1.847656 Z M 4.109375 -2.640625 L 4.253906 -4.132812 L 0.636719 -4.132812 L 0.636719 -4.507812 L 4.722656 -4.507812 L 4.546875 -2.640625 Z M 4.109375 -2.640625 "/></g></g></g><g fill="#ffffff" fill-opacity="1"><g transform="translate(136.259823, 38.549996)"><g><path d="M 4.769531 0.898438 L 4.308594 0.898438 L 4.308594 -4.578125 L 4.769531 -4.578125 Z M 1.300781 0.792969 C 1.183594 0.792969 1.066406 0.769531 0.972656 0.730469 C 0.863281 0.683594 0.78125 0.628906 0.707031 0.558594 C 0.628906 0.480469 0.570312 0.390625 0.535156 0.292969 C 0.484375 0.1875 0.46875 0.078125 0.46875 -0.0429688 L 0.46875 -3.664062 C 0.46875 -3.785156 0.484375 -3.894531 0.535156 -4.003906 C 0.570312 -4.097656 0.628906 -4.1875 0.707031 -4.265625 C 0.78125 -4.339844 0.863281 -4.390625 0.972656 -4.441406 C 1.066406 -4.476562 1.183594 -4.5 1.300781 -4.5 L 2.273438 -4.5 C 2.394531 -4.5 2.503906 -4.476562 2.609375 -4.441406 C 2.707031 -4.390625 2.796875 -4.339844 2.875 -4.265625 C 2.945312 -4.1875 3 -4.097656 3.046875 -4.003906 C 3.085938 -3.894531 3.109375 -3.785156 3.109375 -3.664062 L 3.109375 -0.0429688 C 3.109375 0.078125 3.085938 0.1875 3.046875 0.292969 C 3 0.390625 2.945312 0.480469 2.875 0.558594 C 2.796875 0.628906 2.707031 0.683594 2.609375 0.730469 C 2.503906 0.769531 2.394531 0.792969 2.273438 0.792969 Z M 2.644531 -3.617188 C 2.644531 -3.761719 2.597656 -3.886719 2.503906 -3.984375 C 2.40625 -4.078125 2.28125 -4.128906 2.136719 -4.128906 L 1.441406 -4.128906 C 1.289062 -4.128906 1.171875 -4.078125 1.074219 -3.984375 C 0.976562 -3.886719 0.929688 -3.761719 0.929688 -3.617188 L 0.929688 -0.0898438 C 0.929688 0.0546875 0.976562 0.179688 1.074219 0.277344 C 1.171875 0.371094 1.289062 0.421875 1.441406 0.421875 L 2.136719 0.421875 C 2.28125 0.421875 2.40625 0.371094 2.503906 0.277344 C 2.597656 0.179688 2.644531 0.0546875 2.644531 -0.0898438 Z M 2.644531 -3.617188 "/></g></g></g><g fill="#ffffff" fill-opacity="1"><g transform="translate(141.599817, 38.549996)"><g><path d="M 1.246094 0.792969 C 1.128906 0.792969 1.015625 0.769531 0.917969 0.730469 C 0.808594 0.683594 0.726562 0.628906 0.652344 0.558594 C 0.574219 0.480469 0.515625 0.390625 0.480469 0.292969 C 0.433594 0.1875 0.414062 0.078125 0.414062 -0.0429688 L 0.414062 -3.664062 C 0.414062 -3.785156 0.433594 -3.894531 0.480469 -4.003906 C 0.515625 -4.097656 0.574219 -4.1875 0.652344 -4.265625 C 0.726562 -4.339844 0.808594 -4.390625 0.917969 -4.441406 C 1.015625 -4.476562 1.128906 -4.5 1.246094 -4.5 L 2.21875 -4.5 C 2.339844 -4.5 2.449219 -4.476562 2.554688 -4.441406 C 2.652344 -4.390625 2.742188 -4.339844 2.820312 -4.265625 C 2.890625 -4.1875 2.945312 -4.097656 2.992188 -4.003906 C 3.03125 -3.894531 3.054688 -3.785156 3.054688 -3.664062 L 3.054688 -0.0429688 C 3.054688 0.078125 3.03125 0.1875 2.992188 0.292969 C 2.945312 0.390625 2.890625 0.480469 2.820312 0.558594 C 2.742188 0.628906 2.652344 0.683594 2.554688 0.730469 C 2.449219 0.769531 2.339844 0.792969 2.21875 0.792969 Z M 2.59375 -3.617188 C 2.59375 -3.761719 2.542969 -3.886719 2.449219 -3.984375 C 2.351562 -4.078125 2.226562 -4.128906 2.082031 -4.128906 L 1.386719 -4.128906 C 1.234375 -4.128906 1.117188 -4.078125 1.019531 -3.984375 C 0.925781 -3.886719 0.875 -3.761719 0.875 -3.617188 L 0.875 -0.0898438 C 0.875 0.0546875 0.925781 0.179688 1.019531 0.277344 C 1.117188 0.371094 1.234375 0.421875 1.386719 0.421875 L 2.082031 0.421875 C 2.226562 0.421875 2.351562 0.371094 2.449219 0.277344 C 2.542969 0.179688 2.59375 0.0546875 2.59375 -0.0898438 Z M 4.5 -3.167969 L 5.214844 -3.167969 L 5.214844 -2.796875 L 4.5 -2.796875 L 4.5 -1.195312 L 5.214844 -1.195312 L 5.214844 -0.820312 L 4.5 -0.820312 L 4.5 0.898438 L 4.039062 0.898438 L 4.039062 -4.578125 L 4.5 -4.578125 Z M 4.5 -3.167969 "/></g></g></g><g fill="#ffffff" fill-opacity="1"><g transform="translate(146.93981, 38.549996)"><g><path d="M 4.769531 0.898438 L 4.308594 0.898438 L 4.308594 -4.578125 L 4.769531 -4.578125 Z M 0.46875 -4.5 L 2.867188 -4.5 L 2.585938 0.792969 L 2.105469 0.792969 L 2.382812 -4.128906 L 0.46875 -4.128906 Z M 0.46875 -4.5 "/></g></g></g><g fill="#ffffff" fill-opacity="1"><g transform="translate(152.279804, 38.549996)"><g/></g></g><g fill="#ffffff" fill-opacity="1"><g transform="translate(154.079801, 38.549996)"><g><path d="M 2.671875 -4.15625 L 0.960938 -1.15625 L 0.433594 -1.15625 L 2.40625 -4.5 L 2.945312 -4.5 L 4.914062 -1.15625 L 4.386719 -1.15625 Z M 0.253906 0.78125 L 0.253906 0.40625 L 2.4375 0.40625 L 2.4375 -1.644531 L 2.898438 -1.644531 L 2.898438 0.40625 L 5.089844 0.40625 L 5.089844 0.78125 Z M 0.253906 0.78125 "/></g></g></g><g fill="#ffffff" fill-opacity="1"><g transform="translate(159.419795, 38.549996)"><g><path d="M 3.792969 -2.308594 L 4.453125 -2.308594 L 4.453125 -4.578125 L 4.878906 -4.578125 L 4.878906 0.898438 L 4.453125 0.898438 L 4.453125 -1.9375 L 3.792969 -1.9375 L 3.792969 0.820312 L 3.367188 0.820312 L 3.367188 -4.53125 L 3.792969 -4.53125 Z M 0.484375 -4.5 L 2.574219 -4.5 L 2.292969 0.792969 L 1.8125 0.792969 L 2.089844 -4.128906 L 0.484375 -4.128906 Z M 0.484375 -4.5 "/></g></g></g></svg>