<svg xmlns="http://www.w3.org/2000/svg" xmlns:xlink="http://www.w3.org/1999/xlink" width="380" zoomAndPan="magnify" viewBox="0 0 285 74.999997" height="100" preserveAspectRatio="xMidYMid meet" version="1.0"><defs><g/></defs><rect x="-28.5" width="342" fill="#ffffff" y="-7.5" height="89.999996" fill-opacity="1"/><rect x="-28.5" width="342" fill="#ffffff" y="-7.5" height="89.999996" fill-opacity="1"/><rect x="-28.5" width="342" fill="#94a8b8" y="-7.5" height="89.999996" fill-opacity="1"/><g fill="#ffffff" fill-opacity="1"><g transform="translate(131.819527, 38.549996)"><g><path d="M 0.636719 -2.347656 L 0.636719 -4.507812 L 4.714844 -4.507812 L 4.714844 -2.347656 Z M 4.253906 -4.132812 L 1.097656 -4.132812 L 1.097656 -2.71875 L 4.253906 -2.71875 Z M 2.4375 -0.277344 L 2.4375 -1.34375 L 0.253906 -1.34375 L 0.253906 -1.714844 L 5.089844 -1.714844 L 5.089844 -1.34375 L 2.898438 -1.34375 L 2.898438 -0.277344 Z M 0.605469 0.898438 L 0.605469 -0.714844 L 1.074219 -0.714844 L 1.074219 0.527344 L 4.792969 0.527344 L 4.792969 0.898438 Z M 0.605469 0.898438 "/></g></g></g><g fill="#ffffff" fill-opacity="1"><g transform="translate(137.15952, 38.549996)"><g><path d="M 1.414062 -0.917969 C 1.296875 -0.917969 1.183594 -0.9375 1.085938 -0.984375 C 0.976562 -1.019531 0.894531 -1.078125 0.820312 -1.15625 C 0.742188 -1.230469 0.683594 -1.3125 0.648438 -1.421875 C 0.601562 -1.519531 0.582031 -1.632812 0.582031 -1.753906 L 0.582031 -3.664062 C 0.582031 -3.785156 0.601562 -3.894531 0.648438 -4.003906 C 0.683594 -4.097656 0.742188 -4.1875 0.820312 -4.265625 C 0.894531 -4.339844 0.976562 -4.390625 1.085938 -4.441406 C 1.183594 -4.476562 1.296875 -4.5 1.414062 -4.5 L 2.605469 -4.5 C 2.722656 -4.5 2.832031 -4.476562 2.941406 -4.441406 C 3.035156 -4.390625 3.125 -4.339844 3.203125 -4.265625 C 3.277344 -4.1875 3.328125 -4.097656 3.378906 -4.003906 C 3.414062 -3.894531 3.4375 -3.785156 3.4375 -3.664062 L 3.4375 -1.753906 C 3.4375 -1.632812 3.414062 -1.519531 3.378906 -1.421875 C 3.328125 -1.3125 3.277344 -1.230469 3.203125 -1.15625 C 3.125 -1.078125 3.035156 -1.019531 2.941406 -0.984375 C 2.832031 -0.9375 2.722656 -0.917969 2.605469 -0.917969 Z M 2.976562 -3.617188 C 2.976562 -3.761719 2.929688 -3.886719 2.832031 -3.984375 C 2.734375 -4.078125 2.609375 -4.128906 2.464844 -4.128906 L 1.554688 -4.128906 C 1.402344 -4.128906 1.285156 -4.078125 1.1875 -3.984375 C 1.09375 -3.886719 1.042969 -3.761719 1.042969 -3.617188 L 1.042969 -1.800781 C 1.042969 -1.648438 1.09375 -1.53125 1.1875 -1.433594 C 1.285156 -1.339844 1.402344 -1.289062 1.554688 -1.289062 L 2.464844 -1.289062 C 2.609375 -1.289062 2.734375 -1.339844 2.832031 -1.433594 C 2.929688 -1.53125 2.976562 -1.648438 2.976562 -1.800781 Z M 4.308594 0.121094 L 4.308594 -4.578125 L 4.769531 -4.578125 L 4.769531 0.898438 L 4.308594 0.898438 L 4.308594 0.492188 L 0.277344 0.492188 L 0.277344 0.121094 Z M 4.308594 0.121094 "/></g></g></g><g fill="#ffffff" fill-opacity="1"><g transform="translate(142.499514, 38.549996)"><g><path d="M 1.308594 0.792969 C 1.1875 0.792969 1.074219 0.769531 0.976562 0.730469 C 0.871094 0.683594 0.785156 0.628906 0.714844 0.558594 C 0.636719 0.480469 0.574219 0.390625 0.539062 0.292969 C 0.492188 0.1875 0.472656 0.078125 0.472656 -0.0429688 L 0.472656 -1.78125 C 0.472656 -1.902344 0.492188 -2.011719 0.539062 -2.117188 C 0.574219 -2.214844 0.636719 -2.304688 0.714844 -2.382812 C 0.785156 -2.453125 0.871094 -2.507812 0.976562 -2.554688 C 1.074219 -2.59375 1.1875 -2.617188 1.308594 -2.617188 L 2.160156 -2.617188 C 2.28125 -2.617188 2.386719 -2.59375 2.496094 -2.554688 C 2.59375 -2.507812 2.683594 -2.453125 2.761719 -2.382812 C 2.832031 -2.304688 2.886719 -2.214844 2.933594 -2.117188 C 2.96875 -2.011719 2.992188 -1.902344 2.992188 -1.78125 L 2.992188 -0.0429688 C 2.992188 0.078125 2.96875 0.1875 2.933594 0.292969 C 2.886719 0.390625 2.832031 0.480469 2.761719 0.558594 C 2.683594 0.628906 2.59375 0.683594 2.496094 0.730469 C 2.386719 0.769531 2.28125 0.792969 2.160156 0.792969 Z M 2.53125 -1.734375 C 2.53125 -1.878906 2.484375 -2.003906 2.386719 -2.101562 C 2.292969 -2.195312 2.164062 -2.242188 2.023438 -2.242188 L 1.445312 -2.242188 C 1.296875 -2.242188 1.175781 -2.195312 1.078125 -2.101562 C 0.984375 -2.003906 0.9375 -1.878906 0.9375 -1.734375 L 0.9375 -0.0898438 C 0.9375 0.0546875 0.984375 0.179688 1.078125 0.277344 C 1.175781 0.371094 1.296875 0.421875 1.445312 0.421875 L 2.023438 0.421875 C 2.164062 0.421875 2.292969 0.371094 2.386719 0.277344 C 2.484375 0.179688 2.53125 0.0546875 2.53125 -0.0898438 Z M 4.5 -2.308594 L 5.214844 -2.308594 L 5.214844 -1.9375 L 4.5 -1.9375 L 4.5 0.898438 L 4.039062 0.898438 L 4.039062 -4.578125 L 4.5 -4.578125 Z M 3.378906 -3.582031 L 3.378906 -3.210938 L 0.144531 -3.210938 L 0.144531 -3.582031 Z M 2.722656 -4.558594 L 2.722656 -4.1875 L 0.796875 -4.1875 L 0.796875 -4.558594 Z M 2.722656 -4.558594 "/></g></g></g><g fill="#ffffff" fill-opacity="1"><g transform="translate(147.839508, 38.549996)"><g><path d="M 4.769531 0.898438 L 4.308594 0.898438 L 4.308594 -4.578125 L 4.769531 -4.578125 Z M 0.46875 -4.5 L 2.867188 -4.5 L 2.585938 0.792969 L 2.105469 0.792969 L 2.382812 -4.128906 L 0.46875 -4.128906 Z M 0.46875 -4.5 "/></g></g></g></svg>