<svg xmlns="http://www.w3.org/2000/svg" xmlns:xlink="http://www.w3.org/1999/xlink" width="380" zoomAndPan="magnify" viewBox="0 0 285 374.999991" height="500" preserveAspectRatio="xMidYMid meet" version="1.0"><defs><g/><clipPath id="1141afae01"><path d="M 70 250.886719 L 102.832031 250.886719 L 102.832031 261 L 70 261 Z M 70 250.886719 " clip-rule="nonzero"/></clipPath><clipPath id="21c8c5cf45"><path d="M 84 270 L 89 270 L 89 274.886719 L 84 274.886719 Z M 84 270 " clip-rule="nonzero"/></clipPath><clipPath id="a5a2b086dd"><path d="M 170.398438 251.144531 L 213.148438 251.144531 L 213.148438 278.144531 L 170.398438 278.144531 Z M 170.398438 251.144531 " clip-rule="nonzero"/></clipPath><clipPath id="66945b09a2"><path d="M 73.304688 298.46875 L 99.554688 298.46875 L 99.554688 333.71875 L 73.304688 333.71875 Z M 73.304688 298.46875 " clip-rule="nonzero"/></clipPath><clipPath id="15f1f0a851"><path d="M 126.933594 295.5625 L 138 295.5625 L 138 333.0625 L 126.933594 333.0625 Z M 126.933594 295.5625 " clip-rule="nonzero"/></clipPath><clipPath id="cc9af5f76a"><path d="M 140 297 L 147.183594 297 L 147.183594 333 L 140 333 Z M 140 297 " clip-rule="nonzero"/></clipPath><clipPath id="32b943020c"><path d="M 113.523438 250.886719 L 159.273438 250.886719 L 159.273438 269 L 113.523438 269 Z M 113.523438 250.886719 " clip-rule="nonzero"/></clipPath><clipPath id="90fb1972d0"><path d="M 137 268 L 147 268 L 147 277.886719 L 137 277.886719 Z M 137 268 " clip-rule="nonzero"/></clipPath><clipPath id="bb56869cda"><path d="M 126 268 L 136 268 L 136 277.886719 L 126 277.886719 Z M 126 268 " clip-rule="nonzero"/></clipPath><clipPath id="012e6a75a5"><path d="M 170.398438 304.03125 L 213.148438 304.03125 L 213.148438 332.53125 L 170.398438 332.53125 Z M 170.398438 304.03125 " clip-rule="nonzero"/></clipPath></defs><rect x="-28.5" width="342" fill="#ffffff" y="-37.499999" height="449.999989" fill-opacity="1"/><rect x="-28.5" width="342" fill="#ffffff" y="-37.499999" height="449.999989" fill-opacity="1"/><rect x="-28.5" width="342" fill="#ffffff" y="-37.499999" height="449.999989" fill-opacity="1"/><g clip-path="url(#1141afae01)"><path fill="#737373" d="M 102.117188 257.421875 C 99.988281 255.292969 97.5 253.644531 94.730469 252.523438 C 92.054688 251.4375 89.230469 250.890625 86.332031 250.890625 C 83.433594 250.890625 80.609375 251.4375 77.933594 252.523438 C 75.164062 253.644531 72.675781 255.292969 70.546875 257.421875 C 69.832031 258.132812 69.832031 259.285156 70.546875 259.996094 C 71.257812 260.710938 72.414062 260.710938 73.128906 259.996094 C 80.410156 252.730469 92.253906 252.730469 99.535156 259.996094 C 99.890625 260.355469 100.359375 260.53125 100.828125 260.53125 C 101.292969 260.53125 101.761719 260.355469 102.117188 259.996094 C 102.832031 259.285156 102.832031 258.132812 102.117188 257.421875 Z M 102.117188 257.421875 " fill-opacity="1" fill-rule="nonzero"/></g><path fill="#737373" d="M 86.328125 257.523438 C 82.101562 257.523438 78.121094 259.167969 75.128906 262.15625 C 74.453125 262.832031 74.453125 263.921875 75.128906 264.59375 C 75.804688 265.265625 76.898438 265.265625 77.570312 264.59375 C 82.398438 259.773438 90.257812 259.773438 95.085938 264.59375 C 95.421875 264.929688 95.863281 265.097656 96.304688 265.097656 C 96.746094 265.097656 97.1875 264.929688 97.527344 264.59375 C 98.199219 263.921875 98.199219 262.832031 97.527344 262.15625 C 94.53125 259.167969 90.554688 257.523438 86.328125 257.523438 Z M 86.328125 257.523438 " fill-opacity="1" fill-rule="nonzero"/><path fill="#737373" d="M 86.328125 263.742188 C 83.757812 263.742188 81.339844 264.742188 79.519531 266.558594 C 78.847656 267.230469 78.847656 268.316406 79.519531 268.984375 C 80.191406 269.652344 81.277344 269.652344 81.949219 268.984375 C 84.363281 266.574219 88.292969 266.574219 90.707031 268.984375 C 91.042969 269.320312 91.484375 269.488281 91.921875 269.488281 C 92.363281 269.488281 92.800781 269.320312 93.136719 268.984375 C 93.808594 268.316406 93.808594 267.230469 93.136719 266.558594 C 91.316406 264.742188 88.898438 263.742188 86.328125 263.742188 Z M 86.328125 263.742188 " fill-opacity="1" fill-rule="nonzero"/><g clip-path="url(#21c8c5cf45)"><path fill="#737373" d="M 88.417969 272.773438 C 88.417969 273.050781 88.363281 273.320312 88.257812 273.578125 C 88.148438 273.839844 87.996094 274.066406 87.800781 274.265625 C 87.601562 274.460938 87.371094 274.613281 87.113281 274.722656 C 86.855469 274.828125 86.585938 274.882812 86.304688 274.882812 C 86.023438 274.882812 85.753906 274.828125 85.496094 274.722656 C 85.234375 274.613281 85.007812 274.460938 84.808594 274.265625 C 84.609375 274.066406 84.457031 273.839844 84.351562 273.578125 C 84.242188 273.320312 84.191406 273.050781 84.191406 272.773438 C 84.191406 272.492188 84.242188 272.222656 84.351562 271.964844 C 84.457031 271.707031 84.609375 271.476562 84.808594 271.28125 C 85.007812 271.082031 85.234375 270.929688 85.496094 270.824219 C 85.753906 270.714844 86.023438 270.664062 86.304688 270.664062 C 86.585938 270.664062 86.855469 270.714844 87.113281 270.824219 C 87.371094 270.929688 87.601562 271.082031 87.800781 271.28125 C 87.996094 271.476562 88.148438 271.707031 88.257812 271.964844 C 88.363281 272.222656 88.417969 272.492188 88.417969 272.773438 Z M 88.417969 272.773438 " fill-opacity="1" fill-rule="nonzero"/></g><g clip-path="url(#a5a2b086dd)"><path fill="#737373" d="M 171.609375 251.140625 C 170.949219 251.140625 170.417969 251.675781 170.417969 252.339844 L 170.417969 273.546875 C 170.417969 274.210938 170.949219 274.746094 171.609375 274.746094 L 189.671875 274.746094 C 189.203125 275.453125 188.675781 276.355469 188.585938 276.964844 L 186.429688 276.964844 C 186.34375 276.964844 186.273438 277.035156 186.273438 277.121094 L 186.273438 277.984375 C 186.273438 278.074219 186.34375 278.144531 186.429688 278.144531 L 197.113281 278.144531 C 197.203125 278.144531 197.273438 278.074219 197.273438 277.984375 L 197.273438 277.121094 C 197.273438 277.035156 197.203125 276.964844 197.113281 276.964844 L 194.957031 276.964844 C 194.871094 276.355469 194.34375 275.453125 193.875 274.746094 L 211.933594 274.746094 C 212.597656 274.746094 213.128906 274.210938 213.128906 273.546875 L 213.128906 252.339844 C 213.128906 251.675781 212.597656 251.140625 211.933594 251.140625 Z M 171.378906 252.421875 L 212.167969 252.421875 L 212.167969 273.464844 L 171.378906 273.464844 Z M 171.378906 252.421875 " fill-opacity="1" fill-rule="nonzero"/></g><g clip-path="url(#66945b09a2)"><path fill="#737373" d="M 96.699219 301.761719 L 96.992188 301.761719 L 97.148438 301.519531 C 97.484375 301.011719 98.636719 299.558594 99.554688 299.558594 L 99.554688 298.496094 L 86.761719 298.496094 L 86.761719 301.769531 L 89.636719 301.769531 L 89.636719 302.800781 L 88.414062 302.800781 L 88.414062 305.976562 C 87.117188 306.632812 86.066406 307.683594 85.398438 308.972656 L 77.835938 308.972656 L 77.671875 309.164062 C 74.855469 312.578125 73.304688 316.90625 73.304688 321.332031 C 73.304688 325.761719 74.855469 330.089844 77.671875 333.503906 L 77.835938 333.695312 L 98.4375 333.695312 L 98.4375 312.089844 C 98.4375 309.425781 96.898438 307.109375 94.664062 305.96875 L 94.664062 302.789062 L 93.441406 302.789062 L 93.441406 301.761719 Z M 82.65625 310.019531 C 82.445312 310.539062 81.9375 310.90625 81.339844 310.90625 C 80.742188 310.90625 80.238281 310.539062 80.027344 310.019531 Z M 74.371094 321.324219 C 74.371094 318.796875 74.910156 316.296875 75.921875 314.007812 L 80.226562 314.007812 C 77.863281 317.238281 76.574219 321.164062 76.574219 325.179688 C 76.574219 327.53125 76.996094 329.804688 77.828125 331.957031 C 75.59375 328.882812 74.371094 325.152344 74.371094 321.324219 Z M 84.640625 332.632812 L 79.273438 332.632812 C 78.199219 330.285156 77.648438 327.785156 77.648438 325.179688 C 77.648438 321.128906 79.042969 317.167969 81.570312 314.007812 L 84.640625 314.007812 Z M 84.640625 312.082031 L 84.640625 312.9375 L 76.433594 312.9375 C 76.972656 311.910156 77.605469 310.925781 78.339844 310.019531 L 78.910156 310.019531 C 79.152344 311.132812 80.148438 311.96875 81.339844 311.96875 C 82.535156 311.96875 83.527344 311.132812 83.773438 310.019531 L 84.96875 310.019531 C 84.757812 310.679688 84.640625 311.367188 84.640625 312.082031 Z M 97.367188 332.632812 L 85.710938 332.632812 L 85.710938 325.972656 L 97.367188 325.972656 Z M 97.367188 324.910156 L 85.710938 324.910156 L 85.710938 314.007812 L 97.367188 314.007812 Z M 97.367188 312.082031 L 97.367188 312.9375 L 85.710938 312.9375 L 85.710938 312.082031 C 85.710938 308.878906 88.328125 306.28125 91.535156 306.28125 C 94.742188 306.28125 97.367188 308.878906 97.367188 312.082031 Z M 93.597656 303.851562 L 93.597656 305.527344 C 92.953125 305.324219 92.253906 305.21875 91.542969 305.21875 C 90.824219 305.21875 90.132812 305.324219 89.488281 305.527344 L 89.488281 303.851562 Z M 90.703125 302.789062 L 90.703125 301.761719 L 92.367188 301.761719 L 92.367188 302.796875 L 90.703125 302.796875 Z M 87.828125 300.699219 L 87.828125 299.550781 L 97.40625 299.550781 C 96.957031 299.96875 96.609375 300.421875 96.410156 300.699219 Z M 87.828125 300.699219 " fill-opacity="1" fill-rule="nonzero"/></g><path fill="#737373" d="M 96.300781 315.070312 L 86.777344 315.070312 L 86.777344 323.839844 L 96.300781 323.839844 Z M 95.234375 322.785156 L 87.84375 322.785156 L 87.84375 316.140625 L 95.234375 316.140625 Z M 95.234375 322.785156 " fill-opacity="1" fill-rule="nonzero"/><g clip-path="url(#15f1f0a851)"><path fill="#737373" d="M 132.019531 295.585938 C 133.472656 295.585938 134.769531 296.472656 135.6875 297.898438 C 136.5625 299.25 137.101562 301.105469 137.101562 303.144531 C 137.101562 304.726562 136.773438 306.199219 136.222656 307.410156 C 135.699219 308.554688 134.96875 309.46875 134.109375 310.042969 L 134.871094 330.257812 L 134.875 330.355469 C 134.875 331.082031 134.566406 331.742188 134.078125 332.226562 C 133.59375 332.703125 132.929688 333.007812 132.210938 333.035156 C 132.132812 333.039062 132.082031 333.039062 132.003906 333.035156 C 130.5625 332.980469 129.335938 331.816406 129.335938 330.355469 L 129.339844 330.257812 L 130.101562 310.15625 C 129.195312 309.613281 128.425781 308.695312 127.871094 307.53125 C 127.285156 306.300781 126.9375 304.78125 126.9375 303.144531 C 126.9375 301.105469 127.476562 299.25 128.347656 297.898438 C 129.265625 296.472656 130.5625 295.585938 132.019531 295.585938 Z M 134.703125 298.53125 C 133.996094 297.433594 133.046875 296.757812 132.019531 296.757812 C 130.988281 296.757812 130.039062 297.433594 129.332031 298.53125 C 128.578125 299.703125 128.109375 301.332031 128.109375 303.144531 C 128.109375 304.609375 128.414062 305.953125 128.929688 307.035156 C 129.433594 308.089844 130.132812 308.886719 130.933594 309.273438 C 131.148438 309.367188 131.296875 309.585938 131.285156 309.832031 L 130.511719 330.296875 C 130.507812 330.3125 130.511719 330.300781 130.511719 330.355469 C 130.511719 331.183594 131.238281 331.839844 132.042969 331.867188 C 132.078125 331.871094 132.132812 331.871094 132.167969 331.867188 C 132.585938 331.851562 132.972656 331.675781 133.257812 331.394531 C 133.53125 331.125 133.703125 330.757812 133.703125 330.355469 C 133.703125 330.300781 133.703125 330.3125 133.703125 330.296875 L 132.929688 309.792969 C 132.898438 309.5625 133.011719 309.328125 133.230469 309.210938 C 134.003906 308.789062 134.675781 307.980469 135.15625 306.925781 C 135.640625 305.863281 135.925781 304.5625 135.925781 303.144531 C 135.925781 301.332031 135.460938 299.703125 134.703125 298.53125 Z M 134.703125 298.53125 " fill-opacity="1" fill-rule="nonzero"/></g><g clip-path="url(#cc9af5f76a)"><path fill="#737373" d="M 141.351562 297.726562 C 141.351562 297.402344 141.085938 297.140625 140.761719 297.140625 C 140.4375 297.140625 140.175781 297.402344 140.175781 297.726562 L 140.175781 307.0625 C 140.175781 307.191406 140.21875 307.308594 140.289062 307.40625 L 141.679688 309.535156 L 140.914062 329.8125 L 140.910156 329.910156 C 140.910156 330.640625 141.21875 331.300781 141.707031 331.785156 C 141.71875 331.796875 141.730469 331.808594 141.746094 331.816406 C 142.84375 332.863281 144.570312 332.851562 145.652344 331.785156 C 145.664062 331.773438 145.675781 331.757812 145.6875 331.746094 C 146.15625 331.265625 146.449219 330.621094 146.449219 329.910156 L 146.445312 329.8125 L 145.679688 309.535156 L 147.085938 307.382812 C 147.152344 307.285156 147.183594 307.171875 147.183594 307.0625 L 147.183594 297.726562 C 147.183594 297.402344 146.917969 297.140625 146.597656 297.140625 C 146.273438 297.140625 146.007812 297.402344 146.007812 297.726562 L 146.007812 306.890625 L 144.613281 309.023438 C 144.539062 309.125 144.496094 309.253906 144.5 309.390625 L 144.503906 309.390625 L 145.277344 329.855469 C 145.277344 329.867188 145.273438 329.855469 145.273438 329.910156 C 145.273438 330.300781 145.113281 330.660156 144.855469 330.925781 C 144.84375 330.933594 144.835938 330.941406 144.828125 330.953125 C 144.195312 331.574219 143.199219 331.582031 142.558594 330.980469 C 142.550781 330.96875 142.542969 330.960938 142.53125 330.953125 C 142.257812 330.679688 142.082031 330.3125 142.082031 329.910156 C 142.082031 329.855469 142.082031 329.867188 142.082031 329.855469 L 142.855469 309.4375 C 142.871094 309.304688 142.84375 309.167969 142.761719 309.046875 L 141.351562 306.890625 Z M 141.351562 297.726562 " fill-opacity="1" fill-rule="nonzero"/></g><path fill="#737373" d="M 143.375 297.726562 C 143.375 297.402344 143.113281 297.140625 142.789062 297.140625 C 142.464844 297.140625 142.199219 297.402344 142.199219 297.726562 L 142.199219 306.054688 C 142.199219 306.375 142.464844 306.636719 142.789062 306.636719 C 143.113281 306.636719 143.375 306.375 143.375 306.054688 Z M 143.375 297.726562 " fill-opacity="1" fill-rule="nonzero"/><path fill="#737373" d="M 145.199219 297.726562 C 145.199219 297.402344 144.9375 297.140625 144.613281 297.140625 C 144.289062 297.140625 144.027344 297.402344 144.027344 297.726562 L 144.027344 306.054688 C 144.027344 306.375 144.289062 306.636719 144.613281 306.636719 C 144.9375 306.636719 145.199219 306.375 145.199219 306.054688 Z M 145.199219 297.726562 " fill-opacity="1" fill-rule="nonzero"/><path fill="#737373" d="M 132.050781 260.484375 L 131.953125 260.484375 C 131.714844 260.484375 131.511719 260.566406 131.34375 260.738281 C 131.179688 260.90625 131.09375 261.109375 131.09375 261.347656 C 131.09375 261.585938 131.179688 261.792969 131.34375 261.960938 C 131.511719 262.128906 131.714844 262.214844 131.953125 262.214844 L 132.050781 262.214844 C 132.289062 262.214844 132.488281 262.128906 132.65625 261.960938 C 132.824219 261.792969 132.910156 261.585938 132.910156 261.347656 C 132.910156 261.109375 132.824219 260.90625 132.65625 260.738281 C 132.488281 260.566406 132.289062 260.484375 132.050781 260.484375 Z M 132.050781 260.484375 " fill-opacity="1" fill-rule="nonzero"/><path fill="#737373" d="M 136.355469 260.484375 L 136.253906 260.484375 C 136.019531 260.484375 135.816406 260.566406 135.648438 260.738281 C 135.480469 260.90625 135.398438 261.109375 135.398438 261.347656 C 135.398438 261.585938 135.480469 261.792969 135.648438 261.960938 C 135.816406 262.128906 136.019531 262.214844 136.253906 262.214844 L 136.355469 262.214844 C 136.589844 262.214844 136.792969 262.128906 136.960938 261.960938 C 137.128906 261.792969 137.210938 261.585938 137.210938 261.347656 C 137.210938 261.109375 137.128906 260.90625 136.960938 260.738281 C 136.792969 260.566406 136.589844 260.484375 136.355469 260.484375 Z M 136.355469 260.484375 " fill-opacity="1" fill-rule="nonzero"/><path fill="#737373" d="M 140.839844 260.484375 L 140.742188 260.484375 C 140.503906 260.484375 140.304688 260.566406 140.136719 260.738281 C 139.96875 260.90625 139.882812 261.109375 139.882812 261.347656 C 139.882812 261.585938 139.96875 261.792969 140.136719 261.960938 C 140.304688 262.128906 140.503906 262.214844 140.742188 262.214844 L 140.839844 262.214844 C 141.078125 262.214844 141.28125 262.128906 141.449219 261.960938 C 141.613281 261.792969 141.699219 261.585938 141.699219 261.347656 C 141.699219 261.109375 141.613281 260.90625 141.449219 260.738281 C 141.28125 260.566406 141.078125 260.484375 140.839844 260.484375 Z M 140.839844 260.484375 " fill-opacity="1" fill-rule="nonzero"/><g clip-path="url(#32b943020c)"><path fill="#737373" d="M 155.96875 250.917969 L 116.828125 250.917969 C 116.390625 250.917969 115.96875 251.003906 115.566406 251.171875 C 115.160156 251.34375 114.804688 251.582031 114.492188 251.894531 C 114.183594 252.207031 113.945312 252.570312 113.777344 252.976562 C 113.609375 253.386719 113.523438 253.8125 113.523438 254.253906 L 113.523438 265.035156 C 113.523438 265.476562 113.609375 265.902344 113.777344 266.308594 C 113.945312 266.71875 114.183594 267.078125 114.492188 267.390625 C 114.804688 267.703125 115.160156 267.945312 115.566406 268.113281 C 115.96875 268.28125 116.390625 268.367188 116.828125 268.367188 L 155.96875 268.367188 C 156.40625 268.367188 156.828125 268.28125 157.234375 268.113281 C 157.636719 267.945312 157.996094 267.703125 158.304688 267.390625 C 158.613281 267.078125 158.851562 266.71875 159.019531 266.308594 C 159.1875 265.902344 159.273438 265.476562 159.273438 265.035156 L 159.273438 254.253906 C 159.273438 253.8125 159.1875 253.386719 159.019531 252.976562 C 158.851562 252.570312 158.613281 252.207031 158.304688 251.894531 C 157.996094 251.582031 157.636719 251.34375 157.234375 251.171875 C 156.828125 251.003906 156.40625 250.917969 155.96875 250.917969 Z M 124.773438 266.636719 L 124.773438 265.5625 C 124.777344 265.308594 124.863281 265.09375 125.039062 264.917969 C 125.21875 264.738281 125.429688 264.648438 125.679688 264.648438 L 147.121094 264.648438 C 147.371094 264.648438 147.585938 264.738281 147.761719 264.917969 C 147.9375 265.09375 148.027344 265.308594 148.027344 265.5625 L 148.027344 266.636719 Z M 157.5625 265.039062 C 157.5625 265.25 157.519531 265.453125 157.441406 265.648438 C 157.359375 265.84375 157.246094 266.015625 157.097656 266.167969 C 156.949219 266.316406 156.777344 266.429688 156.582031 266.511719 C 156.390625 266.59375 156.1875 266.636719 155.976562 266.636719 L 149.742188 266.636719 L 149.742188 265.5625 C 149.742188 265.210938 149.675781 264.875 149.542969 264.550781 C 149.410156 264.226562 149.21875 263.941406 148.972656 263.691406 C 148.726562 263.445312 148.445312 263.253906 148.125 263.121094 C 147.804688 262.984375 147.46875 262.917969 147.121094 262.917969 L 125.675781 262.917969 C 125.328125 262.917969 124.996094 262.984375 124.671875 263.121094 C 124.351562 263.253906 124.070312 263.445312 123.824219 263.691406 C 123.578125 263.941406 123.386719 264.226562 123.253906 264.550781 C 123.121094 264.875 123.054688 265.210938 123.054688 265.5625 L 123.054688 266.636719 L 116.828125 266.636719 C 116.621094 266.636719 116.417969 266.59375 116.222656 266.511719 C 116.03125 266.429688 115.859375 266.316406 115.710938 266.167969 C 115.5625 266.015625 115.449219 265.84375 115.367188 265.648438 C 115.285156 265.453125 115.246094 265.25 115.246094 265.039062 L 115.246094 254.253906 C 115.246094 254.039062 115.285156 253.835938 115.367188 253.640625 C 115.449219 253.445312 115.5625 253.273438 115.710938 253.125 C 115.859375 252.972656 116.03125 252.859375 116.222656 252.777344 C 116.417969 252.695312 116.621094 252.65625 116.828125 252.65625 L 155.96875 252.65625 C 156.179688 252.65625 156.378906 252.695312 156.574219 252.777344 C 156.765625 252.859375 156.9375 252.972656 157.085938 253.125 C 157.234375 253.273438 157.351562 253.445312 157.429688 253.640625 C 157.511719 253.835938 157.550781 254.039062 157.554688 254.253906 Z M 157.5625 265.039062 " fill-opacity="1" fill-rule="nonzero"/></g><path fill="#737373" d="M 152.886719 253.65625 L 119.910156 253.65625 C 119.675781 253.65625 119.472656 253.738281 119.304688 253.910156 C 119.136719 254.078125 119.054688 254.28125 119.054688 254.519531 C 119.054688 254.757812 119.136719 254.964844 119.304688 255.132812 C 119.472656 255.300781 119.675781 255.386719 119.910156 255.386719 L 152.886719 255.386719 C 153.125 255.386719 153.328125 255.300781 153.492188 255.132812 C 153.660156 254.964844 153.746094 254.757812 153.746094 254.519531 C 153.746094 254.28125 153.660156 254.078125 153.492188 253.910156 C 153.328125 253.738281 153.125 253.65625 152.886719 253.65625 Z M 152.886719 253.65625 " fill-opacity="1" fill-rule="nonzero"/><path fill="#737373" d="M 152.886719 257.070312 L 119.910156 257.070312 C 119.675781 257.070312 119.472656 257.152344 119.304688 257.320312 C 119.136719 257.492188 119.054688 257.695312 119.054688 257.933594 C 119.054688 258.171875 119.136719 258.378906 119.304688 258.546875 C 119.472656 258.714844 119.675781 258.800781 119.910156 258.800781 L 152.886719 258.800781 C 153.125 258.800781 153.328125 258.714844 153.492188 258.546875 C 153.660156 258.375 153.746094 258.171875 153.746094 257.933594 C 153.746094 257.695312 153.660156 257.492188 153.492188 257.320312 C 153.328125 257.152344 153.125 257.070312 152.886719 257.070312 Z M 152.886719 257.070312 " fill-opacity="1" fill-rule="nonzero"/><g clip-path="url(#90fb1972d0)"><path fill="#737373" d="M 146.003906 276.132812 C 145.582031 276.132812 145.164062 276.089844 144.75 276.007812 C 144.335938 275.925781 143.933594 275.800781 143.542969 275.640625 C 143.152344 275.476562 142.78125 275.277344 142.429688 275.039062 C 142.078125 274.804688 141.753906 274.535156 141.457031 274.234375 C 141.15625 273.933594 140.890625 273.605469 140.65625 273.25 C 140.421875 272.898438 140.222656 272.523438 140.058594 272.128906 C 139.898438 271.734375 139.777344 271.332031 139.691406 270.914062 C 139.609375 270.496094 139.566406 270.074219 139.566406 269.648438 C 139.566406 269.40625 139.484375 269.203125 139.316406 269.035156 C 139.148438 268.867188 138.945312 268.78125 138.710938 268.78125 C 138.472656 268.78125 138.269531 268.867188 138.105469 269.035156 C 137.9375 269.203125 137.851562 269.40625 137.851562 269.648438 C 137.851562 270.1875 137.90625 270.722656 138.011719 271.25 C 138.117188 271.78125 138.269531 272.292969 138.476562 272.792969 C 138.679688 273.289062 138.933594 273.761719 139.230469 274.210938 C 139.527344 274.660156 139.863281 275.074219 140.242188 275.457031 C 140.621094 275.839844 141.035156 276.179688 141.476562 276.476562 C 141.921875 276.777344 142.394531 277.03125 142.886719 277.238281 C 143.382812 277.445312 143.890625 277.601562 144.414062 277.707031 C 144.941406 277.8125 145.46875 277.863281 146.003906 277.863281 C 146.242188 277.863281 146.441406 277.777344 146.609375 277.609375 C 146.777344 277.441406 146.863281 277.238281 146.863281 277 C 146.863281 276.757812 146.777344 276.554688 146.609375 276.386719 C 146.441406 276.21875 146.242188 276.132812 146.003906 276.132812 Z M 146.003906 276.132812 " fill-opacity="1" fill-rule="nonzero"/></g><path fill="#737373" d="M 150.3125 273.730469 C 150.046875 273.730469 149.785156 273.703125 149.523438 273.648438 C 149.265625 273.597656 149.011719 273.519531 148.765625 273.417969 C 148.519531 273.3125 148.289062 273.1875 148.066406 273.039062 C 147.84375 272.890625 147.640625 272.722656 147.453125 272.53125 C 147.265625 272.34375 147.097656 272.136719 146.949219 271.914062 C 146.800781 271.691406 146.679688 271.457031 146.574219 271.207031 C 146.472656 270.960938 146.398438 270.703125 146.34375 270.441406 C 146.292969 270.179688 146.265625 269.914062 146.265625 269.644531 C 146.265625 269.40625 146.183594 269.203125 146.015625 269.035156 C 145.847656 268.867188 145.644531 268.78125 145.410156 268.78125 C 145.171875 268.78125 144.96875 268.867188 144.804688 269.035156 C 144.636719 269.203125 144.550781 269.40625 144.550781 269.644531 C 144.550781 270.027344 144.589844 270.40625 144.664062 270.78125 C 144.738281 271.152344 144.847656 271.515625 144.992188 271.871094 C 145.136719 272.222656 145.316406 272.558594 145.523438 272.875 C 145.734375 273.191406 145.972656 273.484375 146.242188 273.753906 C 146.507812 274.023438 146.800781 274.265625 147.113281 274.476562 C 147.429688 274.6875 147.761719 274.867188 148.109375 275.015625 C 148.460938 275.160156 148.820312 275.269531 149.191406 275.347656 C 149.5625 275.421875 149.9375 275.457031 150.3125 275.460938 C 150.550781 275.460938 150.753906 275.375 150.921875 275.207031 C 151.085938 275.035156 151.171875 274.832031 151.171875 274.59375 C 151.171875 274.355469 151.085938 274.152344 150.921875 273.980469 C 150.753906 273.8125 150.550781 273.730469 150.3125 273.730469 Z M 150.3125 273.730469 " fill-opacity="1" fill-rule="nonzero"/><g clip-path="url(#bb56869cda)"><path fill="#737373" d="M 134.273438 268.78125 C 134.035156 268.78125 133.835938 268.867188 133.667969 269.035156 C 133.5 269.203125 133.417969 269.40625 133.417969 269.644531 C 133.414062 270.070312 133.375 270.492188 133.292969 270.910156 C 133.210938 271.328125 133.085938 271.734375 132.925781 272.125 C 132.765625 272.519531 132.566406 272.894531 132.332031 273.246094 C 132.097656 273.601562 131.832031 273.929688 131.53125 274.230469 C 131.234375 274.53125 130.910156 274.796875 130.558594 275.035156 C 130.210938 275.273438 129.839844 275.472656 129.449219 275.636719 C 129.058594 275.796875 128.660156 275.921875 128.246094 276.003906 C 127.832031 276.089844 127.414062 276.132812 126.992188 276.132812 C 126.753906 276.132812 126.550781 276.21875 126.386719 276.386719 C 126.21875 276.554688 126.132812 276.757812 126.132812 276.996094 C 126.132812 277.238281 126.21875 277.441406 126.386719 277.609375 C 126.550781 277.777344 126.753906 277.863281 126.992188 277.863281 C 127.527344 277.863281 128.054688 277.808594 128.578125 277.703125 C 129.105469 277.597656 129.613281 277.441406 130.105469 277.234375 C 130.601562 277.027344 131.070312 276.773438 131.515625 276.476562 C 131.957031 276.175781 132.371094 275.835938 132.746094 275.453125 C 133.125 275.070312 133.464844 274.65625 133.761719 274.207031 C 134.058594 273.761719 134.308594 273.285156 134.511719 272.789062 C 134.71875 272.289062 134.875 271.777344 134.976562 271.25 C 135.082031 270.71875 135.136719 270.183594 135.136719 269.644531 C 135.136719 269.40625 135.050781 269.203125 134.882812 269.03125 C 134.714844 268.863281 134.511719 268.78125 134.273438 268.78125 Z M 134.273438 268.78125 " fill-opacity="1" fill-rule="nonzero"/></g><path fill="#737373" d="M 128.4375 269.648438 C 128.4375 269.40625 128.351562 269.203125 128.183594 269.035156 C 128.015625 268.867188 127.816406 268.78125 127.578125 268.78125 C 127.34375 268.78125 127.140625 268.867188 126.972656 269.035156 C 126.804688 269.203125 126.722656 269.40625 126.722656 269.648438 C 126.722656 269.914062 126.695312 270.179688 126.644531 270.441406 C 126.589844 270.707031 126.515625 270.960938 126.410156 271.207031 C 126.308594 271.457031 126.183594 271.691406 126.039062 271.914062 C 125.890625 272.136719 125.722656 272.34375 125.535156 272.53125 C 125.347656 272.722656 125.140625 272.890625 124.921875 273.039062 C 124.699219 273.191406 124.46875 273.316406 124.222656 273.417969 C 123.976562 273.519531 123.722656 273.597656 123.464844 273.652344 C 123.203125 273.703125 122.941406 273.730469 122.675781 273.730469 C 122.4375 273.730469 122.234375 273.8125 122.066406 273.984375 C 121.898438 274.152344 121.816406 274.355469 121.816406 274.59375 C 121.816406 274.832031 121.898438 275.039062 122.066406 275.207031 C 122.234375 275.375 122.4375 275.460938 122.675781 275.460938 C 123.050781 275.460938 123.425781 275.421875 123.796875 275.347656 C 124.167969 275.273438 124.527344 275.160156 124.878906 275.015625 C 125.226562 274.871094 125.558594 274.691406 125.875 274.476562 C 126.1875 274.265625 126.480469 274.023438 126.746094 273.753906 C 127.015625 273.484375 127.253906 273.191406 127.464844 272.875 C 127.671875 272.558594 127.851562 272.222656 127.996094 271.871094 C 128.140625 271.519531 128.25 271.15625 128.324219 270.78125 C 128.398438 270.40625 128.4375 270.027344 128.4375 269.648438 Z M 128.4375 269.648438 " fill-opacity="1" fill-rule="nonzero"/><g clip-path="url(#012e6a75a5)"><path fill="#737373" d="M 212.371094 304.03125 L 171.175781 304.03125 C 170.964844 304.03125 170.785156 304.101562 170.636719 304.25 C 170.488281 304.394531 170.414062 304.574219 170.414062 304.78125 L 170.414062 328.78125 C 170.414062 328.988281 170.488281 329.164062 170.636719 329.308594 C 170.785156 329.457031 170.964844 329.53125 171.175781 329.53125 L 174.226562 329.53125 L 174.226562 331.78125 C 174.226562 331.988281 174.300781 332.164062 174.449219 332.308594 C 174.597656 332.457031 174.777344 332.53125 174.988281 332.53125 L 178.042969 332.53125 C 178.25 332.53125 178.429688 332.457031 178.582031 332.308594 C 178.730469 332.164062 178.804688 331.988281 178.804688 331.78125 L 178.804688 329.53125 L 204.742188 329.53125 L 204.742188 331.78125 C 204.742188 331.988281 204.816406 332.164062 204.964844 332.308594 C 205.113281 332.457031 205.292969 332.53125 205.503906 332.53125 L 208.554688 332.53125 C 208.765625 332.53125 208.945312 332.457031 209.09375 332.308594 C 209.242188 332.164062 209.316406 331.988281 209.316406 331.78125 L 209.316406 329.53125 L 212.371094 329.53125 C 212.582031 329.53125 212.761719 329.457031 212.910156 329.308594 C 213.058594 329.164062 213.132812 328.988281 213.132812 328.78125 L 213.132812 304.78125 C 213.132812 304.574219 213.058594 304.394531 212.910156 304.25 C 212.761719 304.101562 212.582031 304.03125 212.371094 304.03125 Z M 177.277344 331.03125 L 175.753906 331.03125 L 175.753906 329.53125 L 177.277344 329.53125 Z M 171.9375 328.03125 L 171.9375 305.53125 L 200.925781 305.53125 L 200.925781 328.03125 Z M 207.792969 331.03125 L 206.265625 331.03125 L 206.265625 329.53125 L 207.792969 329.53125 Z M 211.605469 328.03125 L 202.453125 328.03125 L 202.453125 305.53125 L 211.605469 305.53125 Z M 211.605469 328.03125 " fill-opacity="1" fill-rule="nonzero"/></g><path fill="#737373" d="M 204.992188 311.53125 L 209.066406 311.53125 C 209.277344 311.53125 209.457031 311.457031 209.605469 311.308594 C 209.753906 311.164062 209.828125 310.988281 209.828125 310.78125 L 209.828125 307.78125 C 209.828125 307.574219 209.753906 307.394531 209.605469 307.25 C 209.457031 307.101562 209.277344 307.03125 209.066406 307.03125 L 204.992188 307.03125 C 204.78125 307.03125 204.601562 307.101562 204.453125 307.25 C 204.304688 307.394531 204.230469 307.574219 204.230469 307.78125 L 204.230469 310.78125 C 204.230469 310.988281 204.304688 311.164062 204.453125 311.308594 C 204.601562 311.457031 204.78125 311.53125 204.992188 311.53125 Z M 205.753906 308.53125 L 208.304688 308.53125 L 208.304688 310.03125 L 205.753906 310.03125 Z M 205.753906 308.53125 " fill-opacity="1" fill-rule="nonzero"/><path fill="#737373" d="M 197.113281 308.53125 L 175.753906 308.53125 C 175.542969 308.53125 175.363281 308.601562 175.214844 308.75 C 175.0625 308.894531 174.988281 309.074219 174.988281 309.28125 L 174.988281 324.28125 C 174.988281 324.488281 175.0625 324.664062 175.214844 324.808594 C 175.363281 324.957031 175.542969 325.03125 175.753906 325.03125 L 197.113281 325.03125 C 197.324219 325.03125 197.503906 324.957031 197.652344 324.808594 C 197.800781 324.664062 197.875 324.488281 197.875 324.28125 L 197.875 309.28125 C 197.875 309.074219 197.800781 308.894531 197.652344 308.75 C 197.503906 308.601562 197.324219 308.53125 197.113281 308.53125 Z M 196.351562 323.53125 L 176.515625 323.53125 L 176.515625 310.03125 L 196.351562 310.03125 Z M 196.351562 323.53125 " fill-opacity="1" fill-rule="nonzero"/><path fill="#737373" d="M 199.402344 310.78125 C 199.191406 310.78125 199.011719 310.851562 198.863281 311 C 198.710938 311.144531 198.636719 311.324219 198.636719 311.53125 L 198.636719 322.03125 C 198.636719 322.238281 198.710938 322.414062 198.863281 322.558594 C 199.011719 322.707031 199.191406 322.78125 199.402344 322.78125 C 199.613281 322.78125 199.792969 322.707031 199.941406 322.558594 C 200.089844 322.414062 200.164062 322.238281 200.164062 322.03125 L 200.164062 311.53125 C 200.164062 311.324219 200.089844 311.144531 199.941406 311 C 199.792969 310.851562 199.613281 310.78125 199.402344 310.78125 Z M 199.402344 310.78125 " fill-opacity="1" fill-rule="nonzero"/><path fill="#737373" d="M 204.742188 316.03125 L 209.316406 316.03125 C 209.527344 316.03125 209.707031 315.957031 209.859375 315.808594 C 210.007812 315.664062 210.082031 315.488281 210.082031 315.28125 C 210.082031 315.074219 210.007812 314.894531 209.859375 314.75 C 209.707031 314.601562 209.527344 314.53125 209.316406 314.53125 L 204.742188 314.53125 C 204.53125 314.53125 204.351562 314.601562 204.203125 314.75 C 204.054688 314.894531 203.976562 315.074219 203.976562 315.28125 C 203.976562 315.488281 204.054688 315.664062 204.203125 315.808594 C 204.351562 315.957031 204.53125 316.03125 204.742188 316.03125 Z M 204.742188 316.03125 " fill-opacity="1" fill-rule="nonzero"/><path fill="#737373" d="M 204.742188 319.03125 L 209.316406 319.03125 C 209.527344 319.03125 209.707031 318.957031 209.859375 318.808594 C 210.007812 318.664062 210.082031 318.488281 210.082031 318.28125 C 210.082031 318.074219 210.007812 317.894531 209.859375 317.75 C 209.707031 317.601562 209.527344 317.53125 209.316406 317.53125 L 204.742188 317.53125 C 204.53125 317.53125 204.351562 317.601562 204.203125 317.75 C 204.054688 317.894531 203.976562 318.074219 203.976562 318.28125 C 203.976562 318.488281 204.054688 318.664062 204.203125 318.808594 C 204.351562 318.957031 204.53125 319.03125 204.742188 319.03125 Z M 204.742188 319.03125 " fill-opacity="1" fill-rule="nonzero"/><path fill="#737373" d="M 204.742188 322.03125 L 209.316406 322.03125 C 209.527344 322.03125 209.707031 321.957031 209.859375 321.808594 C 210.007812 321.664062 210.082031 321.488281 210.082031 321.28125 C 210.082031 321.074219 210.007812 320.894531 209.859375 320.75 C 209.707031 320.601562 209.527344 320.53125 209.316406 320.53125 L 204.742188 320.53125 C 204.53125 320.53125 204.351562 320.601562 204.203125 320.75 C 204.054688 320.894531 203.976562 321.074219 203.976562 321.28125 C 203.976562 321.488281 204.054688 321.664062 204.203125 321.808594 C 204.351562 321.957031 204.53125 322.03125 204.742188 322.03125 Z M 204.742188 322.03125 " fill-opacity="1" fill-rule="nonzero"/><path fill="#737373" d="M 207.792969 325.78125 C 207.792969 325.988281 207.71875 326.164062 207.570312 326.308594 C 207.421875 326.457031 207.242188 326.53125 207.03125 326.53125 C 206.820312 326.53125 206.640625 326.457031 206.492188 326.308594 C 206.339844 326.164062 206.265625 325.988281 206.265625 325.78125 C 206.265625 325.574219 206.339844 325.394531 206.492188 325.25 C 206.640625 325.101562 206.820312 325.03125 207.03125 325.03125 C 207.242188 325.03125 207.421875 325.101562 207.570312 325.25 C 207.71875 325.394531 207.792969 325.574219 207.792969 325.78125 Z M 207.792969 325.78125 " fill-opacity="1" fill-rule="nonzero"/><path fill="#737373" d="M 210.082031 325.78125 C 210.082031 325.988281 210.007812 326.164062 209.859375 326.308594 C 209.707031 326.457031 209.527344 326.53125 209.316406 326.53125 C 209.109375 326.53125 208.929688 326.457031 208.777344 326.308594 C 208.628906 326.164062 208.554688 325.988281 208.554688 325.78125 C 208.554688 325.574219 208.628906 325.394531 208.777344 325.25 C 208.929688 325.101562 209.109375 325.03125 209.316406 325.03125 C 209.527344 325.03125 209.707031 325.101562 209.859375 325.25 C 210.007812 325.394531 210.082031 325.574219 210.082031 325.78125 Z M 210.082031 325.78125 " fill-opacity="1" fill-rule="nonzero"/><path fill="#737373" d="M 205.503906 325.78125 C 205.503906 325.988281 205.429688 326.164062 205.28125 326.308594 C 205.132812 326.457031 204.953125 326.53125 204.742188 326.53125 C 204.53125 326.53125 204.351562 326.457031 204.203125 326.308594 C 204.054688 326.164062 203.976562 325.988281 203.976562 325.78125 C 203.976562 325.574219 204.054688 325.394531 204.203125 325.25 C 204.351562 325.101562 204.53125 325.03125 204.742188 325.03125 C 204.953125 325.03125 205.132812 325.101562 205.28125 325.25 C 205.429688 325.394531 205.503906 325.574219 205.503906 325.78125 Z M 205.503906 325.78125 " fill-opacity="1" fill-rule="nonzero"/><g fill="#000000" fill-opacity="1"><g transform="translate(68.603991, 201.919462)"><g><path d="M 9.023438 -12.261719 L 9.023438 -2.601562 L 1.535156 -2.601562 L 1.535156 -12.210938 L 3.050781 -12.210938 L 3.050781 -8.523438 L 7.507812 -8.523438 L 7.507812 -12.261719 Z M 13.660156 2.335938 L 12.144531 2.335938 L 12.144531 -12.761719 L 13.660156 -12.761719 Z M 7.507812 -3.886719 L 7.507812 -7.238281 L 3.050781 -7.238281 L 3.050781 -3.886719 Z M 7.507812 -3.886719 "/></g></g></g><g fill="#000000" fill-opacity="1"><g transform="translate(84.283134, 201.919462)"><g><path d="M 12.828125 -8.058594 L 15.363281 -8.058594 L 15.363281 -6.773438 L 12.828125 -6.773438 L 12.828125 2.335938 L 11.308594 2.335938 L 11.308594 -2.601562 L 1.367188 -2.601562 L 1.367188 -12.210938 L 2.886719 -12.210938 L 2.886719 -3.886719 L 11.308594 -3.886719 L 11.308594 -12.761719 L 12.828125 -12.761719 Z M 12.828125 -8.058594 "/></g></g></g><g fill="#000000" fill-opacity="1"><g transform="translate(99.962277, 201.919462)"><g><path d="M 13.660156 2.335938 L 12.144531 2.335938 L 12.144531 -2.601562 L 1.535156 -2.601562 L 1.535156 -8.222656 L 7.15625 -8.222656 L 7.15625 -10.925781 L 1.5 -10.925781 L 1.5 -12.210938 L 8.707031 -12.210938 L 8.707031 -6.9375 L 3.050781 -6.9375 L 3.050781 -3.886719 L 12.144531 -3.886719 L 12.144531 -12.761719 L 13.660156 -12.761719 Z M 13.660156 2.335938 "/></g></g></g><g fill="#000000" fill-opacity="1"><g transform="translate(69.847815, 224.036075)"><g><path d="M 1.039062 -5.519531 L 0.714844 -6.109375 L 2.335938 -6.976562 L 3.039062 -6.976562 L 3.039062 -0.0195312 L 2.191406 -0.0195312 L 2.191406 -6.148438 Z M 1.039062 -5.519531 "/></g></g></g><g fill="#000000" fill-opacity="1"><g transform="translate(74.565059, 224.036075)"><g><path d="M 1.285156 -3.46875 C 1.285156 -2.953125 1.324219 -2.527344 1.402344 -2.171875 C 1.46875 -1.8125 1.5625 -1.515625 1.695312 -1.285156 C 1.820312 -1.058594 1.972656 -0.886719 2.144531 -0.78125 C 2.304688 -0.667969 2.488281 -0.621094 2.6875 -0.621094 C 2.878906 -0.621094 3.070312 -0.667969 3.242188 -0.78125 C 3.402344 -0.886719 3.546875 -1.058594 3.679688 -1.285156 C 3.804688 -1.515625 3.90625 -1.8125 3.984375 -2.171875 C 4.050781 -2.527344 4.089844 -2.953125 4.089844 -3.46875 C 4.089844 -3.964844 4.050781 -4.402344 3.984375 -4.765625 C 3.90625 -5.128906 3.804688 -5.421875 3.679688 -5.652344 C 3.546875 -5.878906 3.402344 -6.042969 3.242188 -6.15625 C 3.070312 -6.261719 2.878906 -6.320312 2.6875 -6.320312 C 2.488281 -6.320312 2.304688 -6.261719 2.144531 -6.15625 C 1.972656 -6.042969 1.820312 -5.878906 1.695312 -5.652344 C 1.5625 -5.421875 1.46875 -5.128906 1.402344 -4.765625 C 1.324219 -4.402344 1.285156 -3.964844 1.285156 -3.46875 Z M 0.398438 -3.46875 C 0.398438 -4.058594 0.449219 -4.574219 0.5625 -5.023438 C 0.667969 -5.460938 0.820312 -5.832031 1.03125 -6.136719 C 1.21875 -6.433594 1.46875 -6.664062 1.753906 -6.816406 C 2.03125 -6.957031 2.34375 -7.035156 2.6875 -7.035156 C 3.03125 -7.035156 3.335938 -6.957031 3.621094 -6.816406 C 3.898438 -6.664062 4.136719 -6.433594 4.347656 -6.136719 C 4.535156 -5.832031 4.699219 -5.460938 4.8125 -5.023438 C 4.917969 -4.574219 4.976562 -4.058594 4.976562 -3.46875 C 4.976562 -2.878906 4.917969 -2.355469 4.8125 -1.914062 C 4.699219 -1.46875 4.535156 -1.097656 4.347656 -0.800781 C 4.136719 -0.496094 3.898438 -0.277344 3.621094 -0.132812 C 3.335938 0.0195312 3.03125 0.09375 2.6875 0.09375 C 2.34375 0.09375 2.03125 0.0195312 1.753906 -0.132812 C 1.46875 -0.277344 1.21875 -0.496094 1.03125 -0.800781 C 0.820312 -1.097656 0.667969 -1.46875 0.5625 -1.914062 C 0.449219 -2.355469 0.398438 -2.878906 0.398438 -3.46875 Z M 0.398438 -3.46875 "/></g></g></g><g fill="#000000" fill-opacity="1"><g transform="translate(79.95892, 224.036075)"><g><path d="M 0.496094 -2.839844 L 0.496094 -3.574219 L 1.449219 -3.574219 L 1.449219 -6.242188 L 0.589844 -6.242188 L 0.589844 -6.976562 L 5.453125 -6.976562 L 5.453125 -6.242188 L 4.59375 -6.242188 L 4.59375 -3.574219 L 5.738281 -3.574219 L 5.738281 -2.839844 Z M 5.320312 1.8125 C 4.996094 1.8125 4.699219 1.761719 4.421875 1.667969 C 4.136719 1.574219 3.898438 1.429688 3.699219 1.257812 C 3.488281 1.066406 3.328125 0.847656 3.210938 0.589844 C 3.089844 0.324219 3.03125 0.0273438 3.03125 -0.304688 C 3.03125 -0.628906 3.089844 -0.933594 3.210938 -1.199219 C 3.328125 -1.457031 3.488281 -1.675781 3.699219 -1.867188 C 3.898438 -2.039062 4.136719 -2.183594 4.421875 -2.277344 C 4.699219 -2.375 4.996094 -2.421875 5.320312 -2.421875 C 5.632812 -2.421875 5.929688 -2.375 6.214844 -2.277344 C 6.492188 -2.183594 6.738281 -2.039062 6.949219 -1.867188 C 7.148438 -1.675781 7.308594 -1.457031 7.433594 -1.199219 C 7.546875 -0.933594 7.617188 -0.628906 7.617188 -0.304688 C 7.617188 0.0273438 7.546875 0.324219 7.433594 0.589844 C 7.308594 0.847656 7.148438 1.066406 6.949219 1.257812 C 6.738281 1.429688 6.492188 1.574219 6.214844 1.667969 C 5.929688 1.761719 5.632812 1.8125 5.320312 1.8125 Z M 5.320312 -1.667969 C 4.878906 -1.667969 4.527344 -1.542969 4.28125 -1.316406 C 4.023438 -1.078125 3.898438 -0.742188 3.898438 -0.316406 C 3.898438 0.125 4.023438 0.457031 4.28125 0.707031 C 4.527344 0.933594 4.878906 1.058594 5.320312 1.058594 C 5.757812 1.058594 6.101562 0.933594 6.367188 0.707031 C 6.613281 0.457031 6.75 0.125 6.75 -0.316406 C 6.75 -0.742188 6.613281 -1.078125 6.367188 -1.316406 C 6.101562 -1.542969 5.757812 -1.667969 5.320312 -1.667969 Z M 6.949219 -6.003906 L 6.9375 -7.292969 L 7.804688 -7.292969 L 7.804688 -2.488281 L 6.949219 -2.488281 L 6.9375 -3.9375 L 5.539062 -3.9375 L 5.539062 -4.671875 L 6.949219 -4.671875 L 6.9375 -5.269531 L 5.539062 -5.269531 L 5.539062 -6.003906 Z M 2.316406 -3.574219 L 3.726562 -3.574219 L 3.726562 -6.242188 L 2.316406 -6.242188 Z M 2.316406 -3.574219 "/></g></g></g><g fill="#000000" fill-opacity="1"><g transform="translate(88.916917, 224.036075)"><g/></g></g><g fill="#000000" fill-opacity="1"><g transform="translate(91.58526, 224.036075)"><g><path d="M 7.804688 1.335938 L 6.9375 1.335938 L 6.9375 -0.742188 L 0.417969 -0.742188 L 0.417969 -1.476562 L 2.886719 -1.476562 L 2.886719 -3.011719 L 3.753906 -3.011719 L 3.753906 -1.476562 L 6.9375 -1.476562 L 6.9375 -7.292969 L 7.804688 -7.292969 Z M 2.886719 -6.5 L 2.886719 -7.414062 L 3.746094 -7.414062 L 3.746094 -6.5 L 5.652344 -6.5 L 5.652344 -5.765625 L 3.773438 -5.765625 C 3.8125 -5.472656 3.90625 -5.203125 4.050781 -4.976562 C 4.183594 -4.726562 4.355469 -4.519531 4.554688 -4.335938 C 4.746094 -4.144531 4.964844 -3.984375 5.203125 -3.851562 C 5.433594 -3.71875 5.671875 -3.601562 5.917969 -3.527344 L 5.460938 -2.878906 C 5.269531 -2.9375 5.070312 -3.019531 4.878906 -3.125 C 4.679688 -3.222656 4.488281 -3.34375 4.308594 -3.496094 C 4.117188 -3.640625 3.9375 -3.8125 3.773438 -4.023438 C 3.601562 -4.210938 3.449219 -4.441406 3.335938 -4.707031 C 3.230469 -4.46875 3.105469 -4.25 2.953125 -4.058594 C 2.792969 -3.851562 2.613281 -3.667969 2.421875 -3.507812 C 2.222656 -3.335938 2.011719 -3.183594 1.792969 -3.050781 C 1.5625 -2.917969 1.324219 -2.800781 1.085938 -2.707031 L 0.628906 -3.316406 C 0.914062 -3.429688 1.191406 -3.582031 1.449219 -3.753906 C 1.695312 -3.917969 1.925781 -4.097656 2.125 -4.308594 C 2.316406 -4.507812 2.476562 -4.738281 2.613281 -4.984375 C 2.734375 -5.222656 2.820312 -5.480469 2.859375 -5.765625 L 0.960938 -5.765625 L 0.960938 -6.5 Z M 2.886719 -6.5 "/></g></g></g><g fill="#000000" fill-opacity="1"><g transform="translate(100.543258, 224.036075)"><g><path d="M 7.480469 -2.542969 C 7.15625 -2.601562 6.84375 -2.699219 6.539062 -2.832031 C 6.222656 -2.953125 5.9375 -3.105469 5.671875 -3.289062 C 5.402344 -3.460938 5.164062 -3.667969 4.964844 -3.898438 C 4.757812 -4.128906 4.59375 -4.375 4.480469 -4.652344 C 4.367188 -4.375 4.203125 -4.128906 3.992188 -3.898438 C 3.785156 -3.667969 3.546875 -3.460938 3.277344 -3.289062 C 3.011719 -3.105469 2.726562 -2.953125 2.421875 -2.832031 C 2.105469 -2.699219 1.792969 -2.601562 1.476562 -2.542969 L 1.191406 -3.230469 C 1.535156 -3.308594 1.886719 -3.421875 2.230469 -3.574219 C 2.5625 -3.71875 2.867188 -3.90625 3.136719 -4.144531 C 3.402344 -4.375 3.613281 -4.660156 3.785156 -4.996094 C 3.945312 -5.320312 4.03125 -5.691406 4.03125 -6.128906 L 4.03125 -7.070312 L 4.925781 -7.070312 L 4.925781 -6.128906 C 4.925781 -5.691406 5.003906 -5.320312 5.175781 -4.996094 C 5.328125 -4.660156 5.546875 -4.375 5.8125 -4.144531 C 6.082031 -3.90625 6.386719 -3.71875 6.730469 -3.574219 C 7.0625 -3.421875 7.40625 -3.308594 7.769531 -3.230469 Z M 0.398438 -0.078125 L 0.398438 -0.808594 L 4.042969 -0.808594 L 4.042969 -2.554688 L 4.917969 -2.554688 L 4.917969 -0.808594 L 8.519531 -0.808594 L 8.519531 -0.078125 Z M 0.398438 -0.078125 "/></g></g></g><g fill="#000000" fill-opacity="1"><g transform="translate(109.501256, 224.036075)"><g><path d="M 0.515625 -0.648438 L 2.066406 -2.164062 C 2.488281 -2.582031 2.820312 -2.945312 3.089844 -3.269531 C 3.34375 -3.582031 3.535156 -3.871094 3.660156 -4.136719 C 3.773438 -4.382812 3.839844 -4.640625 3.859375 -4.910156 C 3.878906 -5.308594 3.773438 -5.632812 3.566406 -5.878906 C 3.34375 -6.128906 2.992188 -6.253906 2.496094 -6.253906 C 2.210938 -6.253906 1.925781 -6.175781 1.648438 -6.023438 C 1.363281 -5.871094 1.113281 -5.671875 0.90625 -5.433594 L 0.46875 -6.042969 C 0.761719 -6.355469 1.097656 -6.605469 1.457031 -6.777344 C 1.820312 -6.949219 2.222656 -7.035156 2.679688 -7.035156 C 3.019531 -7.035156 3.328125 -6.976562 3.59375 -6.863281 C 3.851562 -6.738281 4.070312 -6.585938 4.242188 -6.40625 C 4.402344 -6.214844 4.527344 -5.996094 4.613281 -5.765625 C 4.6875 -5.519531 4.726562 -5.28125 4.726562 -5.03125 C 4.707031 -4.6875 4.632812 -4.355469 4.507812 -4.050781 C 4.375 -3.734375 4.183594 -3.414062 3.9375 -3.089844 C 3.6875 -2.753906 3.382812 -2.410156 3.019531 -2.050781 L 1.753906 -0.828125 L 4.9375 -0.828125 L 4.9375 -0.0664062 L 0.515625 -0.0664062 Z M 0.515625 -0.648438 "/></g></g></g><g fill="#000000" fill-opacity="1"><g transform="translate(114.895117, 224.036075)"><g><path d="M 0.78125 -2.9375 L 0.78125 -6.976562 L 5.0625 -6.976562 L 5.0625 -6.175781 L 6.949219 -6.175781 L 6.949219 -7.292969 L 7.816406 -7.292969 L 7.816406 -2.488281 L 6.949219 -2.488281 L 6.9375 -3.734375 L 5.0625 -3.734375 L 5.0625 -2.9375 Z M 5.320312 1.8125 C 4.996094 1.8125 4.699219 1.761719 4.421875 1.667969 C 4.136719 1.574219 3.898438 1.429688 3.699219 1.257812 C 3.488281 1.066406 3.328125 0.847656 3.210938 0.589844 C 3.089844 0.324219 3.03125 0.0273438 3.03125 -0.304688 C 3.03125 -0.628906 3.089844 -0.933594 3.210938 -1.199219 C 3.328125 -1.457031 3.488281 -1.675781 3.699219 -1.867188 C 3.898438 -2.039062 4.136719 -2.183594 4.421875 -2.277344 C 4.699219 -2.375 4.996094 -2.421875 5.320312 -2.421875 C 5.632812 -2.421875 5.929688 -2.375 6.214844 -2.277344 C 6.492188 -2.183594 6.738281 -2.039062 6.949219 -1.867188 C 7.148438 -1.675781 7.308594 -1.457031 7.433594 -1.199219 C 7.546875 -0.933594 7.617188 -0.628906 7.617188 -0.304688 C 7.617188 0.0273438 7.546875 0.324219 7.433594 0.589844 C 7.308594 0.847656 7.148438 1.066406 6.949219 1.257812 C 6.738281 1.429688 6.492188 1.574219 6.214844 1.667969 C 5.929688 1.761719 5.632812 1.8125 5.320312 1.8125 Z M 4.195312 -6.261719 L 1.648438 -6.261719 L 1.648438 -3.652344 L 4.195312 -3.652344 Z M 5.320312 -1.667969 C 4.878906 -1.667969 4.527344 -1.542969 4.28125 -1.316406 C 4.023438 -1.078125 3.898438 -0.742188 3.898438 -0.316406 C 3.898438 0.125 4.023438 0.457031 4.28125 0.707031 C 4.527344 0.933594 4.878906 1.058594 5.320312 1.058594 C 5.757812 1.058594 6.101562 0.933594 6.367188 0.707031 C 6.613281 0.457031 6.75 0.125 6.75 -0.316406 C 6.75 -0.742188 6.613281 -1.078125 6.367188 -1.316406 C 6.101562 -1.542969 5.757812 -1.667969 5.320312 -1.667969 Z M 5.0625 -4.46875 L 6.949219 -4.46875 L 6.9375 -5.441406 L 5.0625 -5.441406 Z M 5.0625 -4.46875 "/></g></g></g><g fill="#000000" fill-opacity="1"><g transform="translate(123.853115, 224.036075)"><g/></g></g><g fill="#000000" fill-opacity="1"><g transform="translate(126.521458, 224.036075)"><g><path d="M 7.804688 1.335938 L 6.9375 1.335938 L 6.9375 -0.742188 L 0.417969 -0.742188 L 0.417969 -1.476562 L 2.886719 -1.476562 L 2.886719 -3.011719 L 3.753906 -3.011719 L 3.753906 -1.476562 L 6.9375 -1.476562 L 6.9375 -7.292969 L 7.804688 -7.292969 Z M 2.886719 -6.5 L 2.886719 -7.414062 L 3.746094 -7.414062 L 3.746094 -6.5 L 5.652344 -6.5 L 5.652344 -5.765625 L 3.773438 -5.765625 C 3.8125 -5.472656 3.90625 -5.203125 4.050781 -4.976562 C 4.183594 -4.726562 4.355469 -4.519531 4.554688 -4.335938 C 4.746094 -4.144531 4.964844 -3.984375 5.203125 -3.851562 C 5.433594 -3.71875 5.671875 -3.601562 5.917969 -3.527344 L 5.460938 -2.878906 C 5.269531 -2.9375 5.070312 -3.019531 4.878906 -3.125 C 4.679688 -3.222656 4.488281 -3.34375 4.308594 -3.496094 C 4.117188 -3.640625 3.9375 -3.8125 3.773438 -4.023438 C 3.601562 -4.210938 3.449219 -4.441406 3.335938 -4.707031 C 3.230469 -4.46875 3.105469 -4.25 2.953125 -4.058594 C 2.792969 -3.851562 2.613281 -3.667969 2.421875 -3.507812 C 2.222656 -3.335938 2.011719 -3.183594 1.792969 -3.050781 C 1.5625 -2.917969 1.324219 -2.800781 1.085938 -2.707031 L 0.628906 -3.316406 C 0.914062 -3.429688 1.191406 -3.582031 1.449219 -3.753906 C 1.695312 -3.917969 1.925781 -4.097656 2.125 -4.308594 C 2.316406 -4.507812 2.476562 -4.738281 2.613281 -4.984375 C 2.734375 -5.222656 2.820312 -5.480469 2.859375 -5.765625 L 0.960938 -5.765625 L 0.960938 -6.5 Z M 2.886719 -6.5 "/></g></g></g><g fill="#000000" fill-opacity="1"><g transform="translate(135.479455, 224.036075)"><g><path d="M 7.128906 1.335938 L 7.128906 -3.878906 L 6.234375 -3.878906 L 6.234375 1.277344 L 5.367188 1.277344 L 5.367188 -1.476562 L 0.90625 -1.476562 L 0.90625 -6.96875 L 4.519531 -6.96875 L 4.519531 -6.234375 L 1.773438 -6.234375 L 1.773438 -2.210938 L 5.367188 -2.210938 L 5.367188 -7.195312 L 6.234375 -7.195312 L 6.234375 -4.613281 L 7.128906 -4.613281 L 7.128906 -7.292969 L 7.996094 -7.292969 L 7.996094 1.335938 Z M 7.128906 1.335938 "/></g></g></g><g fill="#000000" fill-opacity="1"><g transform="translate(144.437453, 224.036075)"><g/></g></g><g fill="#000000" fill-opacity="1"><g transform="translate(147.105796, 224.036075)"><g><path d="M 3.402344 -1.335938 L 0.285156 -1.335938 L 0.285156 -1.953125 L 3.257812 -7.023438 L 4.222656 -7.023438 L 4.222656 -2.066406 L 5.097656 -2.066406 L 5.097656 -1.335938 L 4.222656 -1.335938 L 4.222656 -0.0195312 L 3.402344 -0.0195312 Z M 3.402344 -5.8125 L 1.199219 -2.066406 L 3.402344 -2.066406 Z M 3.402344 -5.8125 "/></g></g></g><g fill="#000000" fill-opacity="1"><g transform="translate(152.499657, 224.036075)"><g><path d="M 0.78125 -2.9375 L 0.78125 -6.976562 L 5.0625 -6.976562 L 5.0625 -6.175781 L 6.949219 -6.175781 L 6.949219 -7.292969 L 7.816406 -7.292969 L 7.816406 -2.488281 L 6.949219 -2.488281 L 6.9375 -3.734375 L 5.0625 -3.734375 L 5.0625 -2.9375 Z M 5.320312 1.8125 C 4.996094 1.8125 4.699219 1.761719 4.421875 1.667969 C 4.136719 1.574219 3.898438 1.429688 3.699219 1.257812 C 3.488281 1.066406 3.328125 0.847656 3.210938 0.589844 C 3.089844 0.324219 3.03125 0.0273438 3.03125 -0.304688 C 3.03125 -0.628906 3.089844 -0.933594 3.210938 -1.199219 C 3.328125 -1.457031 3.488281 -1.675781 3.699219 -1.867188 C 3.898438 -2.039062 4.136719 -2.183594 4.421875 -2.277344 C 4.699219 -2.375 4.996094 -2.421875 5.320312 -2.421875 C 5.632812 -2.421875 5.929688 -2.375 6.214844 -2.277344 C 6.492188 -2.183594 6.738281 -2.039062 6.949219 -1.867188 C 7.148438 -1.675781 7.308594 -1.457031 7.433594 -1.199219 C 7.546875 -0.933594 7.617188 -0.628906 7.617188 -0.304688 C 7.617188 0.0273438 7.546875 0.324219 7.433594 0.589844 C 7.308594 0.847656 7.148438 1.066406 6.949219 1.257812 C 6.738281 1.429688 6.492188 1.574219 6.214844 1.667969 C 5.929688 1.761719 5.632812 1.8125 5.320312 1.8125 Z M 4.195312 -6.261719 L 1.648438 -6.261719 L 1.648438 -3.652344 L 4.195312 -3.652344 Z M 5.320312 -1.667969 C 4.878906 -1.667969 4.527344 -1.542969 4.28125 -1.316406 C 4.023438 -1.078125 3.898438 -0.742188 3.898438 -0.316406 C 3.898438 0.125 4.023438 0.457031 4.28125 0.707031 C 4.527344 0.933594 4.878906 1.058594 5.320312 1.058594 C 5.757812 1.058594 6.101562 0.933594 6.367188 0.707031 C 6.613281 0.457031 6.75 0.125 6.75 -0.316406 C 6.75 -0.742188 6.613281 -1.078125 6.367188 -1.316406 C 6.101562 -1.542969 5.757812 -1.667969 5.320312 -1.667969 Z M 5.0625 -4.46875 L 6.949219 -4.46875 L 6.9375 -5.441406 L 5.0625 -5.441406 Z M 5.0625 -4.46875 "/></g></g></g><g fill="#000000" fill-opacity="1"><g transform="translate(81.159754, 286.227351)"><g><path d="M 1.707031 -2.925781 L 2.25 -2.925781 L 2.859375 -0.441406 L 3.445312 -2.925781 L 3.910156 -2.925781 L 3.167969 -0.0117188 L 2.539062 -0.0117188 L 1.976562 -2.335938 L 1.414062 -0.0117188 L 0.777344 -0.0117188 L 0.0351562 -2.925781 L 0.511719 -2.925781 L 1.097656 -0.433594 Z M 1.707031 -2.925781 "/></g></g></g><g fill="#000000" fill-opacity="1"><g transform="translate(85.110632, 286.227351)"><g><path d="M 0.433594 -2.925781 L 0.921875 -2.925781 L 0.921875 -0.0117188 L 0.433594 -0.0117188 Z M 0.921875 -3.433594 L 0.433594 -3.433594 L 0.433594 -4.074219 L 0.921875 -4.074219 Z M 0.921875 -3.433594 "/></g></g></g><g fill="#000000" fill-opacity="1"><g transform="translate(86.468398, 286.227351)"><g><path d="M 1.542969 -3.933594 C 1.375 -3.933594 1.261719 -3.894531 1.207031 -3.824219 C 1.144531 -3.746094 1.117188 -3.621094 1.117188 -3.460938 L 1.117188 -2.925781 L 1.8125 -2.925781 L 1.8125 -2.53125 L 1.117188 -2.53125 L 1.117188 -0.015625 L 0.625 -0.015625 L 0.625 -2.53125 L 0.144531 -2.53125 L 0.144531 -2.925781 L 0.625 -2.925781 L 0.625 -3.457031 C 0.625 -3.710938 0.683594 -3.921875 0.8125 -4.089844 C 0.933594 -4.246094 1.128906 -4.328125 1.40625 -4.328125 L 1.792969 -4.328125 L 1.792969 -3.933594 Z M 1.542969 -3.933594 "/></g></g><g transform="translate(88.416017, 286.227351)"><g><path d="M 2.242188 -1.753906 C 2.238281 -1.824219 2.226562 -1.910156 2.203125 -2.007812 C 2.175781 -2.101562 2.136719 -2.199219 2.082031 -2.285156 C 2.019531 -2.371094 1.941406 -2.441406 1.851562 -2.503906 C 1.757812 -2.558594 1.640625 -2.59375 1.496094 -2.59375 C 1.347656 -2.59375 1.222656 -2.558594 1.128906 -2.503906 C 1.03125 -2.441406 0.945312 -2.371094 0.890625 -2.285156 C 0.828125 -2.199219 0.785156 -2.101562 0.761719 -2.007812 C 0.734375 -1.910156 0.71875 -1.824219 0.710938 -1.753906 Z M 2.644531 -0.300781 C 2.464844 -0.183594 2.296875 -0.101562 2.132812 -0.0429688 C 1.957031 0.0117188 1.773438 0.0429688 1.574219 0.0429688 C 1.386719 0.0429688 1.214844 0.0117188 1.050781 -0.0546875 C 0.886719 -0.117188 0.746094 -0.210938 0.625 -0.34375 C 0.5 -0.46875 0.402344 -0.628906 0.332031 -0.816406 C 0.257812 -1.007812 0.222656 -1.222656 0.222656 -1.476562 C 0.222656 -1.691406 0.25 -1.890625 0.3125 -2.082031 C 0.367188 -2.265625 0.449219 -2.425781 0.5625 -2.558594 C 0.667969 -2.691406 0.800781 -2.800781 0.960938 -2.875 C 1.117188 -2.949219 1.296875 -2.988281 1.496094 -2.988281 C 1.730469 -2.988281 1.925781 -2.945312 2.09375 -2.859375 C 2.25 -2.769531 2.375 -2.648438 2.476562 -2.503906 C 2.570312 -2.355469 2.636719 -2.179688 2.683594 -1.988281 C 2.714844 -1.785156 2.730469 -1.570312 2.722656 -1.347656 L 0.710938 -1.347656 C 0.710938 -1.167969 0.738281 -1.023438 0.789062 -0.902344 C 0.835938 -0.773438 0.902344 -0.667969 0.984375 -0.589844 C 1.0625 -0.507812 1.164062 -0.445312 1.273438 -0.410156 C 1.378906 -0.367188 1.496094 -0.351562 1.621094 -0.351562 C 1.910156 -0.351562 2.203125 -0.441406 2.503906 -0.617188 Z M 2.644531 -0.300781 "/></g></g></g><g fill="#000000" fill-opacity="1"><g transform="translate(126.053023, 286.227351)"><g><path d="M 3.132812 1.058594 C 2.945312 1.058594 2.769531 1.03125 2.609375 0.972656 C 2.441406 0.917969 2.304688 0.835938 2.1875 0.734375 C 2.066406 0.625 1.96875 0.496094 1.902344 0.34375 C 1.832031 0.1875 1.796875 0.015625 1.796875 -0.179688 C 1.796875 -0.367188 1.832031 -0.546875 1.902344 -0.699219 C 1.96875 -0.851562 2.066406 -0.980469 2.1875 -1.089844 C 2.304688 -1.191406 2.441406 -1.273438 2.609375 -1.328125 C 2.769531 -1.386719 2.945312 -1.414062 3.132812 -1.414062 C 3.316406 -1.414062 3.488281 -1.386719 3.65625 -1.328125 C 3.816406 -1.273438 3.960938 -1.191406 4.085938 -1.089844 C 4.203125 -0.980469 4.296875 -0.851562 4.367188 -0.699219 C 4.433594 -0.546875 4.472656 -0.367188 4.472656 -0.179688 C 4.472656 0.015625 4.433594 0.1875 4.367188 0.34375 C 4.296875 0.496094 4.203125 0.625 4.085938 0.734375 C 3.960938 0.835938 3.816406 0.917969 3.65625 0.972656 C 3.488281 1.03125 3.316406 1.058594 3.132812 1.058594 Z M 4.167969 -1.402344 L 4.167969 -2.703125 L 3.640625 -2.703125 L 3.640625 -1.625 L 3.132812 -1.625 L 3.132812 -1.769531 L 0.527344 -1.769531 L 0.527344 -4.074219 L 1.035156 -4.074219 L 1.035156 -2.199219 L 3.132812 -2.199219 L 3.132812 -4.164062 L 3.640625 -4.164062 L 3.640625 -3.132812 L 4.167969 -3.132812 L 4.167969 -4.257812 L 4.675781 -4.257812 L 4.675781 -1.402344 Z M 3.132812 -0.972656 C 2.875 -0.972656 2.671875 -0.902344 2.527344 -0.769531 C 2.375 -0.628906 2.304688 -0.433594 2.304688 -0.183594 C 2.304688 0.0742188 2.375 0.265625 2.527344 0.410156 C 2.671875 0.546875 2.875 0.617188 3.132812 0.617188 C 3.390625 0.617188 3.589844 0.546875 3.746094 0.410156 C 3.890625 0.265625 3.96875 0.0742188 3.96875 -0.183594 C 3.96875 -0.433594 3.890625 -0.628906 3.746094 -0.769531 C 3.589844 -0.902344 3.390625 -0.972656 3.132812 -0.972656 Z M 3.132812 -0.972656 "/></g></g></g><g fill="#000000" fill-opacity="1"><g transform="translate(131.283767, 286.227351)"><g><path d="M 2.882812 1.058594 C 2.691406 1.058594 2.519531 1.03125 2.359375 0.972656 C 2.191406 0.917969 2.054688 0.835938 1.9375 0.734375 C 1.8125 0.625 1.71875 0.496094 1.652344 0.34375 C 1.582031 0.1875 1.546875 0.015625 1.546875 -0.179688 C 1.546875 -0.367188 1.582031 -0.546875 1.652344 -0.699219 C 1.71875 -0.851562 1.8125 -0.980469 1.9375 -1.089844 C 2.054688 -1.191406 2.191406 -1.273438 2.359375 -1.328125 C 2.519531 -1.386719 2.691406 -1.414062 2.882812 -1.414062 C 3.066406 -1.414062 3.238281 -1.386719 3.40625 -1.328125 C 3.566406 -1.273438 3.710938 -1.191406 3.835938 -1.089844 C 3.949219 -0.980469 4.046875 -0.851562 4.117188 -0.699219 C 4.183594 -0.546875 4.21875 -0.367188 4.21875 -0.179688 C 4.21875 0.015625 4.183594 0.1875 4.117188 0.34375 C 4.046875 0.496094 3.949219 0.625 3.835938 0.734375 C 3.710938 0.835938 3.566406 0.917969 3.40625 0.972656 C 3.238281 1.03125 3.066406 1.058594 2.882812 1.058594 Z M 2.898438 -4.089844 L 2.898438 -1.675781 L 0.402344 -1.675781 L 0.402344 -4.074219 L 0.90625 -4.074219 L 0.90625 -3.261719 L 2.394531 -3.261719 L 2.394531 -4.089844 Z M 2.886719 -0.972656 C 2.632812 -0.972656 2.425781 -0.902344 2.28125 -0.769531 C 2.125 -0.628906 2.054688 -0.433594 2.054688 -0.183594 C 2.054688 0.0742188 2.125 0.265625 2.28125 0.410156 C 2.425781 0.546875 2.632812 0.617188 2.886719 0.617188 C 3.144531 0.617188 3.34375 0.546875 3.5 0.410156 C 3.644531 0.265625 3.722656 0.0742188 3.722656 -0.183594 C 3.722656 -0.433594 3.644531 -0.628906 3.5 -0.769531 C 3.34375 -0.902344 3.144531 -0.972656 2.886719 -0.972656 Z M 4.277344 -3.132812 L 5.125 -3.132812 L 5.125 -2.703125 L 4.277344 -2.703125 L 4.277344 -1.507812 L 3.773438 -1.507812 L 3.773438 -4.257812 L 4.277344 -4.257812 Z M 2.394531 -2.09375 L 2.394531 -2.832031 L 0.90625 -2.832031 L 0.90625 -2.09375 Z M 2.394531 -2.09375 "/></g></g></g><g fill="#000000" fill-opacity="1"><g transform="translate(136.514511, 286.227351)"><g><path d="M 3.144531 -0.808594 C 3.011719 -0.863281 2.882812 -0.941406 2.753906 -1.03125 C 2.621094 -1.117188 2.5 -1.21875 2.386719 -1.335938 C 2.265625 -1.445312 2.160156 -1.574219 2.070312 -1.714844 C 1.96875 -1.847656 1.898438 -1.988281 1.84375 -2.140625 C 1.785156 -1.988281 1.707031 -1.84375 1.613281 -1.703125 C 1.511719 -1.558594 1.402344 -1.429688 1.28125 -1.3125 C 1.15625 -1.191406 1.03125 -1.078125 0.894531 -0.984375 C 0.757812 -0.886719 0.625 -0.808594 0.488281 -0.75 L 0.21875 -1.097656 C 0.417969 -1.195312 0.605469 -1.3125 0.777344 -1.453125 C 0.945312 -1.585938 1.085938 -1.742188 1.207031 -1.917969 C 1.324219 -2.085938 1.417969 -2.277344 1.484375 -2.480469 C 1.550781 -2.683594 1.585938 -2.90625 1.585938 -3.136719 L 1.585938 -4.101562 L 2.101562 -4.101562 L 2.101562 -3.136719 C 2.101562 -2.660156 2.21875 -2.257812 2.453125 -1.941406 C 2.683594 -1.621094 3 -1.359375 3.410156 -1.15625 Z M 4.558594 0.777344 L 4.050781 0.777344 L 4.050781 -4.257812 L 4.558594 -4.257812 Z M 4.558594 0.777344 "/></g></g></g><g fill="#000000" fill-opacity="1"><g transform="translate(141.745255, 286.227351)"><g><path d="M 0.957031 0.847656 L 0.957031 -0.441406 L 4.050781 -0.441406 L 4.050781 -0.867188 L 0.957031 -0.867188 L 0.957031 -1.285156 L 4.558594 -1.285156 L 4.558594 -0.0234375 L 1.464844 -0.0234375 L 1.464844 0.429688 L 4.664062 0.429688 L 4.664062 0.847656 Z M 3.042969 -1.695312 C 2.933594 -1.742188 2.816406 -1.804688 2.703125 -1.875 C 2.585938 -1.941406 2.476562 -2.03125 2.371094 -2.132812 C 2.257812 -2.226562 2.152344 -2.335938 2.058594 -2.464844 C 1.957031 -2.585938 1.871094 -2.730469 1.804688 -2.886719 C 1.742188 -2.742188 1.664062 -2.609375 1.574219 -2.488281 C 1.480469 -2.359375 1.375 -2.242188 1.261719 -2.136719 C 1.144531 -2.027344 1.023438 -1.925781 0.894531 -1.835938 C 0.761719 -1.742188 0.625 -1.664062 0.484375 -1.597656 L 0.21875 -1.953125 C 0.40625 -2.042969 0.578125 -2.152344 0.738281 -2.277344 C 0.894531 -2.398438 1.035156 -2.53125 1.15625 -2.6875 C 1.269531 -2.839844 1.363281 -3.003906 1.429688 -3.183594 C 1.496094 -3.359375 1.53125 -3.550781 1.53125 -3.75 L 1.53125 -4.128906 L 2.046875 -4.128906 L 2.046875 -3.773438 C 2.046875 -3.550781 2.082031 -3.355469 2.160156 -3.175781 C 2.230469 -3 2.332031 -2.839844 2.453125 -2.699219 C 2.570312 -2.554688 2.703125 -2.433594 2.855469 -2.332031 C 3 -2.226562 3.148438 -2.140625 3.304688 -2.074219 Z M 3.003906 -3.367188 L 4.050781 -3.367188 L 4.050781 -4.257812 L 4.558594 -4.257812 L 4.558594 -1.5625 L 4.050781 -1.5625 L 4.050781 -2.9375 L 3.003906 -2.9375 Z M 3.003906 -3.367188 "/></g></g></g><g fill="#000000" fill-opacity="1"><g transform="translate(188.374004, 286.227351)"><g><path d="M 0.109375 -3.628906 L 0.109375 -4.074219 L 2.925781 -4.074219 L 2.925781 -3.628906 L 1.753906 -3.628906 L 1.753906 -0.0117188 L 1.246094 -0.0117188 L 1.246094 -3.628906 Z M 0.109375 -3.628906 "/></g></g></g><g fill="#000000" fill-opacity="1"><g transform="translate(191.412284, 286.227351)"><g><path d="M 1.6875 -0.554688 L 1.691406 -0.554688 L 2.789062 -4.074219 L 3.304688 -4.074219 L 1.96875 -0.0117188 L 1.40625 -0.0117188 L 0.0742188 -4.074219 L 0.589844 -4.074219 Z M 1.6875 -0.554688 "/></g></g></g><g fill="#000000" fill-opacity="1"><g transform="translate(70.583562, 344.886167)"><g><path d="M 0.734375 0.847656 L 0.734375 -1.175781 L 4.277344 -1.175781 L 4.277344 0.847656 Z M 3.773438 -0.757812 L 1.242188 -0.757812 L 1.242188 0.429688 L 3.773438 0.429688 Z M 3.042969 -1.640625 C 2.933594 -1.6875 2.816406 -1.746094 2.703125 -1.820312 C 2.585938 -1.886719 2.476562 -1.976562 2.371094 -2.074219 C 2.257812 -2.171875 2.152344 -2.28125 2.058594 -2.410156 C 1.957031 -2.53125 1.871094 -2.675781 1.804688 -2.832031 C 1.742188 -2.6875 1.664062 -2.554688 1.574219 -2.433594 C 1.480469 -2.304688 1.375 -2.1875 1.261719 -2.082031 C 1.144531 -1.96875 1.023438 -1.871094 0.894531 -1.78125 C 0.761719 -1.6875 0.625 -1.609375 0.484375 -1.542969 L 0.21875 -1.898438 C 0.40625 -1.988281 0.578125 -2.097656 0.738281 -2.21875 C 0.894531 -2.34375 1.035156 -2.476562 1.15625 -2.632812 C 1.269531 -2.78125 1.363281 -2.949219 1.429688 -3.128906 C 1.496094 -3.304688 1.53125 -3.496094 1.53125 -3.695312 L 1.53125 -4.128906 L 2.046875 -4.128906 L 2.046875 -3.71875 C 2.046875 -3.496094 2.082031 -3.300781 2.160156 -3.121094 C 2.230469 -2.945312 2.332031 -2.78125 2.453125 -2.644531 C 2.570312 -2.5 2.703125 -2.375 2.855469 -2.277344 C 3 -2.171875 3.148438 -2.085938 3.304688 -2.019531 Z M 4.277344 -3.652344 L 5.125 -3.652344 L 5.125 -3.222656 L 4.277344 -3.222656 L 4.277344 -2.59375 L 5.125 -2.59375 L 5.125 -2.164062 L 4.277344 -2.164062 L 4.277344 -1.453125 L 3.773438 -1.453125 L 3.773438 -4.257812 L 4.277344 -4.257812 Z M 4.277344 -3.652344 "/></g></g></g><g fill="#000000" fill-opacity="1"><g transform="translate(75.814306, 344.886167)"><g><path d="M 0.734375 -1.601562 L 0.734375 -2.03125 L 1.570312 -2.03125 L 1.570312 -3.644531 L 0.789062 -3.644531 L 0.789062 -4.074219 L 4.433594 -4.074219 L 4.433594 -3.644531 L 3.65625 -3.644531 L 3.65625 -2.03125 L 4.492188 -2.03125 L 4.492188 -1.601562 Z M 0.234375 -0.0429688 L 0.234375 -0.472656 L 4.976562 -0.472656 L 4.976562 -0.0429688 Z M 2.074219 -2.03125 L 3.148438 -2.03125 L 3.148438 -3.644531 L 2.074219 -3.644531 Z M 2.074219 -2.03125 "/></g></g></g><g fill="#000000" fill-opacity="1"><g transform="translate(81.04505, 344.886167)"><g><path d="M 1.136719 0.339844 C 1.136719 0.445312 1.125 0.546875 1.101562 0.644531 C 1.078125 0.734375 1.039062 0.816406 0.992188 0.894531 C 0.933594 0.96875 0.867188 1.03125 0.785156 1.085938 C 0.695312 1.128906 0.589844 1.164062 0.46875 1.183594 L 0.46875 0.851562 C 0.566406 0.839844 0.652344 0.796875 0.71875 0.730469 C 0.777344 0.652344 0.8125 0.546875 0.8125 0.410156 L 0.8125 0.382812 L 0.488281 0.382812 L 0.488281 -0.257812 L 1.136719 -0.257812 Z M 1.136719 0.339844 "/></g></g></g><g fill="#000000" fill-opacity="1"><g transform="translate(82.64766, 344.886167)"><g><path d="M 4.558594 -0.640625 L 4.050781 -0.640625 L 4.050781 -1.519531 L 0.511719 -1.519531 L 0.511719 -3.027344 L 2.386719 -3.027344 L 2.386719 -3.644531 L 0.5 -3.644531 L 0.5 -4.074219 L 2.90625 -4.074219 L 2.90625 -2.597656 L 1.019531 -2.597656 L 1.019531 -1.949219 L 4.050781 -1.949219 L 4.050781 -4.257812 L 4.558594 -4.257812 Z M 0.953125 0.789062 L 0.953125 -0.953125 L 1.457031 -0.953125 L 1.457031 0.363281 L 4.65625 0.363281 L 4.65625 0.789062 Z M 0.953125 0.789062 "/></g></g></g><g fill="#000000" fill-opacity="1"><g transform="translate(87.878404, 344.886167)"><g><path d="M 4.367188 -1.484375 C 4.179688 -1.519531 3.996094 -1.574219 3.816406 -1.652344 C 3.632812 -1.726562 3.464844 -1.8125 3.3125 -1.917969 C 3.15625 -2.019531 3.015625 -2.140625 2.898438 -2.277344 C 2.777344 -2.410156 2.683594 -2.554688 2.617188 -2.714844 C 2.546875 -2.554688 2.453125 -2.410156 2.332031 -2.277344 C 2.210938 -2.140625 2.070312 -2.019531 1.914062 -1.917969 C 1.757812 -1.8125 1.589844 -1.726562 1.414062 -1.652344 C 1.230469 -1.574219 1.046875 -1.519531 0.863281 -1.484375 L 0.695312 -1.886719 C 0.894531 -1.929688 1.101562 -1.996094 1.300781 -2.085938 C 1.496094 -2.171875 1.675781 -2.28125 1.832031 -2.421875 C 1.988281 -2.554688 2.109375 -2.722656 2.210938 -2.914062 C 2.304688 -3.105469 2.355469 -3.320312 2.355469 -3.578125 L 2.355469 -4.128906 L 2.875 -4.128906 L 2.875 -3.578125 C 2.875 -3.320312 2.921875 -3.105469 3.023438 -2.914062 C 3.109375 -2.722656 3.238281 -2.554688 3.394531 -2.421875 C 3.550781 -2.28125 3.726562 -2.171875 3.929688 -2.085938 C 4.125 -1.996094 4.324219 -1.929688 4.535156 -1.886719 Z M 0.234375 -0.0429688 L 0.234375 -0.472656 L 4.976562 -0.472656 L 4.976562 -0.0429688 Z M 0.234375 -0.0429688 "/></g></g></g><g fill="#000000" fill-opacity="1"><g transform="translate(93.109148, 344.886167)"><g/></g></g><g fill="#000000" fill-opacity="1"><g transform="translate(94.66724, 344.886167)"><g><path d="M 2.34375 0.761719 L 2.34375 -1.359375 L 0.234375 -1.359375 L 0.234375 -1.785156 L 3.8125 -1.785156 L 3.8125 -3.644531 L 0.789062 -3.644531 L 0.789062 -4.074219 L 4.328125 -4.074219 L 4.328125 -1.785156 L 4.976562 -1.785156 L 4.976562 -1.359375 L 2.847656 -1.359375 L 2.847656 0.761719 Z M 2.34375 0.761719 "/></g></g></g><g fill="#000000" fill-opacity="1"><g transform="translate(99.897984, 344.886167)"><g><path d="M 3.011719 -4.089844 L 3.011719 -0.867188 L 0.511719 -0.867188 L 0.511719 -4.074219 L 1.019531 -4.074219 L 1.019531 -2.84375 L 2.503906 -2.84375 L 2.503906 -4.089844 Z M 4.558594 0.777344 L 4.050781 0.777344 L 4.050781 -4.257812 L 4.558594 -4.257812 Z M 2.503906 -1.296875 L 2.503906 -2.414062 L 1.019531 -2.414062 L 1.019531 -1.296875 Z M 2.503906 -1.296875 "/></g></g></g><g fill="#000000" fill-opacity="1"><g transform="translate(119.685603, 344.886167)"><g><path d="M 4.050781 0.867188 L 4.050781 -0.75 L 0.902344 -0.75 L 0.902344 -1.179688 L 4.558594 -1.179688 L 4.558594 0.867188 Z M 3.15625 -1.640625 C 3.042969 -1.6875 2.925781 -1.746094 2.816406 -1.820312 C 2.699219 -1.886719 2.585938 -1.976562 2.480469 -2.074219 C 2.371094 -2.171875 2.265625 -2.28125 2.171875 -2.410156 C 2.070312 -2.53125 1.980469 -2.675781 1.914062 -2.832031 C 1.851562 -2.6875 1.773438 -2.554688 1.6875 -2.433594 C 1.589844 -2.304688 1.484375 -2.1875 1.375 -2.082031 C 1.257812 -1.96875 1.136719 -1.871094 1.007812 -1.78125 C 0.875 -1.6875 0.734375 -1.609375 0.59375 -1.542969 L 0.328125 -1.898438 C 0.515625 -1.988281 0.691406 -2.097656 0.851562 -2.21875 C 1.007812 -2.34375 1.144531 -2.476562 1.269531 -2.632812 C 1.378906 -2.78125 1.476562 -2.949219 1.542969 -3.128906 C 1.609375 -3.304688 1.640625 -3.496094 1.640625 -3.695312 L 1.640625 -4.128906 L 2.160156 -4.128906 L 2.160156 -3.71875 C 2.160156 -3.496094 2.191406 -3.300781 2.269531 -3.121094 C 2.34375 -2.945312 2.441406 -2.78125 2.566406 -2.644531 C 2.683594 -2.5 2.816406 -2.375 2.964844 -2.277344 C 3.109375 -2.171875 3.261719 -2.085938 3.417969 -2.019531 Z M 4.558594 -1.453125 L 4.050781 -1.453125 L 4.050781 -4.257812 L 4.558594 -4.257812 Z M 4.558594 -1.453125 "/></g></g></g><g fill="#000000" fill-opacity="1"><g transform="translate(124.916347, 344.886167)"><g><path d="M 4.558594 0.777344 L 4.050781 0.777344 L 4.050781 -4.257812 L 4.558594 -4.257812 Z M 2.5 -0.867188 L 2.5 -3.644531 L 0.5625 -3.644531 L 0.5625 -4.074219 L 3.003906 -4.074219 L 3.003906 -0.867188 Z M 2.5 -0.867188 "/></g></g></g><g fill="#000000" fill-opacity="1"><g transform="translate(130.14709, 344.886167)"><g><path d="M 0.902344 -1.71875 L 0.902344 -3.117188 L 3.824219 -3.117188 L 3.824219 -3.65625 L 0.902344 -3.65625 L 0.902344 -4.074219 L 4.328125 -4.074219 L 4.328125 -2.699219 L 1.40625 -2.699219 L 1.40625 -2.136719 L 4.433594 -2.136719 L 4.433594 -1.71875 Z M 1.492188 0.761719 L 1.492188 -0.828125 L 0.234375 -0.828125 L 0.234375 -1.257812 L 4.96875 -1.257812 L 4.96875 -0.828125 L 3.734375 -0.828125 L 3.734375 0.761719 L 3.226562 0.761719 L 3.226562 -0.828125 L 1.996094 -0.828125 L 1.996094 0.761719 Z M 1.492188 0.761719 "/></g></g></g><g fill="#000000" fill-opacity="1"><g transform="translate(135.377834, 344.886167)"><g><path d="M 1.136719 0.339844 C 1.136719 0.445312 1.125 0.546875 1.101562 0.644531 C 1.078125 0.734375 1.039062 0.816406 0.992188 0.894531 C 0.933594 0.96875 0.867188 1.03125 0.785156 1.085938 C 0.695312 1.128906 0.589844 1.164062 0.46875 1.183594 L 0.46875 0.851562 C 0.566406 0.839844 0.652344 0.796875 0.71875 0.730469 C 0.777344 0.652344 0.8125 0.546875 0.8125 0.410156 L 0.8125 0.382812 L 0.488281 0.382812 L 0.488281 -0.257812 L 1.136719 -0.257812 Z M 1.136719 0.339844 "/></g></g></g><g fill="#000000" fill-opacity="1"><g transform="translate(136.980445, 344.886167)"><g><path d="M 2.386719 -2.804688 L 2.386719 -3.644531 L 0.449219 -3.644531 L 0.449219 -4.074219 L 2.894531 -4.074219 L 2.894531 -2.6875 L 4.050781 -2.6875 L 4.050781 -4.257812 L 4.558594 -4.257812 L 4.558594 0.777344 L 4.050781 0.777344 L 4.050781 -2.257812 L 2.894531 -2.257812 L 2.894531 -0.867188 L 2.386719 -0.867188 L 2.386719 -2.375 L 0.429688 -2.375 L 0.429688 -2.804688 Z M 2.386719 -2.804688 "/></g></g></g><g fill="#000000" fill-opacity="1"><g transform="translate(142.211188, 344.886167)"><g><path d="M 2.730469 -3.644531 L 2.730469 -1.296875 L 4.050781 -1.296875 L 4.050781 -4.257812 L 4.558594 -4.257812 L 4.558594 0.777344 L 4.050781 0.777344 L 4.050781 -0.867188 L 0.34375 -0.867188 L 0.34375 -1.296875 L 0.902344 -1.296875 L 0.902344 -3.644531 L 0.402344 -3.644531 L 0.402344 -4.074219 L 3.234375 -4.074219 L 3.234375 -3.644531 Z M 1.40625 -1.296875 L 2.226562 -1.296875 L 2.226562 -3.644531 L 1.40625 -3.644531 Z M 1.40625 -1.296875 "/></g></g></g><g fill="#000000" fill-opacity="1"><g transform="translate(147.441932, 344.886167)"><g><path d="M 2.867188 -1.601562 L 2.867188 -0.472656 L 4.96875 -0.472656 L 4.96875 -0.0429688 L 0.234375 -0.0429688 L 0.234375 -0.472656 L 2.359375 -0.472656 L 2.359375 -1.601562 L 0.734375 -1.601562 L 0.734375 -2.03125 L 1.570312 -2.03125 L 1.570312 -3.644531 L 0.789062 -3.644531 L 0.789062 -4.074219 L 4.433594 -4.074219 L 4.433594 -3.644531 L 3.65625 -3.644531 L 3.65625 -2.03125 L 4.492188 -2.03125 L 4.492188 -1.601562 Z M 2.074219 -2.03125 L 3.148438 -2.03125 L 3.148438 -3.644531 L 2.074219 -3.644531 Z M 2.074219 -2.03125 "/></g></g></g><g fill="#000000" fill-opacity="1"><g transform="translate(152.672676, 344.886167)"><g><path d="M 1.40625 -2.527344 L 1.40625 -1.8125 L 4.351562 -1.8125 L 4.351562 -1.386719 L 0.902344 -1.386719 L 0.902344 -4.074219 L 4.296875 -4.074219 L 4.296875 -3.644531 L 1.40625 -3.644531 L 1.40625 -2.953125 L 4.242188 -2.953125 L 4.242188 -2.527344 Z M 0.234375 -0.0429688 L 0.234375 -0.472656 L 4.976562 -0.472656 L 4.976562 -0.0429688 Z M 0.234375 -0.0429688 "/></g></g></g><g fill="#000000" fill-opacity="1"><g transform="translate(157.90342, 344.886167)"><g><path d="M 1.136719 0.339844 C 1.136719 0.445312 1.125 0.546875 1.101562 0.644531 C 1.078125 0.734375 1.039062 0.816406 0.992188 0.894531 C 0.933594 0.96875 0.867188 1.03125 0.785156 1.085938 C 0.695312 1.128906 0.589844 1.164062 0.46875 1.183594 L 0.46875 0.851562 C 0.566406 0.839844 0.652344 0.796875 0.71875 0.730469 C 0.777344 0.652344 0.8125 0.546875 0.8125 0.410156 L 0.8125 0.382812 L 0.488281 0.382812 L 0.488281 -0.257812 L 1.136719 -0.257812 Z M 1.136719 0.339844 "/></g></g></g><g fill="#000000" fill-opacity="1"><g transform="translate(119.685603, 352.676642)"><g><path d="M 0.761719 -3.796875 L 2.355469 -3.796875 L 2.355469 -4.335938 L 2.871094 -4.335938 L 2.871094 -3.796875 L 4.457031 -3.796875 L 4.457031 -3.378906 L 3.644531 -3.378906 C 3.835938 -3.1875 3.929688 -2.953125 3.929688 -2.664062 C 3.929688 -2.488281 3.894531 -2.332031 3.835938 -2.191406 C 3.765625 -2.046875 3.679688 -1.929688 3.566406 -1.835938 C 3.449219 -1.734375 3.3125 -1.660156 3.15625 -1.609375 C 2.988281 -1.550781 2.808594 -1.53125 2.617188 -1.53125 C 2.414062 -1.53125 2.230469 -1.558594 2.074219 -1.613281 C 1.910156 -1.664062 1.773438 -1.742188 1.664062 -1.84375 C 1.546875 -1.9375 1.457031 -2.054688 1.398438 -2.199219 C 1.328125 -2.332031 1.300781 -2.488281 1.300781 -2.664062 C 1.300781 -2.808594 1.324219 -2.9375 1.375 -3.058594 C 1.417969 -3.175781 1.492188 -3.28125 1.582031 -3.378906 L 0.761719 -3.378906 Z M 2.34375 0.761719 L 2.34375 -0.773438 L 0.234375 -0.773438 L 0.234375 -1.203125 L 4.96875 -1.203125 L 4.96875 -0.773438 L 2.847656 -0.773438 L 2.847656 0.761719 Z M 3.421875 -2.664062 C 3.421875 -2.765625 3.40625 -2.855469 3.378906 -2.945312 C 3.34375 -3.027344 3.292969 -3.097656 3.226562 -3.167969 C 3.160156 -3.226562 3.078125 -3.277344 2.976562 -3.316406 C 2.871094 -3.351562 2.75 -3.367188 2.617188 -3.367188 C 2.476562 -3.367188 2.359375 -3.351562 2.257812 -3.316406 C 2.160156 -3.277344 2.074219 -3.226562 2.007812 -3.167969 C 1.941406 -3.097656 1.890625 -3.027344 1.859375 -2.945312 C 1.824219 -2.855469 1.808594 -2.765625 1.808594 -2.671875 C 1.808594 -2.46875 1.875 -2.304688 2.007812 -2.171875 C 2.136719 -2.035156 2.335938 -1.96875 2.617188 -1.96875 C 2.894531 -1.96875 3.09375 -2.035156 3.226562 -2.171875 C 3.355469 -2.296875 3.421875 -2.464844 3.421875 -2.664062 Z M 3.421875 -2.664062 "/></g></g></g><g fill="#000000" fill-opacity="1"><g transform="translate(124.916347, 352.676642)"><g><path d="M 4.277344 -2.691406 L 5.125 -2.691406 L 5.125 -2.257812 L 4.277344 -2.257812 L 4.277344 0.777344 L 3.773438 0.777344 L 3.773438 -0.867188 L 0.402344 -0.867188 L 0.402344 -2.742188 L 2.277344 -2.742188 L 2.277344 -3.644531 L 0.390625 -3.644531 L 0.390625 -4.074219 L 2.792969 -4.074219 L 2.792969 -2.316406 L 0.90625 -2.316406 L 0.90625 -1.296875 L 3.773438 -1.296875 L 3.773438 -4.257812 L 4.277344 -4.257812 Z M 4.277344 -2.691406 "/></g></g></g><g fill="#000000" fill-opacity="1"><g transform="translate(130.14709, 352.676642)"><g><path d="M 0.46875 -2.65625 C 0.46875 -2.867188 0.507812 -3.058594 0.585938 -3.238281 C 0.65625 -3.410156 0.761719 -3.5625 0.894531 -3.6875 C 1.03125 -3.8125 1.183594 -3.90625 1.363281 -3.972656 C 1.535156 -4.039062 1.726562 -4.074219 1.925781 -4.074219 C 2.125 -4.074219 2.316406 -4.039062 2.492188 -3.972656 C 2.671875 -3.90625 2.828125 -3.8125 2.960938 -3.6875 C 3.09375 -3.5625 3.199219 -3.410156 3.277344 -3.238281 C 3.355469 -3.058594 3.394531 -2.867188 3.394531 -2.65625 C 3.394531 -2.433594 3.355469 -2.238281 3.277344 -2.066406 C 3.199219 -1.886719 3.09375 -1.742188 2.960938 -1.621094 C 2.828125 -1.492188 2.671875 -1.398438 2.492188 -1.328125 C 2.316406 -1.261719 2.125 -1.230469 1.925781 -1.230469 C 1.726562 -1.230469 1.535156 -1.261719 1.363281 -1.335938 C 1.183594 -1.402344 1.03125 -1.496094 0.894531 -1.625 C 0.761719 -1.746094 0.65625 -1.890625 0.585938 -2.070312 C 0.507812 -2.242188 0.46875 -2.4375 0.46875 -2.65625 Z M 2.886719 -2.65625 C 2.886719 -2.949219 2.800781 -3.1875 2.632812 -3.371094 C 2.453125 -3.550781 2.21875 -3.644531 1.925781 -3.644531 C 1.78125 -3.644531 1.652344 -3.617188 1.542969 -3.574219 C 1.417969 -3.523438 1.320312 -3.457031 1.242188 -3.371094 C 1.152344 -3.28125 1.089844 -3.175781 1.046875 -3.058594 C 0.996094 -2.9375 0.972656 -2.804688 0.972656 -2.660156 C 0.972656 -2.503906 0.996094 -2.363281 1.046875 -2.242188 C 1.089844 -2.121094 1.152344 -2.015625 1.242188 -1.929688 C 1.320312 -1.84375 1.417969 -1.773438 1.542969 -1.730469 C 1.652344 -1.679688 1.78125 -1.660156 1.925781 -1.660156 C 2.21875 -1.660156 2.453125 -1.746094 2.632812 -1.929688 C 2.800781 -2.109375 2.886719 -2.347656 2.886719 -2.65625 Z M 4.558594 0.777344 L 4.050781 0.777344 L 4.050781 -4.257812 L 4.558594 -4.257812 Z M 4.558594 0.777344 "/></g></g></g><g fill="#000000" fill-opacity="1"><g transform="translate(135.377834, 352.676642)"><g><path d="M 2.34375 -3.644531 L 2.34375 -2.003906 L 3.132812 -2.003906 L 3.132812 -4.164062 L 3.640625 -4.164062 L 3.640625 -3.078125 L 4.164062 -3.078125 L 4.164062 -4.257812 L 4.667969 -4.257812 L 4.667969 -0.640625 L 4.164062 -0.640625 L 4.164062 -2.648438 L 3.640625 -2.648438 L 3.640625 -0.695312 L 3.132812 -0.695312 L 3.132812 -1.574219 L 0.179688 -1.574219 L 0.179688 -2.003906 L 0.679688 -2.003906 L 0.679688 -3.644531 L 0.234375 -3.644531 L 0.234375 -4.074219 L 2.789062 -4.074219 L 2.789062 -3.644531 Z M 1.070312 0.789062 L 1.070312 -1.0625 L 1.574219 -1.0625 L 1.574219 0.363281 L 4.71875 0.363281 L 4.71875 0.789062 Z M 1.183594 -2.003906 L 1.835938 -2.003906 L 1.835938 -3.644531 L 1.183594 -3.644531 Z M 1.183594 -2.003906 "/></g></g></g><g fill="#000000" fill-opacity="1"><g transform="translate(140.608578, 352.676642)"><g/></g></g><g fill="#000000" fill-opacity="1"><g transform="translate(142.16667, 352.676642)"><g><path d="M 2.34375 0.761719 L 2.34375 -1.359375 L 0.234375 -1.359375 L 0.234375 -1.785156 L 3.8125 -1.785156 L 3.8125 -3.644531 L 0.789062 -3.644531 L 0.789062 -4.074219 L 4.328125 -4.074219 L 4.328125 -1.785156 L 4.976562 -1.785156 L 4.976562 -1.359375 L 2.847656 -1.359375 L 2.847656 0.761719 Z M 2.34375 0.761719 "/></g></g></g><g fill="#000000" fill-opacity="1"><g transform="translate(147.397414, 352.676642)"><g><path d="M 3.011719 -4.089844 L 3.011719 -0.867188 L 0.511719 -0.867188 L 0.511719 -4.074219 L 1.019531 -4.074219 L 1.019531 -2.84375 L 2.503906 -2.84375 L 2.503906 -4.089844 Z M 4.558594 0.777344 L 4.050781 0.777344 L 4.050781 -4.257812 L 4.558594 -4.257812 Z M 2.503906 -1.296875 L 2.503906 -2.414062 L 1.019531 -2.414062 L 1.019531 -1.296875 Z M 2.503906 -1.296875 "/></g></g></g><g fill="#000000" fill-opacity="1"><g transform="translate(178.225933, 344.886167)"><g><path d="M 3.15625 -4.074219 L 3.15625 -3.644531 L 2.042969 -3.644531 L 2.042969 -3.34375 C 2.042969 -3.148438 2.074219 -2.976562 2.152344 -2.828125 C 2.226562 -2.671875 2.320312 -2.53125 2.441406 -2.414062 C 2.554688 -2.292969 2.6875 -2.191406 2.839844 -2.113281 C 2.984375 -2.03125 3.136719 -1.96875 3.292969 -1.925781 L 3.054688 -1.546875 C 2.945312 -1.570312 2.828125 -1.613281 2.714844 -1.667969 C 2.59375 -1.726562 2.480469 -1.792969 2.371094 -1.875 C 2.257812 -1.953125 2.152344 -2.046875 2.054688 -2.160156 C 1.953125 -2.265625 1.863281 -2.386719 1.796875 -2.519531 C 1.675781 -2.257812 1.496094 -2.035156 1.257812 -1.847656 C 1.011719 -1.652344 0.75 -1.503906 0.46875 -1.390625 L 0.226562 -1.746094 C 0.417969 -1.824219 0.589844 -1.914062 0.75 -2.019531 C 0.90625 -2.121094 1.046875 -2.230469 1.167969 -2.363281 C 1.28125 -2.488281 1.375 -2.632812 1.441406 -2.792969 C 1.503906 -2.949219 1.535156 -3.128906 1.535156 -3.320312 L 1.535156 -3.644531 L 0.417969 -3.644531 L 0.417969 -4.074219 Z M 0.957031 0.789062 L 0.957031 -1.0625 L 1.464844 -1.0625 L 1.464844 0.363281 L 4.664062 0.363281 L 4.664062 0.789062 Z M 4.050781 -3.132812 L 4.050781 -4.257812 L 4.558594 -4.257812 L 4.558594 -0.640625 L 4.050781 -0.640625 L 4.050781 -2.703125 L 3.066406 -2.703125 L 3.066406 -3.132812 Z M 4.050781 -3.132812 "/></g></g></g><g fill="#000000" fill-opacity="1"><g transform="translate(183.456677, 344.886167)"><g><path d="M 3.105469 -4.074219 L 3.105469 -3.644531 L 1.992188 -3.644531 L 1.992188 -3.136719 C 1.992188 -2.660156 2.109375 -2.257812 2.34375 -1.941406 C 2.570312 -1.621094 2.886719 -1.359375 3.300781 -1.15625 L 3.03125 -0.808594 C 2.898438 -0.863281 2.769531 -0.941406 2.644531 -1.03125 C 2.507812 -1.117188 2.386719 -1.21875 2.277344 -1.335938 C 2.152344 -1.445312 2.046875 -1.574219 1.957031 -1.714844 C 1.859375 -1.847656 1.785156 -1.988281 1.730469 -2.140625 C 1.675781 -1.988281 1.597656 -1.84375 1.503906 -1.703125 C 1.402344 -1.558594 1.289062 -1.429688 1.167969 -1.3125 C 1.046875 -1.191406 0.917969 -1.078125 0.785156 -0.984375 C 0.644531 -0.886719 0.511719 -0.808594 0.378906 -0.75 L 0.105469 -1.097656 C 0.304688 -1.195312 0.496094 -1.3125 0.667969 -1.453125 C 0.835938 -1.585938 0.972656 -1.742188 1.097656 -1.917969 C 1.214844 -2.085938 1.308594 -2.277344 1.375 -2.480469 C 1.441406 -2.683594 1.476562 -2.90625 1.476562 -3.136719 L 1.476562 -3.644531 L 0.363281 -3.644531 L 0.363281 -4.074219 Z M 4.277344 -2.6875 L 5.125 -2.6875 L 5.125 -2.257812 L 4.277344 -2.257812 L 4.277344 0.777344 L 3.773438 0.777344 L 3.773438 -4.257812 L 4.277344 -4.257812 Z M 4.277344 -2.6875 "/></g></g></g><g fill="#000000" fill-opacity="1"><g transform="translate(188.687421, 344.886167)"><g><path d="M 2.699219 -2.738281 L 3.1875 -2.738281 L 3.1875 -4.195312 L 3.695312 -4.195312 L 3.695312 0.746094 L 3.1875 0.746094 L 3.1875 -0.867188 L 0.472656 -0.867188 L 0.472656 -2.742188 L 1.957031 -2.742188 L 1.957031 -3.644531 L 0.460938 -3.644531 L 0.460938 -4.074219 L 2.476562 -4.074219 L 2.476562 -2.316406 L 0.980469 -2.316406 L 0.980469 -1.296875 L 3.1875 -1.296875 L 3.1875 -2.316406 L 2.699219 -2.316406 Z M 4.164062 0.777344 L 4.164062 -4.257812 L 4.667969 -4.257812 L 4.667969 0.777344 Z M 4.164062 0.777344 "/></g></g></g><g fill="#000000" fill-opacity="1"><g transform="translate(193.918165, 344.886167)"><g><path d="M 0.960938 0.789062 L 0.960938 -1.0625 L 1.46875 -1.0625 L 1.46875 0.363281 L 4.667969 0.363281 L 4.667969 0.789062 Z M 4.558594 -0.640625 L 4.050781 -0.640625 L 4.050781 -4.257812 L 4.558594 -4.257812 Z M 0.457031 -2.910156 C 0.457031 -3.097656 0.488281 -3.277344 0.5625 -3.4375 C 0.628906 -3.59375 0.722656 -3.734375 0.847656 -3.851562 C 0.960938 -3.960938 1.101562 -4.046875 1.269531 -4.113281 C 1.425781 -4.167969 1.597656 -4.203125 1.78125 -4.203125 C 1.957031 -4.203125 2.132812 -4.167969 2.296875 -4.113281 C 2.460938 -4.046875 2.597656 -3.960938 2.722656 -3.851562 C 2.839844 -3.738281 2.933594 -3.601562 3.011719 -3.445312 C 3.078125 -3.28125 3.117188 -3.105469 3.117188 -2.910156 C 3.117188 -2.710938 3.078125 -2.53125 3.011719 -2.375 C 2.933594 -2.214844 2.839844 -2.082031 2.722656 -1.96875 C 2.597656 -1.859375 2.460938 -1.769531 2.296875 -1.714844 C 2.132812 -1.648438 1.957031 -1.621094 1.78125 -1.621094 C 1.597656 -1.621094 1.425781 -1.648438 1.269531 -1.714844 C 1.101562 -1.769531 0.960938 -1.859375 0.847656 -1.976562 C 0.722656 -2.085938 0.628906 -2.21875 0.5625 -2.382812 C 0.488281 -2.539062 0.457031 -2.710938 0.457031 -2.910156 Z M 2.609375 -2.910156 C 2.609375 -3.167969 2.53125 -3.371094 2.386719 -3.527344 C 2.238281 -3.683594 2.035156 -3.761719 1.78125 -3.761719 C 1.660156 -3.761719 1.550781 -3.738281 1.453125 -3.699219 C 1.347656 -3.65625 1.257812 -3.601562 1.191406 -3.527344 C 1.113281 -3.449219 1.058594 -3.359375 1.023438 -3.261719 C 0.980469 -3.15625 0.960938 -3.039062 0.960938 -2.914062 C 0.960938 -2.78125 0.980469 -2.664062 1.023438 -2.566406 C 1.058594 -2.460938 1.113281 -2.371094 1.191406 -2.296875 C 1.257812 -2.21875 1.347656 -2.160156 1.453125 -2.121094 C 1.550781 -2.074219 1.660156 -2.058594 1.78125 -2.058594 C 2.035156 -2.058594 2.238281 -2.136719 2.386719 -2.292969 C 2.53125 -2.449219 2.609375 -2.65625 2.609375 -2.910156 Z M 2.609375 -2.910156 "/></g></g></g><g fill="#000000" fill-opacity="1"><g transform="translate(199.148908, 344.886167)"><g><path d="M 3.214844 -4.074219 L 3.214844 -3.644531 L 2.101562 -3.644531 L 2.101562 -3.136719 C 2.101562 -2.660156 2.21875 -2.257812 2.453125 -1.941406 C 2.683594 -1.621094 3 -1.359375 3.410156 -1.15625 L 3.144531 -0.808594 C 3.011719 -0.863281 2.882812 -0.941406 2.753906 -1.03125 C 2.621094 -1.117188 2.5 -1.21875 2.386719 -1.335938 C 2.265625 -1.445312 2.160156 -1.574219 2.070312 -1.714844 C 1.96875 -1.847656 1.898438 -1.988281 1.84375 -2.140625 C 1.785156 -1.988281 1.707031 -1.84375 1.613281 -1.703125 C 1.511719 -1.558594 1.402344 -1.429688 1.28125 -1.3125 C 1.15625 -1.191406 1.03125 -1.078125 0.894531 -0.984375 C 0.757812 -0.886719 0.625 -0.808594 0.488281 -0.75 L 0.21875 -1.097656 C 0.417969 -1.195312 0.605469 -1.3125 0.777344 -1.453125 C 0.945312 -1.585938 1.085938 -1.742188 1.207031 -1.917969 C 1.324219 -2.085938 1.417969 -2.277344 1.484375 -2.480469 C 1.550781 -2.683594 1.585938 -2.90625 1.585938 -3.136719 L 1.585938 -3.644531 L 0.472656 -3.644531 L 0.472656 -4.074219 Z M 4.558594 0.777344 L 4.050781 0.777344 L 4.050781 -4.257812 L 4.558594 -4.257812 Z M 4.558594 0.777344 "/></g></g></g><g fill="#000000" fill-opacity="1"><g transform="translate(204.379652, 344.886167)"><g/></g></g><g fill="#000000" fill-opacity="1"><g transform="translate(205.937745, 344.886167)"><g><path d="M 2.34375 0.761719 L 2.34375 -1.359375 L 0.234375 -1.359375 L 0.234375 -1.785156 L 3.8125 -1.785156 L 3.8125 -3.644531 L 0.789062 -3.644531 L 0.789062 -4.074219 L 4.328125 -4.074219 L 4.328125 -1.785156 L 4.976562 -1.785156 L 4.976562 -1.359375 L 2.847656 -1.359375 L 2.847656 0.761719 Z M 2.34375 0.761719 "/></g></g></g><g fill="#000000" fill-opacity="1"><g transform="translate(211.168488, 344.886167)"><g><path d="M 3.011719 -4.089844 L 3.011719 -0.867188 L 0.511719 -0.867188 L 0.511719 -4.074219 L 1.019531 -4.074219 L 1.019531 -2.84375 L 2.503906 -2.84375 L 2.503906 -4.089844 Z M 4.558594 0.777344 L 4.050781 0.777344 L 4.050781 -4.257812 L 4.558594 -4.257812 Z M 2.503906 -1.296875 L 2.503906 -2.414062 L 1.019531 -2.414062 L 1.019531 -1.296875 Z M 2.503906 -1.296875 "/></g></g></g></svg>