<svg xmlns="http://www.w3.org/2000/svg" xmlns:xlink="http://www.w3.org/1999/xlink" width="380" zoomAndPan="magnify" viewBox="0 0 285 74.999997" height="100" preserveAspectRatio="xMidYMid meet" version="1.0"><defs><g/></defs><rect x="-28.5" width="342" fill="#ffffff" y="-7.5" height="89.999996" fill-opacity="1"/><rect x="-28.5" width="342" fill="#ffffff" y="-7.5" height="89.999996" fill-opacity="1"/><rect x="-28.5" width="342" fill="#94a8b8" y="-7.5" height="89.999996" fill-opacity="1"/><g fill="#ffffff" fill-opacity="1"><g transform="translate(131.819527, 38.549996)"><g><path d="M 1.320312 0.792969 C 1.199219 0.792969 1.085938 0.769531 0.988281 0.730469 C 0.882812 0.683594 0.796875 0.628906 0.726562 0.558594 C 0.648438 0.480469 0.589844 0.390625 0.550781 0.292969 C 0.503906 0.1875 0.484375 0.078125 0.484375 -0.0429688 L 0.484375 -3.664062 C 0.484375 -3.785156 0.503906 -3.894531 0.550781 -4.003906 C 0.589844 -4.097656 0.648438 -4.1875 0.726562 -4.265625 C 0.796875 -4.339844 0.882812 -4.390625 0.988281 -4.441406 C 1.085938 -4.476562 1.199219 -4.5 1.320312 -4.5 L 1.859375 -4.5 C 1.980469 -4.5 2.089844 -4.476562 2.195312 -4.441406 C 2.292969 -4.390625 2.382812 -4.339844 2.460938 -4.265625 C 2.53125 -4.1875 2.585938 -4.097656 2.632812 -4.003906 C 2.671875 -3.894531 2.695312 -3.785156 2.695312 -3.664062 L 2.695312 -3.167969 L 3.421875 -3.167969 L 3.421875 -4.53125 L 3.847656 -4.53125 L 3.847656 0.820312 L 3.421875 0.820312 L 3.421875 -0.820312 L 2.695312 -0.820312 L 2.695312 -0.0429688 C 2.695312 0.078125 2.671875 0.1875 2.632812 0.292969 C 2.585938 0.390625 2.53125 0.480469 2.460938 0.558594 C 2.382812 0.628906 2.292969 0.683594 2.195312 0.730469 C 2.089844 0.769531 1.980469 0.792969 1.859375 0.792969 Z M 2.25 -3.617188 C 2.25 -3.761719 2.203125 -3.886719 2.105469 -3.984375 C 2.011719 -4.078125 1.882812 -4.128906 1.738281 -4.128906 L 1.441406 -4.128906 C 1.289062 -4.128906 1.171875 -4.078125 1.074219 -3.984375 C 0.976562 -3.886719 0.929688 -3.761719 0.929688 -3.617188 L 0.929688 -0.0898438 C 0.929688 0.0546875 0.976562 0.179688 1.074219 0.277344 C 1.171875 0.371094 1.289062 0.421875 1.441406 0.421875 L 1.738281 0.421875 C 1.882812 0.421875 2.011719 0.371094 2.105469 0.277344 C 2.203125 0.179688 2.25 0.0546875 2.25 -0.0898438 Z M 4.453125 0.898438 L 4.453125 -4.578125 L 4.878906 -4.578125 L 4.878906 0.898438 Z M 2.695312 -1.195312 L 3.421875 -1.195312 L 3.421875 -2.796875 L 2.695312 -2.796875 Z M 2.695312 -1.195312 "/></g></g></g><g fill="#ffffff" fill-opacity="1"><g transform="translate(137.15952, 38.549996)"><g><path d="M 1.246094 -1.8125 C 1.128906 -1.8125 1.015625 -1.828125 0.917969 -1.878906 C 0.808594 -1.914062 0.726562 -1.972656 0.652344 -2.050781 C 0.574219 -2.125 0.515625 -2.207031 0.480469 -2.316406 C 0.433594 -2.410156 0.414062 -2.527344 0.414062 -2.644531 L 0.414062 -3.664062 C 0.414062 -3.785156 0.433594 -3.894531 0.480469 -4.003906 C 0.515625 -4.097656 0.574219 -4.1875 0.652344 -4.265625 C 0.726562 -4.339844 0.808594 -4.390625 0.917969 -4.441406 C 1.015625 -4.476562 1.128906 -4.5 1.246094 -4.5 L 2.21875 -4.5 C 2.339844 -4.5 2.449219 -4.476562 2.554688 -4.441406 C 2.652344 -4.390625 2.742188 -4.339844 2.820312 -4.265625 C 2.890625 -4.1875 2.945312 -4.097656 2.992188 -4.003906 C 3.03125 -3.894531 3.054688 -3.785156 3.054688 -3.664062 L 3.054688 -2.644531 C 3.054688 -2.527344 3.03125 -2.410156 2.992188 -2.316406 C 2.945312 -2.207031 2.890625 -2.125 2.820312 -2.050781 C 2.742188 -1.972656 2.652344 -1.914062 2.554688 -1.878906 C 2.449219 -1.828125 2.339844 -1.8125 2.21875 -1.8125 Z M 2.59375 -3.617188 C 2.59375 -3.761719 2.542969 -3.886719 2.449219 -3.984375 C 2.351562 -4.078125 2.226562 -4.128906 2.082031 -4.128906 L 1.386719 -4.128906 C 1.234375 -4.128906 1.117188 -4.078125 1.019531 -3.984375 C 0.925781 -3.886719 0.875 -3.761719 0.875 -3.617188 L 0.875 -2.695312 C 0.875 -2.542969 0.925781 -2.425781 1.019531 -2.328125 C 1.117188 -2.230469 1.234375 -2.183594 1.386719 -2.183594 L 2.082031 -2.183594 C 2.226562 -2.183594 2.351562 -2.230469 2.449219 -2.328125 C 2.542969 -2.425781 2.59375 -2.542969 2.59375 -2.695312 Z M 4.039062 0.925781 L 4.039062 -0.769531 L 0.570312 -0.769531 L 0.570312 -1.140625 L 4.5 -1.140625 L 4.5 0.925781 Z M 4.5 -3.886719 L 5.214844 -3.886719 L 5.214844 -3.515625 L 4.5 -3.515625 L 4.5 -2.628906 L 5.214844 -2.628906 L 5.214844 -2.257812 L 4.5 -2.257812 L 4.5 -1.511719 L 4.039062 -1.511719 L 4.039062 -4.578125 L 4.5 -4.578125 Z M 4.5 -3.886719 "/></g></g></g><g fill="#ffffff" fill-opacity="1"><g transform="translate(142.499514, 38.549996)"><g><path d="M 1.308594 0.792969 C 1.1875 0.792969 1.074219 0.769531 0.976562 0.730469 C 0.871094 0.683594 0.785156 0.628906 0.714844 0.558594 C 0.636719 0.480469 0.574219 0.390625 0.539062 0.292969 C 0.492188 0.1875 0.472656 0.078125 0.472656 -0.0429688 L 0.472656 -1.78125 C 0.472656 -1.902344 0.492188 -2.011719 0.539062 -2.117188 C 0.574219 -2.214844 0.636719 -2.304688 0.714844 -2.382812 C 0.785156 -2.453125 0.871094 -2.507812 0.976562 -2.554688 C 1.074219 -2.59375 1.1875 -2.617188 1.308594 -2.617188 L 2.160156 -2.617188 C 2.28125 -2.617188 2.386719 -2.59375 2.496094 -2.554688 C 2.59375 -2.507812 2.683594 -2.453125 2.761719 -2.382812 C 2.832031 -2.304688 2.886719 -2.214844 2.933594 -2.117188 C 2.96875 -2.011719 2.992188 -1.902344 2.992188 -1.78125 L 2.992188 -0.0429688 C 2.992188 0.078125 2.96875 0.1875 2.933594 0.292969 C 2.886719 0.390625 2.832031 0.480469 2.761719 0.558594 C 2.683594 0.628906 2.59375 0.683594 2.496094 0.730469 C 2.386719 0.769531 2.28125 0.792969 2.160156 0.792969 Z M 2.53125 -1.734375 C 2.53125 -1.878906 2.484375 -2.003906 2.386719 -2.101562 C 2.292969 -2.195312 2.164062 -2.242188 2.023438 -2.242188 L 1.445312 -2.242188 C 1.296875 -2.242188 1.175781 -2.195312 1.078125 -2.101562 C 0.984375 -2.003906 0.9375 -1.878906 0.9375 -1.734375 L 0.9375 -0.0898438 C 0.9375 0.0546875 0.984375 0.179688 1.078125 0.277344 C 1.175781 0.371094 1.296875 0.421875 1.445312 0.421875 L 2.023438 0.421875 C 2.164062 0.421875 2.292969 0.371094 2.386719 0.277344 C 2.484375 0.179688 2.53125 0.0546875 2.53125 -0.0898438 Z M 4.5 -2.308594 L 5.214844 -2.308594 L 5.214844 -1.9375 L 4.5 -1.9375 L 4.5 0.898438 L 4.039062 0.898438 L 4.039062 -4.578125 L 4.5 -4.578125 Z M 3.378906 -3.582031 L 3.378906 -3.210938 L 0.144531 -3.210938 L 0.144531 -3.582031 Z M 2.722656 -4.558594 L 2.722656 -4.1875 L 0.796875 -4.1875 L 0.796875 -4.558594 Z M 2.722656 -4.558594 "/></g></g></g><g fill="#ffffff" fill-opacity="1"><g transform="translate(147.839508, 38.549996)"><g><path d="M 4.769531 0.898438 L 4.308594 0.898438 L 4.308594 -4.578125 L 4.769531 -4.578125 Z M 0.46875 -4.5 L 2.867188 -4.5 L 2.585938 0.792969 L 2.105469 0.792969 L 2.382812 -4.128906 L 0.46875 -4.128906 Z M 0.46875 -4.5 "/></g></g></g></svg>