<svg xmlns="http://www.w3.org/2000/svg" xmlns:xlink="http://www.w3.org/1999/xlink" width="380" zoomAndPan="magnify" viewBox="0 0 285 374.999991" height="500" preserveAspectRatio="xMidYMid meet" version="1.0"><defs><g/><clipPath id="949f7032c9"><path d="M 233.132812 317.234375 L 250.835938 317.234375 L 250.835938 334.832031 L 233.132812 334.832031 Z M 233.132812 317.234375 " clip-rule="nonzero"/></clipPath><clipPath id="e735d43026"><path d="M 223.105469 307.042969 L 246.585938 307.042969 L 246.585938 321.953125 L 223.105469 321.953125 Z M 223.105469 307.042969 " clip-rule="nonzero"/></clipPath><clipPath id="a90320f5bc"><path d="M 245.878906 310.863281 L 258.503906 310.863281 L 258.503906 318.179688 L 245.878906 318.179688 Z M 245.878906 310.863281 " clip-rule="nonzero"/></clipPath></defs><rect x="-28.5" width="342" fill="#ffffff" y="-37.499999" height="449.999989" fill-opacity="1"/><rect x="-28.5" width="342" fill="#ffffff" y="-37.499999" height="449.999989" fill-opacity="1"/><rect x="-28.5" width="342" fill="#fff8dc" y="-37.499999" height="449.999989" fill-opacity="1"/><path stroke-linecap="butt" transform="matrix(0.748651, -0.00427041, 0.00427804, 0.749988, 4.497864, 55.195604)" fill="none" stroke-linejoin="miter" d="M -0.00000186253 0.499619 L 210.378438 0.499573 " stroke="#000000" stroke-width="1" stroke-opacity="1" stroke-miterlimit="4"/><g fill="#000000" fill-opacity="1"><g transform="translate(39.494862, 47.020603)"><g><path d="M 8.695312 -3.472656 L 8.695312 1.222656 L 15.265625 1.222656 L 15.265625 2.339844 L 0.757812 2.339844 L 0.757812 1.222656 L 7.308594 1.222656 L 7.308594 -3.472656 L 4.230469 -3.472656 C 3.871094 -3.472656 3.527344 -3.527344 3.238281 -3.671875 C 2.914062 -3.78125 2.664062 -3.960938 2.449219 -4.195312 C 2.214844 -4.410156 2.035156 -4.660156 1.925781 -4.984375 C 1.78125 -5.273438 1.726562 -5.617188 1.726562 -5.976562 L 1.726562 -10.996094 C 1.726562 -11.359375 1.78125 -11.683594 1.925781 -12.007812 C 2.035156 -12.292969 2.214844 -12.5625 2.449219 -12.796875 C 2.664062 -13.015625 2.914062 -13.175781 3.238281 -13.320312 C 3.527344 -13.429688 3.871094 -13.5 4.230469 -13.5 L 11.824219 -13.5 C 12.1875 -13.5 12.511719 -13.429688 12.835938 -13.320312 C 13.121094 -13.175781 13.390625 -13.015625 13.625 -12.796875 C 13.84375 -12.5625 14.003906 -12.292969 14.148438 -12.007812 C 14.257812 -11.683594 14.328125 -11.359375 14.328125 -10.996094 L 14.328125 -5.976562 C 14.328125 -5.617188 14.257812 -5.273438 14.148438 -4.984375 C 14.003906 -4.660156 13.84375 -4.410156 13.625 -4.195312 C 13.390625 -3.960938 13.121094 -3.78125 12.835938 -3.671875 C 12.511719 -3.527344 12.1875 -3.472656 11.824219 -3.472656 Z M 12.941406 -10.855469 C 12.941406 -11.285156 12.796875 -11.664062 12.511719 -11.953125 C 12.222656 -12.238281 11.84375 -12.382812 11.410156 -12.382812 L 4.644531 -12.382812 C 4.195312 -12.382812 3.835938 -12.238281 3.546875 -11.953125 C 3.257812 -11.664062 3.113281 -11.285156 3.113281 -10.855469 L 3.113281 -6.121094 C 3.113281 -5.671875 3.257812 -5.308594 3.546875 -5.023438 C 3.835938 -4.734375 4.195312 -4.589844 4.644531 -4.589844 L 11.410156 -4.589844 C 11.84375 -4.589844 12.222656 -4.734375 12.511719 -5.023438 C 12.796875 -5.308594 12.941406 -5.671875 12.941406 -6.121094 Z M 12.941406 -10.855469 "/></g></g></g><g fill="#000000" fill-opacity="1"><g transform="translate(55.514843, 47.020603)"><g><path d="M 14.308594 2.699219 L 12.925781 2.699219 L 12.925781 -13.734375 L 14.308594 -13.734375 Z M 5.472656 -11.988281 L 1.765625 2.375 L 0.433594 2.375 L 4.644531 -13.5 L 6.28125 -13.5 L 10.3125 2.375 L 8.980469 2.375 Z M 5.472656 -11.988281 "/></g></g></g><g fill="#000000" fill-opacity="1"><g transform="translate(71.534825, 47.020603)"><g><path d="M 1.816406 2.699219 L 1.816406 -2.140625 L 3.222656 -2.140625 L 3.222656 1.585938 L 14.382812 1.585938 L 14.382812 2.699219 Z M 0.757812 -4.03125 L 0.757812 -5.148438 L 15.265625 -5.148438 L 15.265625 -4.03125 Z M 1.90625 -7.039062 L 1.90625 -13.5 L 3.292969 -13.5 L 3.292969 -8.152344 L 14.328125 -8.152344 L 14.328125 -7.039062 Z M 1.90625 -7.039062 "/></g></g></g><g fill="#000000" fill-opacity="1"><g transform="translate(87.554807, 47.020603)"><g/></g></g><g fill="#000000" fill-opacity="1"><g transform="translate(92.9548, 47.020603)"><g><path d="M 14.308594 -5.347656 L 12.925781 -5.347656 L 12.925781 -13.734375 L 14.308594 -13.734375 Z M 2.050781 2.699219 L 2.050781 -1.3125 L 12.925781 -1.3125 L 12.925781 -3.1875 L 2.050781 -3.1875 L 2.050781 -4.265625 L 14.308594 -4.265625 L 14.308594 -0.253906 L 3.4375 -0.253906 L 3.4375 1.621094 L 14.632812 1.621094 L 14.632812 2.699219 Z M 1.402344 -13.5 L 8.605469 -13.5 L 7.757812 -6.085938 L 6.316406 -6.085938 L 7.144531 -12.382812 L 1.402344 -12.382812 Z M 1.402344 -13.5 "/></g></g></g><g clip-path="url(#949f7032c9)"><path fill="#000000" d="M 242.871094 334.832031 C 242.816406 334.832031 242.761719 334.808594 242.722656 334.765625 C 242.652344 334.683594 242.660156 334.5625 242.742188 334.488281 C 243.019531 334.242188 243.476562 333.945312 244 333.601562 C 245.386719 332.695312 247.285156 331.453125 247.285156 330.257812 C 247.285156 329.0625 246.070312 328.757812 244.78125 328.371094 C 244.597656 328.316406 244.417969 328.261719 244.238281 328.203125 C 243.640625 328.011719 243.167969 327.539062 242.976562 326.9375 C 242.792969 326.339844 242.902344 325.71875 243.277344 325.230469 C 244.246094 323.964844 245.808594 323.414062 247.183594 322.925781 C 248.820312 322.347656 250.230469 321.847656 250.230469 320.355469 C 250.230469 319.132812 248.488281 318.277344 247.089844 317.960938 C 247.773438 318.507812 248.425781 319.3125 248.425781 320.167969 C 248.425781 321.976562 245.488281 322.644531 242.375 323.351562 C 238.859375 324.148438 234.875 325.054688 234.875 327.675781 C 234.875 328.597656 235.636719 328.941406 236.441406 329.304688 C 237.195312 329.644531 237.976562 330 237.976562 330.875 C 237.976562 332.648438 233.402344 333.316406 233.355469 333.316406 C 233.246094 333.324219 233.15625 333.238281 233.152344 333.128906 C 233.148438 333.023438 233.226562 332.9375 233.332031 332.929688 C 233.867188 332.871094 237.585938 332.15625 237.585938 330.875 C 237.585938 330.25 236.980469 329.976562 236.28125 329.65625 C 235.4375 329.277344 234.488281 328.847656 234.488281 327.675781 C 234.488281 324.742188 238.632812 323.800781 242.289062 322.96875 C 245.246094 322.300781 248.035156 321.664062 248.035156 320.167969 C 248.035156 319.21875 246.9375 318.214844 246.160156 317.808594 C 246.078125 317.765625 246.039062 317.671875 246.0625 317.582031 C 246.085938 317.492188 246.171875 317.433594 246.261719 317.441406 C 247.734375 317.535156 250.621094 318.511719 250.621094 320.351562 C 250.621094 322.191406 249.015625 322.691406 247.3125 323.292969 C 245.925781 323.785156 244.484375 324.296875 243.585938 325.464844 C 243.289062 325.855469 243.203125 326.347656 243.351562 326.820312 C 243.5 327.300781 243.878906 327.679688 244.359375 327.832031 C 244.535156 327.890625 244.714844 327.941406 244.894531 327.996094 C 246.261719 328.40625 247.675781 328.832031 247.675781 330.257812 C 247.675781 331.683594 245.675781 332.972656 244.214844 333.925781 C 243.699219 334.265625 243.257812 334.554688 243 334.78125 C 242.960938 334.8125 242.917969 334.832031 242.871094 334.832031 Z M 242.871094 334.832031 " fill-opacity="1" fill-rule="nonzero"/></g><path fill="#000000" d="M 238.207031 329.066406 C 238.183594 329.066406 238.160156 329.0625 238.140625 329.054688 C 236.761719 328.558594 236.472656 327.921875 236.472656 327.472656 C 236.472656 326.488281 237.808594 325.664062 239.125 325.355469 C 239.230469 325.332031 239.332031 325.398438 239.359375 325.503906 C 239.382812 325.609375 239.316406 325.710938 239.210938 325.734375 C 237.894531 326.042969 236.863281 326.808594 236.863281 327.472656 C 236.863281 327.933594 237.351562 328.355469 238.273438 328.6875 C 238.375 328.722656 238.425781 328.835938 238.390625 328.9375 C 238.359375 329.015625 238.285156 329.066406 238.207031 329.066406 Z M 238.207031 329.066406 " fill-opacity="1" fill-rule="nonzero"/><path fill="#000000" d="M 241.851562 333.722656 C 241.769531 333.722656 241.695312 333.675781 241.667969 333.59375 C 241.628906 333.492188 241.679688 333.382812 241.78125 333.34375 C 243.167969 332.828125 244.5625 331.929688 244.5625 331.09375 C 244.5625 330.476562 243.785156 329.992188 243.128906 329.699219 C 243.03125 329.65625 242.988281 329.539062 243.03125 329.441406 C 243.078125 329.34375 243.191406 329.296875 243.289062 329.34375 C 244.394531 329.839844 244.953125 330.429688 244.953125 331.09375 C 244.953125 332.1875 243.386719 333.164062 241.917969 333.710938 C 241.894531 333.71875 241.871094 333.722656 241.847656 333.722656 Z M 241.851562 333.722656 " fill-opacity="1" fill-rule="nonzero"/><g clip-path="url(#e735d43026)"><path fill="#000000" d="M 223.328125 321.878906 C 223.285156 321.878906 223.246094 321.867188 223.210938 321.84375 C 223.125 321.78125 223.105469 321.660156 223.167969 321.570312 C 223.691406 320.832031 224.257812 320.117188 224.804688 319.425781 C 225.675781 318.328125 226.570312 317.191406 227.304688 315.957031 C 227.34375 315.894531 227.402344 315.859375 227.480469 315.863281 C 228.113281 315.878906 228.710938 316.25 229.234375 316.578125 C 229.253906 316.585938 229.269531 316.597656 229.285156 316.609375 C 229.933594 316.070312 231.875 313.453125 233.453125 311.328125 C 236.15625 307.683594 236.679688 307.046875 236.957031 307.046875 C 238.027344 307.046875 238.949219 308.96875 239.765625 310.667969 C 240.003906 311.167969 240.234375 311.644531 240.429688 311.980469 C 240.628906 311.761719 240.804688 311.515625 240.992188 311.257812 C 241.242188 310.90625 241.507812 310.539062 241.839844 310.234375 C 241.90625 310.175781 242.007812 310.167969 242.082031 310.21875 C 243.683594 311.324219 244.429688 313.125 245.152344 314.867188 C 245.527344 315.773438 245.914062 316.707031 246.417969 317.53125 C 246.472656 317.625 246.441406 317.742188 246.351562 317.800781 C 246.257812 317.855469 246.140625 317.828125 246.082031 317.734375 C 245.566406 316.882812 245.171875 315.933594 244.789062 315.015625 C 244.078125 313.300781 243.40625 311.675781 241.988281 310.632812 C 241.738281 310.886719 241.527344 311.179688 241.304688 311.484375 C 241.070312 311.8125 240.828125 312.148438 240.53125 312.4375 C 240.488281 312.480469 240.429688 312.5 240.375 312.492188 C 240.316406 312.484375 240.265625 312.453125 240.230469 312.40625 C 239.996094 312.050781 239.726562 311.488281 239.414062 310.835938 C 238.734375 309.417969 237.808594 307.488281 236.992188 307.433594 C 236.660156 307.65625 235.125 309.730469 233.765625 311.5625 C 231.910156 314.0625 229.992188 316.644531 229.398438 317.007812 C 229.335938 317.046875 229.253906 317.046875 229.191406 317.007812 C 229.140625 316.976562 229.085938 316.941406 229.027344 316.90625 C 228.578125 316.628906 228.070312 316.3125 227.578125 316.257812 C 226.84375 317.476562 225.960938 318.589844 225.109375 319.664062 C 224.566406 320.355469 224.003906 321.066406 223.484375 321.796875 C 223.445312 321.851562 223.386719 321.878906 223.324219 321.878906 Z M 223.328125 321.878906 " fill-opacity="1" fill-rule="nonzero"/></g><g clip-path="url(#a90320f5bc)"><path fill="#000000" d="M 258.289062 318.132812 C 258.238281 318.132812 258.183594 318.109375 258.144531 318.070312 C 257.828125 317.730469 257.597656 317.332031 257.371094 316.949219 C 257.023438 316.355469 256.695312 315.792969 256.085938 315.476562 C 255.773438 315.746094 255.328125 316.082031 254.855469 316.320312 C 254.78125 316.359375 254.6875 316.339844 254.625 316.277344 C 254.558594 316.207031 254.507812 316.082031 254.417969 315.859375 C 254.128906 315.152344 253.460938 313.511719 251.246094 311.371094 C 249.25 313.304688 247.636719 315.335938 246.316406 317.5625 C 246.261719 317.65625 246.144531 317.6875 246.050781 317.632812 C 245.957031 317.578125 245.925781 317.460938 245.980469 317.367188 C 247.347656 315.054688 249.023438 312.960938 251.113281 310.957031 C 251.1875 310.886719 251.304688 310.886719 251.378906 310.957031 C 253.765625 313.21875 254.476562 314.96875 254.777344 315.714844 C 254.804688 315.773438 254.828125 315.832031 254.847656 315.882812 C 255.273438 315.644531 255.664062 315.332031 255.925781 315.097656 C 255.984375 315.046875 256.066406 315.035156 256.136719 315.066406 C 256.929688 315.421875 257.324219 316.097656 257.707031 316.753906 C 257.921875 317.117188 258.144531 317.496094 258.433594 317.804688 C 258.507812 317.882812 258.5 318.003906 258.421875 318.078125 C 258.386719 318.113281 258.335938 318.132812 258.289062 318.132812 Z M 258.289062 318.132812 " fill-opacity="1" fill-rule="nonzero"/></g><path fill="#000000" d="M 248.507812 315.890625 C 248.46875 315.890625 248.425781 315.878906 248.394531 315.851562 C 248.226562 315.730469 248.066406 315.589844 247.910156 315.449219 C 247.816406 315.367188 247.722656 315.28125 247.625 315.203125 C 247.542969 315.132812 247.53125 315.011719 247.597656 314.925781 C 247.667969 314.84375 247.789062 314.832031 247.875 314.902344 C 247.972656 314.984375 248.070312 315.070312 248.167969 315.15625 C 248.285156 315.261719 248.398438 315.363281 248.511719 315.453125 C 248.875 315.171875 249.167969 314.816406 249.476562 314.441406 C 249.558594 314.34375 249.640625 314.246094 249.722656 314.152344 C 249.78125 314.082031 249.875 314.0625 249.957031 314.101562 C 250.375 314.308594 250.890625 314.71875 251.21875 315.097656 C 251.4375 314.984375 251.640625 314.839844 251.832031 314.660156 C 251.882812 314.617188 251.953125 314.601562 252.015625 314.617188 C 252.351562 314.710938 252.578125 314.867188 252.820312 315.035156 C 252.871094 315.070312 252.921875 315.105469 252.976562 315.140625 C 253.289062 314.929688 253.566406 314.632812 253.820312 314.335938 C 253.890625 314.253906 254.015625 314.246094 254.097656 314.316406 C 254.179688 314.386719 254.1875 314.511719 254.117188 314.59375 C 253.8125 314.941406 253.476562 315.300781 253.074219 315.539062 C 253.011719 315.578125 252.933594 315.574219 252.871094 315.535156 C 252.773438 315.476562 252.683594 315.414062 252.597656 315.355469 C 252.402344 315.21875 252.230469 315.101562 252.011719 315.023438 C 251.773438 315.230469 251.523438 315.390625 251.25 315.519531 C 251.164062 315.558594 251.066406 315.535156 251.011719 315.460938 C 250.761719 315.136719 250.304688 314.746094 249.917969 314.523438 C 249.871094 314.578125 249.824219 314.636719 249.78125 314.691406 C 249.4375 315.105469 249.082031 315.535156 248.621094 315.855469 C 248.585938 315.878906 248.546875 315.890625 248.507812 315.890625 Z M 248.507812 315.890625 " fill-opacity="1" fill-rule="nonzero"/><path fill="#000000" d="M 234.316406 314.273438 C 234.3125 314.273438 234.308594 314.273438 234.304688 314.273438 C 234.246094 314.269531 234.191406 314.238281 234.15625 314.1875 C 233.9375 313.863281 233.632812 313.59375 233.3125 313.308594 C 233.089844 313.105469 232.855469 312.898438 232.652344 312.667969 C 232.578125 312.589844 232.585938 312.464844 232.667969 312.394531 C 232.746094 312.324219 232.871094 312.332031 232.941406 312.410156 C 233.128906 312.625 233.355469 312.824219 233.570312 313.015625 C 233.832031 313.25 234.101562 313.488281 234.324219 313.761719 C 234.886719 313.058594 235.269531 312.308594 235.675781 311.519531 C 235.847656 311.175781 236.03125 310.820312 236.226562 310.46875 C 236.261719 310.410156 236.324219 310.371094 236.390625 310.371094 C 236.460938 310.367188 236.527344 310.402344 236.5625 310.460938 C 236.816406 310.859375 237.011719 311.277344 237.203125 311.683594 C 237.277344 311.847656 237.355469 312.011719 237.4375 312.179688 C 237.574219 312.023438 237.664062 311.820312 237.734375 311.632812 C 237.761719 311.570312 237.816406 311.523438 237.878906 311.511719 C 237.945312 311.5 238.015625 311.519531 238.0625 311.570312 C 238.136719 311.648438 238.210938 311.730469 238.292969 311.8125 C 238.464844 311.984375 238.640625 312.164062 238.792969 312.359375 C 239.019531 312.082031 239.230469 311.78125 239.433594 311.488281 C 239.511719 311.375 239.59375 311.257812 239.675781 311.144531 C 239.738281 311.054688 239.859375 311.035156 239.945312 311.097656 C 240.035156 311.160156 240.054688 311.28125 239.992188 311.371094 C 239.910156 311.484375 239.832031 311.597656 239.753906 311.710938 C 239.496094 312.078125 239.234375 312.457031 238.925781 312.804688 C 238.886719 312.851562 238.828125 312.875 238.765625 312.871094 C 238.703125 312.867188 238.652344 312.832031 238.617188 312.78125 C 238.457031 312.535156 238.230469 312.304688 238.011719 312.082031 C 238 312.070312 237.992188 312.058594 237.980469 312.050781 C 237.871094 312.273438 237.71875 312.496094 237.484375 312.652344 C 237.4375 312.683594 237.382812 312.691406 237.328125 312.679688 C 237.277344 312.664062 237.230469 312.628906 237.203125 312.578125 C 237.078125 312.335938 236.960938 312.089844 236.847656 311.847656 C 236.707031 311.539062 236.566406 311.242188 236.40625 310.957031 C 236.269531 311.203125 236.144531 311.453125 236.019531 311.695312 C 235.570312 312.574219 235.140625 313.410156 234.464844 314.203125 C 234.425781 314.246094 234.375 314.273438 234.316406 314.273438 Z M 234.316406 314.273438 " fill-opacity="1" fill-rule="nonzero"/><path fill="#000000" d="M 228.710938 315.027344 C 228.433594 314.636719 228.054688 314.121094 227.949219 313.65625 C 228.085938 313.757812 228.210938 313.789062 228.339844 313.789062 C 228.464844 313.789062 228.59375 313.761719 228.742188 313.726562 L 228.824219 313.617188 C 228.320312 313.183594 227.796875 312.488281 227.738281 311.816406 C 227.9375 311.929688 228.074219 311.941406 228.316406 311.960938 L 228.441406 311.855469 C 228.101562 311.332031 227.671875 310.726562 227.671875 310.082031 C 227.671875 310.066406 227.671875 310.050781 227.671875 310.039062 C 227.828125 310.148438 227.96875 310.1875 228.132812 310.1875 C 228.183594 310.1875 228.242188 310.183594 228.300781 310.175781 C 227.722656 309.769531 227.519531 308.78125 227.121094 308.222656 C 226.9375 309.058594 226.832031 309.621094 226.386719 310.355469 L 226.566406 310.425781 C 226.8125 310.324219 226.972656 310.273438 227.160156 310.105469 C 227.15625 310.894531 226.835938 311.273438 226.480469 311.929688 C 226.589844 311.964844 226.683594 311.984375 226.769531 311.984375 C 226.882812 311.984375 226.984375 311.953125 227.105469 311.863281 C 227.019531 312.492188 226.816406 313.082031 226.515625 313.640625 C 226.789062 313.570312 226.984375 313.449219 227.222656 313.296875 C 227.25 313.394531 227.261719 313.492188 227.261719 313.589844 C 227.261719 314.171875 226.8125 314.757812 226.617188 315.265625 C 227.316406 315.210938 228.082031 315.339844 228.710938 315.027344 " fill-opacity="1" fill-rule="nonzero"/><path fill="#000000" d="M 226.617188 315.460938 C 226.554688 315.460938 226.496094 315.433594 226.460938 315.382812 C 226.421875 315.328125 226.410156 315.257812 226.433594 315.195312 C 226.503906 315.019531 226.59375 314.84375 226.691406 314.660156 C 226.871094 314.3125 227.058594 313.957031 227.070312 313.621094 C 226.921875 313.703125 226.757812 313.777344 226.566406 313.828125 C 226.492188 313.847656 226.410156 313.820312 226.363281 313.761719 C 226.316406 313.699219 226.308594 313.617188 226.34375 313.546875 C 226.582031 313.105469 226.753906 312.644531 226.851562 312.175781 C 226.707031 312.191406 226.558594 312.160156 226.421875 312.117188 C 226.367188 312.101562 226.324219 312.058594 226.300781 312.003906 C 226.277344 311.949219 226.28125 311.890625 226.308594 311.835938 C 226.375 311.714844 226.441406 311.601562 226.503906 311.496094 C 226.707031 311.140625 226.871094 310.863281 226.933594 310.484375 C 226.871094 310.511719 226.804688 310.539062 226.734375 310.570312 L 226.644531 310.605469 C 226.597656 310.625 226.542969 310.628906 226.496094 310.609375 L 226.316406 310.539062 C 226.265625 310.519531 226.222656 310.476562 226.203125 310.421875 C 226.183594 310.367188 226.191406 310.304688 226.222656 310.257812 C 226.621094 309.589844 226.734375 309.085938 226.898438 308.324219 L 226.933594 308.179688 C 226.949219 308.105469 227.007812 308.046875 227.082031 308.03125 C 227.160156 308.015625 227.238281 308.046875 227.28125 308.109375 C 227.441406 308.335938 227.566406 308.613281 227.699219 308.90625 C 227.894531 309.34375 228.097656 309.792969 228.414062 310.019531 C 228.480469 310.066406 228.511719 310.148438 228.488281 310.226562 C 228.46875 310.304688 228.402344 310.363281 228.320312 310.371094 C 228.140625 310.390625 228.019531 310.386719 227.894531 310.355469 C 227.984375 310.800781 228.269531 311.242188 228.53125 311.636719 L 228.605469 311.75 C 228.660156 311.835938 228.640625 311.945312 228.566406 312.007812 L 228.4375 312.113281 C 228.402344 312.144531 228.351562 312.160156 228.300781 312.15625 C 228.1875 312.148438 228.089844 312.140625 227.996094 312.121094 C 228.160156 312.648438 228.585938 313.160156 228.949219 313.46875 C 229.023438 313.535156 229.039062 313.648438 228.980469 313.730469 L 228.902344 313.84375 C 228.875 313.882812 228.832031 313.910156 228.785156 313.921875 L 228.761719 313.925781 C 228.59375 313.960938 228.429688 313.996094 228.273438 313.984375 C 228.421875 314.285156 228.644531 314.597656 228.835938 314.863281 L 228.871094 314.914062 C 228.90625 314.960938 228.914062 315.019531 228.902344 315.074219 C 228.886719 315.128906 228.851562 315.175781 228.796875 315.203125 C 228.3125 315.441406 227.773438 315.441406 227.25 315.445312 C 227.035156 315.445312 226.832031 315.445312 226.632812 315.460938 C 226.625 315.460938 226.621094 315.460938 226.617188 315.460938 Z M 227.222656 313.101562 C 227.246094 313.101562 227.269531 313.105469 227.289062 313.113281 C 227.347656 313.136719 227.390625 313.183594 227.410156 313.242188 C 227.441406 313.351562 227.460938 313.46875 227.460938 313.589844 C 227.460938 314.03125 227.234375 314.460938 227.035156 314.839844 C 227 314.914062 226.960938 314.984375 226.925781 315.054688 C 227.035156 315.054688 227.144531 315.054688 227.25 315.054688 C 227.664062 315.050781 228.058594 315.050781 228.410156 314.9375 C 228.144531 314.5625 227.855469 314.125 227.757812 313.703125 C 227.738281 313.621094 227.773438 313.539062 227.839844 313.496094 C 227.910156 313.449219 228 313.453125 228.0625 313.5 C 228.199219 313.597656 228.320312 313.609375 228.496094 313.582031 C 228.042969 313.132812 227.597656 312.488281 227.542969 311.835938 C 227.535156 311.765625 227.570312 311.695312 227.628906 311.65625 C 227.6875 311.617188 227.765625 311.613281 227.828125 311.648438 C 227.941406 311.707031 228.027344 311.734375 228.136719 311.75 C 227.816406 311.253906 227.476562 310.695312 227.476562 310.082031 C 227.476562 310.066406 227.476562 310.046875 227.476562 310.03125 C 227.480469 309.960938 227.523438 309.894531 227.585938 309.863281 C 227.636719 309.835938 227.695312 309.835938 227.75 309.855469 C 227.589844 309.617188 227.464844 309.339844 227.34375 309.066406 C 227.296875 308.960938 227.25 308.855469 227.203125 308.757812 C 227.089844 309.253906 226.96875 309.675781 226.726562 310.148438 C 226.839844 310.101562 226.929688 310.050781 227.03125 309.960938 C 227.085938 309.910156 227.167969 309.898438 227.238281 309.929688 C 227.308594 309.960938 227.355469 310.03125 227.355469 310.105469 C 227.351562 310.804688 227.113281 311.214844 226.839844 311.691406 C 226.820312 311.722656 226.800781 311.757812 226.78125 311.789062 C 226.832031 311.789062 226.894531 311.773438 226.992188 311.703125 C 227.054688 311.660156 227.140625 311.65625 227.207031 311.695312 C 227.273438 311.738281 227.3125 311.8125 227.300781 311.890625 C 227.234375 312.355469 227.105469 312.8125 226.917969 313.257812 C 226.980469 313.222656 227.046875 313.179688 227.117188 313.132812 C 227.148438 313.113281 227.183594 313.101562 227.222656 313.101562 Z M 227.222656 313.101562 " fill-opacity="1" fill-rule="nonzero"/><path fill="#000000" d="M 227.710938 316.277344 C 227.609375 316.277344 227.523438 316.199219 227.519531 316.09375 L 227.433594 314.914062 C 227.425781 314.808594 227.507812 314.714844 227.613281 314.707031 C 227.722656 314.699219 227.816406 314.78125 227.824219 314.886719 L 227.90625 316.066406 C 227.914062 316.175781 227.832031 316.269531 227.726562 316.277344 C 227.722656 316.277344 227.71875 316.277344 227.710938 316.277344 Z M 227.710938 316.277344 " fill-opacity="1" fill-rule="nonzero"/><path fill="#000000" d="M 229.164062 313.039062 C 229.191406 313.039062 229.21875 313.035156 229.246094 313.035156 C 229.472656 313.035156 229.703125 313.046875 229.929688 313.046875 C 230.367188 313.046875 230.792969 313.003906 231.167969 312.75 C 230.742188 312.363281 230.398438 312.003906 230.296875 311.433594 L 230.367188 311.367188 C 230.417969 311.375 230.464844 311.378906 230.507812 311.378906 C 230.621094 311.378906 230.714844 311.359375 230.851562 311.320312 L 230.894531 311.246094 C 230.597656 310.933594 230.367188 310.445312 230.230469 310.046875 C 230.246094 310.023438 230.265625 310 230.285156 309.976562 C 230.355469 310.011719 230.425781 310.023438 230.492188 310.023438 C 230.605469 310.023438 230.714844 309.984375 230.832031 309.945312 C 230.367188 309.558594 229.847656 309.144531 229.753906 308.527344 C 229.605469 309.132812 229.558594 309.5 229.128906 309.960938 C 229.179688 309.964844 229.226562 309.96875 229.273438 309.96875 C 229.382812 309.96875 229.484375 309.953125 229.597656 309.914062 C 229.601562 309.976562 229.605469 310.039062 229.605469 310.101562 C 229.605469 310.546875 229.480469 310.875 229.21875 311.273438 C 229.3125 311.296875 229.394531 311.3125 229.476562 311.3125 C 229.542969 311.3125 229.609375 311.300781 229.683594 311.28125 C 229.730469 311.414062 229.75 311.558594 229.75 311.703125 C 229.75 312.199219 229.519531 312.726562 229.167969 313.039062 " fill-opacity="1" fill-rule="nonzero"/><path fill="#000000" d="M 229.929688 313.242188 C 229.816406 313.242188 229.699219 313.242188 229.582031 313.238281 C 229.472656 313.234375 229.359375 313.230469 229.246094 313.230469 L 229.167969 313.230469 C 229.085938 313.230469 229.011719 313.183594 228.984375 313.109375 C 228.953125 313.03125 228.972656 312.945312 229.035156 312.890625 C 229.347656 312.621094 229.554688 312.140625 229.554688 311.703125 C 229.554688 311.636719 229.550781 311.570312 229.539062 311.503906 C 229.425781 311.511719 229.320312 311.5 229.171875 311.464844 C 229.109375 311.449219 229.058594 311.40625 229.039062 311.347656 C 229.015625 311.289062 229.019531 311.222656 229.054688 311.167969 C 229.300781 310.792969 229.398438 310.511719 229.40625 310.15625 C 229.320312 310.164062 229.222656 310.164062 229.117188 310.15625 C 229.039062 310.152344 228.972656 310.105469 228.945312 310.035156 C 228.917969 309.964844 228.933594 309.886719 228.984375 309.828125 C 229.328125 309.457031 229.398438 309.164062 229.515625 308.679688 C 229.53125 308.617188 229.546875 308.550781 229.5625 308.480469 C 229.585938 308.386719 229.667969 308.328125 229.761719 308.332031 C 229.855469 308.335938 229.933594 308.40625 229.945312 308.496094 C 230.023438 309.023438 230.476562 309.398438 230.914062 309.757812 L 230.957031 309.796875 C 231.011719 309.839844 231.035156 309.910156 231.023438 309.980469 C 231.011719 310.050781 230.964844 310.105469 230.894531 310.132812 C 230.769531 310.175781 230.644531 310.21875 230.503906 310.21875 C 230.613281 310.484375 230.792969 310.855469 231.035156 311.113281 C 231.09375 311.171875 231.105469 311.265625 231.066406 311.339844 L 231.027344 311.414062 C 231 311.457031 230.957031 311.492188 230.90625 311.507812 C 230.765625 311.546875 230.65625 311.570312 230.53125 311.574219 C 230.65625 311.996094 230.953125 312.292969 231.296875 312.605469 C 231.34375 312.648438 231.367188 312.703125 231.359375 312.765625 C 231.359375 312.824219 231.328125 312.878906 231.277344 312.910156 C 230.847656 313.203125 230.375 313.246094 229.929688 313.246094 Z M 229.585938 312.847656 L 229.59375 312.847656 C 229.707031 312.851562 229.820312 312.851562 229.929688 312.851562 C 230.234375 312.851562 230.550781 312.832031 230.835938 312.707031 C 230.492188 312.375 230.199219 312.003906 230.105469 311.46875 C 230.09375 311.402344 230.113281 311.335938 230.160156 311.292969 L 230.234375 311.226562 C 230.273438 311.1875 230.332031 311.167969 230.390625 311.175781 C 230.464844 311.183594 230.523438 311.183594 230.585938 311.175781 C 230.300781 310.792969 230.117188 310.316406 230.046875 310.109375 C 230.027344 310.050781 230.035156 309.988281 230.066406 309.9375 C 230.082031 309.917969 230.097656 309.898438 230.113281 309.875 L 230.125 309.859375 C 230.179688 309.789062 230.269531 309.761719 230.351562 309.792969 C 230.140625 309.605469 229.941406 309.402344 229.792969 309.167969 C 229.734375 309.359375 229.667969 309.539062 229.554688 309.722656 C 229.605469 309.710938 229.660156 309.71875 229.703125 309.75 C 229.753906 309.78125 229.785156 309.835938 229.789062 309.898438 C 229.796875 309.96875 229.796875 310.035156 229.796875 310.101562 C 229.796875 310.46875 229.722656 310.769531 229.542969 311.113281 C 229.570312 311.109375 229.597656 311.101562 229.628906 311.09375 C 229.730469 311.0625 229.835938 311.117188 229.871094 311.21875 C 229.917969 311.367188 229.945312 311.53125 229.945312 311.703125 C 229.945312 312.105469 229.808594 312.519531 229.585938 312.847656 Z M 229.585938 312.847656 " fill-opacity="1" fill-rule="nonzero"/><path fill="#000000" d="M 230.203125 315.90625 L 230.058594 313.128906 " fill-opacity="1" fill-rule="nonzero"/><path fill="#000000" d="M 230.203125 316.101562 C 230.097656 316.101562 230.011719 316.019531 230.007812 315.914062 L 229.863281 313.140625 C 229.855469 313.03125 229.941406 312.941406 230.046875 312.933594 C 230.15625 312.929688 230.246094 313.011719 230.253906 313.121094 L 230.398438 315.894531 C 230.402344 316.003906 230.320312 316.09375 230.210938 316.101562 C 230.207031 316.101562 230.207031 316.101562 230.203125 316.101562 Z M 230.203125 316.101562 " fill-opacity="1" fill-rule="nonzero"/><path fill="#231f20" d="M 218.71875 339.4375 L 217.867188 339.4375 L 217.867188 339.46875 C 217.867188 339.617188 217.839844 339.757812 217.785156 339.886719 C 217.734375 340.015625 217.648438 340.128906 217.535156 340.222656 C 217.417969 340.316406 217.265625 340.394531 217.082031 340.453125 C 216.894531 340.511719 216.664062 340.539062 216.394531 340.539062 C 216.125 340.539062 215.898438 340.511719 215.710938 340.453125 C 215.523438 340.394531 215.371094 340.316406 215.253906 340.222656 C 215.140625 340.128906 215.054688 340.015625 215 339.886719 C 214.949219 339.757812 214.921875 339.617188 214.921875 339.46875 L 214.921875 338.863281 C 214.921875 338.722656 214.949219 338.585938 215 338.453125 C 215.054688 338.320312 215.140625 338.207031 215.253906 338.109375 C 215.371094 338.015625 215.523438 337.941406 215.710938 337.882812 C 215.898438 337.828125 216.125 337.796875 216.394531 337.796875 C 216.640625 337.796875 216.855469 337.824219 217.03125 337.871094 C 217.210938 337.917969 217.359375 337.984375 217.476562 338.070312 C 217.597656 338.15625 217.691406 338.253906 217.75 338.371094 C 217.8125 338.484375 217.847656 338.605469 217.863281 338.738281 L 218.71875 338.738281 L 218.71875 337.859375 L 219.609375 337.859375 L 219.609375 340.539062 L 218.71875 340.539062 Z M 215.113281 340.855469 L 219.609375 340.855469 L 219.609375 342.355469 L 215.960938 342.355469 L 215.960938 342.609375 L 219.609375 342.609375 L 219.609375 343.234375 L 215.113281 343.234375 L 215.113281 341.730469 L 218.765625 341.730469 L 218.765625 341.476562 L 215.113281 341.476562 Z M 217.035156 339.011719 C 217.035156 338.90625 217.015625 338.816406 216.976562 338.75 C 216.941406 338.679688 216.890625 338.625 216.828125 338.585938 C 216.769531 338.546875 216.703125 338.519531 216.625 338.503906 C 216.550781 338.492188 216.472656 338.484375 216.394531 338.484375 C 216.316406 338.484375 216.238281 338.492188 216.160156 338.503906 C 216.085938 338.519531 216.015625 338.546875 215.957031 338.585938 C 215.894531 338.625 215.84375 338.679688 215.808594 338.75 C 215.773438 338.816406 215.757812 338.90625 215.757812 339.011719 L 215.757812 339.324219 C 215.757812 339.433594 215.773438 339.523438 215.808594 339.589844 C 215.84375 339.660156 215.894531 339.714844 215.957031 339.753906 C 216.015625 339.789062 216.085938 339.816406 216.160156 339.828125 C 216.238281 339.84375 216.316406 339.851562 216.394531 339.851562 C 216.472656 339.851562 216.550781 339.84375 216.625 339.828125 C 216.703125 339.816406 216.769531 339.789062 216.828125 339.753906 C 216.890625 339.714844 216.941406 339.660156 216.976562 339.589844 C 217.015625 339.523438 217.035156 339.433594 217.035156 339.324219 Z M 217.035156 339.011719 " fill-opacity="1" fill-rule="nonzero"/><path fill="#231f20" d="M 224.046875 340.207031 L 229.285156 340.207031 L 229.285156 340.90625 L 224.046875 340.90625 Z M 224.375 343.234375 L 224.375 341.234375 L 228.953125 341.234375 L 228.953125 343.234375 Z M 225.269531 341.933594 L 225.269531 342.53125 L 228.0625 342.53125 L 228.0625 341.933594 Z M 225.203125 338.859375 C 225.203125 338.96875 225.230469 339.046875 225.285156 339.09375 C 225.34375 339.140625 225.4375 339.164062 225.558594 339.164062 L 227.773438 339.164062 C 227.894531 339.164062 227.984375 339.140625 228.042969 339.09375 C 228.097656 339.046875 228.125 338.96875 228.125 338.859375 C 228.125 338.75 228.097656 338.671875 228.042969 338.628906 C 227.984375 338.582031 227.894531 338.5625 227.773438 338.5625 L 225.558594 338.5625 C 225.4375 338.5625 225.34375 338.582031 225.285156 338.628906 C 225.230469 338.671875 225.203125 338.75 225.203125 338.859375 Z M 224.3125 338.859375 C 224.3125 338.503906 224.40625 338.246094 224.59375 338.09375 C 224.78125 337.9375 225.074219 337.859375 225.476562 337.859375 L 227.851562 337.859375 C 228.257812 337.859375 228.550781 337.9375 228.738281 338.09375 C 228.925781 338.246094 229.019531 338.503906 229.019531 338.859375 C 229.019531 339.214844 228.925781 339.46875 228.738281 339.625 C 228.550781 339.777344 228.257812 339.855469 227.851562 339.855469 L 225.476562 339.855469 C 225.074219 339.855469 224.78125 339.777344 224.59375 339.625 C 224.40625 339.46875 224.3125 339.214844 224.3125 338.859375 Z M 224.3125 338.859375 " fill-opacity="1" fill-rule="nonzero"/><path fill="#231f20" d="M 233.804688 340.855469 L 238.375 340.855469 L 238.375 342.355469 L 234.648438 342.355469 L 234.648438 342.609375 L 238.375 342.609375 L 238.375 343.234375 L 233.804688 343.234375 L 233.804688 341.730469 L 237.527344 341.730469 L 237.527344 341.476562 L 233.804688 341.476562 Z M 236.03125 339.074219 L 236.03125 339.886719 L 238.710938 339.886719 L 238.710938 340.589844 L 233.476562 340.589844 L 233.476562 339.886719 L 235.136719 339.886719 L 235.136719 339.074219 Z M 237.433594 338.5625 L 233.804688 338.5625 L 233.804688 337.859375 L 238.429688 337.859375 L 238.140625 339.671875 L 237.25 339.671875 Z M 237.433594 338.5625 " fill-opacity="1" fill-rule="nonzero"/><path fill="#231f20" d="M 247.890625 337.859375 L 247.890625 343.105469 L 247 343.105469 L 247 337.859375 Z M 243.203125 339.292969 C 243.203125 339.0625 243.226562 338.855469 243.277344 338.671875 C 243.328125 338.488281 243.40625 338.332031 243.519531 338.203125 C 243.636719 338.074219 243.789062 337.972656 243.976562 337.90625 C 244.160156 337.832031 244.394531 337.796875 244.675781 337.796875 C 244.953125 337.796875 245.1875 337.832031 245.375 337.90625 C 245.566406 337.972656 245.714844 338.074219 245.828125 338.203125 C 245.945312 338.332031 246.027344 338.488281 246.074219 338.671875 C 246.121094 338.855469 246.148438 339.0625 246.148438 339.292969 L 246.148438 341.523438 C 246.148438 341.761719 246.121094 341.976562 246.074219 342.164062 C 246.027344 342.351562 245.945312 342.507812 245.828125 342.636719 C 245.714844 342.765625 245.566406 342.867188 245.375 342.933594 C 245.1875 343.003906 244.953125 343.042969 244.675781 343.042969 C 244.394531 343.042969 244.160156 343.003906 243.976562 342.933594 C 243.789062 342.867188 243.636719 342.765625 243.519531 342.636719 C 243.40625 342.507812 243.328125 342.351562 243.277344 342.164062 C 243.226562 341.976562 243.203125 341.761719 243.203125 341.523438 Z M 244.054688 341.554688 C 244.054688 341.71875 244.070312 341.855469 244.097656 341.957031 C 244.125 342.058594 244.167969 342.136719 244.222656 342.191406 C 244.277344 342.25 244.34375 342.289062 244.417969 342.3125 C 244.492188 342.332031 244.578125 342.339844 244.675781 342.339844 C 244.769531 342.339844 244.855469 342.332031 244.933594 342.3125 C 245.007812 342.289062 245.074219 342.25 245.128906 342.191406 C 245.183594 342.136719 245.226562 342.058594 245.253906 341.957031 C 245.28125 341.855469 245.292969 341.71875 245.292969 341.554688 L 245.292969 339.273438 C 245.292969 339.117188 245.28125 338.988281 245.253906 338.886719 C 245.226562 338.78125 245.183594 338.703125 245.128906 338.644531 C 245.074219 338.589844 245.007812 338.550781 244.933594 338.527344 C 244.855469 338.503906 244.769531 338.496094 244.675781 338.496094 C 244.578125 338.496094 244.492188 338.503906 244.417969 338.527344 C 244.34375 338.550781 244.277344 338.589844 244.222656 338.644531 C 244.167969 338.703125 244.125 338.78125 244.097656 338.886719 C 244.070312 338.988281 244.054688 339.117188 244.054688 339.273438 Z M 244.054688 341.554688 " fill-opacity="1" fill-rule="nonzero"/><path fill="#231f20" d="M 252.632812 339.292969 C 252.632812 339.0625 252.65625 338.855469 252.703125 338.671875 C 252.753906 338.488281 252.835938 338.332031 252.949219 338.203125 C 253.0625 338.074219 253.214844 337.972656 253.402344 337.90625 C 253.589844 337.832031 253.820312 337.796875 254.101562 337.796875 C 254.378906 337.796875 254.613281 337.832031 254.804688 337.90625 C 254.992188 337.972656 255.144531 338.074219 255.257812 338.203125 C 255.371094 338.332031 255.453125 338.488281 255.5 338.671875 C 255.546875 338.855469 255.574219 339.0625 255.574219 339.292969 L 255.574219 341.523438 C 255.574219 341.761719 255.546875 341.976562 255.5 342.164062 C 255.453125 342.351562 255.371094 342.507812 255.257812 342.636719 C 255.144531 342.765625 254.992188 342.867188 254.804688 342.933594 C 254.613281 343.003906 254.378906 343.042969 254.101562 343.042969 C 253.820312 343.042969 253.589844 343.003906 253.402344 342.933594 C 253.214844 342.867188 253.0625 342.765625 252.949219 342.636719 C 252.835938 342.507812 252.753906 342.351562 252.703125 342.164062 C 252.65625 341.976562 252.632812 341.761719 252.632812 341.523438 Z M 257 337.859375 L 257 339.117188 L 257.722656 339.117188 L 257.722656 339.820312 L 257 339.820312 L 257 340.835938 L 257.722656 340.835938 L 257.722656 341.535156 L 257 341.535156 L 257 343.105469 L 256.109375 343.105469 L 256.109375 337.859375 Z M 253.484375 341.554688 C 253.484375 341.71875 253.496094 341.855469 253.523438 341.957031 C 253.554688 342.058594 253.59375 342.136719 253.648438 342.191406 C 253.703125 342.25 253.769531 342.289062 253.84375 342.3125 C 253.917969 342.332031 254.003906 342.339844 254.101562 342.339844 C 254.199219 342.339844 254.285156 342.332031 254.359375 342.3125 C 254.4375 342.289062 254.5 342.25 254.554688 342.191406 C 254.613281 342.136719 254.652344 342.058594 254.679688 341.957031 C 254.707031 341.855469 254.722656 341.71875 254.722656 341.554688 L 254.722656 339.273438 C 254.722656 339.117188 254.707031 338.988281 254.679688 338.886719 C 254.652344 338.78125 254.613281 338.703125 254.554688 338.644531 C 254.5 338.589844 254.4375 338.550781 254.359375 338.527344 C 254.285156 338.503906 254.199219 338.496094 254.101562 338.496094 C 254.003906 338.496094 253.917969 338.503906 253.84375 338.527344 C 253.769531 338.550781 253.703125 338.589844 253.648438 338.644531 C 253.59375 338.703125 253.554688 338.78125 253.523438 338.886719 C 253.496094 338.988281 253.484375 339.117188 253.484375 339.273438 Z M 253.484375 341.554688 " fill-opacity="1" fill-rule="nonzero"/><path fill="#231f20" d="M 266.746094 337.859375 L 266.746094 343.105469 L 265.851562 343.105469 L 265.851562 337.859375 Z M 264.011719 338.5625 L 262.058594 338.5625 L 262.058594 337.859375 L 264.996094 337.859375 L 264.375 342.980469 L 263.480469 342.980469 Z M 264.011719 338.5625 " fill-opacity="1" fill-rule="nonzero"/><path fill="#231f20" d="M 210.703125 347.242188 L 210.941406 347.242188 L 210.941406 349.308594 L 210.703125 349.308594 Z M 210.703125 347.242188 " fill-opacity="1" fill-rule="nonzero"/><path fill="#231f20" d="M 214.710938 349.335938 C 214.53125 349.335938 214.371094 349.296875 214.226562 349.214844 C 214.089844 349.132812 213.976562 349.011719 213.898438 348.851562 C 213.816406 348.691406 213.777344 348.5 213.777344 348.273438 C 213.777344 348.050781 213.816406 347.859375 213.898438 347.703125 C 213.976562 347.542969 214.089844 347.421875 214.226562 347.335938 C 214.371094 347.253906 214.53125 347.210938 214.710938 347.210938 C 214.90625 347.210938 215.066406 347.25 215.195312 347.324219 C 215.320312 347.398438 215.414062 347.507812 215.472656 347.652344 L 215.316406 347.753906 L 215.28125 347.753906 C 215.222656 347.636719 215.148438 347.554688 215.058594 347.503906 C 214.96875 347.453125 214.851562 347.429688 214.710938 347.429688 C 214.582031 347.429688 214.464844 347.460938 214.363281 347.519531 C 214.265625 347.574219 214.1875 347.667969 214.125 347.796875 C 214.066406 347.921875 214.035156 348.082031 214.035156 348.273438 C 214.035156 348.472656 214.066406 348.632812 214.125 348.757812 C 214.1875 348.882812 214.265625 348.976562 214.363281 349.035156 C 214.464844 349.089844 214.582031 349.117188 214.710938 349.117188 C 214.859375 349.117188 214.984375 349.085938 215.082031 349.019531 C 215.175781 348.949219 215.246094 348.839844 215.289062 348.691406 L 215.328125 348.691406 L 215.488281 348.773438 C 215.441406 348.953125 215.347656 349.09375 215.214844 349.191406 C 215.082031 349.289062 214.914062 349.335938 214.710938 349.335938 Z M 214.710938 349.335938 " fill-opacity="1" fill-rule="nonzero"/><path fill="#231f20" d="M 218.464844 348.332031 L 218.464844 349.109375 L 219.519531 349.109375 L 219.519531 349.308594 L 218.222656 349.308594 L 218.222656 347.242188 L 219.496094 347.242188 L 219.496094 347.445312 L 218.464844 347.445312 L 218.464844 348.132812 L 219.375 348.132812 L 219.375 348.332031 Z M 218.464844 348.332031 " fill-opacity="1" fill-rule="nonzero"/><path fill="#231f20" d="M 226.113281 349.308594 L 225.792969 349.308594 L 225.078125 347.242188 L 225.335938 347.242188 L 225.941406 349.003906 L 225.980469 349.003906 L 226.574219 347.242188 L 226.832031 347.242188 Z M 226.113281 349.308594 " fill-opacity="1" fill-rule="nonzero"/><path fill="#231f20" d="M 231.089844 349.308594 L 230.828125 349.308594 L 230.640625 348.738281 L 229.761719 348.738281 L 229.566406 349.308594 L 229.3125 349.308594 L 230.03125 347.242188 L 230.371094 347.242188 Z M 230.183594 347.492188 L 229.828125 348.535156 L 230.570312 348.535156 L 230.21875 347.492188 Z M 230.183594 347.492188 " fill-opacity="1" fill-rule="nonzero"/><path fill="#231f20" d="M 234.039062 347.242188 L 234.039062 349.109375 L 235.035156 349.109375 L 235.035156 349.308594 L 233.800781 349.308594 L 233.800781 347.242188 Z M 234.039062 347.242188 " fill-opacity="1" fill-rule="nonzero"/><path fill="#231f20" d="M 237.988281 347.242188 L 237.988281 349.109375 L 238.984375 349.109375 L 238.984375 349.308594 L 237.75 349.308594 L 237.75 347.242188 Z M 237.988281 347.242188 " fill-opacity="1" fill-rule="nonzero"/><path fill="#231f20" d="M 241.9375 348.332031 L 241.9375 349.109375 L 242.992188 349.109375 L 242.992188 349.308594 L 241.699219 349.308594 L 241.699219 347.242188 L 242.972656 347.242188 L 242.972656 347.445312 L 241.9375 347.445312 L 241.9375 348.132812 L 242.851562 348.132812 L 242.851562 348.332031 Z M 241.9375 348.332031 " fill-opacity="1" fill-rule="nonzero"/><path fill="#231f20" d="M 246.449219 349.308594 L 246.210938 349.308594 L 246.210938 348.496094 L 245.5 347.242188 L 245.765625 347.242188 L 246.316406 348.210938 L 246.355469 348.210938 L 246.90625 347.242188 L 247.164062 347.242188 L 246.449219 348.496094 Z M 246.449219 349.308594 " fill-opacity="1" fill-rule="nonzero"/><path fill="#231f20" d="M 253.457031 349.335938 C 253.328125 349.335938 253.210938 349.320312 253.109375 349.285156 C 253.003906 349.246094 252.917969 349.203125 252.851562 349.144531 C 252.78125 349.089844 252.730469 349.027344 252.695312 348.957031 L 252.828125 348.792969 L 252.863281 348.792969 C 252.992188 349.011719 253.191406 349.117188 253.457031 349.117188 C 253.613281 349.117188 253.726562 349.085938 253.800781 349.023438 C 253.878906 348.957031 253.914062 348.867188 253.914062 348.75 C 253.914062 348.683594 253.902344 348.625 253.878906 348.578125 C 253.855469 348.53125 253.8125 348.492188 253.753906 348.457031 C 253.695312 348.425781 253.617188 348.394531 253.519531 348.371094 L 253.28125 348.3125 C 253.101562 348.265625 252.96875 348.199219 252.882812 348.105469 C 252.796875 348.007812 252.753906 347.890625 252.753906 347.742188 C 252.753906 347.640625 252.78125 347.550781 252.832031 347.46875 C 252.886719 347.390625 252.960938 347.328125 253.0625 347.28125 C 253.167969 347.238281 253.289062 347.210938 253.429688 347.210938 C 253.585938 347.210938 253.71875 347.234375 253.824219 347.277344 C 253.929688 347.324219 254.011719 347.386719 254.078125 347.472656 L 253.960938 347.636719 L 253.925781 347.636719 C 253.867188 347.5625 253.796875 347.511719 253.714844 347.476562 C 253.636719 347.445312 253.539062 347.425781 253.429688 347.425781 C 253.285156 347.425781 253.179688 347.453125 253.105469 347.511719 C 253.03125 347.566406 252.996094 347.640625 252.996094 347.738281 C 252.996094 347.832031 253.023438 347.90625 253.074219 347.960938 C 253.128906 348.015625 253.21875 348.058594 253.347656 348.089844 L 253.59375 348.148438 C 253.796875 348.195312 253.941406 348.269531 254.03125 348.367188 C 254.121094 348.460938 254.167969 348.585938 254.167969 348.738281 C 254.167969 348.855469 254.140625 348.957031 254.085938 349.046875 C 254.035156 349.136719 253.953125 349.207031 253.847656 349.257812 C 253.742188 349.3125 253.613281 349.335938 253.457031 349.335938 Z M 253.457031 349.335938 " fill-opacity="1" fill-rule="nonzero"/><path fill="#231f20" d="M 258.25 347.242188 L 258.25 347.449219 L 257.601562 347.449219 L 257.601562 349.308594 L 257.359375 349.308594 L 257.359375 347.449219 L 256.714844 347.449219 L 256.714844 347.242188 Z M 258.25 347.242188 " fill-opacity="1" fill-rule="nonzero"/><path fill="#231f20" d="M 260.949219 349.308594 L 260.949219 347.242188 L 261.699219 347.242188 C 261.835938 347.242188 261.953125 347.265625 262.046875 347.3125 C 262.140625 347.355469 262.214844 347.421875 262.261719 347.503906 C 262.304688 347.585938 262.332031 347.6875 262.332031 347.800781 C 262.332031 347.929688 262.296875 348.035156 262.234375 348.121094 C 262.167969 348.199219 262.070312 348.261719 261.933594 348.304688 L 261.933594 348.332031 C 262 348.359375 262.054688 348.402344 262.097656 348.457031 C 262.140625 348.515625 262.179688 348.597656 262.214844 348.710938 L 262.40625 349.308594 L 262.15625 349.308594 L 261.949219 348.675781 C 261.925781 348.601562 261.898438 348.546875 261.867188 348.503906 C 261.832031 348.457031 261.792969 348.429688 261.742188 348.410156 C 261.695312 348.390625 261.632812 348.382812 261.558594 348.382812 L 261.191406 348.382812 L 261.191406 349.308594 Z M 261.691406 348.175781 C 261.820312 348.175781 261.917969 348.144531 261.980469 348.085938 C 262.042969 348.027344 262.074219 347.933594 262.074219 347.8125 C 262.074219 347.691406 262.042969 347.601562 261.980469 347.539062 C 261.917969 347.480469 261.820312 347.449219 261.691406 347.449219 L 261.191406 347.449219 L 261.191406 348.175781 Z M 261.691406 348.175781 " fill-opacity="1" fill-rule="nonzero"/><path fill="#231f20" d="M 265.996094 349.335938 C 265.816406 349.335938 265.65625 349.296875 265.515625 349.222656 C 265.378906 349.144531 265.269531 349.027344 265.1875 348.867188 C 265.109375 348.707031 265.070312 348.511719 265.070312 348.273438 C 265.070312 348.039062 265.109375 347.84375 265.1875 347.683594 C 265.269531 347.523438 265.378906 347.40625 265.515625 347.332031 C 265.65625 347.253906 265.816406 347.210938 265.996094 347.210938 C 266.171875 347.210938 266.332031 347.253906 266.46875 347.332031 C 266.609375 347.40625 266.71875 347.523438 266.796875 347.683594 C 266.878906 347.84375 266.921875 348.039062 266.921875 348.273438 C 266.921875 348.511719 266.878906 348.707031 266.796875 348.867188 C 266.71875 349.027344 266.609375 349.144531 266.46875 349.222656 C 266.332031 349.296875 266.171875 349.335938 265.996094 349.335938 Z M 265.996094 349.113281 C 266.207031 349.113281 266.371094 349.046875 266.488281 348.914062 C 266.605469 348.777344 266.660156 348.566406 266.660156 348.273438 C 266.660156 347.984375 266.605469 347.773438 266.488281 347.640625 C 266.371094 347.503906 266.207031 347.4375 265.996094 347.4375 C 265.550781 347.4375 265.328125 347.714844 265.328125 348.273438 C 265.328125 348.832031 265.550781 349.113281 265.996094 349.113281 Z M 265.996094 349.113281 " fill-opacity="1" fill-rule="nonzero"/><path fill="#231f20" d="M 270.449219 349.308594 L 270.207031 349.308594 L 270.207031 348.496094 L 269.496094 347.242188 L 269.761719 347.242188 L 270.316406 348.210938 L 270.351562 348.210938 L 270.90625 347.242188 L 271.164062 347.242188 L 270.449219 348.496094 Z M 270.449219 349.308594 " fill-opacity="1" fill-rule="nonzero"/><g fill="#000000" fill-opacity="1"><g transform="translate(16.804355, 276.820581)"><g><path d="M 3.644531 -5.59375 L 1.3125 -2.234375 L 0.589844 -2.234375 L 2.996094 -5.660156 L 0.835938 -5.660156 L 0.835938 -6.144531 L 6.472656 -6.144531 L 6.472656 -5.660156 L 4.300781 -5.660156 L 6.707031 -2.234375 L 5.988281 -2.234375 Z M 3.324219 1.269531 L 3.324219 -0.621094 L 0.34375 -0.621094 L 0.34375 -1.128906 L 6.945312 -1.128906 L 6.945312 -0.621094 L 3.957031 -0.621094 L 3.957031 1.269531 Z M 3.324219 1.269531 "/></g></g></g><g fill="#000000" fill-opacity="1"><g transform="translate(24.094448, 276.820581)"><g><path d="M 3.644531 -5.675781 L 1.3125 -1.582031 L 0.589844 -1.582031 L 3.285156 -6.144531 L 4.023438 -6.144531 L 6.707031 -1.582031 L 5.988281 -1.582031 Z M 0.34375 1.066406 L 0.34375 0.558594 L 3.324219 0.558594 L 3.324219 -2.246094 L 3.957031 -2.246094 L 3.957031 0.558594 L 6.945312 0.558594 L 6.945312 1.066406 Z M 0.34375 1.066406 "/></g></g></g><g fill="#000000" fill-opacity="1"><g transform="translate(16.804355, 322.882237)"><g><path d="M 0.867188 -3.203125 L 0.867188 -6.152344 L 6.4375 -6.152344 L 6.4375 -3.203125 Z M 5.808594 -5.644531 L 1.5 -5.644531 L 1.5 -3.710938 L 5.808594 -3.710938 Z M 3.324219 -0.375 L 3.324219 -1.835938 L 0.34375 -1.835938 L 0.34375 -2.34375 L 6.945312 -2.34375 L 6.945312 -1.835938 L 3.957031 -1.835938 L 3.957031 -0.375 Z M 0.828125 1.230469 L 0.828125 -0.976562 L 1.464844 -0.976562 L 1.464844 0.722656 L 6.542969 0.722656 L 6.542969 1.230469 Z M 0.828125 1.230469 "/></g></g></g><g fill="#000000" fill-opacity="1"><g transform="translate(24.094448, 322.882237)"><g><path d="M 1.933594 -1.253906 C 1.769531 -1.253906 1.613281 -1.277344 1.484375 -1.34375 C 1.335938 -1.390625 1.21875 -1.472656 1.121094 -1.582031 C 1.015625 -1.679688 0.933594 -1.792969 0.882812 -1.941406 C 0.820312 -2.074219 0.792969 -2.226562 0.792969 -2.390625 L 0.792969 -5.003906 C 0.792969 -5.167969 0.820312 -5.316406 0.882812 -5.464844 C 0.933594 -5.59375 1.015625 -5.71875 1.121094 -5.824219 C 1.21875 -5.921875 1.335938 -5.996094 1.484375 -6.0625 C 1.613281 -6.109375 1.769531 -6.144531 1.933594 -6.144531 L 3.554688 -6.144531 C 3.71875 -6.144531 3.867188 -6.109375 4.011719 -6.0625 C 4.144531 -5.996094 4.265625 -5.921875 4.375 -5.824219 C 4.472656 -5.71875 4.546875 -5.59375 4.613281 -5.464844 C 4.660156 -5.316406 4.695312 -5.167969 4.695312 -5.003906 L 4.695312 -2.390625 C 4.695312 -2.226562 4.660156 -2.074219 4.613281 -1.941406 C 4.546875 -1.792969 4.472656 -1.679688 4.375 -1.582031 C 4.265625 -1.472656 4.144531 -1.390625 4.011719 -1.34375 C 3.867188 -1.277344 3.71875 -1.253906 3.554688 -1.253906 Z M 4.0625 -4.9375 C 4.0625 -5.136719 3.996094 -5.308594 3.867188 -5.4375 C 3.734375 -5.570312 3.5625 -5.636719 3.367188 -5.636719 L 2.121094 -5.636719 C 1.917969 -5.636719 1.753906 -5.570312 1.621094 -5.4375 C 1.492188 -5.308594 1.425781 -5.136719 1.425781 -4.9375 L 1.425781 -2.457031 C 1.425781 -2.253906 1.492188 -2.089844 1.621094 -1.957031 C 1.753906 -1.828125 1.917969 -1.761719 2.121094 -1.761719 L 3.367188 -1.761719 C 3.5625 -1.761719 3.734375 -1.828125 3.867188 -1.957031 C 3.996094 -2.089844 4.0625 -2.253906 4.0625 -2.457031 Z M 5.882812 0.164062 L 5.882812 -6.25 L 6.511719 -6.25 L 6.511719 1.230469 L 5.882812 1.230469 L 5.882812 0.671875 L 0.375 0.671875 L 0.375 0.164062 Z M 5.882812 0.164062 "/></g></g></g><g fill="#000000" fill-opacity="1"><g transform="translate(16.836351, 295.930465)"><g><path d="M 2.335938 1.636719 C 1.953125 1.636719 1.648438 1.519531 1.410156 1.277344 C 1.15625 1.027344 1.039062 0.710938 1.039062 0.339844 L 1.039062 -0.765625 C 1.039062 -1.136719 1.15625 -1.453125 1.410156 -1.703125 C 1.648438 -1.945312 1.953125 -2.0625 2.335938 -2.0625 L 7 -2.0625 C 7.371094 -2.0625 7.6875 -1.945312 7.9375 -1.703125 C 8.179688 -1.453125 8.296875 -1.136719 8.296875 -0.765625 L 8.296875 0.339844 C 8.296875 0.710938 8.179688 1.027344 7.9375 1.277344 C 7.6875 1.519531 7.371094 1.636719 7 1.636719 Z M 7.457031 -0.699219 C 7.457031 -0.894531 7.390625 -1.070312 7.261719 -1.210938 C 7.117188 -1.34375 6.945312 -1.410156 6.746094 -1.410156 L 2.585938 -1.410156 C 2.378906 -1.410156 2.214844 -1.34375 2.085938 -1.210938 C 1.945312 -1.070312 1.878906 -0.894531 1.878906 -0.699219 L 1.878906 0.273438 C 1.878906 0.46875 1.945312 0.644531 2.085938 0.785156 C 2.214844 0.917969 2.378906 0.984375 2.585938 0.984375 L 6.746094 0.984375 C 6.945312 0.984375 7.117188 0.917969 7.261719 0.785156 C 7.390625 0.644531 7.457031 0.46875 7.457031 0.273438 Z M 0.753906 -8.1875 L 5.121094 -8.1875 L 4.609375 -3.296875 L 3.734375 -3.296875 L 4.238281 -7.511719 L 0.753906 -7.511719 Z M 8.1875 -6.058594 L 9.488281 -6.058594 L 9.488281 -5.382812 L 8.1875 -5.382812 L 8.1875 -2.75 L 7.347656 -2.75 L 7.347656 -8.332031 L 8.1875 -8.332031 Z M 8.1875 -6.058594 "/></g></g></g><g fill="#000000" fill-opacity="1"><g transform="translate(26.552647, 295.930465)"><g><path d="M 2.359375 -4.5625 C 1.976562 -4.5625 1.671875 -4.683594 1.429688 -4.933594 C 1.179688 -5.175781 1.058594 -5.480469 1.058594 -5.863281 L 1.058594 -6.890625 C 1.058594 -7.261719 1.179688 -7.578125 1.429688 -7.828125 C 1.671875 -8.070312 1.976562 -8.1875 2.359375 -8.1875 L 4.957031 -8.1875 C 5.328125 -8.1875 5.644531 -8.070312 5.894531 -7.828125 C 6.136719 -7.578125 6.257812 -7.261719 6.257812 -6.890625 L 6.257812 -5.863281 C 6.257812 -5.480469 6.136719 -5.175781 5.894531 -4.933594 C 5.644531 -4.683594 5.328125 -4.5625 4.957031 -4.5625 Z M 7.839844 -3.601562 L 7.839844 -8.332031 L 8.679688 -8.332031 L 8.679688 -0.316406 L 7.839844 -0.316406 L 7.839844 -1.179688 L 5.710938 -1.179688 L 5.710938 -1.855469 L 7.839844 -1.855469 L 7.839844 -2.925781 L 4.324219 -2.925781 L 4.074219 -0.820312 L 3.230469 -0.820312 L 3.484375 -2.925781 L 0.503906 -2.925781 L 0.503906 -3.601562 Z M 5.414062 -6.824219 C 5.414062 -7.019531 5.351562 -7.195312 5.21875 -7.335938 C 5.078125 -7.46875 4.902344 -7.535156 4.707031 -7.535156 L 2.609375 -7.535156 C 2.402344 -7.535156 2.238281 -7.46875 2.105469 -7.335938 C 1.964844 -7.195312 1.898438 -7.019531 1.898438 -6.824219 L 1.898438 -5.929688 C 1.898438 -5.722656 1.964844 -5.558594 2.105469 -5.425781 C 2.238281 -5.285156 2.402344 -5.21875 2.609375 -5.21875 L 4.707031 -5.21875 C 4.902344 -5.21875 5.078125 -5.285156 5.21875 -5.425781 C 5.351562 -5.558594 5.414062 -5.722656 5.414062 -5.929688 Z M 1.34375 1.527344 L 1.34375 -1.253906 L 2.183594 -1.253906 L 2.183594 0.851562 L 8.878906 0.851562 L 8.878906 1.527344 Z M 1.34375 1.527344 "/></g></g></g><g fill="#000000" fill-opacity="1"><g transform="translate(36.268942, 295.930465)"><g/></g></g><g fill="#000000" fill-opacity="1"><g transform="translate(39.544097, 295.930465)"><g><path d="M 2.335938 1.636719 C 1.953125 1.636719 1.648438 1.519531 1.410156 1.277344 C 1.15625 1.027344 1.039062 0.710938 1.039062 0.339844 L 1.039062 -0.765625 C 1.039062 -1.136719 1.15625 -1.453125 1.410156 -1.703125 C 1.648438 -1.945312 1.953125 -2.0625 2.335938 -2.0625 L 7 -2.0625 C 7.371094 -2.0625 7.6875 -1.945312 7.9375 -1.703125 C 8.179688 -1.453125 8.296875 -1.136719 8.296875 -0.765625 L 8.296875 0.339844 C 8.296875 0.710938 8.179688 1.027344 7.9375 1.277344 C 7.6875 1.519531 7.371094 1.636719 7 1.636719 Z M 2.269531 -3.296875 C 2.050781 -3.296875 1.84375 -3.332031 1.671875 -3.417969 C 1.472656 -3.484375 1.320312 -3.59375 1.191406 -3.734375 C 1.046875 -3.867188 0.9375 -4.019531 0.875 -4.214844 C 0.785156 -4.390625 0.753906 -4.597656 0.753906 -4.816406 L 0.753906 -6.671875 C 0.753906 -6.890625 0.785156 -7.085938 0.875 -7.28125 C 0.9375 -7.457031 1.046875 -7.621094 1.191406 -7.761719 C 1.320312 -7.894531 1.472656 -7.992188 1.671875 -8.078125 C 1.84375 -8.144531 2.050781 -8.1875 2.269531 -8.1875 L 4.039062 -8.1875 C 4.257812 -8.1875 4.453125 -8.144531 4.652344 -8.078125 C 4.824219 -7.992188 4.988281 -7.894531 5.132812 -7.761719 C 5.261719 -7.621094 5.359375 -7.457031 5.449219 -7.28125 C 5.515625 -7.085938 5.558594 -6.890625 5.558594 -6.671875 L 5.558594 -4.816406 C 5.558594 -4.597656 5.515625 -4.390625 5.449219 -4.214844 C 5.359375 -4.019531 5.261719 -3.867188 5.132812 -3.734375 C 4.988281 -3.59375 4.824219 -3.484375 4.652344 -3.417969 C 4.453125 -3.332031 4.257812 -3.296875 4.039062 -3.296875 Z M 7.457031 -0.699219 C 7.457031 -0.894531 7.390625 -1.070312 7.261719 -1.210938 C 7.117188 -1.34375 6.945312 -1.410156 6.746094 -1.410156 L 2.585938 -1.410156 C 2.378906 -1.410156 2.214844 -1.34375 2.085938 -1.210938 C 1.945312 -1.070312 1.878906 -0.894531 1.878906 -0.699219 L 1.878906 0.273438 C 1.878906 0.46875 1.945312 0.644531 2.085938 0.785156 C 2.214844 0.917969 2.378906 0.984375 2.585938 0.984375 L 6.746094 0.984375 C 6.945312 0.984375 7.117188 0.917969 7.261719 0.785156 C 7.390625 0.644531 7.457031 0.46875 7.457031 0.273438 Z M 4.71875 -6.585938 C 4.71875 -6.847656 4.628906 -7.074219 4.453125 -7.25 C 4.28125 -7.425781 4.050781 -7.511719 3.789062 -7.511719 L 2.523438 -7.511719 C 2.25 -7.511719 2.03125 -7.425781 1.855469 -7.25 C 1.679688 -7.074219 1.59375 -6.847656 1.59375 -6.585938 L 1.59375 -4.902344 C 1.59375 -4.628906 1.679688 -4.410156 1.855469 -4.238281 C 2.03125 -4.0625 2.25 -3.972656 2.523438 -3.972656 L 3.789062 -3.972656 C 4.050781 -3.972656 4.28125 -4.0625 4.453125 -4.238281 C 4.628906 -4.410156 4.71875 -4.628906 4.71875 -4.902344 Z M 8.1875 -7.074219 L 9.488281 -7.074219 L 9.488281 -6.398438 L 8.1875 -6.398438 L 8.1875 -4.78125 L 9.488281 -4.78125 L 9.488281 -4.105469 L 8.1875 -4.105469 L 8.1875 -2.75 L 7.347656 -2.75 L 7.347656 -8.332031 L 8.1875 -8.332031 Z M 8.1875 -7.074219 "/></g></g></g><g fill="#000000" fill-opacity="1"><g transform="translate(49.260392, 295.930465)"><g><path d="M 2.335938 1.636719 C 1.953125 1.636719 1.648438 1.519531 1.410156 1.277344 C 1.15625 1.027344 1.039062 0.710938 1.039062 0.339844 L 1.039062 -0.765625 C 1.039062 -1.136719 1.15625 -1.453125 1.410156 -1.703125 C 1.648438 -1.945312 1.953125 -2.0625 2.335938 -2.0625 L 7 -2.0625 C 7.371094 -2.0625 7.6875 -1.945312 7.9375 -1.703125 C 8.179688 -1.453125 8.296875 -1.136719 8.296875 -0.765625 L 8.296875 0.339844 C 8.296875 0.710938 8.179688 1.027344 7.9375 1.277344 C 7.6875 1.519531 7.371094 1.636719 7 1.636719 Z M 2.269531 -3.296875 C 2.050781 -3.296875 1.84375 -3.332031 1.671875 -3.417969 C 1.472656 -3.484375 1.320312 -3.59375 1.191406 -3.734375 C 1.046875 -3.867188 0.9375 -4.019531 0.875 -4.214844 C 0.785156 -4.390625 0.753906 -4.597656 0.753906 -4.816406 L 0.753906 -6.671875 C 0.753906 -6.890625 0.785156 -7.085938 0.875 -7.28125 C 0.9375 -7.457031 1.046875 -7.621094 1.191406 -7.761719 C 1.320312 -7.894531 1.472656 -7.992188 1.671875 -8.078125 C 1.84375 -8.144531 2.050781 -8.1875 2.269531 -8.1875 L 4.039062 -8.1875 C 4.257812 -8.1875 4.453125 -8.144531 4.652344 -8.078125 C 4.824219 -7.992188 4.988281 -7.894531 5.132812 -7.761719 C 5.261719 -7.621094 5.359375 -7.457031 5.449219 -7.28125 C 5.515625 -7.085938 5.558594 -6.890625 5.558594 -6.671875 L 5.558594 -4.816406 C 5.558594 -4.597656 5.515625 -4.390625 5.449219 -4.214844 C 5.359375 -4.019531 5.261719 -3.867188 5.132812 -3.734375 C 4.988281 -3.59375 4.824219 -3.484375 4.652344 -3.417969 C 4.453125 -3.332031 4.257812 -3.296875 4.039062 -3.296875 Z M 7.457031 -0.699219 C 7.457031 -0.894531 7.390625 -1.070312 7.261719 -1.210938 C 7.117188 -1.34375 6.945312 -1.410156 6.746094 -1.410156 L 2.585938 -1.410156 C 2.378906 -1.410156 2.214844 -1.34375 2.085938 -1.210938 C 1.945312 -1.070312 1.878906 -0.894531 1.878906 -0.699219 L 1.878906 0.273438 C 1.878906 0.46875 1.945312 0.644531 2.085938 0.785156 C 2.214844 0.917969 2.378906 0.984375 2.585938 0.984375 L 6.746094 0.984375 C 6.945312 0.984375 7.117188 0.917969 7.261719 0.785156 C 7.390625 0.644531 7.457031 0.46875 7.457031 0.273438 Z M 4.71875 -6.585938 C 4.71875 -6.847656 4.628906 -7.074219 4.453125 -7.25 C 4.28125 -7.425781 4.050781 -7.511719 3.789062 -7.511719 L 2.523438 -7.511719 C 2.25 -7.511719 2.03125 -7.425781 1.855469 -7.25 C 1.679688 -7.074219 1.59375 -6.847656 1.59375 -6.585938 L 1.59375 -4.902344 C 1.59375 -4.628906 1.679688 -4.410156 1.855469 -4.238281 C 2.03125 -4.0625 2.25 -3.972656 2.523438 -3.972656 L 3.789062 -3.972656 C 4.050781 -3.972656 4.28125 -4.0625 4.453125 -4.238281 C 4.628906 -4.410156 4.71875 -4.628906 4.71875 -4.902344 Z M 8.1875 -7.074219 L 9.488281 -7.074219 L 9.488281 -6.398438 L 8.1875 -6.398438 L 8.1875 -4.78125 L 9.488281 -4.78125 L 9.488281 -4.105469 L 8.1875 -4.105469 L 8.1875 -2.75 L 7.347656 -2.75 L 7.347656 -8.332031 L 8.1875 -8.332031 Z M 8.1875 -7.074219 "/></g></g></g><g fill="#000000" fill-opacity="1"><g transform="translate(58.976687, 295.930465)"><g><path d="M 4.433594 -0.503906 L 4.433594 -2.828125 L 0.457031 -2.828125 L 0.457031 -3.503906 L 9.257812 -3.503906 L 9.257812 -2.828125 L 5.273438 -2.828125 L 5.273438 -0.503906 Z M 7.480469 -4.378906 L 7.742188 -7.523438 L 1.15625 -7.523438 L 1.15625 -8.199219 L 8.582031 -8.199219 L 8.277344 -4.378906 Z M 1.101562 1.636719 L 1.101562 -1.519531 L 1.945312 -1.519531 L 1.945312 0.960938 L 8.714844 0.960938 L 8.714844 1.636719 Z M 1.101562 1.636719 "/></g></g></g><g fill="#000000" fill-opacity="1"><g transform="translate(68.692983, 295.930465)"><g/></g></g><g fill="#000000" fill-opacity="1"><g transform="translate(71.968138, 295.930465)"><g><path d="M 3.320312 -7.273438 L 1.070312 1.441406 L 0.261719 1.441406 L 2.816406 -8.1875 L 3.8125 -8.1875 L 6.257812 1.441406 L 5.449219 1.441406 Z M 7.839844 -4.203125 L 7.839844 -8.332031 L 8.679688 -8.332031 L 8.679688 1.636719 L 7.839844 1.636719 L 7.839844 -3.527344 L 5.886719 -3.527344 L 5.886719 -4.203125 Z M 7.839844 -4.203125 "/></g></g></g><g fill="#000000" fill-opacity="1"><g transform="translate(81.684433, 295.930465)"><g><path d="M 0.851562 -3.199219 L 0.851562 -8.1875 L 5.65625 -8.1875 L 5.65625 -3.199219 Z M 4.816406 -7.535156 L 1.691406 -7.535156 L 1.691406 -3.855469 L 4.816406 -3.855469 Z M 7.839844 -4.871094 L 7.839844 -6.375 L 6.265625 -6.375 L 6.265625 -7.054688 L 7.839844 -7.054688 L 7.839844 -8.332031 L 8.679688 -8.332031 L 8.679688 -0.949219 L 7.839844 -0.949219 L 7.839844 -4.191406 L 6.265625 -4.191406 L 6.265625 -4.871094 Z M 1.246094 1.527344 L 1.246094 -1.84375 L 2.085938 -1.84375 L 2.085938 0.851562 L 8.878906 0.851562 L 8.878906 1.527344 Z M 1.246094 1.527344 "/></g></g></g><g fill="#000000" fill-opacity="1"><g transform="translate(91.400728, 295.930465)"><g/></g></g><g fill="#000000" fill-opacity="1"><g transform="translate(94.675883, 295.930465)"><g><path d="M 2.371094 -3.679688 C 2.152344 -3.679688 1.945312 -3.710938 1.769531 -3.800781 C 1.574219 -3.867188 1.417969 -3.972656 1.289062 -4.117188 C 1.144531 -4.246094 1.039062 -4.398438 0.972656 -4.597656 C 0.882812 -4.773438 0.851562 -4.980469 0.851562 -5.199219 L 0.851562 -6.671875 C 0.851562 -6.890625 0.882812 -7.085938 0.972656 -7.28125 C 1.039062 -7.457031 1.144531 -7.621094 1.289062 -7.761719 C 1.417969 -7.894531 1.574219 -7.992188 1.769531 -8.078125 C 1.945312 -8.144531 2.152344 -8.1875 2.371094 -8.1875 L 4.136719 -8.1875 C 4.355469 -8.1875 4.554688 -8.144531 4.75 -8.078125 C 4.925781 -7.992188 5.089844 -7.894531 5.230469 -7.761719 C 5.359375 -7.621094 5.460938 -7.457031 5.546875 -7.28125 C 5.613281 -7.085938 5.65625 -6.890625 5.65625 -6.671875 L 5.65625 -5.199219 C 5.65625 -4.980469 5.613281 -4.773438 5.546875 -4.597656 C 5.460938 -4.398438 5.359375 -4.246094 5.230469 -4.117188 C 5.089844 -3.972656 4.925781 -3.867188 4.75 -3.800781 C 4.554688 -3.710938 4.355469 -3.679688 4.136719 -3.679688 Z M 1.246094 1.636719 L 1.246094 -0.796875 L 7.839844 -0.796875 L 7.839844 -1.933594 L 1.246094 -1.933594 L 1.246094 -2.585938 L 8.679688 -2.585938 L 8.679688 -0.152344 L 2.085938 -0.152344 L 2.085938 0.984375 L 8.878906 0.984375 L 8.878906 1.636719 Z M 4.816406 -6.585938 C 4.816406 -6.847656 4.726562 -7.074219 4.554688 -7.25 C 4.378906 -7.425781 4.148438 -7.511719 3.886719 -7.511719 L 2.621094 -7.511719 C 2.347656 -7.511719 2.128906 -7.425781 1.953125 -7.25 C 1.78125 -7.074219 1.691406 -6.847656 1.691406 -6.585938 L 1.691406 -5.285156 C 1.691406 -5.011719 1.78125 -4.792969 1.953125 -4.617188 C 2.128906 -4.445312 2.347656 -4.355469 2.621094 -4.355469 L 3.886719 -4.355469 C 4.148438 -4.355469 4.378906 -4.445312 4.554688 -4.617188 C 4.726562 -4.792969 4.816406 -5.011719 4.816406 -5.285156 Z M 7.839844 -6.234375 L 7.839844 -8.332031 L 8.679688 -8.332031 L 8.679688 -3.242188 L 7.839844 -3.242188 L 7.839844 -5.558594 L 6.265625 -5.558594 L 6.265625 -6.234375 Z M 7.839844 -6.234375 "/></g></g></g><g fill="#000000" fill-opacity="1"><g transform="translate(104.392178, 295.930465)"><g><path d="M 1.101562 1.636719 L 1.101562 -1.824219 L 8.625 -1.824219 L 8.625 1.636719 Z M 7.785156 -1.144531 L 1.945312 -1.144531 L 1.945312 0.960938 L 7.785156 0.960938 Z M 0.457031 -2.871094 L 0.457031 -3.546875 L 9.257812 -3.546875 L 9.257812 -2.871094 Z M 2.347656 -4.585938 C 1.964844 -4.585938 1.660156 -4.707031 1.417969 -4.957031 C 1.167969 -5.199219 1.046875 -5.503906 1.046875 -5.886719 L 1.046875 -6.890625 C 1.046875 -7.261719 1.167969 -7.578125 1.417969 -7.828125 C 1.660156 -8.070312 1.964844 -8.199219 2.347656 -8.199219 L 7.390625 -8.199219 C 7.761719 -8.199219 8.078125 -8.070312 8.332031 -7.828125 C 8.570312 -7.578125 8.691406 -7.261719 8.691406 -6.890625 L 8.691406 -5.886719 C 8.691406 -5.503906 8.570312 -5.199219 8.332031 -4.957031 C 8.078125 -4.707031 7.761719 -4.585938 7.390625 -4.585938 Z M 7.851562 -6.8125 C 7.851562 -7.011719 7.773438 -7.183594 7.644531 -7.328125 C 7.5 -7.457031 7.328125 -7.523438 7.128906 -7.523438 L 2.585938 -7.523438 C 2.378906 -7.523438 2.214844 -7.457031 2.085938 -7.328125 C 1.945312 -7.183594 1.878906 -7.011719 1.878906 -6.8125 L 1.878906 -5.960938 C 1.878906 -5.753906 1.945312 -5.589844 2.085938 -5.460938 C 2.214844 -5.328125 2.378906 -5.261719 2.585938 -5.261719 L 7.128906 -5.261719 C 7.328125 -5.261719 7.5 -5.328125 7.644531 -5.460938 C 7.773438 -5.589844 7.851562 -5.753906 7.851562 -5.960938 Z M 7.851562 -6.8125 "/></g></g></g><g fill="#000000" fill-opacity="1"><g transform="translate(114.108474, 295.930465)"><g><path d="M 1.101562 1.636719 L 1.101562 -0.699219 L 7.796875 -0.699219 L 7.796875 -1.789062 L 1.101562 -1.789062 L 1.101562 -2.425781 L 8.636719 -2.425781 L 8.636719 -0.0664062 L 1.945312 -0.0664062 L 1.945312 1.003906 L 8.8125 1.003906 L 8.8125 1.636719 Z M 0.457031 -3.363281 L 0.457031 -4.039062 L 3.820312 -4.039062 L 3.820312 -6.09375 L 4.664062 -6.09375 L 4.664062 -4.039062 L 9.257812 -4.039062 L 9.257812 -3.363281 Z M 7.480469 -4.804688 L 7.742188 -7.523438 L 1.15625 -7.523438 L 1.15625 -8.199219 L 8.59375 -8.199219 L 8.277344 -4.804688 Z M 7.480469 -4.804688 "/></g></g></g><g fill="#000000" fill-opacity="1"><g transform="translate(123.824775, 295.930465)"><g><path d="M 8.679688 -3.242188 L 7.839844 -3.242188 L 7.839844 -8.332031 L 8.679688 -8.332031 Z M 1.246094 1.636719 L 1.246094 -0.796875 L 7.839844 -0.796875 L 7.839844 -1.933594 L 1.246094 -1.933594 L 1.246094 -2.585938 L 8.679688 -2.585938 L 8.679688 -0.152344 L 2.085938 -0.152344 L 2.085938 0.984375 L 8.878906 0.984375 L 8.878906 1.636719 Z M 0.851562 -8.1875 L 5.21875 -8.1875 L 4.707031 -3.691406 L 3.832031 -3.691406 L 4.335938 -7.511719 L 0.851562 -7.511719 Z M 0.851562 -8.1875 "/></g></g></g><g fill="#000000" fill-opacity="1"><g transform="translate(133.54107, 295.930465)"><g/></g></g><g fill="#000000" fill-opacity="1"><g transform="translate(136.816231, 295.930465)"><g><path d="M 4.738281 1.320312 L 4.738281 -0.90625 L 0.402344 -0.90625 L 0.402344 -1.734375 L 4.652344 -7.980469 L 5.578125 -7.980469 L 5.578125 -1.691406 L 6.792969 -1.691406 L 6.792969 -0.90625 L 5.578125 -0.90625 L 5.578125 1.320312 Z M 1.277344 -1.691406 L 4.738281 -1.691406 L 4.738281 -6.8125 Z M 1.277344 -1.691406 "/></g></g></g><g fill="#000000" fill-opacity="1"><g transform="translate(143.945154, 295.930465)"><g><path d="M 0.730469 0.535156 L 4.136719 0.535156 C 4.410156 0.535156 4.640625 0.449219 4.824219 0.273438 C 5 0.0859375 5.089844 -0.132812 5.089844 -0.414062 L 5.089844 -2.085938 C 5.089844 -2.359375 5 -2.585938 4.824219 -2.773438 C 4.640625 -2.949219 4.410156 -3.035156 4.136719 -3.035156 L 0.730469 -3.035156 L 0.730469 -3.84375 L 4.136719 -3.84375 C 4.410156 -3.84375 4.640625 -3.929688 4.824219 -4.117188 C 5 -4.292969 5.089844 -4.507812 5.089844 -4.792969 L 5.089844 -6.246094 C 5.089844 -6.519531 5 -6.746094 4.824219 -6.933594 C 4.640625 -7.109375 4.410156 -7.195312 4.136719 -7.195312 L 0.730469 -7.195312 L 0.730469 -7.980469 L 4.433594 -7.980469 C 4.652344 -7.980469 4.847656 -7.9375 5.035156 -7.871094 C 5.207031 -7.785156 5.371094 -7.6875 5.503906 -7.554688 C 5.632812 -7.425781 5.730469 -7.261719 5.820312 -7.085938 C 5.886719 -6.902344 5.929688 -6.703125 5.929688 -6.484375 L 5.929688 -4.773438 C 5.929688 -4.398438 5.839844 -4.117188 5.679688 -3.910156 C 5.503906 -3.691406 5.285156 -3.539062 5.011719 -3.4375 C 5.285156 -3.332031 5.503906 -3.175781 5.679688 -2.96875 C 5.839844 -2.75 5.929688 -2.457031 5.929688 -2.105469 L 5.929688 -0.175781 C 5.929688 0.0429688 5.886719 0.238281 5.820312 0.425781 C 5.730469 0.601562 5.632812 0.765625 5.503906 0.894531 C 5.371094 1.027344 5.207031 1.125 5.035156 1.210938 C 4.847656 1.277344 4.652344 1.320312 4.433594 1.320312 L 0.730469 1.320312 Z M 0.730469 0.535156 "/></g></g></g><g fill="#000000" fill-opacity="1"><g transform="translate(150.571881, 295.930465)"><g><path d="M 0.632812 -3.625 L 5.4375 -3.625 L 5.4375 -2.894531 L 0.632812 -2.894531 Z M 0.632812 -3.625 "/></g></g></g><g fill="#000000" fill-opacity="1"><g transform="translate(156.652753, 295.930465)"><g><path d="M 3.058594 -7.980469 L 4.019531 -7.980469 L 4.019531 1.320312 L 3.175781 1.320312 L 3.175781 -7.152344 L 0.632812 -5.785156 L 0.632812 -6.660156 Z M 3.058594 -7.980469 "/></g></g></g><g fill="#000000" fill-opacity="1"><g transform="translate(16.817153, 341.858352)"><g><path d="M 2.207031 1.320312 C 1.988281 1.320312 1.78125 1.277344 1.605469 1.210938 C 1.417969 1.125 1.265625 1.027344 1.136719 0.894531 C 1.003906 0.765625 0.894531 0.601562 0.828125 0.425781 C 0.742188 0.238281 0.710938 0.0429688 0.710938 -0.175781 L 0.710938 -6.484375 C 0.710938 -6.703125 0.742188 -6.902344 0.828125 -7.085938 C 0.894531 -7.261719 1.003906 -7.425781 1.136719 -7.554688 C 1.265625 -7.6875 1.417969 -7.785156 1.605469 -7.871094 C 1.78125 -7.9375 1.988281 -7.980469 2.207031 -7.980469 L 5.097656 -7.980469 C 5.316406 -7.980469 5.515625 -7.9375 5.699219 -7.871094 C 5.875 -7.785156 6.039062 -7.6875 6.167969 -7.554688 C 6.300781 -7.425781 6.398438 -7.261719 6.484375 -7.085938 C 6.550781 -6.902344 6.59375 -6.703125 6.59375 -6.484375 L 6.59375 -0.175781 C 6.59375 0.0429688 6.550781 0.238281 6.484375 0.425781 C 6.398438 0.601562 6.300781 0.765625 6.167969 0.894531 C 6.039062 1.027344 5.875 1.125 5.699219 1.210938 C 5.515625 1.277344 5.316406 1.320312 5.097656 1.320312 Z M 5.753906 -6.246094 C 5.753906 -6.519531 5.667969 -6.746094 5.492188 -6.933594 C 5.304688 -7.109375 5.078125 -7.195312 4.804688 -7.195312 L 2.5 -7.195312 C 2.214844 -7.195312 2 -7.109375 1.824219 -6.933594 C 1.636719 -6.746094 1.550781 -6.519531 1.550781 -6.246094 L 1.550781 -0.414062 C 1.550781 -0.132812 1.636719 0.0859375 1.824219 0.273438 C 2 0.449219 2.214844 0.535156 2.5 0.535156 L 4.804688 0.535156 C 5.078125 0.535156 5.304688 0.449219 5.492188 0.273438 C 5.667969 0.0859375 5.753906 -0.132812 5.753906 -0.414062 Z M 5.753906 -6.246094 "/></g></g></g><g fill="#000000" fill-opacity="1"><g transform="translate(24.120751, 341.858352)"><g><path d="M 0.730469 0.535156 L 4.136719 0.535156 C 4.410156 0.535156 4.640625 0.449219 4.824219 0.273438 C 5 0.0859375 5.089844 -0.132812 5.089844 -0.414062 L 5.089844 -2.085938 C 5.089844 -2.359375 5 -2.585938 4.824219 -2.773438 C 4.640625 -2.949219 4.410156 -3.035156 4.136719 -3.035156 L 0.730469 -3.035156 L 0.730469 -3.84375 L 4.136719 -3.84375 C 4.410156 -3.84375 4.640625 -3.929688 4.824219 -4.117188 C 5 -4.292969 5.089844 -4.507812 5.089844 -4.792969 L 5.089844 -6.246094 C 5.089844 -6.519531 5 -6.746094 4.824219 -6.933594 C 4.640625 -7.109375 4.410156 -7.195312 4.136719 -7.195312 L 0.730469 -7.195312 L 0.730469 -7.980469 L 4.433594 -7.980469 C 4.652344 -7.980469 4.847656 -7.9375 5.035156 -7.871094 C 5.207031 -7.785156 5.371094 -7.6875 5.503906 -7.554688 C 5.632812 -7.425781 5.730469 -7.261719 5.820312 -7.085938 C 5.886719 -6.902344 5.929688 -6.703125 5.929688 -6.484375 L 5.929688 -4.773438 C 5.929688 -4.398438 5.839844 -4.117188 5.679688 -3.910156 C 5.503906 -3.691406 5.285156 -3.539062 5.011719 -3.4375 C 5.285156 -3.332031 5.503906 -3.175781 5.679688 -2.96875 C 5.839844 -2.75 5.929688 -2.457031 5.929688 -2.105469 L 5.929688 -0.175781 C 5.929688 0.0429688 5.886719 0.238281 5.820312 0.425781 C 5.730469 0.601562 5.632812 0.765625 5.503906 0.894531 C 5.371094 1.027344 5.207031 1.125 5.035156 1.210938 C 4.847656 1.277344 4.652344 1.320312 4.433594 1.320312 L 0.730469 1.320312 Z M 0.730469 0.535156 "/></g></g></g><g fill="#000000" fill-opacity="1"><g transform="translate(30.747484, 341.858352)"><g><path d="M 0.730469 0.535156 L 4.136719 0.535156 C 4.410156 0.535156 4.640625 0.449219 4.824219 0.273438 C 5 0.0859375 5.089844 -0.132812 5.089844 -0.414062 L 5.089844 -2.085938 C 5.089844 -2.359375 5 -2.585938 4.824219 -2.773438 C 4.640625 -2.949219 4.410156 -3.035156 4.136719 -3.035156 L 0.730469 -3.035156 L 0.730469 -3.84375 L 4.136719 -3.84375 C 4.410156 -3.84375 4.640625 -3.929688 4.824219 -4.117188 C 5 -4.292969 5.089844 -4.507812 5.089844 -4.792969 L 5.089844 -6.246094 C 5.089844 -6.519531 5 -6.746094 4.824219 -6.933594 C 4.640625 -7.109375 4.410156 -7.195312 4.136719 -7.195312 L 0.730469 -7.195312 L 0.730469 -7.980469 L 4.433594 -7.980469 C 4.652344 -7.980469 4.847656 -7.9375 5.035156 -7.871094 C 5.207031 -7.785156 5.371094 -7.6875 5.503906 -7.554688 C 5.632812 -7.425781 5.730469 -7.261719 5.820312 -7.085938 C 5.886719 -6.902344 5.929688 -6.703125 5.929688 -6.484375 L 5.929688 -4.773438 C 5.929688 -4.398438 5.839844 -4.117188 5.679688 -3.910156 C 5.503906 -3.691406 5.285156 -3.539062 5.011719 -3.4375 C 5.285156 -3.332031 5.503906 -3.175781 5.679688 -2.96875 C 5.839844 -2.75 5.929688 -2.457031 5.929688 -2.105469 L 5.929688 -0.175781 C 5.929688 0.0429688 5.886719 0.238281 5.820312 0.425781 C 5.730469 0.601562 5.632812 0.765625 5.503906 0.894531 C 5.371094 1.027344 5.207031 1.125 5.035156 1.210938 C 4.847656 1.277344 4.652344 1.320312 4.433594 1.320312 L 0.730469 1.320312 Z M 0.730469 0.535156 "/></g></g></g><g fill="#000000" fill-opacity="1"><g transform="translate(37.374217, 341.858352)"><g><path d="M 0.632812 -3.625 L 5.4375 -3.625 L 5.4375 -2.894531 L 0.632812 -2.894531 Z M 0.632812 -3.625 "/></g></g></g><g fill="#000000" fill-opacity="1"><g transform="translate(43.455089, 341.858352)"><g><path d="M 1.539062 -3.984375 C 1.746094 -4.246094 2.085938 -4.390625 2.566406 -4.390625 L 5.035156 -4.390625 C 5.25 -4.390625 5.449219 -4.34375 5.632812 -4.28125 C 5.808594 -4.191406 5.972656 -4.09375 6.105469 -3.964844 C 6.234375 -3.832031 6.332031 -3.667969 6.421875 -3.492188 C 6.484375 -3.308594 6.53125 -3.113281 6.53125 -2.894531 L 6.53125 -0.175781 C 6.53125 0.0429688 6.484375 0.238281 6.421875 0.425781 C 6.332031 0.601562 6.234375 0.765625 6.105469 0.894531 C 5.972656 1.027344 5.808594 1.125 5.632812 1.210938 C 5.449219 1.277344 5.25 1.320312 5.035156 1.320312 L 2.195312 1.320312 C 1.976562 1.320312 1.769531 1.277344 1.59375 1.210938 C 1.410156 1.125 1.253906 1.027344 1.125 0.894531 C 0.992188 0.765625 0.882812 0.601562 0.820312 0.425781 C 0.730469 0.238281 0.699219 0.0429688 0.699219 -0.175781 L 0.699219 -6.59375 C 0.699219 -7.019531 0.839844 -7.359375 1.125 -7.609375 C 1.398438 -7.851562 1.757812 -7.980469 2.195312 -7.980469 L 6.070312 -7.980469 L 6.070312 -7.195312 L 2.488281 -7.195312 C 2.207031 -7.195312 1.988281 -7.117188 1.8125 -6.988281 C 1.625 -6.847656 1.539062 -6.636719 1.539062 -6.355469 Z M 2.488281 -3.601562 C 2.214844 -3.601562 2 -3.515625 1.824219 -3.339844 C 1.648438 -3.167969 1.550781 -2.949219 1.539062 -2.6875 L 1.539062 -0.414062 C 1.539062 -0.132812 1.625 0.0859375 1.8125 0.273438 C 1.988281 0.449219 2.207031 0.535156 2.488281 0.535156 L 4.738281 0.535156 C 5.011719 0.535156 5.242188 0.449219 5.425781 0.273438 C 5.601562 0.0859375 5.6875 -0.132812 5.6875 -0.414062 L 5.6875 -2.652344 C 5.6875 -2.925781 5.601562 -3.15625 5.425781 -3.339844 C 5.242188 -3.515625 5.011719 -3.601562 4.738281 -3.601562 Z M 2.488281 -3.601562 "/></g></g></g><g fill="#000000" fill-opacity="1"><g transform="translate(50.605847, 341.858352)"><g><path d="M 6.289062 -7.980469 L 6.289062 -7.164062 L 2.9375 1.320312 L 2.042969 1.320312 L 5.425781 -7.195312 L 0.503906 -7.195312 L 0.503906 -7.980469 Z M 6.289062 -7.980469 "/></g></g></g><g fill="#000000" fill-opacity="1"><g transform="translate(57.38542, 341.858352)"><g><path d="M 0.730469 0.535156 L 4.136719 0.535156 C 4.410156 0.535156 4.640625 0.449219 4.824219 0.273438 C 5 0.0859375 5.089844 -0.132812 5.089844 -0.414062 L 5.089844 -2.085938 C 5.089844 -2.359375 5 -2.585938 4.824219 -2.773438 C 4.640625 -2.949219 4.410156 -3.035156 4.136719 -3.035156 L 0.730469 -3.035156 L 0.730469 -3.84375 L 4.136719 -3.84375 C 4.410156 -3.84375 4.640625 -3.929688 4.824219 -4.117188 C 5 -4.292969 5.089844 -4.507812 5.089844 -4.792969 L 5.089844 -6.246094 C 5.089844 -6.519531 5 -6.746094 4.824219 -6.933594 C 4.640625 -7.109375 4.410156 -7.195312 4.136719 -7.195312 L 0.730469 -7.195312 L 0.730469 -7.980469 L 4.433594 -7.980469 C 4.652344 -7.980469 4.847656 -7.9375 5.035156 -7.871094 C 5.207031 -7.785156 5.371094 -7.6875 5.503906 -7.554688 C 5.632812 -7.425781 5.730469 -7.261719 5.820312 -7.085938 C 5.886719 -6.902344 5.929688 -6.703125 5.929688 -6.484375 L 5.929688 -4.773438 C 5.929688 -4.398438 5.839844 -4.117188 5.679688 -3.910156 C 5.503906 -3.691406 5.285156 -3.539062 5.011719 -3.4375 C 5.285156 -3.332031 5.503906 -3.175781 5.679688 -2.96875 C 5.839844 -2.75 5.929688 -2.457031 5.929688 -2.105469 L 5.929688 -0.175781 C 5.929688 0.0429688 5.886719 0.238281 5.820312 0.425781 C 5.730469 0.601562 5.632812 0.765625 5.503906 0.894531 C 5.371094 1.027344 5.207031 1.125 5.035156 1.210938 C 4.847656 1.277344 4.652344 1.320312 4.433594 1.320312 L 0.730469 1.320312 Z M 0.730469 0.535156 "/></g></g></g><g fill="#000000" fill-opacity="1"><g transform="translate(64.012153, 341.858352)"><g><path d="M 0.632812 -3.625 L 5.4375 -3.625 L 5.4375 -2.894531 L 0.632812 -2.894531 Z M 0.632812 -3.625 "/></g></g></g><g fill="#000000" fill-opacity="1"><g transform="translate(70.093025, 341.858352)"><g><path d="M 4.738281 1.320312 L 4.738281 -0.90625 L 0.402344 -0.90625 L 0.402344 -1.734375 L 4.652344 -7.980469 L 5.578125 -7.980469 L 5.578125 -1.691406 L 6.792969 -1.691406 L 6.792969 -0.90625 L 5.578125 -0.90625 L 5.578125 1.320312 Z M 1.277344 -1.691406 L 4.738281 -1.691406 L 4.738281 -6.8125 Z M 1.277344 -1.691406 "/></g></g></g><g fill="#000000" fill-opacity="1"><g transform="translate(77.221948, 341.858352)"><g><path d="M 2.117188 -3.265625 C 1.679688 -3.265625 1.320312 -3.386719 1.046875 -3.636719 C 0.765625 -3.875 0.621094 -4.214844 0.621094 -4.652344 L 0.621094 -7.980469 L 6.050781 -7.980469 L 6.050781 -7.195312 L 1.464844 -7.195312 L 1.464844 -4.890625 C 1.464844 -4.609375 1.550781 -4.390625 1.734375 -4.257812 C 1.910156 -4.117188 2.128906 -4.050781 2.414062 -4.050781 L 4.878906 -4.050781 C 5.316406 -4.050781 5.679688 -3.917969 5.960938 -3.679688 C 6.234375 -3.429688 6.375 -3.089844 6.375 -2.664062 L 6.375 -0.0664062 C 6.375 0.359375 6.234375 0.699219 5.960938 0.949219 C 5.679688 1.191406 5.316406 1.320312 4.878906 1.320312 L 0.621094 1.320312 L 0.621094 0.535156 L 4.585938 0.535156 C 4.859375 0.535156 5.089844 0.457031 5.273438 0.328125 C 5.449219 0.1875 5.535156 -0.0234375 5.535156 -0.304688 L 5.535156 -2.425781 C 5.535156 -2.707031 5.449219 -2.914062 5.273438 -3.058594 C 5.089844 -3.1875 4.859375 -3.265625 4.585938 -3.265625 Z M 2.117188 -3.265625 "/></g></g></g><g fill="#000000" fill-opacity="1"><g transform="translate(84.252619, 341.858352)"><g><path d="M 2.117188 -3.265625 C 1.679688 -3.265625 1.320312 -3.386719 1.046875 -3.636719 C 0.765625 -3.875 0.621094 -4.214844 0.621094 -4.652344 L 0.621094 -7.980469 L 6.050781 -7.980469 L 6.050781 -7.195312 L 1.464844 -7.195312 L 1.464844 -4.890625 C 1.464844 -4.609375 1.550781 -4.390625 1.734375 -4.257812 C 1.910156 -4.117188 2.128906 -4.050781 2.414062 -4.050781 L 4.878906 -4.050781 C 5.316406 -4.050781 5.679688 -3.917969 5.960938 -3.679688 C 6.234375 -3.429688 6.375 -3.089844 6.375 -2.664062 L 6.375 -0.0664062 C 6.375 0.359375 6.234375 0.699219 5.960938 0.949219 C 5.679688 1.191406 5.316406 1.320312 4.878906 1.320312 L 0.621094 1.320312 L 0.621094 0.535156 L 4.585938 0.535156 C 4.859375 0.535156 5.089844 0.457031 5.273438 0.328125 C 5.449219 0.1875 5.535156 -0.0234375 5.535156 -0.304688 L 5.535156 -2.425781 C 5.535156 -2.707031 5.449219 -2.914062 5.273438 -3.058594 C 5.089844 -3.1875 4.859375 -3.265625 4.585938 -3.265625 Z M 2.117188 -3.265625 "/></g></g></g><g fill="#000000" fill-opacity="1"><g transform="translate(91.28329, 341.858352)"><g><path d="M 2.117188 -3.265625 C 1.679688 -3.265625 1.320312 -3.386719 1.046875 -3.636719 C 0.765625 -3.875 0.621094 -4.214844 0.621094 -4.652344 L 0.621094 -7.980469 L 6.050781 -7.980469 L 6.050781 -7.195312 L 1.464844 -7.195312 L 1.464844 -4.890625 C 1.464844 -4.609375 1.550781 -4.390625 1.734375 -4.257812 C 1.910156 -4.117188 2.128906 -4.050781 2.414062 -4.050781 L 4.878906 -4.050781 C 5.316406 -4.050781 5.679688 -3.917969 5.960938 -3.679688 C 6.234375 -3.429688 6.375 -3.089844 6.375 -2.664062 L 6.375 -0.0664062 C 6.375 0.359375 6.234375 0.699219 5.960938 0.949219 C 5.679688 1.191406 5.316406 1.320312 4.878906 1.320312 L 0.621094 1.320312 L 0.621094 0.535156 L 4.585938 0.535156 C 4.859375 0.535156 5.089844 0.457031 5.273438 0.328125 C 5.449219 0.1875 5.535156 -0.0234375 5.535156 -0.304688 L 5.535156 -2.425781 C 5.535156 -2.707031 5.449219 -2.914062 5.273438 -3.058594 C 5.089844 -3.1875 4.859375 -3.265625 4.585938 -3.265625 Z M 2.117188 -3.265625 "/></g></g></g></svg>