<svg xmlns="http://www.w3.org/2000/svg" xmlns:xlink="http://www.w3.org/1999/xlink" width="1500" zoomAndPan="magnify" viewBox="0 0 1125 225" height="300" preserveAspectRatio="xMidYMid meet" version="1.0"><defs><g/></defs><rect x="-112.5" width="1350" fill="#ffffff" y="-22.5" height="270" fill-opacity="1"/><rect x="-112.5" width="1350" fill="#ffffff" y="-22.5" height="270" fill-opacity="1"/><rect x="-112.5" width="1350" fill="#94a8b8" y="-22.5" height="270" fill-opacity="1"/><g fill="#ffffff" fill-opacity="1"><g transform="translate(530.458562, 115.650013)"><g><path d="M 1.90625 -7.039062 L 1.90625 -13.519531 L 14.148438 -13.519531 L 14.148438 -7.039062 Z M 12.761719 -12.402344 L 3.292969 -12.402344 L 3.292969 -8.152344 L 12.761719 -8.152344 Z M 7.308594 -0.828125 L 7.308594 -4.03125 L 0.757812 -4.03125 L 0.757812 -5.148438 L 15.265625 -5.148438 L 15.265625 -4.03125 L 8.695312 -4.03125 L 8.695312 -0.828125 Z M 1.816406 2.699219 L 1.816406 -2.140625 L 3.222656 -2.140625 L 3.222656 1.585938 L 14.382812 1.585938 L 14.382812 2.699219 Z M 1.816406 2.699219 "/></g></g></g><g fill="#ffffff" fill-opacity="1"><g transform="translate(546.478544, 115.650013)"><g><path d="M 4.246094 -2.753906 C 3.886719 -2.753906 3.546875 -2.808594 3.257812 -2.953125 C 2.933594 -3.058594 2.683594 -3.238281 2.464844 -3.472656 C 2.230469 -3.691406 2.050781 -3.941406 1.945312 -4.265625 C 1.800781 -4.554688 1.746094 -4.894531 1.746094 -5.257812 L 1.746094 -10.996094 C 1.746094 -11.359375 1.800781 -11.683594 1.945312 -12.007812 C 2.050781 -12.292969 2.230469 -12.5625 2.464844 -12.796875 C 2.683594 -13.015625 2.933594 -13.175781 3.257812 -13.320312 C 3.546875 -13.429688 3.886719 -13.5 4.246094 -13.5 L 7.8125 -13.5 C 8.171875 -13.5 8.496094 -13.429688 8.820312 -13.320312 C 9.109375 -13.175781 9.378906 -13.015625 9.613281 -12.796875 C 9.828125 -12.5625 9.988281 -12.292969 10.132812 -12.007812 C 10.242188 -11.683594 10.3125 -11.359375 10.3125 -10.996094 L 10.3125 -5.257812 C 10.3125 -4.894531 10.242188 -4.554688 10.132812 -4.265625 C 9.988281 -3.941406 9.828125 -3.691406 9.613281 -3.472656 C 9.378906 -3.238281 9.109375 -3.058594 8.820312 -2.953125 C 8.496094 -2.808594 8.171875 -2.753906 7.8125 -2.753906 Z M 8.929688 -10.855469 C 8.929688 -11.285156 8.785156 -11.664062 8.496094 -11.953125 C 8.207031 -12.238281 7.828125 -12.382812 7.398438 -12.382812 L 4.660156 -12.382812 C 4.210938 -12.382812 3.851562 -12.238281 3.5625 -11.953125 C 3.277344 -11.664062 3.132812 -11.285156 3.132812 -10.855469 L 3.132812 -5.398438 C 3.132812 -4.949219 3.277344 -4.589844 3.5625 -4.300781 C 3.851562 -4.015625 4.210938 -3.871094 4.660156 -3.871094 L 7.398438 -3.871094 C 7.828125 -3.871094 8.207031 -4.015625 8.496094 -4.300781 C 8.785156 -4.589844 8.929688 -4.949219 8.929688 -5.398438 Z M 12.925781 0.359375 L 12.925781 -13.734375 L 14.308594 -13.734375 L 14.308594 2.699219 L 12.925781 2.699219 L 12.925781 1.476562 L 0.828125 1.476562 L 0.828125 0.359375 Z M 12.925781 0.359375 "/></g></g></g><g fill="#ffffff" fill-opacity="1"><g transform="translate(562.498526, 115.650013)"><g><path d="M 3.925781 2.375 C 3.5625 2.375 3.222656 2.304688 2.933594 2.195312 C 2.609375 2.050781 2.359375 1.890625 2.140625 1.675781 C 1.90625 1.441406 1.726562 1.171875 1.621094 0.882812 C 1.476562 0.558594 1.421875 0.234375 1.421875 -0.125 L 1.421875 -5.347656 C 1.421875 -5.707031 1.476562 -6.03125 1.621094 -6.355469 C 1.726562 -6.640625 1.90625 -6.910156 2.140625 -7.144531 C 2.359375 -7.363281 2.609375 -7.523438 2.933594 -7.667969 C 3.222656 -7.777344 3.5625 -7.847656 3.925781 -7.847656 L 6.480469 -7.847656 C 6.839844 -7.847656 7.164062 -7.777344 7.488281 -7.667969 C 7.777344 -7.523438 8.046875 -7.363281 8.28125 -7.144531 C 8.496094 -6.910156 8.65625 -6.640625 8.800781 -6.355469 C 8.910156 -6.03125 8.980469 -5.707031 8.980469 -5.347656 L 8.980469 -0.125 C 8.980469 0.234375 8.910156 0.558594 8.800781 0.882812 C 8.65625 1.171875 8.496094 1.441406 8.28125 1.675781 C 8.046875 1.890625 7.777344 2.050781 7.488281 2.195312 C 7.164062 2.304688 6.839844 2.375 6.480469 2.375 Z M 7.597656 -5.203125 C 7.597656 -5.632812 7.453125 -6.011719 7.164062 -6.300781 C 6.875 -6.589844 6.496094 -6.730469 6.066406 -6.730469 L 4.339844 -6.730469 C 3.886719 -6.730469 3.527344 -6.589844 3.238281 -6.300781 C 2.953125 -6.011719 2.808594 -5.632812 2.808594 -5.203125 L 2.808594 -0.269531 C 2.808594 0.160156 2.953125 0.539062 3.238281 0.828125 C 3.527344 1.117188 3.886719 1.261719 4.339844 1.261719 L 6.066406 1.261719 C 6.496094 1.261719 6.875 1.117188 7.164062 0.828125 C 7.453125 0.539062 7.597656 0.160156 7.597656 -0.269531 Z M 13.5 -6.929688 L 15.640625 -6.929688 L 15.640625 -5.8125 L 13.5 -5.8125 L 13.5 2.699219 L 12.113281 2.699219 L 12.113281 -13.734375 L 13.5 -13.734375 Z M 10.132812 -10.746094 L 10.132812 -9.628906 L 0.433594 -9.628906 L 0.433594 -10.746094 Z M 8.171875 -13.679688 L 8.171875 -12.5625 L 2.394531 -12.5625 L 2.394531 -13.679688 Z M 8.171875 -13.679688 "/></g></g></g><g fill="#ffffff" fill-opacity="1"><g transform="translate(578.518508, 115.650013)"><g><path d="M 14.308594 2.699219 L 12.925781 2.699219 L 12.925781 -13.734375 L 14.308594 -13.734375 Z M 1.402344 -13.5 L 8.605469 -13.5 L 7.757812 2.375 L 6.316406 2.375 L 7.144531 -12.382812 L 1.402344 -12.382812 Z M 1.402344 -13.5 "/></g></g></g></svg>