<svg xmlns="http://www.w3.org/2000/svg" xmlns:xlink="http://www.w3.org/1999/xlink" width="1500" zoomAndPan="magnify" viewBox="0 0 1125 225" height="300" preserveAspectRatio="xMidYMid meet" version="1.0"><defs><g/></defs><rect x="-112.5" width="1350" fill="#ffffff" y="-22.5" height="270" fill-opacity="1"/><rect x="-112.5" width="1350" fill="#ffffff" y="-22.5" height="270" fill-opacity="1"/><rect x="-112.5" width="1350" fill="#94a8b8" y="-22.5" height="270" fill-opacity="1"/><g fill="#ffffff" fill-opacity="1"><g transform="translate(495.719499, 115.650013)"><g><path d="M 3.90625 -6.066406 C 3.546875 -6.066406 3.203125 -6.121094 2.914062 -6.265625 C 2.59375 -6.371094 2.339844 -6.550781 2.125 -6.785156 C 1.890625 -7.003906 1.710938 -7.253906 1.601562 -7.578125 C 1.457031 -7.867188 1.402344 -8.207031 1.402344 -8.566406 L 1.402344 -10.996094 C 1.402344 -11.359375 1.457031 -11.683594 1.601562 -12.007812 C 1.710938 -12.292969 1.890625 -12.5625 2.125 -12.796875 C 2.339844 -13.015625 2.59375 -13.175781 2.914062 -13.320312 C 3.203125 -13.429688 3.546875 -13.5 3.90625 -13.5 L 6.820312 -13.5 C 7.183594 -13.5 7.507812 -13.429688 7.828125 -13.320312 C 8.117188 -13.175781 8.386719 -13.015625 8.621094 -12.796875 C 8.839844 -12.5625 9 -12.292969 9.144531 -12.007812 C 9.253906 -11.683594 9.324219 -11.359375 9.324219 -10.996094 L 9.324219 -8.566406 C 9.324219 -8.207031 9.253906 -7.867188 9.144531 -7.578125 C 9 -7.253906 8.839844 -7.003906 8.621094 -6.785156 C 8.386719 -6.550781 8.117188 -6.371094 7.828125 -6.265625 C 7.507812 -6.121094 7.183594 -6.066406 6.820312 -6.066406 Z M 2.050781 2.699219 L 2.050781 -1.3125 L 12.925781 -1.3125 L 12.925781 -3.1875 L 2.050781 -3.1875 L 2.050781 -4.265625 L 14.308594 -4.265625 L 14.308594 -0.253906 L 3.4375 -0.253906 L 3.4375 1.621094 L 14.632812 1.621094 L 14.632812 2.699219 Z M 7.9375 -10.855469 C 7.9375 -11.285156 7.792969 -11.664062 7.507812 -11.953125 C 7.21875 -12.238281 6.839844 -12.382812 6.40625 -12.382812 L 4.320312 -12.382812 C 3.871094 -12.382812 3.511719 -12.238281 3.222656 -11.953125 C 2.933594 -11.664062 2.789062 -11.285156 2.789062 -10.855469 L 2.789062 -8.710938 C 2.789062 -8.261719 2.933594 -7.902344 3.222656 -7.613281 C 3.511719 -7.324219 3.871094 -7.183594 4.320312 -7.183594 L 6.40625 -7.183594 C 6.839844 -7.183594 7.21875 -7.324219 7.507812 -7.613281 C 7.792969 -7.902344 7.9375 -8.261719 7.9375 -8.710938 Z M 12.925781 -10.277344 L 12.925781 -13.734375 L 14.308594 -13.734375 L 14.308594 -5.347656 L 12.925781 -5.347656 L 12.925781 -9.160156 L 10.332031 -9.160156 L 10.332031 -10.277344 Z M 12.925781 -10.277344 "/></g></g></g><g fill="#ffffff" fill-opacity="1"><g transform="translate(511.739482, 115.650013)"><g><path d="M 1.816406 2.699219 L 1.816406 -3.007812 L 14.21875 -3.007812 L 14.21875 2.699219 Z M 12.835938 -1.890625 L 3.203125 -1.890625 L 3.203125 1.585938 L 12.835938 1.585938 Z M 0.757812 -4.734375 L 0.757812 -5.851562 L 15.265625 -5.851562 L 15.265625 -4.734375 Z M 3.871094 -7.558594 C 3.238281 -7.558594 2.734375 -7.757812 2.339844 -8.171875 C 1.925781 -8.566406 1.726562 -9.070312 1.726562 -9.703125 L 1.726562 -11.359375 C 1.726562 -11.96875 1.925781 -12.492188 2.339844 -12.90625 C 2.734375 -13.300781 3.238281 -13.519531 3.871094 -13.519531 L 12.1875 -13.519531 C 12.796875 -13.519531 13.320312 -13.300781 13.734375 -12.90625 C 14.128906 -12.492188 14.328125 -11.96875 14.328125 -11.359375 L 14.328125 -9.703125 C 14.328125 -9.070312 14.128906 -8.566406 13.734375 -8.171875 C 13.320312 -7.757812 12.796875 -7.558594 12.1875 -7.558594 Z M 12.941406 -11.230469 C 12.941406 -11.554688 12.816406 -11.84375 12.601562 -12.078125 C 12.367188 -12.292969 12.078125 -12.402344 11.753906 -12.402344 L 4.265625 -12.402344 C 3.925781 -12.402344 3.652344 -12.292969 3.4375 -12.078125 C 3.203125 -11.84375 3.097656 -11.554688 3.097656 -11.230469 L 3.097656 -9.828125 C 3.097656 -9.484375 3.203125 -9.214844 3.4375 -9 C 3.652344 -8.785156 3.925781 -8.675781 4.265625 -8.675781 L 11.753906 -8.675781 C 12.078125 -8.675781 12.367188 -8.785156 12.601562 -9 C 12.816406 -9.214844 12.941406 -9.484375 12.941406 -9.828125 Z M 12.941406 -11.230469 "/></g></g></g><g fill="#ffffff" fill-opacity="1"><g transform="translate(527.759464, 115.650013)"><g><path d="M 1.816406 2.699219 L 1.816406 -1.152344 L 12.851562 -1.152344 L 12.851562 -2.953125 L 1.816406 -2.953125 L 1.816406 -3.996094 L 14.238281 -3.996094 L 14.238281 -0.109375 L 3.203125 -0.109375 L 3.203125 1.65625 L 14.527344 1.65625 L 14.527344 2.699219 Z M 0.757812 -5.542969 L 0.757812 -6.660156 L 6.300781 -6.660156 L 6.300781 -10.042969 L 7.6875 -10.042969 L 7.6875 -6.660156 L 15.265625 -6.660156 L 15.265625 -5.542969 Z M 12.328125 -7.921875 L 12.761719 -12.402344 L 1.90625 -12.402344 L 1.90625 -13.519531 L 14.164062 -13.519531 L 13.644531 -7.921875 Z M 12.328125 -7.921875 "/></g></g></g><g fill="#ffffff" fill-opacity="1"><g transform="translate(543.779446, 115.650013)"><g><path d="M 14.308594 2.699219 L 12.925781 2.699219 L 12.925781 -13.734375 L 14.308594 -13.734375 Z M 3.90625 2.375 C 3.546875 2.375 3.203125 2.304688 2.914062 2.195312 C 2.59375 2.050781 2.339844 1.890625 2.125 1.675781 C 1.890625 1.441406 1.710938 1.171875 1.601562 0.882812 C 1.457031 0.558594 1.402344 0.234375 1.402344 -0.125 L 1.402344 -10.996094 C 1.402344 -11.359375 1.457031 -11.683594 1.601562 -12.007812 C 1.710938 -12.292969 1.890625 -12.5625 2.125 -12.796875 C 2.339844 -13.015625 2.59375 -13.175781 2.914062 -13.320312 C 3.203125 -13.429688 3.546875 -13.5 3.90625 -13.5 L 6.820312 -13.5 C 7.183594 -13.5 7.507812 -13.429688 7.828125 -13.320312 C 8.117188 -13.175781 8.386719 -13.015625 8.621094 -12.796875 C 8.839844 -12.5625 9 -12.292969 9.144531 -12.007812 C 9.253906 -11.683594 9.324219 -11.359375 9.324219 -10.996094 L 9.324219 -0.125 C 9.324219 0.234375 9.253906 0.558594 9.144531 0.882812 C 9 1.171875 8.839844 1.441406 8.621094 1.675781 C 8.386719 1.890625 8.117188 2.050781 7.828125 2.195312 C 7.507812 2.304688 7.183594 2.375 6.820312 2.375 Z M 7.9375 -10.855469 C 7.9375 -11.285156 7.792969 -11.664062 7.507812 -11.953125 C 7.21875 -12.238281 6.839844 -12.382812 6.40625 -12.382812 L 4.320312 -12.382812 C 3.871094 -12.382812 3.511719 -12.238281 3.222656 -11.953125 C 2.933594 -11.664062 2.789062 -11.285156 2.789062 -10.855469 L 2.789062 -0.269531 C 2.789062 0.160156 2.933594 0.539062 3.222656 0.828125 C 3.511719 1.117188 3.871094 1.261719 4.320312 1.261719 L 6.40625 1.261719 C 6.839844 1.261719 7.21875 1.117188 7.507812 0.828125 C 7.792969 0.539062 7.9375 0.160156 7.9375 -0.269531 Z M 7.9375 -10.855469 "/></g></g></g><g fill="#ffffff" fill-opacity="1"><g transform="translate(559.799428, 115.650013)"><g><path d="M 3.742188 2.375 C 3.382812 2.375 3.042969 2.304688 2.753906 2.195312 C 2.429688 2.050781 2.179688 1.890625 1.960938 1.675781 C 1.726562 1.441406 1.546875 1.171875 1.441406 0.882812 C 1.296875 0.558594 1.242188 0.234375 1.242188 -0.125 L 1.242188 -10.996094 C 1.242188 -11.359375 1.296875 -11.683594 1.441406 -12.007812 C 1.546875 -12.292969 1.726562 -12.5625 1.960938 -12.796875 C 2.179688 -13.015625 2.429688 -13.175781 2.753906 -13.320312 C 3.042969 -13.429688 3.382812 -13.5 3.742188 -13.5 L 6.660156 -13.5 C 7.019531 -13.5 7.34375 -13.429688 7.667969 -13.320312 C 7.957031 -13.175781 8.226562 -13.015625 8.460938 -12.796875 C 8.675781 -12.5625 8.839844 -12.292969 8.980469 -12.007812 C 9.089844 -11.683594 9.160156 -11.359375 9.160156 -10.996094 L 9.160156 -0.125 C 9.160156 0.234375 9.089844 0.558594 8.980469 0.882812 C 8.839844 1.171875 8.675781 1.441406 8.460938 1.675781 C 8.226562 1.890625 7.957031 2.050781 7.667969 2.195312 C 7.34375 2.304688 7.019531 2.375 6.660156 2.375 Z M 7.777344 -10.855469 C 7.777344 -11.285156 7.632812 -11.664062 7.34375 -11.953125 C 7.054688 -12.238281 6.679688 -12.382812 6.246094 -12.382812 L 4.15625 -12.382812 C 3.707031 -12.382812 3.347656 -12.238281 3.058594 -11.953125 C 2.773438 -11.664062 2.628906 -11.285156 2.628906 -10.855469 L 2.628906 -0.269531 C 2.628906 0.160156 2.773438 0.539062 3.058594 0.828125 C 3.347656 1.117188 3.707031 1.261719 4.15625 1.261719 L 6.246094 1.261719 C 6.679688 1.261719 7.054688 1.117188 7.34375 0.828125 C 7.632812 0.539062 7.777344 0.160156 7.777344 -0.269531 Z M 13.5 -9.503906 L 15.640625 -9.503906 L 15.640625 -8.386719 L 13.5 -8.386719 L 13.5 -3.582031 L 15.640625 -3.582031 L 15.640625 -2.464844 L 13.5 -2.464844 L 13.5 2.699219 L 12.113281 2.699219 L 12.113281 -13.734375 L 13.5 -13.734375 Z M 13.5 -9.503906 "/></g></g></g><g fill="#ffffff" fill-opacity="1"><g transform="translate(575.81941, 115.650013)"><g><path d="M 14.308594 2.699219 L 12.925781 2.699219 L 12.925781 -13.734375 L 14.308594 -13.734375 Z M 1.402344 -13.5 L 8.605469 -13.5 L 7.757812 2.375 L 6.316406 2.375 L 7.144531 -12.382812 L 1.402344 -12.382812 Z M 1.402344 -13.5 "/></g></g></g><g fill="#ffffff" fill-opacity="1"><g transform="translate(591.839392, 115.650013)"><g/></g></g><g fill="#ffffff" fill-opacity="1"><g transform="translate(597.239386, 115.650013)"><g><path d="M 8.011719 -12.472656 L 2.878906 -3.472656 L 1.296875 -3.472656 L 7.21875 -13.5 L 8.839844 -13.5 L 14.742188 -3.472656 L 13.15625 -3.472656 Z M 0.757812 2.339844 L 0.757812 1.222656 L 7.308594 1.222656 L 7.308594 -4.933594 L 8.695312 -4.933594 L 8.695312 1.222656 L 15.265625 1.222656 L 15.265625 2.339844 Z M 0.757812 2.339844 "/></g></g></g><g fill="#ffffff" fill-opacity="1"><g transform="translate(613.259368, 115.650013)"><g><path d="M 11.375 -6.929688 L 13.355469 -6.929688 L 13.355469 -13.734375 L 14.632812 -13.734375 L 14.632812 2.699219 L 13.355469 2.699219 L 13.355469 -5.8125 L 11.375 -5.8125 L 11.375 2.464844 L 10.097656 2.464844 L 10.097656 -13.589844 L 11.375 -13.589844 Z M 1.457031 -13.5 L 7.722656 -13.5 L 6.875 2.375 L 5.4375 2.375 L 6.265625 -12.382812 L 1.457031 -12.382812 Z M 1.457031 -13.5 "/></g></g></g></svg>