<svg xmlns="http://www.w3.org/2000/svg" xmlns:xlink="http://www.w3.org/1999/xlink" width="1500" zoomAndPan="magnify" viewBox="0 0 1125 225" height="300" preserveAspectRatio="xMidYMid meet" version="1.0"><defs><g/></defs><rect x="-112.5" width="1350" fill="#ffffff" y="-22.5" height="270" fill-opacity="1"/><rect x="-112.5" width="1350" fill="#ffffff" y="-22.5" height="270" fill-opacity="1"/><rect x="-112.5" width="1350" fill="#94a8b8" y="-22.5" height="270" fill-opacity="1"/><g fill="#ffffff" fill-opacity="1"><g transform="translate(530.458562, 115.650013)"><g><path d="M 8.011719 -12.292969 L 2.878906 -4.914062 L 1.296875 -4.914062 L 6.589844 -12.4375 L 1.835938 -12.4375 L 1.835938 -13.5 L 14.21875 -13.5 L 14.21875 -12.4375 L 9.449219 -12.4375 L 14.742188 -4.914062 L 13.15625 -4.914062 Z M 7.308594 2.789062 L 7.308594 -1.367188 L 0.757812 -1.367188 L 0.757812 -2.484375 L 15.265625 -2.484375 L 15.265625 -1.367188 L 8.695312 -1.367188 L 8.695312 2.789062 Z M 7.308594 2.789062 "/></g></g></g><g fill="#ffffff" fill-opacity="1"><g transform="translate(546.478544, 115.650013)"><g><path d="M 9.324219 -13.5 L 9.324219 -5.273438 L 1.402344 -5.273438 L 1.402344 -13.5 L 2.789062 -13.5 L 2.789062 -10.746094 L 7.9375 -10.746094 L 7.9375 -13.5 Z M 12.925781 -8.027344 L 12.925781 -10.511719 L 10.332031 -10.511719 L 10.332031 -11.628906 L 12.925781 -11.628906 L 12.925781 -13.734375 L 14.308594 -13.734375 L 14.308594 -1.566406 L 12.925781 -1.566406 L 12.925781 -6.910156 L 10.332031 -6.910156 L 10.332031 -8.027344 Z M 2.050781 2.519531 L 2.050781 -3.042969 L 3.4375 -3.042969 L 3.4375 1.402344 L 14.632812 1.402344 L 14.632812 2.519531 Z M 7.9375 -6.355469 L 7.9375 -9.664062 L 2.789062 -9.664062 L 2.789062 -6.355469 Z M 7.9375 -6.355469 "/></g></g></g><g fill="#ffffff" fill-opacity="1"><g transform="translate(562.498526, 115.650013)"><g><path d="M 8.011719 -12.472656 L 2.878906 -3.472656 L 1.296875 -3.472656 L 7.21875 -13.5 L 8.839844 -13.5 L 14.742188 -3.472656 L 13.15625 -3.472656 Z M 0.757812 2.339844 L 0.757812 1.222656 L 7.308594 1.222656 L 7.308594 -4.933594 L 8.695312 -4.933594 L 8.695312 1.222656 L 15.265625 1.222656 L 15.265625 2.339844 Z M 0.757812 2.339844 "/></g></g></g><g fill="#ffffff" fill-opacity="1"><g transform="translate(578.518508, 115.650013)"><g><path d="M 11.375 -6.929688 L 13.355469 -6.929688 L 13.355469 -13.734375 L 14.632812 -13.734375 L 14.632812 2.699219 L 13.355469 2.699219 L 13.355469 -5.8125 L 11.375 -5.8125 L 11.375 2.464844 L 10.097656 2.464844 L 10.097656 -13.589844 L 11.375 -13.589844 Z M 1.457031 -13.5 L 7.722656 -13.5 L 6.875 2.375 L 5.4375 2.375 L 6.265625 -12.382812 L 1.457031 -12.382812 Z M 1.457031 -13.5 "/></g></g></g></svg>