<svg xmlns="http://www.w3.org/2000/svg" xmlns:xlink="http://www.w3.org/1999/xlink" width="1500" zoomAndPan="magnify" viewBox="0 0 1125 225" height="300" preserveAspectRatio="xMidYMid meet" version="1.0"><defs><g/></defs><rect x="-112.5" width="1350" fill="#ffffff" y="-22.5" height="270" fill-opacity="1"/><rect x="-112.5" width="1350" fill="#94a8b8" y="-22.5" height="270" fill-opacity="1"/><g fill="#ffffff" fill-opacity="1"><g transform="translate(530.458562, 115.65002)"><g><path d="M 3.960938 2.375 C 3.601562 2.375 3.257812 2.304688 2.96875 2.195312 C 2.644531 2.050781 2.394531 1.890625 2.179688 1.675781 C 1.945312 1.441406 1.765625 1.171875 1.65625 0.882812 C 1.511719 0.558594 1.457031 0.234375 1.457031 -0.125 L 1.457031 -10.996094 C 1.457031 -11.359375 1.511719 -11.683594 1.65625 -12.007812 C 1.765625 -12.292969 1.945312 -12.5625 2.179688 -12.796875 C 2.394531 -13.015625 2.644531 -13.175781 2.96875 -13.320312 C 3.257812 -13.429688 3.601562 -13.5 3.960938 -13.5 L 5.578125 -13.5 C 5.941406 -13.5 6.265625 -13.429688 6.589844 -13.320312 C 6.875 -13.175781 7.144531 -13.015625 7.378906 -12.796875 C 7.597656 -12.5625 7.757812 -12.292969 7.902344 -12.007812 C 8.011719 -11.683594 8.082031 -11.359375 8.082031 -10.996094 L 8.082031 -9.503906 L 10.261719 -9.503906 L 10.261719 -13.589844 L 11.539062 -13.589844 L 11.539062 2.464844 L 10.261719 2.464844 L 10.261719 -2.464844 L 8.082031 -2.464844 L 8.082031 -0.125 C 8.082031 0.234375 8.011719 0.558594 7.902344 0.882812 C 7.757812 1.171875 7.597656 1.441406 7.378906 1.675781 C 7.144531 1.890625 6.875 2.050781 6.589844 2.195312 C 6.265625 2.304688 5.941406 2.375 5.578125 2.375 Z M 6.75 -10.855469 C 6.75 -11.285156 6.605469 -11.664062 6.316406 -11.953125 C 6.03125 -12.238281 5.652344 -12.382812 5.21875 -12.382812 L 4.320312 -12.382812 C 3.871094 -12.382812 3.511719 -12.238281 3.222656 -11.953125 C 2.933594 -11.664062 2.789062 -11.285156 2.789062 -10.855469 L 2.789062 -0.269531 C 2.789062 0.160156 2.933594 0.539062 3.222656 0.828125 C 3.511719 1.117188 3.871094 1.261719 4.320312 1.261719 L 5.21875 1.261719 C 5.652344 1.261719 6.03125 1.117188 6.316406 0.828125 C 6.605469 0.539062 6.75 0.160156 6.75 -0.269531 Z M 13.355469 2.699219 L 13.355469 -13.734375 L 14.632812 -13.734375 L 14.632812 2.699219 Z M 8.082031 -3.582031 L 10.261719 -3.582031 L 10.261719 -8.386719 L 8.082031 -8.386719 Z M 8.082031 -3.582031 "/></g></g></g><g fill="#ffffff" fill-opacity="1"><g transform="translate(546.478544, 115.65002)"><g><path d="M 3.742188 -5.4375 C 3.382812 -5.4375 3.042969 -5.488281 2.753906 -5.632812 C 2.429688 -5.742188 2.179688 -5.921875 1.960938 -6.15625 C 1.726562 -6.371094 1.546875 -6.625 1.441406 -6.949219 C 1.296875 -7.234375 1.242188 -7.578125 1.242188 -7.9375 L 1.242188 -10.996094 C 1.242188 -11.359375 1.296875 -11.683594 1.441406 -12.007812 C 1.546875 -12.292969 1.726562 -12.5625 1.960938 -12.796875 C 2.179688 -13.015625 2.429688 -13.175781 2.753906 -13.320312 C 3.042969 -13.429688 3.382812 -13.5 3.742188 -13.5 L 6.660156 -13.5 C 7.019531 -13.5 7.34375 -13.429688 7.667969 -13.320312 C 7.957031 -13.175781 8.226562 -13.015625 8.460938 -12.796875 C 8.675781 -12.5625 8.839844 -12.292969 8.980469 -12.007812 C 9.089844 -11.683594 9.160156 -11.359375 9.160156 -10.996094 L 9.160156 -7.9375 C 9.160156 -7.578125 9.089844 -7.234375 8.980469 -6.949219 C 8.839844 -6.625 8.675781 -6.371094 8.460938 -6.15625 C 8.226562 -5.921875 7.957031 -5.742188 7.667969 -5.632812 C 7.34375 -5.488281 7.019531 -5.4375 6.660156 -5.4375 Z M 7.777344 -10.855469 C 7.777344 -11.285156 7.632812 -11.664062 7.34375 -11.953125 C 7.054688 -12.238281 6.679688 -12.382812 6.246094 -12.382812 L 4.15625 -12.382812 C 3.707031 -12.382812 3.347656 -12.238281 3.058594 -11.953125 C 2.773438 -11.664062 2.628906 -11.285156 2.628906 -10.855469 L 2.628906 -8.082031 C 2.628906 -7.632812 2.773438 -7.273438 3.058594 -6.984375 C 3.347656 -6.695312 3.707031 -6.550781 4.15625 -6.550781 L 6.246094 -6.550781 C 6.679688 -6.550781 7.054688 -6.695312 7.34375 -6.984375 C 7.632812 -7.273438 7.777344 -7.632812 7.777344 -8.082031 Z M 12.113281 2.773438 L 12.113281 -2.304688 L 1.710938 -2.304688 L 1.710938 -3.421875 L 13.5 -3.421875 L 13.5 2.773438 Z M 13.5 -11.664062 L 15.640625 -11.664062 L 15.640625 -10.546875 L 13.5 -10.546875 L 13.5 -7.882812 L 15.640625 -7.882812 L 15.640625 -6.769531 L 13.5 -6.769531 L 13.5 -4.535156 L 12.113281 -4.535156 L 12.113281 -13.734375 L 13.5 -13.734375 Z M 13.5 -11.664062 "/></g></g></g><g fill="#ffffff" fill-opacity="1"><g transform="translate(562.498526, 115.65002)"><g><path d="M 3.925781 2.375 C 3.5625 2.375 3.222656 2.304688 2.933594 2.195312 C 2.609375 2.050781 2.359375 1.890625 2.140625 1.675781 C 1.90625 1.441406 1.726562 1.171875 1.621094 0.882812 C 1.476562 0.558594 1.421875 0.234375 1.421875 -0.125 L 1.421875 -5.347656 C 1.421875 -5.707031 1.476562 -6.03125 1.621094 -6.355469 C 1.726562 -6.640625 1.90625 -6.910156 2.140625 -7.144531 C 2.359375 -7.363281 2.609375 -7.523438 2.933594 -7.667969 C 3.222656 -7.777344 3.5625 -7.847656 3.925781 -7.847656 L 6.480469 -7.847656 C 6.839844 -7.847656 7.164062 -7.777344 7.488281 -7.667969 C 7.777344 -7.523438 8.046875 -7.363281 8.28125 -7.144531 C 8.496094 -6.910156 8.65625 -6.640625 8.800781 -6.355469 C 8.910156 -6.03125 8.980469 -5.707031 8.980469 -5.347656 L 8.980469 -0.125 C 8.980469 0.234375 8.910156 0.558594 8.800781 0.882812 C 8.65625 1.171875 8.496094 1.441406 8.28125 1.675781 C 8.046875 1.890625 7.777344 2.050781 7.488281 2.195312 C 7.164062 2.304688 6.839844 2.375 6.480469 2.375 Z M 7.597656 -5.203125 C 7.597656 -5.632812 7.453125 -6.011719 7.164062 -6.300781 C 6.875 -6.589844 6.496094 -6.730469 6.066406 -6.730469 L 4.339844 -6.730469 C 3.886719 -6.730469 3.527344 -6.589844 3.238281 -6.300781 C 2.953125 -6.011719 2.808594 -5.632812 2.808594 -5.203125 L 2.808594 -0.269531 C 2.808594 0.160156 2.953125 0.539062 3.238281 0.828125 C 3.527344 1.117188 3.886719 1.261719 4.339844 1.261719 L 6.066406 1.261719 C 6.496094 1.261719 6.875 1.117188 7.164062 0.828125 C 7.453125 0.539062 7.597656 0.160156 7.597656 -0.269531 Z M 13.5 -6.929688 L 15.640625 -6.929688 L 15.640625 -5.8125 L 13.5 -5.8125 L 13.5 2.699219 L 12.113281 2.699219 L 12.113281 -13.734375 L 13.5 -13.734375 Z M 10.132812 -10.746094 L 10.132812 -9.628906 L 0.433594 -9.628906 L 0.433594 -10.746094 Z M 8.171875 -13.679688 L 8.171875 -12.5625 L 2.394531 -12.5625 L 2.394531 -13.679688 Z M 8.171875 -13.679688 "/></g></g></g><g fill="#ffffff" fill-opacity="1"><g transform="translate(578.518508, 115.65002)"><g><path d="M 14.308594 2.699219 L 12.925781 2.699219 L 12.925781 -13.734375 L 14.308594 -13.734375 Z M 1.402344 -13.5 L 8.605469 -13.5 L 7.757812 2.375 L 6.316406 2.375 L 7.144531 -12.382812 L 1.402344 -12.382812 Z M 1.402344 -13.5 "/></g></g></g></svg>